<svg xmlns="http://www.w3.org/2000/svg" viewBox="0 0 183.62 116.59"><defs><style>.cls-1{fill:#ffe81f;}</style></defs><g id="Layer_2" data-name="Layer 2"><g id="Layer_2-2" data-name="Layer 2"><path class="cls-1" d="M172.43,13.88a.75.75,0,0,0-.24-.08c-1.54,0-3.4.4-3.69-1.88a1.91,1.91,0,0,1,1.89-2.2c1.85-.22,3.57-.09,3.85,2.34A3.9,3.9,0,0,1,172.43,13.88Z"/><path class="cls-1" d="M165.22,28.29l1.31,1.46c0,2.06-1.16,2.71-3,2.76-2.41.07-4.82.26-7.23.4-1-.21-1.66-.24-1.13,1.19,1.05,2.8,2,5.67,2.93,8.5a81.39,81.39,0,0,1,1.71,22.61,21.93,21.93,0,0,0-.71,5.1l-1.63,6.9c-.71,2-1.4,3.93-2.15,5.88-1.28,3.35-1.3,3.35,2.39,3.06l8.79.45,1.25,1.66c-.36,1.82-1.52,2.39-3.29,2.32-2.34-.09-4.69,0-7,0-5.44-.83-6.49-.19-8.45,5.32l13.11.29h.7c.9.07,1.81.11,2.72.21,3.29.34,6.64-.2,9.89.72,1.17,2.59.39,3.79-2.46,3.71-5.31-.14-10.62-.31-15.94-.46l-5.16-.17c-2.74.05-5.91-1.73-7.94,2.05,1.89.12,3.63.24,5.38.34,1.36.08,2.37.63,2.26,2.13s-1.11,2-2.48,2l-5.31-.11a31.53,31.53,0,0,0-6.44-.2,41.24,41.24,0,0,0-8.38-.39,2.3,2.3,0,0,0-2.36.3c-2.43,1.51-4.89,3-7.34,4.43a1.09,1.09,0,0,0-1,.51l-9.43,3.38A61.88,61.88,0,0,1,72.55,113l-9.32-4.33a24.29,24.29,0,0,0-6.07-3.29,9.69,9.69,0,0,0-3.26-1.74,72,72,0,0,0-9.39-5,80.69,80.69,0,0,0-9.36-5,63,63,0,0,0-8.54-4.46l-.83-.53-9.46-5-9.44-5A22.08,22.08,0,0,0,3.82,77C1.12,76-.26,74.24,0,71.31l.25-7.54a3.68,3.68,0,0,1,3.15-1.23c5.15.05,10.3-.08,15.45.07,2.11.07,2.68-.52,2.63-2.64-.15-5.64,0-5.64-5.76-5.24H6.46l-5.1-.26C-.55,53,.53,50.87,0,49.09l.18-6.6a8.28,8.28,0,0,1,2.72-1.8c3.78-2,7.57-4,11.36-6a78.66,78.66,0,0,0,9.41-4.93l19.75-10-3.67-2.52-2.13-2.42A12.07,12.07,0,0,1,38,4.69l1.85-2,3.48-2L51.71.2a22.21,22.21,0,0,0,5.76,0,5.17,5.17,0,0,0,1.22.16c3.83-.37,7.14.14,8.57,4.47.37,1.14,1.61.87,2.34.46,3.72-2.09,7.85-2.87,11.86-4.06L86.27.35,94.52,0l5.27.36a68.92,68.92,0,0,1,21.66,7c2.34,1.25,4.14,3.75,7,3.79,11.21.15,22.41-.51,33.59-1.25h0c1.83.21,4,0,3.64,2.94a3.66,3.66,0,0,1-3.1,1.35q-8.12.3-16.21.73c-.75,0-1.68-.31-2.24.6,2.17,2.32,3.27,6.41,7.82,4.5a12.52,12.52,0,0,0,1.73.07c1.5-.14,2.6.47,2.67,2s-1.13,2-2.53,2.19c-1,.11-2.18-.19-2.9.45.54,4.08,3.23,4.43,6.41,3.94a4.45,4.45,0,0,0,.7-.24Zm-83.54-.06c-.07.29,0,.48.36.46L82,28.23A99.72,99.72,0,0,0,82,14.51c0-2.62.06-5.23.15-7.84,0-1.09-.37-1.25-1.34-1a58.7,58.7,0,0,0-9.59,3.21c-.9.39-1.39.84-.67,1.88,1.35,1.92,2.26,4.14,3.9,5.88A90.76,90.76,0,0,0,81.68,28.23Zm11.71,84.1,2.75.08c1,0,1.29-.46,1.29-1.4q0-15,0-30.11c0-1-.2-1.37-1.28-1.21a18.87,18.87,0,0,1-8.51-.62c-1.3-.41-1.42.2-1.39,1.22.06,2.19.09,4.37.13,6.56,0,6.31-.09,12.62-.1,18.92C86.27,112.79,86.28,112.79,93.39,112.33ZM86.5,13.53c0,7.49-.1,15-.11,22.48,0,4.11,0,4.11,3.94,3.55,1-.14,2-.26,3-.38l4.14.48c-.07-9.75-.16-19.29-.2-28.83,0-6.8,0-6.8-6.84-6.48-4.06.19-4.07.19-4,4.13C86.38,10.16,86.45,11.85,86.5,13.53Zm31.31,6.07c1.61-1.61,3.19-3.25,4.84-4.81.87-.82.71-1.33-.22-1.91a55.11,55.11,0,0,0-19.64-7.74c-1.31-.24-1.39.32-1.36,1.31.08,2.36.1,4.71.14,7.07-.31,7.61-.25,15.22-.11,23.61C107.17,30.81,112.86,25.56,117.81,19.6Zm5,84.06c.35-.22.32-.44,0-.67l-7.58-7.49c-4.33-4.53-8.72-9-13.23-13.09-.15,6.34-.29,12.56-.44,18.79,0,3.12,0,6.24-.14,9.36,0,1.06.33,1.26,1.31,1.07C109.93,110.2,116.78,107.93,122.83,103.66Zm-46.71-56c.27.42.49.25.7,0l3.92-4c1.85-1.54,2.28-5.06.76-7.52C75.22,26,68.89,15.88,62.61,5.76a2.08,2.08,0,0,0-1.94-1.3c-4.9.06-9.82-.07-14.72.12-3.3.13-5,2.25-5.05,5.69.42,3.35,2.12,5.07,5.34,5.21,2.62.11,5.24.16,7.85,0a3.19,3.19,0,0,1,3.27,1.79C59,20.17,60.75,23,62.49,25.75Q69.29,36.72,76.12,47.65ZM37.65,76.46c-.65-2.78-1.36-5.55-1.93-8.36A1.42,1.42,0,0,0,34,66.73q-12.39.1-24.78.16c-1.26,0-2.52-.12-3.78-.14-.37,0-.8-.12-1.07.4-.83,1.53.29,5.54,1.83,6.36q20,10.59,40,21.19c.51.27.95.79,1.62.22A60.81,60.81,0,0,1,37.65,76.46Zm-.06-35a68.23,68.23,0,0,1,9.9-18.63,4.67,4.67,0,0,0-1.24.1Q25.78,33.52,5.3,44.16a1.58,1.58,0,0,0-1,1.32c-.67,4.39-.24,4.93,4.09,4.93.83,0,1.67-.08,2.51-.12,7.76.05,15.52.08,23.28.16a1.41,1.41,0,0,0,1.67-1.37C36.39,46.51,37,44,37.59,41.43Zm13.08,8.9H70.73c1.92.39,1.8-.32,1-1.65C67.13,41.28,62.61,33.83,58,26.44c-1.09-1.75-1.76-4.76-3.51-4.83S51.61,24.37,50.34,26A54,54,0,0,0,40.12,48.71c-.25,1.31,0,1.81,1.43,1.75C44.59,50.33,47.63,50.36,50.67,50.33ZM82,85c.17-4.31,1.28-8.9-3.62-11.68A3.34,3.34,0,0,1,77,71.57c-1.6-5-5.42-5.37-9.73-4.81-.41,0-.83.08-1.24.11q-8.26-.32-16.53,0c-2.61,0-5.23,0-7.84-.17-1.93-.14-1.93.66-1.63,2.16A53.36,53.36,0,0,0,52.41,94a54.07,54.07,0,0,0,29,17.18c.18-3.75.36-7.45.54-11.14C82.23,95.06,82.17,90.05,82,85Zm23.65-41.71A21.84,21.84,0,0,1,113.69,61c-.79,6.22-3.36,11.52-8.63,15.09-2.06,1.39-1.5,2-.12,3.38,6.48,6.28,13,12.52,19.23,19.07,2.54,2.69,5.19,3.75,8.68,3.18,3.06.49,5.7.52,8-2.38,11.72-14.5,16.77-30.87,14.23-49.38A57.47,57.47,0,0,0,145.07,24c-3-5.28-6.24-10.21-13.61-8.64a4.11,4.11,0,0,1-1.52,0,3.37,3.37,0,0,0-3.34,1.23c-7.23,7.71-14.53,15.34-21.78,23C102.76,41.75,102.8,41.79,105.62,43.32Zm-23.7,4.91a16.15,16.15,0,1,0,22.78-.06A16.14,16.14,0,0,0,81.92,48.23Zm-8.5,6.5c-.84,0-1.59-.11-2.33-.11H31.24c-5.75,0-5.65,0-5.74,5.85,0,1.87.59,2.16,2.28,2.15,13.45-.07,26.9,0,40.35,0,4.66,0,4.66,0,5-4.47,0-.76.21-1.51.29-2.26C73.41,55.52,73.4,55.2,73.42,54.73Z"/><path class="cls-1" d="M128.38,60.43c-2.74,2.56-4.54,2.37-6.72-.72-.22-2.06.37-3.74,2.44-4.49A3.31,3.31,0,0,1,128,56.36,3.83,3.83,0,0,1,128.38,60.43Z"/><path class="cls-1" d="M123.64,41.23a3.4,3.4,0,0,1-.07,5,3.55,3.55,0,0,1-5,0,3.61,3.61,0,0,1,.09-5A3.45,3.45,0,0,1,123.64,41.23Z"/><path class="cls-1" d="M143.63,60.49c-2.77,2.37-4.15,2.3-6.65-.35-.5-2.14.06-3.91,2.13-4.83,1.66-.74,3.12-.13,4.23,1.31C144.28,57.85,143.88,59.17,143.63,60.49Z"/><path class="cls-1" d="M132.89,36.05a3.5,3.5,0,0,1,5,0,3.66,3.66,0,0,1-.12,5.19,3.61,3.61,0,0,1-5-.25A3.46,3.46,0,0,1,132.89,36.05Z"/><path class="cls-1" d="M118.66,75.91a3.34,3.34,0,0,1,0-4.94A3.51,3.51,0,0,1,123.59,76,3.33,3.33,0,0,1,118.66,75.91Z"/><path class="cls-1" d="M137.79,76.1a3.48,3.48,0,0,1,.15,5,3.57,3.57,0,1,1-5.11-5A3.48,3.48,0,0,1,137.79,76.1Z"/><path class="cls-1" d="M178.17,97.92a3.2,3.2,0,0,1,2.24-.94c1.31,0,2.66,0,3.1,1.51s-.62,2.27-1.88,2.77C179.55,101.1,177.47,101,178.17,97.92Z"/></g></g></svg>