<svg xmlns="http://www.w3.org/2000/svg" viewBox="0 0 40.43 46.59"><defs><style>.cls-1{fill:#ffe81f;}</style></defs><g id="Layer_2" data-name="Layer 2"><g id="Layer_2-2" data-name="Layer 2"><path class="cls-1" d="M21.46,27.63H18.93a4.27,4.27,0,0,0-3.11,1.09L.7,43.51A1.76,1.76,0,0,0,0,44.74,1.57,1.57,0,0,0,.93,46a4.47,4.47,0,0,0,2.37.57A3.74,3.74,0,0,0,6,45.75L20.22,31.94,34.33,45.75a4,4,0,0,0,2.79.84A4.53,4.53,0,0,0,39.5,46a1.57,1.57,0,0,0,.93-1.28,1.84,1.84,0,0,0-.7-1.23L24.57,28.72A4.27,4.27,0,0,0,21.46,27.63Z"/><path class="cls-1" d="M21.46,0H18.93a4.27,4.27,0,0,0-3.11,1.09L.7,15.88A1.76,1.76,0,0,0,0,17.11a1.57,1.57,0,0,0,.93,1.28A4.47,4.47,0,0,0,3.3,19,3.74,3.74,0,0,0,6,18.12L20.22,4.31,34.33,18.12a4,4,0,0,0,2.79.84,4.53,4.53,0,0,0,2.38-.57,1.57,1.57,0,0,0,.93-1.28,1.84,1.84,0,0,0-.7-1.23L24.57,1.09A4.27,4.27,0,0,0,21.46,0Z"/></g></g></svg>