<svg xmlns="http://www.w3.org/2000/svg" viewBox="0 0 396.23 50.09"><defs><style>.cls-1{fill:#fdc640;}.cls-2{fill:#fff;}.cls-3{fill:#fdc53e;}</style></defs><g id="Layer_2" data-name="Layer 2"><g id="Layer_2-2" data-name="Layer 2"><path class="cls-1" d="M308.24,26.45c0-4.19.06-8.38,0-12.57,0-1.52.47-2.13,1.95-1.94,2.05.25,4.14-.45,6.21.61.77.39,1.93-.63,3-.62,4.25.05,8.5,0,12.75,0,1.64,0,2.91,1.1,4.32,1.43,1.26.29,2.46-1.52,4.17-1.46,4,.13,8.08,0,12.11.06,3.38.07,4.72,1.48,4.75,5,.05,7.45,0,14.89.05,22.33,0,1.58-.48,2.13-2.06,2.15-5.63.06-5.63.11-5.63-5.58,0-5.85-.05-11.71,0-17.56,0-2-.75-2.9-2.75-2.84-2.41.07-4.82,0-7.23,0-2,0-2.81.88-2.8,2.88,0,6.86-.06,13.73,0,20.59,0,1.85-.44,2.55-2.37,2.52-5.57-.07-5.57,0-5.58-5.71s-.08-11.71,0-17.56c.05-2.16-.79-2.8-2.75-2.72-2.54.09-5.1,0-7.64,0-2.23,0-2.89.74-2.9,3,0,6.86-.07,13.73,0,20.59,0,1.79-.54,2.36-2.3,2.36-5.39,0-5.39,0-5.39-5.46Z"/><path class="cls-2" d="M18.72,22.33c0-4.77,0-9.53,0-14.3,0-3.45,1.39-4.87,4.78-4.89q10.83-.06,21.66,0c3.32,0,4.6,1.35,4.7,4.74.06,2.31,0,4.62,0,6.93,0,1.07-.19,1.6-1.38,1.5-2.1-.18-4.79.86-6.16-.38S42,12,42,9.9c-.07-3.19,0-3.19-3.23-3.19s-6.51.06-9.77,0c-1.59,0-2.29.42-2.28,2.18.06,8.88,0,17.77,0,26.65,0,1.38.31,2.13,1.88,2.09,3.82-.09,7.65-.08,11.47,0,1.41,0,1.91-.59,1.91-1.91,0-2.09,0-4.19,0-6.28,0-1,.32-1.49,1.34-1.37.14,0,.28,0,.42,0,2,.09,4.51-.83,5.75.34s.39,3.81.4,5.8c0,6.4-.69,7.09-6.93,7.09s-12.46,0-18.69,0c-4.27,0-5.52-1.34-5.52-5.73S18.72,26.73,18.72,22.33Z"/><path class="cls-1" d="M230.5,22.18c0-4.7,0-9.39,0-14.09a4.08,4.08,0,0,1,4.37-4.41q11.26-.06,22.52,0c3.1,0,4.48,1.49,4.51,4.7,0,2.23-.05,4.48,0,6.71,0,1.23-.41,1.58-1.59,1.63-6.42.27-6.42.3-6.45-6.2,0-3.31,0-3.32-3.31-3.33s-6.52,0-9.77,0c-1.63,0-2.28.69-2.28,2.35q.06,13.11,0,26.22c0,1.56.73,2.1,2,2.11,3.89,0,7.78,0,11.68,0,1.17,0,1.65-.58,1.64-1.74,0-1.88.1-3.76,0-5.63-.09-1.55.29-2.3,2-2.15a26.22,26.22,0,0,0,4.25,0c1.34-.09,1.93.33,1.86,1.8-.1,2.31,0,4.63-.05,6.94-.05,2.57-1.35,4.2-3.85,4.24-7.78.12-15.57.14-23.36,0-2.87,0-4.15-1.66-4.17-4.63,0-4.84,0-9.68,0-14.52Z"/><path class="cls-2" d="M207.48,41.27c-2.9,0-5.8,0-8.7,0-3.35-.05-4.79-1.53-4.87-4.9-.08-3.67-.08-3.67,3.46-3.67H198c3.12,0,3.16,0,3.37,3.14.08,1.25.55,1.85,1.79,1.84q4.37,0,8.71,0c1.15,0,1.65-.53,1.63-1.71,0-1.94,0-3.9,0-5.84,0-1.41-.61-1.88-2-1.87-4.17.05-8.35,0-12.53,0-3.95,0-5.2-1.25-5.28-5.3,0-2.38-.06-4.76.06-7.14.14-2.84,1.51-4.27,4.27-4.3q9.24-.12,18.48,0c2.67,0,3.94,1.39,4.22,4.13.45,4.48.45,4.48-3.86,4.48a3.42,3.42,0,0,0-.64,0c-2.17.39-3.31-.23-2.88-2.76.3-1.77-.61-2.44-2.35-2.37-2.54.1-5.09.05-7.64,0-1.41,0-2.1.53-2,2a50.11,50.11,0,0,1,0,5.2c-.11,1.76.49,2.44,2.28,2.4,4-.11,8.07-.05,12.11,0s5.3,1.38,5.32,5.5c0,2.17,0,4.34,0,6.5-.06,3-1.5,4.54-4.46,4.61S210.53,41.27,207.48,41.27Z"/><path class="cls-2" d="M178.77,14.14c2.56-3.72,6.27-2.61,9.61-2.64,1.66,0,.69,1.53.86,2.35s.26,1.64-1,1.58c-1.48-.06-3,0-4.46,0-3.83,0-5,1.21-5.05,5.19,0,6.13-.06,12.27,0,18.4,0,1.74-.35,2.35-2.18,2.31-5.41-.1-5.41,0-5.42-5.47,0-7.51.05-15,0-22.51,0-1.55.43-2,1.89-1.88a14.78,14.78,0,0,0,3.39,0C178.34,11.2,179.17,11.88,178.77,14.14Z"/><path class="cls-1" d="M9.44,36.64c0,4.38-.43,4.78-5,4.77C.69,41.4,0,40.72,0,37.14c0-4.92.42-5.36,4.93-5.33C9,31.83,9.46,32.35,9.44,36.64Z"/><path class="cls-2" d="M123.7.51c-1.24-1-3.8-.2-5.77-.33-1.27-.08-1.51.43-1.49,1.61.07,3.53,0,7.06,0,11.21-1.51-1.59-3-1.53-4.49-1.52H100.51c-4,0-5.32,1.32-5.33,5.46,0,5.92,0,11.84,0,17.76,0,5.72.89,6.58,6.58,6.58,2.91,0,5.82-.17,8.71,0,2.67.2,5.28-1.09,8-.11,1.07.39,2.4,0,3.59.09,1.65.18,2.12-.38,2.11-2.11-.09-11,0-21.95-.07-32.93C124.09,4.28,125,1.55,123.7.51Zm-7.22,34.82c0,1.75-.81,2.3-2.33,2.3-3.18,0-6.37-.05-9.56,0-1.42,0-1.81-.63-1.78-2,.06-3.1,0-6.21,0-9.32h0c0-3,.06-6.07,0-9.1,0-1.63.62-2.17,2.13-2.15,3,.05,6.09,0,9.14,0,1.66,0,2.44.67,2.42,2.47Q116.4,26.44,116.48,35.33Z"/><path class="cls-1" d="M396.17,16.54c0-2.66-1.36-4.51-3.7-4.45-5.87.15-11.81-1.24-17.61.75-.16.06-.47.09-.54,0-1.43-1.72-3.32-.76-5-.86-2.84-.17-2.85-.05-2.85,2.76V44.22c0,6,0,6,6,5.84,1.3,0,1.75-.44,1.71-1.76-.07-2.58,0-5.17,0-8a7.7,7.7,0,0,0,3,1.06c4.89,0,9.78.08,14.66,0,2.78,0,4.37-1.64,4.4-4.46C396.25,30.12,396.24,23.33,396.17,16.54Zm-7.62,1.8c-.12,2.8,0,5.62,0,8.43h0c0,2.88,0,5.77,0,8.65,0,1.75-.78,2.48-2.45,2.46-3,0-5.94,0-8.91,0-2.54,0-3-.52-3-3,0-5.48,0-11,0-16.44,0-2.07.89-2.89,2.78-2.89,3,0,5.93,0,8.9,0C387.72,15.46,388.63,16.25,388.55,18.34Z"/><path class="cls-2" d="M158.21,32.37c-3,0-3,0-3.07,3,0,1.47-.41,2.31-2,2.28-3.54-.06-7.08,0-10.62,0-1.26,0-1.79-.51-1.76-1.8.05-2,.11-4.05,0-6.07-.1-1.52.37-1.92,1.86-1.9,6.09.09,12.18,0,18.27.07,1.35,0,1.88-.31,1.83-1.78-.1-3.24,0-6.5,0-9.75-.06-3.46-1.45-4.87-4.8-4.9s-6.66,0-10,0-6.8-.05-10.19,0c-3,.06-4.48,1.47-4.52,4.54q-.12,10.4,0,20.8c0,2.65,1.49,4.34,4,4.38q10.62.16,21.24,0c2.69,0,4-1.56,4.11-4.25C162.72,32.37,162.72,32.37,158.21,32.37Zm-17.5-9.74c.09-1.81.08-3.62,0-5.42-.06-1.45.46-2.12,1.94-2.11,3.47.05,6.94,0,10.4,0,1.45,0,2.25.48,2.16,2.14-.13,2.23.71,5.13-.38,6.49s-4.09.31-6.25.45c-.21,0-.42,0-.63,0-1.91,0-3.83-.07-5.73,0C141,24.28,140.65,23.82,140.71,22.63Z"/><path class="cls-2" d="M86.56,15.75c-.06-2.9-1.66-4.24-4.55-4.25q-9.87-.06-19.75,0c-3.3,0-4.77,1.55-4.79,4.94q0,10,0,19.93c0,3.4,1.48,4.86,4.82,4.91s6.51,0,9.76,0,6.66,0,10,0c2.92-.07,4.53-1.44,4.57-4.28C86.71,29.9,86.71,22.82,86.56,15.75ZM77,37.65c-3.32-.08-6.64-.06-10,0-1.44,0-2-.54-2-2.05.06-6.13,0-12.26,0-18.38,0-1.46.54-2.12,2-2.1,3.39,0,6.78,0,10.18,0,1.32,0,1.91.62,1.89,2,0,3.1,0,6.2,0,9.3s0,6.06,0,9.09C79.13,37,78.54,37.68,77,37.65Z"/><path class="cls-3" d="M298.84,39c-.13-4.11,0-8.24,0-12.36s-.07-8.24,0-12.35c0-1.76-.47-2.29-2.26-2.43-2.9-.22-5.7.54-8.66.23a116.42,116.42,0,0,0-14.23-.1c-2.54,0-4,1.45-4.07,4q-.15,10.62,0,21.24c0,2,1,3.83,3.23,3.93,5.58.24,11.16.58,16.73-.19.35,0,.8-.33,1-.2,1.85,1.21,3.88.29,5.79.58S298.9,41,298.84,39Zm-7.94-2.81a1.58,1.58,0,0,1-1.81,1.65c-3.33,0-6.66,0-10,0-1.39,0-1.94-.71-1.89-2.19.1-3,0-5.92,0-8.88s0-6.07,0-9.11c0-1.38.54-2,1.83-2.07a70.79,70.79,0,0,1,10.6.16,1.28,1.28,0,0,1,1.27,1.4A165.85,165.85,0,0,1,290.9,36.19Z"/></g></g></svg>