<svg xmlns="http://www.w3.org/2000/svg" xmlns:xlink="http://www.w3.org/1999/xlink" viewBox="0 0 81.57 81.57"><defs><style>.cls-1{isolation:isolate;}.cls-2{mix-blend-mode:screen;}.cls-3{fill:#f9830d;opacity:0.07;}.cls-4{fill:#f98512;opacity:0.08;}.cls-5{fill:#f98816;opacity:0.1;}.cls-6{fill:#f98a1b;opacity:0.12;}.cls-7{fill:#f98d20;opacity:0.14;}.cls-8{fill:#fa8f25;opacity:0.16;}.cls-9{fill:#fa9229;opacity:0.18;}.cls-10{fill:#fa942e;opacity:0.19;}.cls-11{fill:#fa9633;opacity:0.21;}.cls-12{fill:#fa9938;opacity:0.23;}.cls-13{fill:#fa9b3c;opacity:0.25;}.cls-14{fill:#fa9e41;opacity:0.27;}.cls-15{fill:#faa046;opacity:0.29;}.cls-16{fill:#fba34b;opacity:0.3;}.cls-17{fill:#fba54f;opacity:0.32;}.cls-18{fill:#fba754;opacity:0.34;}.cls-19{fill:#fbaa59;opacity:0.36;}.cls-20{fill:#fbac5e;opacity:0.38;}.cls-21{fill:#fbaf62;opacity:0.4;}.cls-22{fill:#fbb167;opacity:0.41;}.cls-23{fill:#fbb46c;opacity:0.43;}.cls-24{fill:#fbb671;opacity:0.45;}.cls-25{fill:#fcb875;opacity:0.47;}.cls-26{fill:#fcbb7a;opacity:0.49;}.cls-27{fill:#fcbd7f;opacity:0.51;}.cls-28{fill:#fcc084;opacity:0.52;}.cls-29{fill:#fcc288;opacity:0.54;}.cls-30{fill:#fcc58d;opacity:0.56;}.cls-31{fill:#fcc792;opacity:0.58;}.cls-32{fill:#fcca97;opacity:0.6;}.cls-33{fill:#fdcc9b;opacity:0.62;}.cls-34{fill:#fdcea0;opacity:0.63;}.cls-35{fill:#fdd1a5;opacity:0.65;}.cls-36{fill:#fdd3aa;opacity:0.67;}.cls-37{fill:#fdd6ae;opacity:0.69;}.cls-38{fill:#fdd8b3;opacity:0.71;}.cls-39{fill:#fddbb8;opacity:0.73;}.cls-40{fill:#fdddbd;opacity:0.74;}.cls-41{fill:#fddfc1;opacity:0.76;}.cls-42{fill:#fee2c6;opacity:0.78;}.cls-43{fill:#fee4cb;opacity:0.8;}.cls-44{fill:#fee7d0;opacity:0.82;}.cls-45{fill:#fee9d4;opacity:0.84;}.cls-46{fill:#feecd9;opacity:0.85;}.cls-47{fill:#feeede;opacity:0.87;}.cls-48{fill:#fef0e3;opacity:0.89;}.cls-49{fill:#fef3e7;opacity:0.91;}.cls-50{fill:#fff5ec;opacity:0.93;}.cls-51{fill:#fff8f1;opacity:0.95;}.cls-52{fill:#fffaf6;opacity:0.96;}.cls-53{fill:#fffdfa;opacity:0.98;}.cls-54{fill:#fff;}.cls-55{fill:#f15a29;}.cls-56{fill:#ffde17;}.cls-57{fill:#fffb6c;}.cls-58{fill:#fff5ab;}.cls-59{mix-blend-mode:overlay;fill:url(#linear-gradient);}</style><linearGradient id="linear-gradient" x1="39.97" y1="65.13" x2="39.97" y2="16.99" gradientUnits="userSpaceOnUse"><stop offset="0"/><stop offset="1" stop-color="#fff"/></linearGradient></defs><g class="cls-1"><g id="Layer_2" data-name="Layer 2"><g id="Layer_1-2" data-name="Layer 1"><g class="cls-2"><circle class="cls-3" cx="40.78" cy="40.78" r="40.78"/><circle class="cls-4" cx="40.79" cy="40.79" r="40.05" transform="translate(-14.11 23.08) rotate(-27.12)"/><circle class="cls-5" cx="40.78" cy="40.79" r="39.32" transform="translate(-5.94 74.6) rotate(-80.9)"/><circle class="cls-6" cx="40.78" cy="40.79" r="38.59"/><circle class="cls-7" cx="40.78" cy="40.79" r="37.85" transform="translate(-12.72 19.23) rotate(-23.06)"/><circle class="cls-8" cx="40.78" cy="40.79" r="37.12" transform="translate(-5.94 74.6) rotate(-80.89)"/><circle class="cls-9" cx="40.78" cy="40.78" r="36.39"/><circle class="cls-10" cx="40.79" cy="40.79" r="35.65"/><circle class="cls-11" cx="40.78" cy="40.79" r="34.92" transform="translate(-16.89 40.78) rotate(-45)"/><circle class="cls-12" cx="40.78" cy="40.79" r="34.19" transform="translate(-5.95 74.59) rotate(-80.88)"/><circle class="cls-13" cx="40.78" cy="40.78" r="33.45"/><circle class="cls-14" cx="40.78" cy="40.79" r="32.72" transform="translate(-12.69 19.16) rotate(-22.98)"/><circle class="cls-15" cx="40.78" cy="40.79" r="31.99" transform="translate(-5.95 74.59) rotate(-80.87)"/><circle class="cls-16" cx="40.78" cy="40.79" r="31.25"/><circle class="cls-17" cx="40.78" cy="40.79" r="30.52" transform="translate(-12.67 19.13) rotate(-22.95)"/><circle class="cls-18" cx="40.78" cy="40.79" r="29.79" transform="translate(-5.96 74.58) rotate(-80.87)"/><circle class="cls-19" cx="40.79" cy="40.78" r="29.05"/><circle class="cls-20" cx="40.78" cy="40.79" r="28.32"/><circle class="cls-21" cx="40.78" cy="40.79" r="27.59" transform="translate(-16.89 40.78) rotate(-45)"/><circle class="cls-22" cx="40.78" cy="40.79" r="26.86" transform="matrix(0.16, -0.99, 0.99, 0.16, -5.96, 74.57)"/><circle class="cls-23" cx="40.78" cy="40.78" r="26.12"/><circle class="cls-24" cx="40.78" cy="40.79" r="25.39" transform="translate(-12.65 19.06) rotate(-22.87)"/><circle class="cls-25" cx="40.79" cy="40.79" r="24.66" transform="translate(-6.13 74.34) rotate(-80.57)"/><circle class="cls-26" cx="40.78" cy="40.78" r="23.92"/><circle class="cls-27" cx="40.79" cy="40.79" r="23.19" transform="translate(-14.08 23) rotate(-27.04)"/><circle class="cls-28" cx="40.78" cy="40.79" r="22.46" transform="translate(-16.89 40.78) rotate(-45)"/><circle class="cls-29" cx="40.78" cy="40.79" r="21.72"/><circle class="cls-30" cx="40.78" cy="40.78" r="20.99"/><circle class="cls-31" cx="40.78" cy="40.79" r="20.26" transform="translate(-12.62 18.99) rotate(-22.8)"/><circle class="cls-32" cx="40.78" cy="40.79" r="19.52" transform="translate(-5.97 74.56) rotate(-80.84)"/><circle class="cls-33" cx="40.79" cy="40.79" r="18.79"/><circle class="cls-34" cx="40.78" cy="40.79" r="18.06" transform="translate(-12.6 18.96) rotate(-22.76)"/><circle class="cls-35" cx="40.78" cy="40.79" r="17.32" transform="translate(-5.98 74.55) rotate(-80.83)"/><circle class="cls-36" cx="40.78" cy="40.78" r="16.59"/><circle class="cls-37" cx="40.78" cy="40.79" r="15.86"/><circle class="cls-38" cx="40.78" cy="40.79" r="15.13" transform="translate(-16.89 40.78) rotate(-45)"/><circle class="cls-39" cx="40.78" cy="40.79" r="14.39"/><circle class="cls-40" cx="40.78" cy="40.78" r="13.66"/><circle class="cls-41" cx="40.79" cy="40.79" r="12.93" transform="translate(-12.07 17.69) rotate(-21.4)"/><circle class="cls-42" cx="40.79" cy="40.79" r="12.19" transform="translate(-5.58 75.1) rotate(-81.5)"/><circle class="cls-43" cx="40.78" cy="40.79" r="11.46"/><circle class="cls-44" cx="40.78" cy="40.79" r="10.73" transform="translate(-12.56 18.86) rotate(-22.66)"/><circle class="cls-45" cx="40.78" cy="40.79" r="9.99" transform="matrix(0.16, -0.99, 0.99, 0.16, -5.99, 74.53)"/><circle class="cls-46" cx="40.78" cy="40.78" r="9.26"/><circle class="cls-47" cx="40.78" cy="40.78" r="8.53"/><circle class="cls-48" cx="40.78" cy="40.79" r="7.79" transform="translate(-16.84 38.37) rotate(-42.6)"/><path class="cls-49" d="M47.85,40.78a7.07,7.07,0,1,1-7.07-7.06A7.08,7.08,0,0,1,47.85,40.78Z"/><circle class="cls-50" cx="40.79" cy="40.78" r="6.33"/><path class="cls-51" d="M46.38,40.78a5.6,5.6,0,1,1-5.6-5.59A5.6,5.6,0,0,1,46.38,40.78Z"/><path class="cls-52" d="M45.65,40.78a4.87,4.87,0,1,1-4.87-4.86A4.87,4.87,0,0,1,45.65,40.78Z"/><circle class="cls-53" cx="40.78" cy="40.78" r="4.13"/><path class="cls-54" d="M44.18,40.78a3.4,3.4,0,1,1-3.4-3.39A3.4,3.4,0,0,1,44.18,40.78Z"/></g><path class="cls-55" d="M64.25,46.4c-.23-1.45-.4-2.79-.59-4.08a22.78,22.78,0,0,0-.86-7.07A33.56,33.56,0,0,0,60.47,29c-.11-2.22-.42-4.39-2.16-5.8s-4-1.32-6-1.67c-4.62-.8-8.51-3.24-12.95-4.34a6.33,6.33,0,0,0-5,.68c-1.2.67-2.22,1.65-3.37,2.41-2.28,1.49-4.64,2.09-7.14,3-4.92,1.88-5.35,4.75-6.39,9.25a13.37,13.37,0,0,0-.57,2.12,13.54,13.54,0,0,0-1.1,4.87c.09,3.39-.5,7.24-.17,10.68.41,4.4,5.2,7.69,8.24,10.65,1,.94,1.13,1.79,2.63,2.19s2.5-.51,4-.6a10.26,10.26,0,0,1,4.52,1,6.83,6.83,0,0,0,3.59,1.37c4.67,1.19,8.85-2.09,13.23-3.51.22-.08.43-.13.64-.19a6.7,6.7,0,0,0,.91-.21l.42-.16a7,7,0,0,0,4.52-2.76A21.43,21.43,0,0,0,60,54.66l.51-.9c1-1.38,2.49-2.16,3.35-3.52S64.51,48,64.25,46.4ZM57,53.19C52.23,59.25,42.46,59.62,35.52,59a25.75,25.75,0,0,1-5.13-1,1.6,1.6,0,0,0-1.32-2.47,3.74,3.74,0,0,1-2.53-1.9h.09c2.05-.27,2.07-3.52,0-3.25a7.23,7.23,0,0,1-1.46,0,1.75,1.75,0,0,0-1-.22,3.51,3.51,0,0,1-.94-.43c-.3-2.08-.41-4.37-.5-6.35a1.53,1.53,0,0,0,.39-2,5.88,5.88,0,0,1-.33-.72s0,0,0-.08c-.05-5.51.13-9.2,4.92-12.75,1.08-.81,1.88-1.76,2.81-2.48a7.32,7.32,0,0,1,1.32.26,1.5,1.5,0,0,0,2-1.32,9.27,9.27,0,0,1,2.8.65,1.64,1.64,0,0,0,1.84-.75l4.86-2.5,1,1.15c.58.13,1.3.93,1.85,1.21,1.28.65,3.87.56,5.23,1.07a13.08,13.08,0,0,1,7,7,10.71,10.71,0,0,0,.23,2,.93.93,0,0,0,.81.77C61.36,41.13,60.49,48.65,57,53.19Z"/><path class="cls-56" d="M63.33,47.05c-1.14-4.73-.71-9-2.41-13.57-1.17-3.11.42-7.21-3.09-9.28-2.39-1.4-5.55-1-8-2.26s-4.9-1.24-7.55-2.39c-1.51-.66-2.49-1.75-4.27-1.61-2.6.21-5.23,2.91-7.54,3.69A28,28,0,0,0,26,23.46c-1.64.84-3.3,1-4.68,2.14-2.1,1.79-3.87,4.84-3.08,7.39a7.9,7.9,0,0,0-.27.95A9.67,9.67,0,0,0,17.22,35a6.8,6.8,0,0,0-.12,4.16c.66,2.8,0,5.45.63,8.46a2.62,2.62,0,0,0-1.25,2.83c.27,2.08,1.92,2.45,3.52,3.2a10.81,10.81,0,0,0,.64,2,2.34,2.34,0,0,0,2.47,1.62A7,7,0,0,0,28.21,62c1.47.3,2.57-.4,3.92-.45,2.75-.09,4.35,1.87,6.89,2.43,2.24.48,8.22-.5,9-3.11a11.92,11.92,0,0,0,6.29-1.39c2.57-1.52,2.7-3.6,4.48-5.74C61.65,50.33,64.49,51.86,63.33,47.05Z"/><path class="cls-57" d="M60.93,45.44a15.86,15.86,0,0,0-.39-3.92,15.41,15.41,0,0,0-1.38-10.67,4.5,4.5,0,0,0-.38-2.94,4,4,0,0,0-4.55-2.14,19,19,0,0,0-3-1.45c-.25-.17-.49-.35-.75-.51C42,18.68,31.11,20.66,24.54,27.57a3.36,3.36,0,0,0-3.5,5,19.08,19.08,0,0,0-1.57,5.61,18.87,18.87,0,0,0-.3,9.26,3.05,3.05,0,0,0-.73,2c0,1.41,1.16,2.16,2.44,2.5a14.81,14.81,0,0,0,3.54,4.22,18.13,18.13,0,0,0,10.67,4,5.24,5.24,0,0,0,4.09,3.1,3.65,3.65,0,0,0,3.66-1.68c7.54.34,14.12-3.4,16.85-10.13a2.55,2.55,0,0,0,2.52-2.06A4.52,4.52,0,0,0,60.93,45.44Z"/><path class="cls-54" d="M55.35,43.76c0-.14,0-.28,0-.42a2.49,2.49,0,0,0-.12-2.67,10.25,10.25,0,0,0-2.83-9,3.45,3.45,0,0,0-1.47-2.53,4.54,4.54,0,0,0-3.36-.46,14.35,14.35,0,0,0-13.78,0,5.72,5.72,0,0,0-5.61,5.32c-.13.21-.26.42-.37.64-2.14,1.66-3.56,4.67-1.77,6.69v.08c-1.69,2.52-1.28,5.14.9,6.41a10.54,10.54,0,0,0,3,4A12.72,12.72,0,0,0,38.1,54.7a16,16,0,0,0,3.89.93c.46,0,.91.06,1.36.06,3,1,6.58.08,7.82-2.64a11.12,11.12,0,0,0,1.64-1.65C56,50,57.79,46.64,55.35,43.76Z"/><path class="cls-56" d="M22.85,36.48c-4,.32-3.07,7.75.14,7.18A8.14,8.14,0,0,1,22.85,36.48Z"/><path class="cls-56" d="M34.54,24.58a1.92,1.92,0,0,0-.28-.53c-1.21-1.63-2.76-2.44-4.2-1.3s-2.14,3.53-2.42,6.05a3.23,3.23,0,0,0,0,.44C29.31,26,32,24.17,34.54,24.58Z"/><path class="cls-56" d="M53.2,53.41a10.26,10.26,0,0,1-7.53,5.39.9.9,0,0,0,1,.57l1-.08c3.11.46,6.79-1.71,6.28-5.12A.91.91,0,0,0,53.2,53.41Z"/><path class="cls-56" d="M26.94,53.16a.87.87,0,0,0-.77.56l-.09.27h0v0a4,4,0,0,0,.8,4.25,2.7,2.7,0,0,0,.92.6,3,3,0,0,0,.41.29c1.82,1,3.62.12,4.68-1.45C30,57.88,27.18,56.06,26.94,53.16Z"/><path class="cls-56" d="M51.1,28.4a9.5,9.5,0,0,0-2-2.89c-1.27-1.05-2.57-.55-3.38.68A45.45,45.45,0,0,1,51.1,28.4Z"/><path class="cls-58" d="M32,43.53a1.78,1.78,0,0,1-.19-.48,3.66,3.66,0,0,1-.38-3A1.06,1.06,0,0,1,32,38.84,3.56,3.56,0,0,1,33.3,37.7a3.83,3.83,0,0,1,.05-.76,2.09,2.09,0,0,1-.06-.64.74.74,0,0,0,.07-.21,1.33,1.33,0,0,1,0-.19,1.66,1.66,0,0,1,.58-.63,8,8,0,0,1,2.43-2.42c-2.09-1-4.38.6-4.92,2.7a3.66,3.66,0,0,0-.11,1.37,3.16,3.16,0,0,0-1.29,4.87,3.41,3.41,0,0,0,1.37,4.1A6.76,6.76,0,0,1,32,43.53Z"/><path class="cls-58" d="M51.92,41.51a6,6,0,0,1-.41,2.83,2.46,2.46,0,0,1-.14,1.32,2.12,2.12,0,0,1-2.16,1.46,4.48,4.48,0,0,1-1.54.59,10.41,10.41,0,0,1-5.73,3.67c2,1.57,5.29.19,6.39-2.11A4.49,4.49,0,0,0,53.58,46,3.79,3.79,0,0,0,51.92,41.51Z"/><path class="cls-58" d="M48.47,33.72a7,7,0,0,1,1.66,2.43.25.25,0,0,0,0-.07,4.27,4.27,0,0,0-1.65-4.34,4,4,0,0,0-4.44,0A6.63,6.63,0,0,1,48.47,33.72Z"/><path class="cls-58" d="M41.4,43.84a4.63,4.63,0,0,1-4.89-.19,2.62,2.62,0,0,0,1.32,2.45,2.77,2.77,0,0,0,3.49-.36,2.89,2.89,0,0,0,3.75-1.55A4.59,4.59,0,0,1,41.4,43.84Z"/><path class="cls-59" d="M64.25,46.4c-.23-1.45-.4-2.79-.59-4.08a22.78,22.78,0,0,0-.86-7.07A33.56,33.56,0,0,0,60.47,29c-.11-2.22-.42-4.39-2.16-5.8s-4-1.32-6-1.67c-4.62-.8-8.51-3.24-12.95-4.34a6.33,6.33,0,0,0-5,.68c-1.2.67-2.22,1.65-3.37,2.41-2.28,1.49-4.64,2.09-7.14,3-4.92,1.88-5.35,4.75-6.39,9.25a13.37,13.37,0,0,0-.57,2.12,13.54,13.54,0,0,0-1.1,4.87c.09,3.39-.5,7.24-.17,10.68.41,4.4,5.2,7.69,8.24,10.65,1,.94,1.13,1.79,2.63,2.19s2.5-.51,4-.6a10.26,10.26,0,0,1,4.52,1,6.83,6.83,0,0,0,3.59,1.37c4.67,1.19,8.85-2.09,13.23-3.51.22-.08.43-.13.64-.19a6.7,6.7,0,0,0,.91-.21l.42-.16a7,7,0,0,0,4.52-2.76A21.43,21.43,0,0,0,60,54.66l.51-.9c1-1.38,2.49-2.16,3.35-3.52S64.51,48,64.25,46.4Z"/></g></g></g></svg>