<svg xmlns="http://www.w3.org/2000/svg" xmlns:xlink="http://www.w3.org/1999/xlink" viewBox="0 0 104.52 104.52"><defs><style>.cls-1{isolation:isolate;}.cls-2{mix-blend-mode:screen;}.cls-3{fill:#f9830d;opacity:0.07;}.cls-4{fill:#f98512;opacity:0.08;}.cls-5{fill:#f98816;opacity:0.1;}.cls-6{fill:#f98a1b;opacity:0.12;}.cls-7{fill:#f98d20;opacity:0.14;}.cls-8{fill:#fa8f25;opacity:0.16;}.cls-9{fill:#fa9229;opacity:0.18;}.cls-10{fill:#fa942e;opacity:0.19;}.cls-11{fill:#fa9633;opacity:0.21;}.cls-12{fill:#fa9938;opacity:0.23;}.cls-13{fill:#fa9b3c;opacity:0.25;}.cls-14{fill:#fa9e41;opacity:0.27;}.cls-15{fill:#faa046;opacity:0.29;}.cls-16{fill:#fba34b;opacity:0.3;}.cls-17{fill:#fba54f;opacity:0.32;}.cls-18{fill:#fba754;opacity:0.34;}.cls-19{fill:#fbaa59;opacity:0.36;}.cls-20{fill:#fbac5e;opacity:0.38;}.cls-21{fill:#fbaf62;opacity:0.4;}.cls-22{fill:#fbb167;opacity:0.41;}.cls-23{fill:#fbb46c;opacity:0.43;}.cls-24{fill:#fbb671;opacity:0.45;}.cls-25{fill:#fcb875;opacity:0.47;}.cls-26{fill:#fcbb7a;opacity:0.49;}.cls-27{fill:#fcbd7f;opacity:0.51;}.cls-28{fill:#fcc084;opacity:0.52;}.cls-29{fill:#fcc288;opacity:0.54;}.cls-30{fill:#fcc58d;opacity:0.56;}.cls-31{fill:#fcc792;opacity:0.58;}.cls-32{fill:#fcca97;opacity:0.6;}.cls-33{fill:#fdcc9b;opacity:0.62;}.cls-34{fill:#fdcea0;opacity:0.63;}.cls-35{fill:#fdd1a5;opacity:0.65;}.cls-36{fill:#fdd3aa;opacity:0.67;}.cls-37{fill:#fdd6ae;opacity:0.69;}.cls-38{fill:#fdd8b3;opacity:0.71;}.cls-39{fill:#fddbb8;opacity:0.73;}.cls-40{fill:#fdddbd;opacity:0.74;}.cls-41{fill:#fddfc1;opacity:0.76;}.cls-42{fill:#fee2c6;opacity:0.78;}.cls-43{fill:#fee4cb;opacity:0.8;}.cls-44{fill:#fee7d0;opacity:0.82;}.cls-45{fill:#fee9d4;opacity:0.84;}.cls-46{fill:#feecd9;opacity:0.85;}.cls-47{fill:#feeede;opacity:0.87;}.cls-48{fill:#fef0e3;opacity:0.89;}.cls-49{fill:#fef3e7;opacity:0.91;}.cls-50{fill:#fff5ec;opacity:0.93;}.cls-51{fill:#fff8f1;opacity:0.95;}.cls-52{fill:#fffaf6;opacity:0.96;}.cls-53{fill:#fffdfa;opacity:0.98;}.cls-54{fill:#fff;}.cls-55{fill:#f15a29;}.cls-56{fill:#ffde17;}.cls-57{fill:#fffb6c;}.cls-58{fill:#e5451a;}.cls-59{fill:#f47a21;}.cls-60{fill:#fff5ab;}.cls-61,.cls-62,.cls-63,.cls-64{mix-blend-mode:overlay;}.cls-61{fill:url(#linear-gradient);}.cls-62{fill:url(#linear-gradient-2);}.cls-63{fill:url(#linear-gradient-3);}.cls-64{fill:url(#linear-gradient-4);}</style><linearGradient id="linear-gradient" x1="53.66" y1="84.86" x2="53.66" y2="20.06" gradientUnits="userSpaceOnUse"><stop offset="0"/><stop offset="1" stop-color="#fff"/></linearGradient><linearGradient id="linear-gradient-2" x1="33.62" y1="22.27" x2="33.62" y2="12.34" xlink:href="#linear-gradient"/><linearGradient id="linear-gradient-3" x1="90.28" y1="46.18" x2="90.28" y2="34.67" xlink:href="#linear-gradient"/><linearGradient id="linear-gradient-4" x1="39.68" y1="96.33" x2="39.68" y2="83.21" xlink:href="#linear-gradient"/></defs><g class="cls-1"><g id="Layer_2" data-name="Layer 2"><g id="Layer_1-2" data-name="Layer 1"><g class="cls-2"><circle class="cls-3" cx="52.26" cy="52.26" r="52.26"/><circle class="cls-4" cx="52.26" cy="52.26" r="51.32"/><circle class="cls-5" cx="52.26" cy="52.26" r="50.38" transform="translate(-7.59 95.62) rotate(-80.93)"/><circle class="cls-6" cx="52.26" cy="52.26" r="49.44" transform="translate(-21.65 52.26) rotate(-45)"/><circle class="cls-7" cx="52.26" cy="52.26" r="48.5" transform="translate(-21.65 52.26) rotate(-45)"/><circle class="cls-8" cx="52.26" cy="52.26" r="47.56"/><circle class="cls-9" cx="52.26" cy="52.26" r="46.62"/><circle class="cls-10" cx="52.26" cy="52.26" r="45.68" transform="translate(-21.65 52.26) rotate(-45)"/><circle class="cls-11" cx="52.26" cy="52.26" r="44.74" transform="translate(-21.65 52.26) rotate(-45)"/><circle class="cls-12" cx="52.26" cy="52.26" r="43.8"/><circle class="cls-13" cx="52.26" cy="52.26" r="42.87"/><circle class="cls-14" cx="52.26" cy="52.26" r="41.93" transform="translate(-7.75 95.4) rotate(-80.71)"/><circle class="cls-15" cx="52.26" cy="52.26" r="40.99" transform="translate(-21.65 52.26) rotate(-45)"/><circle class="cls-16" cx="52.26" cy="52.26" r="40.05" transform="translate(-21.65 52.26) rotate(-45)"/><circle class="cls-17" cx="52.26" cy="52.26" r="39.11"/><circle class="cls-18" cx="52.26" cy="52.26" r="38.17"/><circle class="cls-19" cx="52.26" cy="52.26" r="37.23" transform="translate(-21.65 52.26) rotate(-45)"/><circle class="cls-20" cx="52.26" cy="52.26" r="36.29" transform="translate(-21.65 52.26) rotate(-45)"/><circle class="cls-21" cx="52.26" cy="52.26" r="35.35"/><circle class="cls-22" cx="52.26" cy="52.26" r="34.41"/><circle class="cls-23" cx="52.26" cy="52.26" r="33.47" transform="translate(-7.34 95.97) rotate(-81.26)"/><circle class="cls-24" cx="52.26" cy="52.26" r="32.53" transform="translate(-21.65 52.26) rotate(-45)"/><circle class="cls-25" cx="52.26" cy="52.26" r="31.59" transform="translate(-21.65 52.26) rotate(-45)"/><circle class="cls-26" cx="52.26" cy="52.26" r="30.65"/><circle class="cls-27" cx="52.26" cy="52.26" r="29.71"/><circle class="cls-28" cx="52.26" cy="52.26" r="28.77" transform="translate(-21.65 52.26) rotate(-45)"/><circle class="cls-29" cx="52.26" cy="52.26" r="27.84" transform="translate(-21.65 52.26) rotate(-45)"/><circle class="cls-30" cx="52.26" cy="52.26" r="26.9"/><circle class="cls-31" cx="52.26" cy="52.26" r="25.96"/><circle class="cls-32" cx="52.26" cy="52.26" r="25.02" transform="translate(-7.64 95.55) rotate(-80.85)"/><circle class="cls-33" cx="52.26" cy="52.26" r="24.08" transform="translate(-21.65 52.26) rotate(-45)"/><circle class="cls-34" cx="52.26" cy="52.26" r="23.14" transform="translate(-21.65 52.26) rotate(-45)"/><circle class="cls-35" cx="52.26" cy="52.26" r="22.2"/><circle class="cls-36" cx="52.26" cy="52.26" r="21.26"/><circle class="cls-37" cx="52.26" cy="52.26" r="20.32" transform="translate(-21.65 52.26) rotate(-45)"/><circle class="cls-38" cx="52.26" cy="52.26" r="19.38" transform="translate(-21.65 52.26) rotate(-45)"/><circle class="cls-39" cx="52.26" cy="52.26" r="18.44"/><circle class="cls-40" cx="52.26" cy="52.26" r="17.5"/><circle class="cls-41" cx="52.26" cy="52.26" r="16.56" transform="translate(-7.66 95.52) rotate(-80.83)"/><circle class="cls-42" cx="52.26" cy="52.26" r="15.62" transform="translate(-21.65 52.26) rotate(-45)"/><circle class="cls-43" cx="52.26" cy="52.26" r="14.68" transform="translate(-21.63 50.62) rotate(-43.73)"/><circle class="cls-44" cx="52.26" cy="52.26" r="13.74"/><circle class="cls-45" cx="52.26" cy="52.26" r="12.8"/><circle class="cls-46" cx="52.26" cy="52.26" r="11.87" transform="translate(-21.65 52.26) rotate(-45)"/><circle class="cls-47" cx="52.26" cy="52.26" r="10.93" transform="translate(-21.39 58.44) rotate(-49.8)"/><circle class="cls-48" cx="52.26" cy="52.26" r="9.99"/><circle class="cls-49" cx="52.26" cy="52.26" r="9.05"/><circle class="cls-50" cx="52.26" cy="52.26" r="8.11" transform="translate(-7.68 95.5) rotate(-80.81)"/><path class="cls-51" d="M59.43,52.26a7.17,7.17,0,1,1-7.17-7.17A7.17,7.17,0,0,1,59.43,52.26Z"/><path class="cls-52" d="M58.49,52.26A6.23,6.23,0,1,1,52.26,46,6.23,6.23,0,0,1,58.49,52.26Z"/><circle class="cls-53" cx="52.26" cy="52.26" r="5.29"/><circle class="cls-54" cx="52.26" cy="52.26" r="4.35"/></g><path class="cls-55" d="M86.21,58.48a1.48,1.48,0,0,0,1.27-2.21c-2.47-3.36-3.55-6.22-1.67-10.22a1.49,1.49,0,0,0-1.27-2.22A3.31,3.31,0,0,1,81.78,43a3,3,0,0,1-.57-.45c-.14-.45-.3-.9-.46-1.36A4.94,4.94,0,0,1,82,38.76a1.48,1.48,0,0,0,0-2.54c-4-1.74-3.86-4.74-3.83-8.5a1.5,1.5,0,0,0-1.47-1.48c-2.34,0-6.55,1.65-7.36-1.79a1.49,1.49,0,0,0-1.81-1c-2.47.76-4.65,1.3-7.09.32-1.93-.78-2.51-1.7-3.75-3.26a1.5,1.5,0,0,0-1.79-.23,7.06,7.06,0,0,1-6.88,1,1.49,1.49,0,0,0-2.16.88c-.8,2.7-1.11,2.23-3.1.57a1.49,1.49,0,0,0-2.51,1,27,27,0,0,1-.17,2.8c-1.72-.76-3.86-1.49-5.43-.5A4.7,4.7,0,0,0,33,28.26a6.68,6.68,0,0,1-.76.78A9,9,0,0,1,29,31.85a16.6,16.6,0,0,1-2.41.69c-1,.5-1.2.41-1.76,1.55a8.1,8.1,0,0,0-.25,3c-.09,2.77-.55,4-2.9,5.4a1.48,1.48,0,0,0-.53,2c1.39,2.15,1.22,3.85-.31,5.9A1.5,1.5,0,0,0,21,52.21a12.64,12.64,0,0,1,2.71,4.65c0,.7-.06,1.4-.07,2.09,0,.06,0,.13-.07.19-.67,1.64-2.69,3.09-3.77,4.53a1.48,1.48,0,0,0,.53,2c.4.25,2.29,1,2.63,1.3,2.26,1.64,2.78,2.45,1.55,4.67a1.5,1.5,0,0,0,.88,2.16c2.33.83,3.78.75,5.78,2.37s2.54,3.2,3.81,5.37a1.5,1.5,0,0,0,2,.52c2.78-1.6,5.38-4.44,8.54-3.12,2.46,1,3.15,3.53,4.83,5.47a1.45,1.45,0,0,0,1.78.23c1.63-1.23,3.37-2.9,5.2-3.73.57-.14,1.14-.3,1.71-.49a4.7,4.7,0,0,1,4.12,1.85,1.48,1.48,0,0,0,2.31-.3c1.35-2.55,2.11-4.48,5.23-5.52,2.35-.78,5.17-.52,7.62-.57A1.48,1.48,0,0,0,79.77,74c-1.78-5.14,0-7.64,5.45-8a1.48,1.48,0,0,0,1.27-2.21C85.72,62.73,82.64,58.38,86.21,58.48Zm-11.58,8.1c-5.8,7.45-17.81,7.9-26.34,7.17A30.68,30.68,0,0,1,42,72.56a2,2,0,0,0-1.63-3c-1.07,0-2.3-1.11-3.11-2.33h.11c2.52-.32,2.55-4.33,0-4a8.36,8.36,0,0,1-1.79,0A2.08,2.08,0,0,0,34.39,63a4.73,4.73,0,0,1-1.16-.53c-.36-2.56-.5-5.37-.61-7.81a1.87,1.87,0,0,0,.47-2.44c-.15-.28-.27-.59-.4-.89,0,0,0-.06,0-.1-.05-6.76.17-11.3,6-15.67,1.33-1,2.32-2.16,3.46-3.05a9.14,9.14,0,0,1,1.62.33,1.83,1.83,0,0,0,2.4-1.63,11.26,11.26,0,0,1,3.45.8,2,2,0,0,0,2.26-.92l6-3.08,1.25,1.42c.71.16,1.6,1.14,2.27,1.48,1.57.8,4.76.69,6.43,1.32a16.07,16.07,0,0,1,8.64,8.55,13,13,0,0,0,.28,2.43,1.16,1.16,0,0,0,1,1C80.05,51.76,79,61,74.63,66.58Z"/><path class="cls-56" d="M83.71,55.53a1.54,1.54,0,0,0,.07-.84,33.11,33.11,0,0,1-.89-3.63c-.12-1.32.53-2.39.85-3.64a1.48,1.48,0,0,0-1.41-1.86,2.19,2.19,0,0,1-1-.28c-.33-.74-.75-1.35-1.09-2.13-1.14-2.65-.42-3.29-.65-5.71a17.7,17.7,0,0,0-2.13-5.59c-.63-1.24-1.24-2.55-2.56-3.17-1.07-.5-2.27-.15-3.37-.17-2-.05-3.41-.93-5.2-1.45-3.44-1-6.62-1.27-10-2.66a9.18,9.18,0,0,0-2.93-.81,4.54,4.54,0,0,0-2.13-.33c-3.2.26-6.44,3.57-9.27,4.52-.95.32-1.71.6-2.45.89-1.5-.76-3.42-1.33-4.72-.33-.94.72-1.27,1.92-2,2.82a6.62,6.62,0,0,1-.51.56,7.18,7.18,0,0,0-1.51,1c-.24.2-.48.42-.71.65-.65.4-1.31.78-1.91,1.17a10.11,10.11,0,0,0-1.65,1c-1.88,1.41-1.4,3.12-.55,4.8-1,1.26-2,2.51-3.06,3.73a1.49,1.49,0,0,0,0,2.08,20.55,20.55,0,0,1,1.81,2.13c-.53.63-1.06,1.26-1.54,1.93a1.48,1.48,0,0,0,.53,2c1.48.93,1.89,3.43,2.16,5.2a1.63,1.63,0,0,0-.5.42c-1.42,1.87-3.52,3.8-2.72,6.34a4.63,4.63,0,0,0,1.81,2.43c1.54,1,2,.33,2.44,2.67.32,1.68.38,3.44,2.27,4.13.83.31,1.72-.22,2.49,0,3,.73,3.16,3.31,4.11,5.54a1.48,1.48,0,0,0,2,.52c.86-.5,1.7-1.35,2.58-1.9,1.11,0,2.09-.44,3.18-.57,1.44.37,2.58,1.59,4,2.65,1.19.91,2.65,2,4.23,2,2.31.09,4.56-1.38,6.81-1.77A22.36,22.36,0,0,0,66,77.55a71.76,71.76,0,0,1,8.75-3.48A4.85,4.85,0,0,0,77.87,71c1-2.49.55-3.27,2.85-5.81.64-.7,1.17-.67,1.67-1.48.7-1.14.44-2.43.73-3.63C83.6,58.05,84.31,57.6,83.71,55.53Z"/><path class="cls-57" d="M79.52,57.05a19.67,19.67,0,0,0-.47-4.82,19,19,0,0,0-1.7-13.11,5.55,5.55,0,0,0-.47-3.62c-1.12-2.33-3.36-2.93-5.59-2.62a24,24,0,0,0-3.72-1.79c-.3-.2-.6-.43-.91-.62-10.36-6.3-23.79-3.88-31.87,4.62a4.11,4.11,0,0,0-4.29,6.19,23,23,0,0,0-1.94,6.9,23.22,23.22,0,0,0-.36,11.38A3.69,3.69,0,0,0,27.3,62c.05,1.73,1.42,2.66,3,3.07a17.88,17.88,0,0,0,4.34,5.18,22.27,22.27,0,0,0,13.13,4.86,6.38,6.38,0,0,0,5,3.81,4.46,4.46,0,0,0,4.5-2.06c9.26.42,17.36-4.18,20.71-12.45a3.15,3.15,0,0,0,3.1-2.54A5.53,5.53,0,0,0,79.52,57.05Z"/><path class="cls-56" d="M32.71,46c-4.89.39-3.76,9.53.17,8.83A10.11,10.11,0,0,1,32.71,46Z"/><path class="cls-56" d="M41.66,32.55a2.67,2.67,0,0,0-.34-.65c-1.48-2-3.39-3-5.17-1.6s-2.62,4.35-3,7.43a4.86,4.86,0,0,0,0,.54C35.23,34.29,38.56,32.05,41.66,32.55Z"/><path class="cls-56" d="M70,66.86a12.7,12.7,0,0,1-9.26,6.62,1.1,1.1,0,0,0,1.19.7l1.29-.11c3.82.57,8.34-2.09,7.72-6.29A1.09,1.09,0,0,0,70,66.86Z"/><path class="cls-56" d="M37.74,66.55a1.05,1.05,0,0,0-.94.68l-.12.34h0a.17.17,0,0,0,0,.07,5,5,0,0,0,1,5.22,3.24,3.24,0,0,0,1.13.74c.16.12.32.25.5.36,2.24,1.28,4.46.14,5.75-1.78C41.49,72.34,38,70.11,37.74,66.55Z"/><path class="cls-55" d="M38.25,15.56A2.12,2.12,0,0,0,37,13.86a3.8,3.8,0,0,0-.37-.47,3.3,3.3,0,0,0-.54-.47s0,0,0,0a3.49,3.49,0,0,0-5.29,2.27A2.92,2.92,0,0,0,29,18.52a3.23,3.23,0,0,0,.4.9,2.26,2.26,0,0,0,.86.82,2.44,2.44,0,0,0,2.1.13,2.08,2.08,0,0,0,.51-.27,25.23,25.23,0,0,1,2.46,2,.7.7,0,0,0,1.17-.49c0-.71-.24-1.5-.34-2.27a4.92,4.92,0,0,0,1.76-1.75A3,3,0,0,0,38.25,15.56Z"/><path class="cls-58" d="M33.05,15.55a2.81,2.81,0,0,1,1.58-2.2A4.81,4.81,0,0,1,36,12.92a3.49,3.49,0,0,0-5.29,2.27,3.05,3.05,0,0,0-1.81,2.64A6.49,6.49,0,0,1,33.05,15.55Z"/><path class="cls-59" d="M37.94,17.59c-.86,1.6-3.22,2.88-4.84,2.36a2.17,2.17,0,0,1-.72.42,2.44,2.44,0,0,1-2.1-.13,1.62,1.62,0,0,0,.64-.87,1.37,1.37,0,0,1,1.67-1c2.76.72,3.82-1.35,5.66-2.85A3,3,0,0,1,37.94,17.59Z"/><path class="cls-55" d="M96.43,37.8a3,3,0,0,0-3.09-1.49.44.44,0,0,0-.15,0,1.64,1.64,0,0,0-.16-.26,3.32,3.32,0,0,0-1.85-1.33,2.54,2.54,0,0,0-2,.36,1.31,1.31,0,0,0-.27.19,2.26,2.26,0,0,0-.33,3.42v0A3.2,3.2,0,0,0,88.34,40,8.22,8.22,0,0,1,84.26,41c-.64,0-1,1-.35,1.27a14.32,14.32,0,0,0,5.9,1.05,2.74,2.74,0,0,0,.67,1.77,3,3,0,0,0,1.13.84,1.52,1.52,0,0,0,.4.12,3.79,3.79,0,0,0,3.11-.66v0h0a3.37,3.37,0,0,0,1.42-3.1,3.56,3.56,0,0,0-.3-1A2.68,2.68,0,0,0,96.43,37.8Z"/><path class="cls-58" d="M93,36.07a5.4,5.4,0,0,0-1.84-.84c0-.16,0-.32,0-.49A3.32,3.32,0,0,1,93,36.07Z"/><path class="cls-58" d="M96.28,41.29a3.56,3.56,0,0,1,.3,1,1.64,1.64,0,0,0-.54.58c-.06.13-.06,1.06-.16,1.32a4.57,4.57,0,0,1-.75,1.21v0a3.79,3.79,0,0,1-3.11.66,8.47,8.47,0,0,0,1.83-3.36,3,3,0,0,0,1.33-2.89.93.93,0,0,0,0-.6,1.31,1.31,0,0,0-.24-.47s0,0,0,0a5,5,0,0,0-1.61-2.4,3,3,0,0,1,3.09,1.49A2.68,2.68,0,0,1,96.28,41.29Z"/><path class="cls-59" d="M91.61,46a3,3,0,0,1-1.13-.84,2.84,2.84,0,0,1-.68-1.91,3.4,3.4,0,0,1-.74-.77,3.69,3.69,0,0,1-.45-3.7v0a2.26,2.26,0,0,1,.33-3.42,2.33,2.33,0,0,0,.69,2.47,1.4,1.4,0,0,1,.49,1.87c-.58,1.2,1.22,2.18,1.37,3.5C91.59,44.06,91.5,45.05,91.61,46Z"/><path class="cls-55" d="M45.6,90.87A1.47,1.47,0,0,0,44.49,90a1.38,1.38,0,0,0-1-1.52,7.1,7.1,0,0,0-1.31-.36c.07-1.42.18-2.84.18-4.26a.69.69,0,0,0-1.34-.18c-.37,1.06-.7,2.19-1.12,3.27a4.1,4.1,0,0,0-5.2,1.66,1.44,1.44,0,0,0-.17.79,5.48,5.48,0,0,0-.76.93.24.24,0,0,0-.05.1,1.4,1.4,0,0,0,.87,1.9l.19.08a6.17,6.17,0,0,0,.08.71c0,.23.07.46.12.72,0,0,0,0,0,.08a1.39,1.39,0,0,0,1.67,1,2.25,2.25,0,0,0,2.2,1.44A2.81,2.81,0,0,0,40.22,96l.22,0c1.16,0,2.34-.92,3.2-1.59a7.44,7.44,0,0,0,1.65-1.58,2.22,2.22,0,0,0,.45-1.26A1.51,1.51,0,0,0,45.6,90.87Z"/><path class="cls-58" d="M45.74,91.6c0,1.22-1.23,2.17-2.1,2.84s-2,1.62-3.2,1.59l-.22,0a2.81,2.81,0,0,1-1.31.32,2.25,2.25,0,0,1-2.2-1.44,1.39,1.39,0,0,1-1.67-1s0-.06,0-.08c0-.24,0-.49,0-.73H34.9a6.17,6.17,0,0,1-.08-.71l-.19-.08a1.4,1.4,0,0,1-.87-1.9A3.05,3.05,0,0,0,35.65,90a1.37,1.37,0,0,1,2.05,1.18c0,.6,0,1.2,0,1.81q2.07,2.47,2.72.23a1.37,1.37,0,0,1,2.53.68c0,.41,1.61-.9,1.61-.91a5.16,5.16,0,0,0,1-2s0-.06,0-.08A1.51,1.51,0,0,1,45.74,91.6Z"/><path class="cls-59" d="M45.74,91.6a2.22,2.22,0,0,1-.45,1.26,7.51,7.51,0,0,0-.87-.93,9.76,9.76,0,0,1-1.08-.84c-.26-.32-.35-.86-.63-1.12-.73-.71,0-.18-1.06-.26a4.06,4.06,0,0,1-2.52-.6c-.49-.34-.9-1.12-1.39-1.41a2.35,2.35,0,0,0-2.17-.08c1.76-1.61,4.51-1.43,5.37.47a5.63,5.63,0,0,1,2.59.4,1.38,1.38,0,0,1,1,1.52,1.47,1.47,0,0,1,1.11.86A1.51,1.51,0,0,1,45.74,91.6Z"/><path class="cls-54" d="M75.79,54.62c0-.21,0-.41-.05-.61a3.59,3.59,0,0,0-.17-3.86,14.71,14.71,0,0,0-4.09-12.91,4.94,4.94,0,0,0-2.11-3.66,6.6,6.6,0,0,0-4.85-.66,20.68,20.68,0,0,0-19.87,0c-4-.22-8.07,3.67-8.1,7.67q-.28.45-.54.93c-3.08,2.39-5.12,6.74-2.54,9.64a.45.45,0,0,0,0,.11C31,55,31.62,58.73,34.76,60.55A15.2,15.2,0,0,0,39,66.32,18.33,18.33,0,0,0,50.9,70.39a22.44,22.44,0,0,0,5.61,1.34c.66.06,1.31.09,2,.09,4.28,1.42,9.5.11,11.28-3.8a16.23,16.23,0,0,0,2.37-2.39C76.68,63.64,79.3,58.76,75.79,54.62Z"/><path class="cls-60" d="M41.08,53.65a2.25,2.25,0,0,1-.27-.69,5.26,5.26,0,0,1-.56-4.38,1.53,1.53,0,0,1,.84-1.68A5.13,5.13,0,0,1,43,45.25a5.87,5.87,0,0,1,.09-1.11,2.24,2.24,0,0,1-.09-.91,1,1,0,0,0,.1-.31,1.34,1.34,0,0,1,.07-.27,2.4,2.4,0,0,1,.83-.91,11.68,11.68,0,0,1,3.51-3.49c-3-1.39-6.32.86-7.09,3.9a5.14,5.14,0,0,0-.17,2c-2.64.87-3.86,4.92-1.86,7-1,1.93.15,4.82,2,5.93A10.07,10.07,0,0,1,41.08,53.65Z"/><path class="cls-60" d="M71.77,54.47a8.62,8.62,0,0,1-.59,4.09A3.51,3.51,0,0,1,71,60.45a3.07,3.07,0,0,1-3.1,2.12,6.83,6.83,0,0,1-2.23.85,15.06,15.06,0,0,1-8.26,5.29c2.83,2.26,7.63.27,9.21-3A6.47,6.47,0,0,0,74.16,61,5.45,5.45,0,0,0,71.77,54.47Z"/><path class="cls-60" d="M67.13,39.09a9.85,9.85,0,0,1,2.4,3.5s0-.06,0-.1c.27-2.43-.22-4.85-2.4-6.26-1.72-1.11-4.73-1.4-6.4,0A9.59,9.59,0,0,1,67.13,39.09Z"/><path class="cls-60" d="M53.64,60a6.68,6.68,0,0,1-6.74-2.12,3.78,3.78,0,0,0,.91,3.92,4,4,0,0,0,5,.8c1.56,1.47,4.21,1,5.81-.73A6.69,6.69,0,0,1,53.64,60Z"/><path class="cls-60" d="M55.05,43.18c2-1,4.07.1,5.49,2,0-1.54-.42-3.23-1.88-4a3.35,3.35,0,0,0-3.35.28c-1.28-.89-2.8-.54-4.13.86a1.37,1.37,0,0,0-.41,1.06A4,4,0,0,1,55.05,43.18Z"/><path class="cls-60" d="M64.15,47.73a5.52,5.52,0,0,1,.13,3.49c.13.23.07.48-.28.67a3.7,3.7,0,0,1-1.62,1.63,6.66,6.66,0,0,1-1.61,4.37,2.89,2.89,0,0,0,2.89-1.39A2.42,2.42,0,0,0,64,55.15V55a3.54,3.54,0,0,0,2.16-1.07C68.6,51.68,66.87,48.53,64.15,47.73Z"/><path class="cls-61" d="M85.81,46.05a1.49,1.49,0,0,0-1.27-2.22A3.31,3.31,0,0,1,81.78,43a3,3,0,0,1-.57-.45c-.14-.45-.3-.9-.46-1.36A4.94,4.94,0,0,1,82,38.76a1.48,1.48,0,0,0,0-2.54c-4-1.74-3.86-4.74-3.83-8.5a1.5,1.5,0,0,0-1.47-1.48c-2.34,0-6.55,1.65-7.36-1.79a1.49,1.49,0,0,0-1.81-1c-2.47.76-4.65,1.3-7.09.32-1.93-.78-2.51-1.7-3.75-3.26a1.5,1.5,0,0,0-1.79-.23,7.06,7.06,0,0,1-6.88,1,1.49,1.49,0,0,0-2.16.88c-.8,2.7-1.11,2.23-3.1.57a1.49,1.49,0,0,0-2.51,1,27,27,0,0,1-.17,2.8c-1.72-.76-3.86-1.49-5.43-.5A4.7,4.7,0,0,0,33,28.26a6.68,6.68,0,0,1-.76.78A9,9,0,0,1,29,31.85a16.6,16.6,0,0,1-2.41.69c-1,.5-1.2.41-1.76,1.55a8.1,8.1,0,0,0-.25,3c-.09,2.77-.55,4-2.9,5.4a1.48,1.48,0,0,0-.53,2c1.39,2.15,1.22,3.85-.31,5.9A1.5,1.5,0,0,0,21,52.21a12.64,12.64,0,0,1,2.71,4.65c0,.7-.06,1.4-.07,2.09,0,.06,0,.13-.07.19-.67,1.64-2.69,3.09-3.77,4.53a1.48,1.48,0,0,0,.53,2c.4.25,2.29,1,2.63,1.3,2.26,1.64,2.78,2.45,1.55,4.67a1.5,1.5,0,0,0,.88,2.16c2.33.83,3.78.75,5.78,2.37s2.54,3.2,3.81,5.37a1.5,1.5,0,0,0,2,.52c2.78-1.6,5.38-4.44,8.54-3.12,2.46,1,3.15,3.53,4.83,5.47a1.45,1.45,0,0,0,1.78.23c1.63-1.23,3.37-2.9,5.2-3.73.57-.14,1.14-.3,1.71-.49a4.7,4.7,0,0,1,4.12,1.85,1.48,1.48,0,0,0,2.31-.3c1.35-2.55,2.11-4.48,5.23-5.52,2.35-.78,5.17-.52,7.62-.57A1.48,1.48,0,0,0,79.77,74c-1.78-5.14,0-7.64,5.45-8a1.48,1.48,0,0,0,1.27-2.21c-.77-1.14-3.85-5.49-.28-5.39a1.48,1.48,0,0,0,1.27-2.21C85,52.91,83.93,50.05,85.81,46.05Z"/><path class="cls-62" d="M29,18.52a3.23,3.23,0,0,0,.4.9,2.26,2.26,0,0,0,.86.82,2.44,2.44,0,0,0,2.1.13,2.08,2.08,0,0,0,.51-.27,25.23,25.23,0,0,1,2.46,2,.7.7,0,0,0,1.17-.49c0-.71-.24-1.5-.34-2.27h0a4.59,4.59,0,0,0,.51-.35l.07,0c.14-.11.27-.23.4-.35l.18-.19a3.22,3.22,0,0,0,.24-.28,3.1,3.1,0,0,0,.36-.53,3,3,0,0,0,.31-2A2.12,2.12,0,0,0,37,13.86a3.8,3.8,0,0,0-.37-.47,3.3,3.3,0,0,0-.54-.47s0,0,0,0a3.49,3.49,0,0,0-5.29,2.27c-.14.08-.28.16-.41.25l-.15.11-.22.17-.17.17a1.85,1.85,0,0,0-.14.14l-.18.22-.07.11a2.55,2.55,0,0,0-.47,1.47h0A2.76,2.76,0,0,0,29,18.52Z"/><path class="cls-63" d="M96.28,41.29a2.68,2.68,0,0,0,.15-3.49,3,3,0,0,0-3.09-1.49.44.44,0,0,0-.15,0,1.64,1.64,0,0,0-.16-.26,3.32,3.32,0,0,0-1.85-1.33,2.54,2.54,0,0,0-2,.36,1.31,1.31,0,0,0-.27.19,2.26,2.26,0,0,0-.33,3.42v0a3.23,3.23,0,0,0-.3,1.24,8.21,8.21,0,0,1-4,1.05c-.64,0-1,1-.35,1.27a14.32,14.32,0,0,0,5.9,1.05,3.42,3.42,0,0,0,0,.45s0,0,0,0a3,3,0,0,0,.11.4l.07.15a1.92,1.92,0,0,0,.14.29,2.86,2.86,0,0,0,.3.44,3,3,0,0,0,1.13.84,1.52,1.52,0,0,0,.4.12,3.79,3.79,0,0,0,3.11-.66v0h0a3.37,3.37,0,0,0,1.42-3.1A3.56,3.56,0,0,0,96.28,41.29Z"/><path class="cls-64" d="M45.51,92.49l0-.07a1.75,1.75,0,0,0,.12-.32.29.29,0,0,0,0-.09,1.84,1.84,0,0,0,.06-.41,1.51,1.51,0,0,0-.14-.73A1.47,1.47,0,0,0,44.49,90a1.38,1.38,0,0,0-1-1.52,7.1,7.1,0,0,0-1.31-.36h0c.07-1.42.18-2.84.18-4.26a.69.69,0,0,0-1.34-.18c-.37,1.06-.7,2.19-1.12,3.27a2.79,2.79,0,0,0-.53-.24l-.28-.08-.38-.07-.28,0a4.35,4.35,0,0,0-.51,0h-.17a4.18,4.18,0,0,0-.68.16l-.21.08a4.52,4.52,0,0,0-.5.23l-.2.11a4.69,4.69,0,0,0-.63.47,3.75,3.75,0,0,0-.83,1,1.44,1.44,0,0,0-.17.79,5.48,5.48,0,0,0-.76.93.24.24,0,0,0-.05.1,1.4,1.4,0,0,0,.87,1.9l.19.08a6.17,6.17,0,0,0,.08.71c0,.23.07.46.12.72,0,0,0,0,0,.08a1.39,1.39,0,0,0,1.67,1,2.25,2.25,0,0,0,2.2,1.44A2.81,2.81,0,0,0,40.22,96l.22,0c1.16,0,2.34-.92,3.2-1.59l.43-.33h0q.2-.15.39-.33a.6.6,0,0,0,.08-.08c.12-.1.22-.21.33-.32l.07-.08a2.88,2.88,0,0,0,.4-.52A2.61,2.61,0,0,0,45.51,92.49Z"/></g></g></g></svg>