<svg xmlns="http://www.w3.org/2000/svg" xmlns:xlink="http://www.w3.org/1999/xlink" viewBox="0 0 127.51 128.8"><defs><style>.cls-1{isolation:isolate;}.cls-2{mix-blend-mode:screen;}.cls-3{fill:#f9830d;opacity:0.07;}.cls-4{fill:#f98512;opacity:0.08;}.cls-5{fill:#f98816;opacity:0.1;}.cls-6{fill:#f98a1b;opacity:0.12;}.cls-7{fill:#f98d20;opacity:0.14;}.cls-8{fill:#fa8f25;opacity:0.16;}.cls-9{fill:#fa9229;opacity:0.18;}.cls-10{fill:#fa942e;opacity:0.19;}.cls-11{fill:#fa9633;opacity:0.21;}.cls-12{fill:#fa9938;opacity:0.23;}.cls-13{fill:#fa9b3c;opacity:0.25;}.cls-14{fill:#fa9e41;opacity:0.27;}.cls-15{fill:#faa046;opacity:0.29;}.cls-16{fill:#fba34b;opacity:0.3;}.cls-17{fill:#fba54f;opacity:0.32;}.cls-18{fill:#fba754;opacity:0.34;}.cls-19{fill:#fbaa59;opacity:0.36;}.cls-20{fill:#fbac5e;opacity:0.38;}.cls-21{fill:#fbaf62;opacity:0.4;}.cls-22{fill:#fbb167;opacity:0.41;}.cls-23{fill:#fbb46c;opacity:0.43;}.cls-24{fill:#fbb671;opacity:0.45;}.cls-25{fill:#fcb875;opacity:0.47;}.cls-26{fill:#fcbb7a;opacity:0.49;}.cls-27{fill:#fcbd7f;opacity:0.51;}.cls-28{fill:#fcc084;opacity:0.52;}.cls-29{fill:#fcc288;opacity:0.54;}.cls-30{fill:#fcc58d;opacity:0.56;}.cls-31{fill:#fcc792;opacity:0.58;}.cls-32{fill:#fcca97;opacity:0.6;}.cls-33{fill:#fdcc9b;opacity:0.62;}.cls-34{fill:#fdcea0;opacity:0.63;}.cls-35{fill:#fdd1a5;opacity:0.65;}.cls-36{fill:#fdd3aa;opacity:0.67;}.cls-37{fill:#fdd6ae;opacity:0.69;}.cls-38{fill:#fdd8b3;opacity:0.71;}.cls-39{fill:#fddbb8;opacity:0.73;}.cls-40{fill:#fdddbd;opacity:0.74;}.cls-41{fill:#fddfc1;opacity:0.76;}.cls-42{fill:#fee2c6;opacity:0.78;}.cls-43{fill:#fee4cb;opacity:0.8;}.cls-44{fill:#fee7d0;opacity:0.82;}.cls-45{fill:#fee9d4;opacity:0.84;}.cls-46{fill:#feecd9;opacity:0.85;}.cls-47{fill:#feeede;opacity:0.87;}.cls-48{fill:#fef0e3;opacity:0.89;}.cls-49{fill:#fef3e7;opacity:0.91;}.cls-50{fill:#fff5ec;opacity:0.93;}.cls-51{fill:#fff8f1;opacity:0.95;}.cls-52{fill:#fffaf6;opacity:0.96;}.cls-53{fill:#fffdfa;opacity:0.98;}.cls-54{fill:#fff;}.cls-55{fill:#f15a29;}.cls-56{fill:#ffde17;}.cls-57{fill:#fffb6c;}.cls-58{fill:#fff5ab;}.cls-59{fill:#e5451a;}.cls-60{fill:#f47a21;}.cls-61,.cls-62,.cls-63,.cls-64,.cls-65,.cls-66,.cls-67{mix-blend-mode:overlay;}.cls-61{fill:url(#linear-gradient);}.cls-62{fill:url(#linear-gradient-2);}.cls-63{fill:url(#linear-gradient-3);}.cls-64{fill:url(#linear-gradient-4);}.cls-65{fill:url(#linear-gradient-5);}.cls-66{fill:url(#linear-gradient-6);}.cls-67{fill:url(#linear-gradient-7);}</style><linearGradient id="linear-gradient" x1="40.56" y1="30.6" x2="40.56" y2="15.35" gradientUnits="userSpaceOnUse"><stop offset="0"/><stop offset="1" stop-color="#fff"/></linearGradient><linearGradient id="linear-gradient-2" x1="169.67" y1="65.23" x2="169.67" y2="55.34" gradientTransform="translate(283.77 93.67) rotate(161.7)" xlink:href="#linear-gradient"/><linearGradient id="linear-gradient-3" x1="111.28" y1="55.85" x2="111.28" y2="40.49" xlink:href="#linear-gradient"/><linearGradient id="linear-gradient-4" x1="48.74" y1="118.02" x2="48.74" y2="99.52" xlink:href="#linear-gradient"/><linearGradient id="linear-gradient-5" x1="38.83" y1="84.04" x2="38.83" y2="71.06" gradientTransform="translate(66.91 2.45) rotate(62.51)" xlink:href="#linear-gradient"/><linearGradient id="linear-gradient-6" x1="23.65" y1="-52.63" x2="23.65" y2="-65.62" gradientTransform="translate(105 -40.24) rotate(-177.98)" xlink:href="#linear-gradient"/><linearGradient id="linear-gradient-7" x1="65.04" y1="106.17" x2="65.04" y2="22.8" xlink:href="#linear-gradient"/></defs><g class="cls-1"><g id="Layer_2" data-name="Layer 2"><g id="Layer_1-2" data-name="Layer 1"><g class="cls-2"><circle class="cls-3" cx="63.76" cy="63.76" r="63.76"/><circle class="cls-4" cx="63.76" cy="63.76" r="62.61"/><circle class="cls-5" cx="63.76" cy="63.76" r="61.46"/><circle class="cls-6" cx="63.76" cy="63.76" r="60.32"/><circle class="cls-7" cx="63.76" cy="63.76" r="59.17"/><circle class="cls-8" cx="63.76" cy="63.76" r="58.03"/><circle class="cls-9" cx="63.76" cy="63.76" r="56.88"/><circle class="cls-10" cx="63.76" cy="63.76" r="55.73"/><circle class="cls-11" cx="63.76" cy="63.76" r="54.59"/><circle class="cls-12" cx="63.76" cy="63.76" r="53.44"/><circle class="cls-13" cx="63.76" cy="63.76" r="52.3"/><circle class="cls-14" cx="63.76" cy="63.76" r="51.15"/><circle class="cls-15" cx="63.76" cy="63.76" r="50"/><circle class="cls-16" cx="63.76" cy="63.76" r="48.86"/><circle class="cls-17" cx="63.76" cy="63.76" r="47.71"/><circle class="cls-18" cx="63.76" cy="63.76" r="46.57"/><circle class="cls-19" cx="63.76" cy="63.76" r="45.42" transform="translate(-26.41 63.76) rotate(-45)"/><circle class="cls-20" cx="63.76" cy="63.76" r="44.27" transform="translate(-26.41 63.76) rotate(-45)"/><circle class="cls-21" cx="63.76" cy="63.76" r="43.13" transform="translate(-26.41 63.76) rotate(-45)"/><circle class="cls-22" cx="63.76" cy="63.76" r="41.98" transform="translate(-26.41 63.76) rotate(-45)"/><circle class="cls-23" cx="63.76" cy="63.76" r="40.84" transform="translate(-26.41 63.76) rotate(-45)"/><circle class="cls-24" cx="63.76" cy="63.76" r="39.69" transform="translate(-26.41 63.76) rotate(-45)"/><circle class="cls-25" cx="63.76" cy="63.76" r="38.54" transform="translate(-26.41 63.76) rotate(-45)"/><circle class="cls-26" cx="63.76" cy="63.76" r="37.4" transform="translate(-26.41 63.76) rotate(-45)"/><circle class="cls-27" cx="63.76" cy="63.76" r="36.25" transform="translate(-26.41 63.76) rotate(-45)"/><circle class="cls-28" cx="63.76" cy="63.76" r="35.11" transform="translate(-26.41 63.76) rotate(-45)"/><circle class="cls-29" cx="63.76" cy="63.76" r="33.96" transform="translate(-26.41 63.76) rotate(-45)"/><circle class="cls-30" cx="63.76" cy="63.76" r="32.81" transform="translate(-26.41 63.76) rotate(-45)"/><circle class="cls-31" cx="63.76" cy="63.76" r="31.67" transform="translate(-26.41 63.76) rotate(-45)"/><circle class="cls-32" cx="63.76" cy="63.76" r="30.52" transform="translate(-26.41 63.76) rotate(-45)"/><circle class="cls-33" cx="63.76" cy="63.76" r="29.38" transform="translate(-26.41 63.76) rotate(-45)"/><circle class="cls-34" cx="63.76" cy="63.76" r="28.23" transform="translate(-26.41 63.76) rotate(-45)"/><circle class="cls-35" cx="63.76" cy="63.76" r="27.08" transform="translate(-26.41 63.76) rotate(-45)"/><circle class="cls-36" cx="63.76" cy="63.76" r="25.94" transform="translate(-26.41 63.76) rotate(-45)"/><circle class="cls-37" cx="63.76" cy="63.76" r="24.79" transform="translate(-26.41 63.76) rotate(-45)"/><circle class="cls-38" cx="63.76" cy="63.76" r="23.64" transform="translate(-26.41 63.76) rotate(-45)"/><circle class="cls-39" cx="63.76" cy="63.76" r="22.5" transform="translate(-26.41 63.76) rotate(-45)"/><circle class="cls-40" cx="63.76" cy="63.76" r="21.35" transform="translate(-26.41 63.76) rotate(-45)"/><circle class="cls-41" cx="63.76" cy="63.76" r="20.21" transform="translate(-26.41 63.76) rotate(-45)"/><circle class="cls-42" cx="63.76" cy="63.76" r="19.06" transform="translate(-26.41 63.76) rotate(-45)"/><circle class="cls-43" cx="63.76" cy="63.76" r="17.91" transform="translate(-26.41 63.76) rotate(-45)"/><circle class="cls-44" cx="63.76" cy="63.76" r="16.77" transform="translate(-26.41 63.76) rotate(-45)"/><circle class="cls-45" cx="63.76" cy="63.76" r="15.62" transform="translate(-26.41 63.76) rotate(-45)"/><circle class="cls-46" cx="63.76" cy="63.76" r="14.48" transform="translate(-26.41 63.76) rotate(-45)"/><circle class="cls-47" cx="63.76" cy="63.76" r="13.33" transform="translate(-26.41 63.76) rotate(-45)"/><circle class="cls-48" cx="63.76" cy="63.76" r="12.18" transform="translate(-26.41 63.76) rotate(-45)"/><circle class="cls-49" cx="63.76" cy="63.76" r="11.04" transform="translate(-26.41 63.76) rotate(-45)"/><circle class="cls-50" cx="63.76" cy="63.76" r="9.89" transform="translate(-26.41 63.76) rotate(-45)"/><circle class="cls-51" cx="63.76" cy="63.76" r="8.75" transform="translate(-26.41 63.76) rotate(-45)"/><circle class="cls-52" cx="63.76" cy="63.76" r="7.6" transform="translate(-26.41 63.76) rotate(-45)"/><path class="cls-53" d="M70.21,63.76a6.46,6.46,0,1,1-6.45-6.46A6.45,6.45,0,0,1,70.21,63.76Z"/><path class="cls-54" d="M69.06,63.76a5.31,5.31,0,1,1-5.3-5.31A5.3,5.3,0,0,1,69.06,63.76Z"/></g><path class="cls-55" d="M107.69,65.47c-2.24-1.41-4.56-2.66-6.87-4a25.69,25.69,0,0,1,4.1-2.17,2.43,2.43,0,0,0,0-4.17c-2.26-1.12-5.31-1.48-7.65-2.7a71.66,71.66,0,0,0,5.43-6.83c1.09-1.55-.39-3.61-2.09-3.63a25.21,25.21,0,0,0-3.68.37c-2.65.35-3.31.86-3.17-2.06.12-2.62,1.08-4.8.56-7.47a2.46,2.46,0,0,0-3-1.68c-2.44.5-4.87,1.06-7.29,1.65a17.63,17.63,0,0,0,.22-3.71c-.11-1.42-1.47-2.92-3-2.33-2.3.87-4.77,3-7.13,3.33-2.88.41-2.25-3.35-2.63-5.62s-3.33-2-4.41-.57-2.26,3.35-3.53,4.89a47.14,47.14,0,0,0-2.64-4.3c-1-1.35-3.31-1.77-4.17,0s-1.41,3.83-2.21,5.72c-.63-1.06-1.23-2.13-1.93-3.14a2.44,2.44,0,0,0-4.5,1.22,57.53,57.53,0,0,0,.32,6.3l-.12-.09a2.47,2.47,0,0,0-3.58-1.68,7.55,7.55,0,0,0-2.21,1.36c-1-.61-1.92-1.29-2.89-2-1.77-1.23-4.09.8-3.54,2.73a45.59,45.59,0,0,0,2.16,4.55A25.35,25.35,0,0,0,31,38a2.44,2.44,0,0,0-2.33,3.06,27.14,27.14,0,0,0,2.78,6.21l-4.5-.74a2.46,2.46,0,0,0-2.73,3.55,55.76,55.76,0,0,0,2.73,5.39c-.88-.2-1.77-.4-2.67-.58a2.44,2.44,0,0,0-2.72,3.54,25.6,25.6,0,0,0,4.21,5c-.83.33-1.66.67-2.49,1-1.85.81-1.27,3.23,0,4.17,1.83,1.37,4.12,2,6.16,3-1.79,1.42-3.72,2.67-5.49,4.12-1.41,1.16-.6,3.64,1.06,4a51,51,0,0,0,6.82.76c-1.38.7-2.76,1.41-4.09,2.22a2.44,2.44,0,0,0,.58,4.41,50.39,50.39,0,0,0,8.23,1.56A23,23,0,0,0,33.24,92c-1.25,1.75.82,4.11,2.73,3.55S40,94.26,42.1,93.76a16.4,16.4,0,0,0-.38,4.44,2.44,2.44,0,0,0,3.63,2.09c2.75-1.68,4.34-6.23,7.14-7.35s3.72,6.27,4.89,8.47a2.43,2.43,0,0,0,3.79.49c.18-.17.34-.34.5-.51A19,19,0,0,0,63.53,105a2.45,2.45,0,0,0,4.41-.58c.75-2.21,1.62-4.38,2.51-6.54a27,27,0,0,0,3.61,5.28c1.54,1.64,4,.25,4.12-1.71.14-1.6.14-3.2.21-4.78a39.22,39.22,0,0,1,2.12,3.42c1.22,2.22,4.35,1.06,4.5-1.21.17-2.71,0-5.37.36-8,2.76,1.43,5.33,3.24,8.12,4.61,1.7.84,4.35-.59,3.55-2.73s-4.05-7.83-3.17-10c1-2.54,8.14-.79,10.45-.86,1.64,0,3.27-2.09,2.09-3.63a59.15,59.15,0,0,0-5.45-6c2.57-.55,5.05-1.14,7.21-3A2.44,2.44,0,0,0,107.69,65.47Zm-49,21.65a34.21,34.21,0,0,1-6.91-1.31A2.16,2.16,0,0,0,50,82.48c-1.17,0-2.52-1.21-3.42-2.55h.13c2.76-.36,2.8-4.76,0-4.39a9.53,9.53,0,0,1-2,0,2.15,2.15,0,0,0-1.28-.29,5,5,0,0,1-1.28-.6c-.39-2.8-.55-5.89-.67-8.57A2,2,0,0,0,42,63.45c-.17-.31-.3-.65-.44-1,0,0,0-.07,0-.11-.06-7.43.19-12.41,6.64-17.21a22.88,22.88,0,0,0,2.23-1.95,2.4,2.4,0,0,0,3.22-1.06l.13,0a2,2,0,0,0,2.64-1.79,12.58,12.58,0,0,1,3.79.87,2.2,2.2,0,0,0,2.48-1l6.55-3.37,1.37,1.56c.78.17,1.75,1.24,2.5,1.62,1.72.88,5.21.76,7,1.45a17.6,17.6,0,0,1,9.48,9.39A15.83,15.83,0,0,0,90,53.56a1.27,1.27,0,0,0,1.09,1c2.5,8.37,1.33,18.52-3.45,24.65C81.26,87.43,68.09,87.92,58.71,87.12Z"/><path class="cls-56" d="M101,75.09c-1.18-1.17-2.85-2.48-3.67-4.09,1.89-.67,3.78-1.54,4-3.62a4.35,4.35,0,0,0-.92-2.91c-.47-.74-1.19-1.29-1.7-2l-.66-.91c-.17-.25-.29-.44-.37-.58l0-.25a5.12,5.12,0,0,1,.59.49A2.42,2.42,0,0,0,99,56.49c-5.58-1.85-.92-6.86.84-10.29.92-1.8-.61-4.2-2.72-3.55-1.32.4-2.62.82-3.93,1.19a76.1,76.1,0,0,1,0-8.68c0-1.43-1.56-2.91-3-2.33-1.86.73-3.35,2.32-5.15,3-2.6,1-2.57-1.44-4-3.28a2.48,2.48,0,0,0-3.3-.86c-2.53,1.38-7.46,3.51-7.45-1.08a2.43,2.43,0,0,0-4.5-1.21,15.78,15.78,0,0,1-1.77,2.41,16.31,16.31,0,0,1-1.24-3c-.48-1.6-2.84-2.54-4-1.07a12.76,12.76,0,0,0-2.19,4.67c-.1.35-.31,1.43-.53,2l-.46.3a23.89,23.89,0,0,1-1.6-3.09c-.83-1.84-4-1.39-4.41.58-.25,1.37-.54,2.72-.88,4.06-1.75-.49-3.44-1.16-5.21-1.67a2.44,2.44,0,0,0-3,2.33,32.94,32.94,0,0,1,.55,4.24A6.35,6.35,0,0,0,39.6,42a4.86,4.86,0,0,0-.41.38c-1.64-.18-4.2-1.07-5.32-1.07a2.44,2.44,0,0,0-1.7,4.12c.43.53.9,1,1.39,1.56a2.61,2.61,0,0,0-.06.79,7.31,7.31,0,0,1-1.23.38,2.59,2.59,0,0,0-1.63,3.28,11.66,11.66,0,0,1-1.68.17,2.45,2.45,0,0,0-2.33,3A9.16,9.16,0,0,0,28,57.5c-.64.27-1.27.53-1.9.84-1.79.89-1.32,3.17,0,4.17.49.36,1,.69,1.49,1-.34.21-.7.41-1.08.62a2.45,2.45,0,0,0,0,4.17c1.13.78,2.36,1.37,3.55,2-1.44,1.76-2.79,3.77-2.32,5.9s2.58,3.44,4.4,4.73A15.62,15.62,0,0,0,31,83.48a2.41,2.41,0,0,0,1.11,2.73,23.42,23.42,0,0,0,5,1.64c-.49.92-1,1.84-1.38,2.81-.93,2.21,1,4.42,3.3,3.3a17,17,0,0,0,3-2,20.39,20.39,0,0,0,1.83,3.53,2.45,2.45,0,0,0,3.79.49c1.07-1.11,2-3.15,3.19-4,1.55-1.14,1.88-.15,3.31,1.19,2.69,2.51,5,5.4,7.41,8.13a2.48,2.48,0,0,0,3.42,0,9.28,9.28,0,0,0,2.58-4.37c.68.83,1.34,1.67,2.07,2.45a2.45,2.45,0,0,0,3.8-.49c.93-1.27,1.58-3,2.51-4.48a25.1,25.1,0,0,0,3.34,3.43,2.45,2.45,0,0,0,3.41,0c1.76-1.82,2.23-3.94,2.63-6.19a9.74,9.74,0,0,0,5.27,1.86A2.28,2.28,0,0,0,92.75,92a1.92,1.92,0,0,0,.62-1.08c.55-3-.41-5.66-1.63-8.32.17-.58.3-1.08.47-1.57,1.88-1.29,5.18-1.6,7.12-1.81S102.65,76.67,101,75.09ZM80.41,92.19a16.68,16.68,0,0,1-1.19-1.45c.54-.25,1.07-.48,1.6-.71A15,15,0,0,1,80.41,92.19Z"/><path class="cls-57" d="M96.1,69.28a23.69,23.69,0,0,0-.59-5.87,23,23,0,0,0-2.07-16A6.65,6.65,0,0,0,92.87,43c-1.36-2.85-4.1-3.59-6.82-3.21a29.48,29.48,0,0,0-4.53-2.18c-.38-.25-.74-.52-1.12-.76-12.64-7.69-29-4.72-38.88,5.64A5,5,0,0,0,36.28,50a28.15,28.15,0,0,0-2.36,8.42,28.27,28.27,0,0,0-.45,13.88,4.57,4.57,0,0,0-1.09,3c.06,2.12,1.73,3.25,3.66,3.75a21.75,21.75,0,0,0,5.3,6.32,27.1,27.1,0,0,0,16,5.93c1.23,2.36,3,4.23,6.13,4.65A5.45,5.45,0,0,0,69,93.46c11.3.52,21.17-5.09,25.26-15.19,1.79-.21,3.34-.94,3.78-3.09C98.5,72.86,97.51,71,96.1,69.28Z"/><path class="cls-56" d="M39,55.85c-6,.48-4.59,11.62.21,10.78C37.51,63.26,37.34,58.91,39,55.85Z"/><path class="cls-56" d="M65.25,37.25a2.73,2.73,0,0,0-.37-.72c-1.63-2.19-3.73-3.29-5.67-1.75s-2.89,4.77-3.27,8.16a4,4,0,0,0,0,.6C58.19,39.16,61.85,36.7,65.25,37.25Z"/><path class="cls-56" d="M84.51,81.25a15.45,15.45,0,0,1-11.3,8.07,1.34,1.34,0,0,0,1.46.86l1.57-.13c4.66.7,10.18-2.55,9.42-7.67A1.33,1.33,0,0,0,84.51,81.25Z"/><path class="cls-56" d="M45.12,80.87a1.26,1.26,0,0,0-1.14.84c-.06.13-.1.27-.15.4h0a.28.28,0,0,0,0,.09A6.1,6.1,0,0,0,45,88.56a4.36,4.36,0,0,0,1.38.9,5.73,5.73,0,0,0,.62.44c2.72,1.57,5.43.17,7-2.17C49.7,87.94,45.48,85.21,45.12,80.87Z"/><path class="cls-54" d="M91.28,68.5c0-.27,0-.53,0-.8a4.65,4.65,0,0,0-.24-5c.86-6.12-.66-12.35-5.32-16.85a6.55,6.55,0,0,0-2.75-4.77,8.61,8.61,0,0,0-6.34-.87,27,27,0,0,0-25.92,0c-5.21-.29-10.53,4.79-10.57,10-.24.4-.48.8-.69,1.22-4,3.12-6.69,8.79-3.33,12.58a.61.61,0,0,1,0,.14c-3.17,4.76-2.39,9.69,1.7,12.07a19.87,19.87,0,0,0,5.58,7.53,23.83,23.83,0,0,0,15.48,5.3,28.9,28.9,0,0,0,7.32,1.75,24.43,24.43,0,0,0,2.55.12c5.59,1.86,12.4.14,14.72-5a20.27,20.27,0,0,0,3.09-3.12C92.45,80.26,95.87,73.91,91.28,68.5Z"/><path class="cls-58" d="M46,67.24a2.88,2.88,0,0,1-.36-.9,6.89,6.89,0,0,1-.72-5.72A2,2,0,0,1,46,58.42a6.7,6.7,0,0,1,2.52-2.14,7.63,7.63,0,0,1,.11-1.44,3.18,3.18,0,0,1-.11-1.2,1.69,1.69,0,0,0,.12-.4c0-.11.06-.23.09-.35a3.18,3.18,0,0,1,1.09-1.19,15.28,15.28,0,0,1,4.58-4.55c-3.94-1.81-8.24,1.12-9.25,5.08A6.67,6.67,0,0,0,45,54.81c-3.45,1.13-5,6.42-2.43,9.16-1.32,2.51.2,6.29,2.58,7.72A13,13,0,0,1,46,67.24Z"/><path class="cls-58" d="M86,68.31a11.16,11.16,0,0,1-.77,5.33A4.49,4.49,0,0,1,85,76.11a4,4,0,0,1-4,2.76A8.57,8.57,0,0,1,78.05,80c-3.06,3.51-6.63,6.08-10.79,6.91,3.7,2.94,10,.35,12-4a8.45,8.45,0,0,0,9.88-6.13C90.16,73.24,88.89,69.83,86,68.31Z"/><path class="cls-58" d="M80,48.24a13.09,13.09,0,0,1,3.14,4.57c0-.05,0-.08,0-.13.35-3.17-.29-6.33-3.13-8.17-2.24-1.45-6.16-1.83-8.35.05A12.54,12.54,0,0,1,80,48.24Z"/><path class="cls-58" d="M62.39,75.48c-3.31.78-7-.34-8.79-2.76a4.9,4.9,0,0,0,1.19,5.11,5.2,5.2,0,0,0,6.51,1c2,1.92,5.48,1.33,7.58-1A8.72,8.72,0,0,1,62.39,75.48Z"/><path class="cls-58" d="M64.22,53.58c2.57-1.32,5.32.13,7.18,2.57,0-2-.56-4.21-2.46-5.24a4.37,4.37,0,0,0-4.36.38c-1.68-1.17-3.66-.72-5.4,1.11a1.82,1.82,0,0,0-.54,1.39A5.14,5.14,0,0,1,64.22,53.58Z"/><path class="cls-58" d="M76.11,59.51a7.2,7.2,0,0,1,.16,4.55c.17.31.09.63-.36.88a4.88,4.88,0,0,1-2.11,2.13,8.77,8.77,0,0,1-2.11,5.7A3.77,3.77,0,0,0,75.46,71a3.07,3.07,0,0,0,.48-1.75V69a4.67,4.67,0,0,0,2.81-1.4C81.91,64.66,79.66,60.56,76.11,59.51Z"/><path class="cls-55" d="M47.67,20.29a3.3,3.3,0,0,0-2-2.61,5,5,0,0,0-.56-.71,5.18,5.18,0,0,0-.84-.74s0,0,0,0c-3.18-2.24-7.54.09-8.12,3.5-1.93,1-3.27,2.91-2.66,5.11a4.63,4.63,0,0,0,.61,1.38,3.56,3.56,0,0,0,1.31,1.25,3.76,3.76,0,0,0,3.23.21,3.23,3.23,0,0,0,.78-.41,38.68,38.68,0,0,1,3.79,3.06A1.06,1.06,0,0,0,45,29.59c0-1.1-.37-2.31-.52-3.49a7.48,7.48,0,0,0,2.7-2.69A4.74,4.74,0,0,0,47.67,20.29Z"/><path class="cls-59" d="M39.68,20.28c.43-1.37.62-2.52,2.42-3.38a8.12,8.12,0,0,1,2.18-.67c-3.18-2.24-7.54.09-8.12,3.5a4.69,4.69,0,0,0-2.79,4.05A10,10,0,0,1,39.68,20.28Z"/><path class="cls-60" d="M47.19,23.41c-1.32,2.45-4.94,4.42-7.43,3.62a3.25,3.25,0,0,1-1.11.65,3.76,3.76,0,0,1-3.23-.21,2.41,2.41,0,0,0,1-1.34A2.12,2.12,0,0,1,39,24.67c4.23,1.11,5.86-2.07,8.69-4.38A4.74,4.74,0,0,1,47.19,23.41Z"/><path class="cls-61" d="M33.5,24.84a4.63,4.63,0,0,0,.61,1.38,3.56,3.56,0,0,0,1.31,1.25,3.76,3.76,0,0,0,3.23.21,3.23,3.23,0,0,0,.78-.41,38.68,38.68,0,0,1,3.79,3.06A1.06,1.06,0,0,0,45,29.59c0-1.1-.37-2.31-.52-3.49h0q.4-.26.78-.54l.11-.08a7.84,7.84,0,0,0,.61-.54,3.71,3.71,0,0,0,.27-.29,5.11,5.11,0,0,0,.39-.42,6.81,6.81,0,0,0,.54-.82,4.74,4.74,0,0,0,.48-3.12,3.3,3.3,0,0,0-2-2.61,5,5,0,0,0-.56-.71,5.18,5.18,0,0,0-.84-.74s0,0,0,0c-3.18-2.24-7.54.09-8.12,3.5a6,6,0,0,0-.64.38l-.23.17-.33.26-.27.26-.21.22c-.1.11-.19.22-.28.34l-.11.15a4,4,0,0,0-.72,2.27h0A3.9,3.9,0,0,0,33.5,24.84Z"/><path class="cls-55" d="M99.94,92.78A2.15,2.15,0,0,0,101.68,94a5.44,5.44,0,0,0,.5.32,3.73,3.73,0,0,0,.66.28s0,0,0,0a3.47,3.47,0,0,0,4.29-3.81,2.9,2.9,0,0,0,.6-3.69,3.38,3.38,0,0,0-.65-.73,2.39,2.39,0,0,0-1.07-.5,2.44,2.44,0,0,0-2,.53,2.21,2.21,0,0,0-.4.41,26.71,26.71,0,0,1-3-1.11c-.51-.21-1.18.23-1,.82s.69,1.34,1,2a4.83,4.83,0,0,0-1.11,2.21A3.08,3.08,0,0,0,99.94,92.78Z"/><path class="cls-59" d="M104.86,91.16a2.83,2.83,0,0,1-.8,2.58,5,5,0,0,1-1.21.86,3.47,3.47,0,0,0,4.29-3.81,3.07,3.07,0,0,0,.9-3.07A6.42,6.42,0,0,1,104.86,91.16Z"/><path class="cls-60" d="M99.6,90.77C99.91,89,101.74,87,103.44,87a2.16,2.16,0,0,1,.55-.62,2.44,2.44,0,0,1,2-.53,1.61,1.61,0,0,0-.34,1,1.36,1.36,0,0,1-1.28,1.43c-2.83.18-3.19,2.47-4.46,4.46A3.08,3.08,0,0,1,99.6,90.77Z"/><path class="cls-62" d="M107.74,87.1a3.38,3.38,0,0,0-.65-.73,2.39,2.39,0,0,0-1.07-.5,2.44,2.44,0,0,0-2,.53,2.21,2.21,0,0,0-.4.41,26.71,26.71,0,0,1-3-1.11c-.51-.21-1.18.23-1,.82s.69,1.34,1,2h0c-.13.16-.25.32-.37.49a.18.18,0,0,1,0,.07c-.09.15-.19.3-.27.46a2.29,2.29,0,0,0-.1.23,3.23,3.23,0,0,0-.15.34,2.87,2.87,0,0,0-.17.62,3.08,3.08,0,0,0,.34,2A2.15,2.15,0,0,0,101.68,94a5.44,5.44,0,0,0,.5.32,3.73,3.73,0,0,0,.66.28s0,0,0,0a3.47,3.47,0,0,0,4.29-3.81c.12-.12.22-.24.32-.36a1.4,1.4,0,0,0,.1-.16,1.88,1.88,0,0,0,.16-.23l.11-.21.09-.18c0-.09.07-.17.1-.26l0-.12a2.56,2.56,0,0,0,0-1.55h0A2.36,2.36,0,0,0,107.74,87.1Z"/><path class="cls-55" d="M119.48,44.66a4,4,0,0,0-4.11-2,.71.71,0,0,0-.2,0l-.22-.34a4.4,4.4,0,0,0-2.48-1.77,3.37,3.37,0,0,0-2.64.47,3.32,3.32,0,0,0-.36.26,3,3,0,0,0-.44,4.57l0,0a4.33,4.33,0,0,0-.37,1.65A11.12,11.12,0,0,1,103.23,49c-.85,0-1.32,1.32-.46,1.7a19.26,19.26,0,0,0,7.87,1.4,3.79,3.79,0,0,0,.9,2.36,3.53,3.53,0,0,0,2,1.29,5.06,5.06,0,0,0,4.15-.89l0,0s0,0,0,0a4.29,4.29,0,0,0,1.49-5.46A3.58,3.58,0,0,0,119.48,44.66Z"/><path class="cls-59" d="M115,42.35a7.22,7.22,0,0,0-2.46-1.12c0-.21,0-.43,0-.65A4.4,4.4,0,0,1,115,42.35Z"/><path class="cls-59" d="M119.28,49.32a4.47,4.47,0,0,1,.4,1.33,2.22,2.22,0,0,0-.71.76c-.09.19-.09,1.42-.22,1.77a6,6,0,0,1-1,1.62l0,0a5.06,5.06,0,0,1-4.15.89,11.17,11.17,0,0,0,2.44-4.5,4,4,0,0,0,1.79-3.86,1.33,1.33,0,0,0,0-.8,1.68,1.68,0,0,0-.33-.62.09.09,0,0,1,0,0,6.87,6.87,0,0,0-2.15-3.21,4,4,0,0,1,4.11,2A3.58,3.58,0,0,1,119.28,49.32Z"/><path class="cls-60" d="M113.05,55.55a4,4,0,0,1-1.51-1.13,3.75,3.75,0,0,1-.91-2.55,4.33,4.33,0,0,1-1-1,4.92,4.92,0,0,1-.6-5l0,0a3,3,0,0,1,.44-4.57,3.09,3.09,0,0,0,.93,3.29,1.88,1.88,0,0,1,.65,2.5c-.78,1.6,1.62,2.91,1.82,4.68C113,53,112.91,54.35,113.05,55.55Z"/><path class="cls-63" d="M119.28,49.32a3.58,3.58,0,0,0,.2-4.66,4,4,0,0,0-4.11-2,.71.71,0,0,0-.2,0l-.22-.34a4.4,4.4,0,0,0-2.48-1.77,3.37,3.37,0,0,0-2.64.47,3.32,3.32,0,0,0-.36.26,3,3,0,0,0-.44,4.57l0,0a4.27,4.27,0,0,0-.41,1.66,11,11,0,0,1-5.41,1.4c-.85,0-1.32,1.32-.46,1.7a19.26,19.26,0,0,0,7.87,1.4,4.09,4.09,0,0,0,.07.6.09.09,0,0,0,0,.05,3.58,3.58,0,0,0,.14.54l.09.19a3.52,3.52,0,0,0,.18.39,4.47,4.47,0,0,0,.41.59,3.53,3.53,0,0,0,2,1.29,5.06,5.06,0,0,0,4.15-.89l0,0s0,0,0,0a4.29,4.29,0,0,0,1.49-5.46Z"/><path class="cls-55" d="M57.09,110.31a2.09,2.09,0,0,0-1.57-1.21A1.93,1.93,0,0,0,54.17,107a9.86,9.86,0,0,0-1.85-.52c.1-2,.26-4,.26-6a1,1,0,0,0-1.89-.26c-.53,1.5-1,3.1-1.59,4.62a5.29,5.29,0,0,0-6.15.93,5.1,5.1,0,0,0-1.18,1.4,2,2,0,0,0-.23,1.11,8.24,8.24,0,0,0-1.07,1.31.74.74,0,0,0-.08.15,2,2,0,0,0,1.23,2.68c.1,0,.17.07.27.11,0,.33.06.65.11,1s.1.65.18,1a.75.75,0,0,1,0,.11A2,2,0,0,0,44.56,116a3.18,3.18,0,0,0,3.1,2,4.14,4.14,0,0,0,1.84-.46c.12,0,.19,0,.31,0,1.63,0,3.3-1.3,4.51-2.24a10.65,10.65,0,0,0,2.33-2.23,3.12,3.12,0,0,0,.63-1.77A2.11,2.11,0,0,0,57.09,110.31Z"/><path class="cls-59" d="M57.28,111.35c0,1.71-1.73,3.05-3,4s-2.88,2.28-4.51,2.24c-.12,0-.19,0-.31,0a4.14,4.14,0,0,1-1.84.46,3.18,3.18,0,0,1-3.1-2,2,2,0,0,1-2.36-1.35.75.75,0,0,0,0-.11,9.07,9.07,0,0,1-.06-1l-.12,0c0-.35-.09-.67-.11-1-.1,0-.17-.08-.27-.11a2,2,0,0,1-1.23-2.68,4.33,4.33,0,0,0,2.67-.63,1.92,1.92,0,0,1,2.88,1.65c0,.85,0,1.69,0,2.56,1.94,2.32,3.22,2.44,3.82.33,1-1.77,3.46-.85,3.58,1,0,.57,2.26-1.27,2.26-1.29a7.08,7.08,0,0,0,1.46-2.86s0-.08,0-.12A2.11,2.11,0,0,1,57.28,111.35Z"/><path class="cls-60" d="M57.28,111.35a3.12,3.12,0,0,1-.63,1.77,10,10,0,0,0-1.23-1.31,12.44,12.44,0,0,1-1.52-1.19c-.36-.44-.5-1.21-.88-1.58-1-1,0-.25-1.5-.36s-2.31,0-3.56-.85c-.69-.48-1.27-1.58-2-2a3.24,3.24,0,0,0-3-.11c2.48-2.27,6.36-2,7.57.65a7.74,7.74,0,0,1,3.65.58,1.93,1.93,0,0,1,1.35,2.13,2.13,2.13,0,0,1,1.76,2.25Z"/><path class="cls-64" d="M57,112.6a1,1,0,0,0,0-.1,3,3,0,0,0,.17-.45l0-.13a2.56,2.56,0,0,0-.11-1.61,2.09,2.09,0,0,0-1.57-1.21A1.93,1.93,0,0,0,54.17,107a9.86,9.86,0,0,0-1.85-.52h0c.1-2,.26-4,.26-6a1,1,0,0,0-1.89-.26c-.53,1.5-1,3.1-1.59,4.62a3.86,3.86,0,0,0-.74-.35l-.39-.1a5,5,0,0,0-.53-.11l-.41,0a4.26,4.26,0,0,0-.71,0h-.25a5.26,5.26,0,0,0-1,.23l-.3.11a4.94,4.94,0,0,0-.7.33l-.29.16a5.46,5.46,0,0,0-.88.66,5.1,5.1,0,0,0-1.18,1.4,2,2,0,0,0-.23,1.11,8.24,8.24,0,0,0-1.07,1.31.74.74,0,0,0-.08.15,2,2,0,0,0,1.23,2.68c.1,0,.17.07.27.11,0,.33.06.65.11,1s.1.65.18,1a.75.75,0,0,1,0,.11A2,2,0,0,0,44.56,116a3.18,3.18,0,0,0,3.1,2,4.14,4.14,0,0,0,1.84-.46c.12,0,.19,0,.31,0,1.63,0,3.3-1.3,4.51-2.24l.6-.47h0l.54-.46.13-.11c.15-.15.31-.3.45-.46a.57.57,0,0,0,.11-.11,4.88,4.88,0,0,0,.56-.73A3.26,3.26,0,0,0,57,112.6Z"/><path class="cls-55" d="M17.79,78.39A1.45,1.45,0,0,0,18,77a1.36,1.36,0,0,0,.9-1.53,7.92,7.92,0,0,0-.28-1.32c1.27-.58,2.57-1.13,3.82-1.78A.68.68,0,0,0,22,71.13c-1.1.15-2.25.39-3.39.51a3.74,3.74,0,0,0-2.57-3.54,3.81,3.81,0,0,0-1.26-.27A1.41,1.41,0,0,0,14,68a5.81,5.81,0,0,0-1.16-.24h-.12a1.38,1.38,0,0,0-1.26,1.63,1.55,1.55,0,0,0,0,.21,4.21,4.21,0,0,0-.58.39,6.84,6.84,0,0,0-.58.44l-.07,0a1.38,1.38,0,0,0-.07,1.91A2.21,2.21,0,0,0,9.94,75a2.71,2.71,0,0,0,.88,1c0,.07,0,.13.08.21.5,1,1.88,1.63,2.86,2.08A7.61,7.61,0,0,0,15.9,79a2.27,2.27,0,0,0,1.31-.18A1.52,1.52,0,0,0,17.79,78.39Z"/><path class="cls-59" d="M17.21,78.85c-1.08.53-2.47-.09-3.45-.55s-2.36-1-2.86-2.08c0-.08,0-.14-.08-.21a2.71,2.71,0,0,1-.88-1,2.21,2.21,0,0,1,.26-2.58,1.38,1.38,0,0,1,.07-1.91l.07,0A5,5,0,0,1,11,70.1s0,0-.05-.07a4.21,4.21,0,0,1,.58-.39,1.55,1.55,0,0,1,0-.21,1.38,1.38,0,0,1,1.26-1.63A3.15,3.15,0,0,0,14,69.26a1.35,1.35,0,0,1-.09,2.33c-.52.3-1.05.56-1.6.81q-1.23,3,1,2.49a1.36,1.36,0,0,1,.56,2.54c-.34.21,1.53,1,1.54,1a4.93,4.93,0,0,0,2.26,0h.08A1.52,1.52,0,0,1,17.21,78.85Z"/><path class="cls-60" d="M17.21,78.85A2.27,2.27,0,0,1,15.9,79a8.33,8.33,0,0,0,.42-1.19,7.71,7.71,0,0,1,.25-1.34c.15-.37.59-.7.69-1.06.29-1,.16-.08-.26-1a4,4,0,0,1-.62-2.49c.07-.58.57-1.3.59-1.86a2.26,2.26,0,0,0-.91-1.94c2.21.81,3.31,3.31,2,4.93a5.53,5.53,0,0,1,.83,2.46A1.36,1.36,0,0,1,18,77a1.45,1.45,0,0,1-.24,1.37A1.52,1.52,0,0,1,17.21,78.85Z"/><path class="cls-65" d="M16.32,79.05h.07a1.27,1.27,0,0,0,.34,0l.09,0a2,2,0,0,0,.39-.13,1.52,1.52,0,0,0,.58-.46A1.45,1.45,0,0,0,18,77a1.36,1.36,0,0,0,.9-1.53,7.92,7.92,0,0,0-.28-1.32h0c1.27-.58,2.57-1.13,3.82-1.78A.68.68,0,0,0,22,71.13c-1.1.15-2.25.39-3.39.51a2.72,2.72,0,0,0-.09-.86,2.47,2.47,0,0,0-.11-.36c0-.09-.06-.18-.1-.27a3.7,3.7,0,0,0-.25-.43,1.19,1.19,0,0,0-.09-.15,3.17,3.17,0,0,0-.45-.52,1.22,1.22,0,0,0-.17-.15,2.88,2.88,0,0,0-.43-.33l-.19-.13a3.69,3.69,0,0,0-.69-.34,3.81,3.81,0,0,0-1.26-.27A1.41,1.41,0,0,0,14,68a5.81,5.81,0,0,0-1.16-.24h-.12a1.38,1.38,0,0,0-1.26,1.63,1.55,1.55,0,0,0,0,.21,4.21,4.21,0,0,0-.58.39,6.84,6.84,0,0,0-.58.44l-.07,0a1.38,1.38,0,0,0-.07,1.91A2.21,2.21,0,0,0,9.94,75a2.71,2.71,0,0,0,.88,1c0,.07,0,.13.08.21.5,1,1.88,1.63,2.86,2.08l.49.22h0l.47.19.11,0,.42.14.11,0A4.5,4.5,0,0,0,16,79Z"/><path class="cls-55" d="M73.46,16.73a1.48,1.48,0,0,0,1.08.88,1.34,1.34,0,0,0,.89,1.53,6.8,6.8,0,0,0,1.28.41c-.12,1.4-.28,2.8-.33,4.2A.68.68,0,0,0,77.7,24c.41-1,.77-2.15,1.23-3.2a3.71,3.71,0,0,0,4.34-.5,3.78,3.78,0,0,0,.86-1,1.52,1.52,0,0,0,.19-.78,6.21,6.21,0,0,0,.78-.89.27.27,0,0,0,.06-.1,1.39,1.39,0,0,0-.8-1.91l-.18-.09c0-.23,0-.46-.06-.7s-.05-.46-.09-.72a.29.29,0,0,1,0-.08,1.36,1.36,0,0,0-1.62-1,2.24,2.24,0,0,0-2.12-1.51,3,3,0,0,0-1.31.28c-.08,0-.13,0-.21,0-1.15-.07-2.35.83-3.22,1.46a7.25,7.25,0,0,0-1.69,1.51A2.22,2.22,0,0,0,73.35,16,1.56,1.56,0,0,0,73.46,16.73Z"/><path class="cls-59" d="M73.35,16c.07-1.2,1.29-2.1,2.18-2.73s2.07-1.53,3.22-1.46c.08,0,.13,0,.21,0a3,3,0,0,1,1.31-.28,2.24,2.24,0,0,1,2.12,1.51,1.36,1.36,0,0,1,1.62,1,.29.29,0,0,0,0,.08c0,.25,0,.49,0,.73h.08c0,.24,0,.47.06.7l.18.09a1.39,1.39,0,0,1,.8,1.91,3.05,3.05,0,0,0-1.89.38,1.35,1.35,0,0,1-2-1.24c0-.59,0-1.18.08-1.79-1.31-1.68-2.21-1.79-2.68-.32a1.35,1.35,0,0,1-2.48-.76c0-.41-1.62.83-1.62.84a5,5,0,0,0-1.1,2l0,.08A1.56,1.56,0,0,1,73.35,16Z"/><path class="cls-60" d="M73.35,16a2.22,2.22,0,0,1,.49-1.22,7.14,7.14,0,0,0,.83,1,8.56,8.56,0,0,1,1,.87c.24.32.32.86.58,1.13.7.72,0,.17,1,.29a4.09,4.09,0,0,1,2.47.68c.48.35.85,1.14,1.33,1.44a2.3,2.3,0,0,0,2.14.15c-1.8,1.53-4.51,1.26-5.3-.64a5.52,5.52,0,0,1-2.54-.5,1.34,1.34,0,0,1-.89-1.53,1.48,1.48,0,0,1-1.08-.88A1.56,1.56,0,0,1,73.35,16Z"/><path class="cls-66" d="M73.61,15.12l0,.07a1.69,1.69,0,0,0-.13.31l0,.09a2.57,2.57,0,0,0-.07.4,1.56,1.56,0,0,0,.11.74,1.48,1.48,0,0,0,1.08.88,1.34,1.34,0,0,0,.89,1.53,6.8,6.8,0,0,0,1.28.41h0c-.12,1.4-.28,2.8-.33,4.2A.68.68,0,0,0,77.7,24c.41-1,.77-2.15,1.23-3.2a2.45,2.45,0,0,0,.51.26l.27.09.37.08.28,0a4.34,4.34,0,0,0,.51,0H81a4,4,0,0,0,.67-.14l.22-.07a5.32,5.32,0,0,0,.5-.21l.2-.11a3.32,3.32,0,0,0,.64-.44,3.78,3.78,0,0,0,.86-1,1.52,1.52,0,0,0,.19-.78,6.21,6.21,0,0,0,.78-.89.27.27,0,0,0,.06-.1,1.39,1.39,0,0,0-.8-1.91l-.18-.09c0-.23,0-.46-.06-.7s-.05-.46-.09-.72a.29.29,0,0,1,0-.08,1.36,1.36,0,0,0-1.62-1,2.24,2.24,0,0,0-2.12-1.51,3,3,0,0,0-1.31.28c-.08,0-.13,0-.21,0-1.15-.07-2.35.83-3.22,1.46l-.44.32h0l-.39.31-.09.08a3.18,3.18,0,0,0-.33.3.6.6,0,0,0-.08.08,3.89,3.89,0,0,0-.41.5A2.11,2.11,0,0,0,73.61,15.12Z"/><path class="cls-55" d="M26,35.62c-4.34-4.94-8.1-10.34-12.23-15.45-.39-.48-1.07.21-.68.69C17.23,26,21,31.36,25.33,36.3,25.74,36.77,26.42,36.09,26,35.62Z"/><path class="cls-55" d="M62.2,1.85V11.5a.48.48,0,0,0,1,0V1.85A.48.48,0,0,0,62.2,1.85Z"/><path class="cls-55" d="M104.5,16.63q-3.82,3.09-7.4,6.44c-.46.43.23,1.11.68.68q3.59-3.34,7.4-6.43C105.67,16.93,105,16.25,104.5,16.63Z"/><path class="cls-55" d="M127.05,67.34c-3.51,0-7,.5-10.49-.3-.61-.14-.87.79-.26.93,3.54.82,7.15.37,10.75.34A.49.49,0,0,0,127.05,67.34Z"/><path class="cls-55" d="M100.11,122.29c-2.17-4.13-4.92-7.93-6.76-12.23-.24-.57-1.08-.08-.83.49,1.84,4.3,4.59,8.1,6.76,12.23C99.56,123.33,100.4,122.84,100.11,122.29Z"/><path class="cls-55" d="M69.26,128.2A45,45,0,0,1,68.64,118a.49.49,0,0,0-1,0,46.69,46.69,0,0,0,.66,10.43C68.47,129.06,69.4,128.8,69.26,128.2Z"/><path class="cls-55" d="M32,107.16c-2.72,3.71-5.8,7.13-8.36,11-.35.51.48,1,.83.48,2.57-3.81,5.65-7.24,8.37-10.94C33.22,107.15,32.38,106.67,32,107.16Z"/><path class="cls-55" d="M17.7,94.76c-2.33,1-4.46,2.44-6.75,3.54-.56.27-.07,1.1.48.84,2.3-1.1,4.43-2.52,6.76-3.54C18.76,95.35,18.27,94.51,17.7,94.76Z"/><path class="cls-55" d="M16.15,55.13a17.17,17.17,0,0,0-5.93-1c-.61,0-.62,1,0,1a16.59,16.59,0,0,1,5.67,1C16.48,56.25,16.74,55.32,16.15,55.13Z"/><path class="cls-67" d="M107.69,65.47c-2.24-1.41-4.56-2.66-6.87-4a25.69,25.69,0,0,1,4.1-2.17,2.43,2.43,0,0,0,0-4.17c-2.26-1.12-5.31-1.48-7.65-2.7a71.66,71.66,0,0,0,5.43-6.83c1.09-1.55-.39-3.61-2.09-3.63a25.21,25.21,0,0,0-3.68.37c-2.65.35-3.31.86-3.17-2.06.12-2.62,1.08-4.8.56-7.47a2.46,2.46,0,0,0-3-1.68c-2.44.5-4.87,1.06-7.29,1.65a17.63,17.63,0,0,0,.22-3.71c-.11-1.42-1.47-2.92-3-2.33-2.3.87-4.77,3-7.13,3.33-2.88.41-2.25-3.35-2.63-5.62s-3.33-2-4.41-.57-2.26,3.35-3.53,4.89a47.14,47.14,0,0,0-2.64-4.3c-1-1.35-3.31-1.77-4.17,0s-1.41,3.83-2.21,5.72c-.63-1.06-1.23-2.13-1.93-3.14a2.44,2.44,0,0,0-4.5,1.22,57.53,57.53,0,0,0,.32,6.3l-.12-.09a2.47,2.47,0,0,0-3.58-1.68,7.55,7.55,0,0,0-2.21,1.36c-1-.61-1.92-1.29-2.89-2-1.77-1.23-4.09.8-3.54,2.73a45.59,45.59,0,0,0,2.16,4.55A25.35,25.35,0,0,0,31,38a2.44,2.44,0,0,0-2.33,3.06,27.14,27.14,0,0,0,2.78,6.21l-4.5-.74a2.46,2.46,0,0,0-2.73,3.55,55.76,55.76,0,0,0,2.73,5.39c-.88-.2-1.77-.4-2.67-.58a2.44,2.44,0,0,0-2.72,3.54,25.6,25.6,0,0,0,4.21,5c-.83.33-1.66.67-2.49,1-1.85.81-1.27,3.23,0,4.17,1.83,1.37,4.12,2,6.16,3-1.79,1.42-3.72,2.67-5.49,4.12-1.41,1.16-.6,3.64,1.06,4a51,51,0,0,0,6.82.76c-1.38.7-2.76,1.41-4.09,2.22a2.44,2.44,0,0,0,.58,4.41,50.39,50.39,0,0,0,8.23,1.56A23,23,0,0,0,33.24,92c-1.25,1.75.82,4.11,2.73,3.55S40,94.26,42.1,93.76a16.4,16.4,0,0,0-.38,4.44,2.44,2.44,0,0,0,3.63,2.09c2.75-1.68,4.34-6.23,7.14-7.35s3.72,6.27,4.89,8.47a2.43,2.43,0,0,0,3.79.49c.18-.17.34-.34.5-.51A19,19,0,0,0,63.53,105a2.45,2.45,0,0,0,4.41-.58c.75-2.21,1.62-4.38,2.51-6.54a27,27,0,0,0,3.61,5.28c1.54,1.64,4,.25,4.12-1.71.14-1.6.14-3.2.21-4.78a39.22,39.22,0,0,1,2.12,3.42c1.22,2.22,4.35,1.06,4.5-1.21.17-2.71,0-5.37.36-8,2.76,1.43,5.33,3.24,8.12,4.61,1.7.84,4.35-.59,3.55-2.73s-4.05-7.83-3.17-10c1-2.54,8.14-.79,10.45-.86,1.64,0,3.27-2.09,2.09-3.63a59.15,59.15,0,0,0-5.45-6c2.57-.55,5.05-1.14,7.21-3A2.44,2.44,0,0,0,107.69,65.47Z"/></g></g></g></svg>