<svg xmlns="http://www.w3.org/2000/svg" xmlns:xlink="http://www.w3.org/1999/xlink" viewBox="0 0 69.48 63.13"><defs><style>.cls-1{isolation:isolate;}.cls-2{fill:#a82805;}.cls-3{fill:#7c1801;}.cls-4{fill:#6d1b06;}.cls-5{fill:#721f0c;}.cls-6,.cls-7,.cls-8,.cls-9{mix-blend-mode:overlay;}.cls-6{fill:url(#linear-gradient);}.cls-7{fill:url(#linear-gradient-2);}.cls-8{fill:url(#linear-gradient-3);}.cls-9{fill:url(#linear-gradient-4);}</style><linearGradient id="linear-gradient" x1="48.86" y1="27.41" x2="69.48" y2="27.41" gradientUnits="userSpaceOnUse"><stop offset="0"/><stop offset="1" stop-color="#878787"/></linearGradient><linearGradient id="linear-gradient-2" x1="0" y1="22.57" x2="33.3" y2="22.57" xlink:href="#linear-gradient"/><linearGradient id="linear-gradient-3" x1="27.31" y1="53.9" x2="53.14" y2="53.9" xlink:href="#linear-gradient"/><linearGradient id="linear-gradient-4" x1="3.64" y1="-421.89" x2="3.64" y2="-432.3" gradientTransform="translate(61.65 -421.54) rotate(-177.98)" xlink:href="#linear-gradient"/></defs><g class="cls-1"><g id="Layer_2" data-name="Layer 2"><g id="Layer_1-2" data-name="Layer 1"><path class="cls-2" d="M67.65,33.45a4.11,4.11,0,0,1-.28,2.19c-1.15,2.85-5.27,4.57-8.61,3.91-5.22-1.06-6.6-5.53-5.39-9.73A6.91,6.91,0,0,1,52,27a34.71,34.71,0,0,1-.37-3.65.62.62,0,0,0,0-.2C48.19,22,48.23,17.83,50.25,16a3.49,3.49,0,0,1,3.57-.67,2.61,2.61,0,0,1,.42.16c4.08-1.09,6.71,1.8,7.09,5.23a11.46,11.46,0,0,1,6.08,2.81C70.53,26.56,69.7,30.33,67.65,33.45Z"/><path class="cls-2" d="M27,21a6.18,6.18,0,0,1,0,1.92,6.26,6.26,0,0,1-.36,1.22,8.43,8.43,0,0,1-1.18,2.18,13,13,0,0,1-4.3,3.85,7.46,7.46,0,0,1-4.7.9,4.24,4.24,0,0,1-1.33,2.2c.38,2.57-1.13,5.5-4.51,5.53a12.22,12.22,0,0,1-4.7-.9A9.12,9.12,0,0,1,.35,26.69a9.26,9.26,0,0,1,4.28-5.9c-.16-3.31.4-6.36,3.26-9.22C11.67,7.79,16.64,6,21,8.21a19.67,19.67,0,0,1,6.19-1.79A3.23,3.23,0,0,1,29.42,7a7.57,7.57,0,0,1,1.84,1.77C35.33,14.07,33,19.58,27,21Z"/><path class="cls-2" d="M53,50.64A12.56,12.56,0,0,1,51.87,53c.36,2.41.63,4.68-1.76,6.83a6.34,6.34,0,0,1-6.38,1.33A6.12,6.12,0,0,1,40.59,63a5.54,5.54,0,0,1-6.1-2.6c-3.22-.22-6.85-1.54-7.15-5.2a1,1,0,0,1,0-.23c-.14-4,4.82-4.7,7.07-2.24l-.12-.31a6,6,0,0,1-.43-.42,2.85,2.85,0,0,0,1.15.36,4.65,4.65,0,0,1,.61.06s.06,0,.08,0a.37.37,0,0,1,0-.24,4.09,4.09,0,0,1,5-2.84,6.8,6.8,0,0,0,2.81.53,6.4,6.4,0,0,1,.06-1.08c.37-3,3.16-5.14,6.08-3.5.51.3,1,.57,1.54.85a3.64,3.64,0,0,1,1.56,1.68v0A3.74,3.74,0,0,1,53,50.64Z"/><path class="cls-3" d="M27,21a6.18,6.18,0,0,1,0,1.92,6.26,6.26,0,0,1-.36,1.22,2,2,0,0,1-.42.07,18.35,18.35,0,0,1-.76,2.11,13,13,0,0,1-4.3,3.85,7.46,7.46,0,0,1-4.7.9,4.24,4.24,0,0,1-1.33,2.2c.38,2.57-1.13,5.5-4.51,5.53a12.22,12.22,0,0,1-4.7-.9A44,44,0,0,1,7,32.65c.8-2.91,2.2-6,5.1-7.47,1-.5,2.77-.28,3.6-.76,1.6.64,2-.11,1.37-2.22a19.07,19.07,0,0,0,.89-4.46c.5-3.36,4.52-3.85,7-2.81,1.66.7,3.76-5.53,4.54-7.94a7.57,7.57,0,0,1,1.84,1.77C35.33,14.07,33,19.58,27,21Z"/><path class="cls-3" d="M67.37,35.64c-1.15,2.85-5.27,4.57-8.61,3.91-5.22-1.06-6.6-5.53-5.39-9.73A6.91,6.91,0,0,1,52,27a34.71,34.71,0,0,1-.37-3.65.62.62,0,0,0,0-.2C48.19,22,48.23,17.83,50.25,16a8.12,8.12,0,0,1,3.85,3.1,11.24,11.24,0,0,1,2,7.39A10.32,10.32,0,0,1,59.69,34a8.91,8.91,0,0,1,1.93,1.35c1.23,1.14,1.52,2.62,3.73,2A5.47,5.47,0,0,0,67.37,35.64Z"/><path class="cls-4" d="M36.7,5.52a1.59,1.59,0,0,0,1.15,1A1.45,1.45,0,0,0,38.8,8.1a7.22,7.22,0,0,0,1.37.43C40,10,42.05,11,42.53,9.85a4,4,0,0,0,4.64-.54,4,4,0,0,0,.91-1,1.45,1.45,0,0,0,.2-.83,6.47,6.47,0,0,0,.84-1,.3.3,0,0,0,.06-.11,1.48,1.48,0,0,0-.85-2l-.19-.09q0-.36-.06-.75c0-.25-.06-.49-.11-.77a.54.54,0,0,1,0-.08,1.46,1.46,0,0,0-1.73-1.07A2.39,2.39,0,0,0,44,0a3.08,3.08,0,0,0-1.4.3c-.08,0-.14,0-.23,0-1.22-.07-2.5.89-3.43,1.56a8,8,0,0,0-1.8,1.61,2.35,2.35,0,0,0-.52,1.31A1.61,1.61,0,0,0,36.7,5.52Z"/><path class="cls-5" d="M36.59,4.74C36.66,3.46,38,2.5,38.91,1.82S41.12.19,42.34.26c.09,0,.15,0,.23,0A3.08,3.08,0,0,1,44,0a2.39,2.39,0,0,1,2.26,1.61A1.46,1.46,0,0,1,48,2.68a.54.54,0,0,0,0,.08,6.77,6.77,0,0,1,0,.78h.09q0,.39.06.75l.19.09a1.48,1.48,0,0,1,.85,2,3.24,3.24,0,0,0-2,.4A1.44,1.44,0,0,1,45.05,5.5c0-.64,0-1.27.09-1.92-1.39-1.79-2.36-1.91-2.86-.34a1.45,1.45,0,0,1-2.65-.81c0-.44-1.73.89-1.73.9a5.43,5.43,0,0,0-1.17,2.1.32.32,0,0,1,0,.09A1.61,1.61,0,0,1,36.59,4.74Z"/><path class="cls-6" d="M67.65,33.45a4.11,4.11,0,0,1-.28,2.19c-1.15,2.85-5.27,4.57-8.61,3.91-5.22-1.06-6.6-5.53-5.39-9.73A6.91,6.91,0,0,1,52,27a34.71,34.71,0,0,1-.37-3.65.62.62,0,0,0,0-.2C48.19,22,48.23,17.83,50.25,16a3.49,3.49,0,0,1,3.57-.67,2.61,2.61,0,0,1,.42.16c4.08-1.09,6.71,1.8,7.09,5.23a11.46,11.46,0,0,1,6.08,2.81C70.53,26.56,69.7,30.33,67.65,33.45Z"/><path class="cls-7" d="M27,21a6.18,6.18,0,0,1,0,1.92,6.26,6.26,0,0,1-.36,1.22,8.43,8.43,0,0,1-1.18,2.18,13,13,0,0,1-4.3,3.85,7.46,7.46,0,0,1-4.7.9,4.24,4.24,0,0,1-1.33,2.2c.38,2.57-1.13,5.5-4.51,5.53a12.22,12.22,0,0,1-4.7-.9A9.12,9.12,0,0,1,.35,26.69a9.26,9.26,0,0,1,4.28-5.9c-.16-3.31.4-6.36,3.26-9.22C11.67,7.79,16.64,6,21,8.21a19.67,19.67,0,0,1,6.19-1.79A3.23,3.23,0,0,1,29.42,7a7.57,7.57,0,0,1,1.84,1.77C35.33,14.07,33,19.58,27,21Z"/><path class="cls-8" d="M53,50.64A12.56,12.56,0,0,1,51.87,53c.36,2.41.63,4.68-1.76,6.83a6.34,6.34,0,0,1-6.38,1.33A6.12,6.12,0,0,1,40.59,63a5.54,5.54,0,0,1-6.1-2.6c-3.22-.22-6.85-1.54-7.15-5.2a1,1,0,0,1,0-.23c-.14-4,4.82-4.7,7.07-2.24l-.12-.31a6,6,0,0,1-.43-.42,2.85,2.85,0,0,0,1.15.36,4.65,4.65,0,0,1,.61.06s.06,0,.08,0a.37.37,0,0,1,0-.24,4.09,4.09,0,0,1,5-2.84,6.8,6.8,0,0,0,2.81.53,6.4,6.4,0,0,1,.06-1.08c.37-3,3.16-5.14,6.08-3.5.51.3,1,.57,1.54.85a3.64,3.64,0,0,1,1.56,1.68v0A3.74,3.74,0,0,1,53,50.64Z"/><path class="cls-9" d="M36.86,3.81l0,.07c0,.11-.1.22-.14.33l0,.1a2,2,0,0,0-.07.43,1.61,1.61,0,0,0,.11.78,1.59,1.59,0,0,0,1.15,1A1.45,1.45,0,0,0,38.8,8.1a7.22,7.22,0,0,0,1.37.43h0C40,10,42.05,11,42.53,9.85a2.81,2.81,0,0,0,.55.27,1.61,1.61,0,0,0,.29.09l.4.1.3,0a3.11,3.11,0,0,0,.53,0h.19a3.66,3.66,0,0,0,.72-.14l.23-.08c.18-.06.35-.14.53-.22l.21-.12a3.83,3.83,0,0,0,.69-.47,4,4,0,0,0,.91-1,1.45,1.45,0,0,0,.2-.83,6.47,6.47,0,0,0,.84-1,.3.3,0,0,0,.06-.11,1.48,1.48,0,0,0-.85-2l-.19-.09q0-.36-.06-.75c0-.25-.06-.49-.11-.77a.54.54,0,0,1,0-.08,1.46,1.46,0,0,0-1.73-1.07A2.39,2.39,0,0,0,44,0a3.08,3.08,0,0,0-1.4.3c-.08,0-.14,0-.23,0-1.22-.07-2.5.89-3.43,1.56l-.46.34h0q-.21.15-.42.33l-.09.08-.36.32a.3.3,0,0,1-.08.08,4.51,4.51,0,0,0-.44.54A2.9,2.9,0,0,0,36.86,3.81Z"/></g></g></g></svg>