<svg xmlns="http://www.w3.org/2000/svg" xmlns:xlink="http://www.w3.org/1999/xlink" viewBox="0 0 45.93 45.93"><defs><style>.cls-1{isolation:isolate;}.cls-2{mix-blend-mode:screen;}.cls-3{fill:#f9830d;opacity:0.07;}.cls-4{fill:#f98512;opacity:0.08;}.cls-5{fill:#f98816;opacity:0.1;}.cls-6{fill:#f98a1b;opacity:0.12;}.cls-7{fill:#f98d20;opacity:0.14;}.cls-8{fill:#fa8f25;opacity:0.16;}.cls-9{fill:#fa9229;opacity:0.18;}.cls-10{fill:#fa942e;opacity:0.19;}.cls-11{fill:#fa9633;opacity:0.21;}.cls-12{fill:#fa9938;opacity:0.23;}.cls-13{fill:#fa9b3c;opacity:0.25;}.cls-14{fill:#fa9e41;opacity:0.27;}.cls-15{fill:#faa046;opacity:0.29;}.cls-16{fill:#fba34b;opacity:0.3;}.cls-17{fill:#fba54f;opacity:0.32;}.cls-18{fill:#fba754;opacity:0.34;}.cls-19{fill:#fbaa59;opacity:0.36;}.cls-20{fill:#fbac5e;opacity:0.38;}.cls-21{fill:#fbaf62;opacity:0.4;}.cls-22{fill:#fbb167;opacity:0.41;}.cls-23{fill:#fbb46c;opacity:0.43;}.cls-24{fill:#fbb671;opacity:0.45;}.cls-25{fill:#fcb875;opacity:0.47;}.cls-26{fill:#fcbb7a;opacity:0.49;}.cls-27{fill:#fcbd7f;opacity:0.51;}.cls-28{fill:#fcc084;opacity:0.52;}.cls-29{fill:#fcc288;opacity:0.54;}.cls-30{fill:#fcc58d;opacity:0.56;}.cls-31{fill:#fcc792;opacity:0.58;}.cls-32{fill:#fcca97;opacity:0.6;}.cls-33{fill:#fdcc9b;opacity:0.62;}.cls-34{fill:#fdcea0;opacity:0.63;}.cls-35{fill:#fdd1a5;opacity:0.65;}.cls-36{fill:#fdd3aa;opacity:0.67;}.cls-37{fill:#fdd6ae;opacity:0.69;}.cls-38{fill:#fdd8b3;opacity:0.71;}.cls-39{fill:#fddbb8;opacity:0.73;}.cls-40{fill:#fdddbd;opacity:0.74;}.cls-41{fill:#fddfc1;opacity:0.76;}.cls-42{fill:#fee2c6;opacity:0.78;}.cls-43{fill:#fee4cb;opacity:0.8;}.cls-44{fill:#fee7d0;opacity:0.82;}.cls-45{fill:#fee9d4;opacity:0.84;}.cls-46{fill:#feecd9;opacity:0.85;}.cls-47{fill:#feeede;opacity:0.87;}.cls-48{fill:#fef0e3;opacity:0.89;}.cls-49{fill:#fef3e7;opacity:0.91;}.cls-50{fill:#fff5ec;opacity:0.93;}.cls-51{fill:#fff8f1;opacity:0.95;}.cls-52{fill:#fffaf6;opacity:0.96;}.cls-53{fill:#fffdfa;opacity:0.98;}.cls-54{fill:#fff;}.cls-55{fill:#ffde17;}.cls-56{fill:#ffed92;}.cls-57{mix-blend-mode:overlay;fill:url(#linear-gradient);}</style><linearGradient id="linear-gradient" x1="18.94" y1="37.31" x2="18.94" y2="10.48" gradientUnits="userSpaceOnUse"><stop offset="0"/><stop offset="1" stop-color="#fff"/></linearGradient></defs><g class="cls-1"><g id="Layer_2" data-name="Layer 2"><g id="Layer_1-2" data-name="Layer 1"><g class="cls-2"><circle class="cls-3" cx="22.97" cy="22.97" r="22.97" transform="translate(-4.62 5.82) rotate(-13.13)"/><circle class="cls-4" cx="22.97" cy="22.97" r="22.55" transform="translate(-4.71 39.96) rotate(-76.56)"/><circle class="cls-5" cx="22.97" cy="22.97" r="22.14" transform="translate(-4.71 39.97) rotate(-76.56)"/><circle class="cls-6" cx="22.97" cy="22.97" r="21.73" transform="translate(-6.96 10.34) rotate(-22.12)"/><circle class="cls-7" cx="22.97" cy="22.97" r="21.31" transform="translate(-7.04 10.54) rotate(-22.5)"/><circle class="cls-8" cx="22.97" cy="22.97" r="20.9" transform="translate(-6.96 10.34) rotate(-22.12)"/><circle class="cls-9" cx="22.97" cy="22.97" r="20.49" transform="translate(-6.96 10.34) rotate(-22.13)"/><circle class="cls-10" cx="22.97" cy="22.97" r="20.08" transform="translate(-4.71 39.97) rotate(-76.56)"/><circle class="cls-11" cx="22.97" cy="22.97" r="19.66" transform="translate(-4.71 39.97) rotate(-76.57)"/><circle class="cls-12" cx="22.97" cy="22.97" r="19.25" transform="translate(-6.96 10.34) rotate(-22.13)"/><circle class="cls-13" cx="22.97" cy="22.97" r="18.84" transform="translate(-6.96 10.34) rotate(-22.13)"/><circle class="cls-14" cx="22.97" cy="22.97" r="18.42" transform="translate(-6.96 10.34) rotate(-22.13)"/><circle class="cls-15" cx="22.97" cy="22.97" r="18.01" transform="translate(-6.96 10.35) rotate(-22.13)"/><circle class="cls-16" cx="22.97" cy="22.97" r="17.6" transform="matrix(0.53, -0.85, 0.85, 0.53, -8.68, 30.26)"/><circle class="cls-17" cx="22.97" cy="22.97" r="17.19" transform="translate(-4.71 39.97) rotate(-76.57)"/><circle class="cls-18" cx="22.97" cy="22.97" r="16.77" transform="translate(-4.66 40.04) rotate(-76.72)"/><circle class="cls-19" cx="22.97" cy="22.97" r="16.36" transform="translate(-6.96 10.35) rotate(-22.14)"/><circle class="cls-20" cx="22.97" cy="22.97" r="15.95" transform="translate(-6.96 10.35) rotate(-22.14)"/><circle class="cls-21" cx="22.97" cy="22.97" r="15.53" transform="translate(-7.04 10.54) rotate(-22.5)"/><circle class="cls-22" cx="22.97" cy="22.97" r="15.12" transform="translate(-7.04 35.39) rotate(-67.5)"/><circle class="cls-23" cx="22.97" cy="22.97" r="14.71" transform="matrix(0.23, -0.97, 0.97, 0.23, -4.66, 40.04)"/><circle class="cls-24" cx="22.97" cy="22.97" r="14.3" transform="translate(-4.66 40.04) rotate(-76.72)"/><circle class="cls-25" cx="22.97" cy="22.97" r="13.88" transform="translate(-7.04 10.54) rotate(-22.5)"/><circle class="cls-26" cx="22.97" cy="22.97" r="13.47" transform="translate(-7.04 10.54) rotate(-22.5)"/><circle class="cls-27" cx="22.97" cy="22.97" r="13.06" transform="translate(-7.04 10.54) rotate(-22.5)"/><path class="cls-28" d="M35.61,23A12.65,12.65,0,1,1,23,10.32,12.64,12.64,0,0,1,35.61,23Z"/><path class="cls-29" d="M35.2,23A12.24,12.24,0,1,1,23,10.73,12.24,12.24,0,0,1,35.2,23Z"/><circle class="cls-30" cx="22.97" cy="22.97" r="11.82" transform="translate(-4.66 40.04) rotate(-76.72)"/><circle class="cls-31" cx="22.97" cy="22.97" r="11.41" transform="translate(-4.66 40.04) rotate(-76.72)"/><circle class="cls-32" cx="22.97" cy="22.97" r="10.99" transform="translate(-7.04 10.54) rotate(-22.5)"/><circle class="cls-33" cx="22.97" cy="22.97" r="10.58" transform="translate(-7.04 10.54) rotate(-22.5)"/><path class="cls-34" d="M33.13,23A10.17,10.17,0,1,1,23,12.8,10.16,10.16,0,0,1,33.13,23Z"/><path class="cls-35" d="M32.72,23A9.76,9.76,0,1,1,23,13.21,9.76,9.76,0,0,1,32.72,23Z"/><path class="cls-36" d="M32.31,23A9.35,9.35,0,1,1,23,13.62,9.34,9.34,0,0,1,32.31,23Z"/><circle class="cls-37" cx="22.97" cy="22.97" r="8.93" transform="translate(-4.66 40.04) rotate(-76.72)"/><circle class="cls-38" cx="22.97" cy="22.97" r="8.52" transform="translate(-4.66 40.04) rotate(-76.72)"/><circle class="cls-39" cx="22.97" cy="22.97" r="8.1" transform="translate(-7.04 10.54) rotate(-22.5)"/><path class="cls-40" d="M30.66,23A7.7,7.7,0,1,1,23,15.27,7.7,7.7,0,0,1,30.66,23Z"/><path class="cls-41" d="M30.24,23A7.28,7.28,0,1,1,23,15.69,7.26,7.26,0,0,1,30.24,23Z"/><path class="cls-42" d="M29.83,23A6.87,6.87,0,1,1,23,16.1,6.86,6.86,0,0,1,29.83,23Z"/><path class="cls-43" d="M29.42,23A6.46,6.46,0,1,1,23,16.51,6.45,6.45,0,0,1,29.42,23Z"/><path class="cls-44" d="M29,23a6,6,0,1,1-6-6A6,6,0,0,1,29,23Z"/><path class="cls-45" d="M28.59,23A5.63,5.63,0,1,1,23,17.34,5.62,5.62,0,0,1,28.59,23Z"/><path class="cls-46" d="M28.18,23A5.22,5.22,0,1,1,23,17.75,5.21,5.21,0,0,1,28.18,23Z"/><path class="cls-47" d="M27.77,23A4.81,4.81,0,1,1,23,18.16,4.8,4.8,0,0,1,27.77,23Z"/><path class="cls-48" d="M27.35,23A4.39,4.39,0,1,1,23,18.58,4.38,4.38,0,0,1,27.35,23Z"/><path class="cls-49" d="M26.94,23a4,4,0,1,1-4-4A4,4,0,0,1,26.94,23Z"/><path class="cls-50" d="M26.53,23A3.57,3.57,0,1,1,23,19.4,3.57,3.57,0,0,1,26.53,23Z"/><path class="cls-51" d="M26.12,23A3.15,3.15,0,1,1,23,19.82,3.15,3.15,0,0,1,26.12,23Z"/><path class="cls-52" d="M25.7,23A2.74,2.74,0,1,1,23,20.23,2.73,2.73,0,0,1,25.7,23Z"/><path class="cls-53" d="M25.29,23A2.33,2.33,0,1,1,23,20.64,2.32,2.32,0,0,1,25.29,23Z"/><path class="cls-54" d="M24.88,23A1.92,1.92,0,1,1,23,21.05,1.92,1.92,0,0,1,24.88,23Z"/></g><path class="cls-55" d="M34.68,21A7.54,7.54,0,0,0,33,17.52c-.3-3.95-4.65-8.4-6.8-5.49-1.27-1.38-3.45-2.13-4.39-.9-.91-.89-2-1-3,.39a4.6,4.6,0,0,0-.76,1.77,4.21,4.21,0,0,0-3.59,2.92c-1.3.54-2.43,2.53-2.38,4.95a4.73,4.73,0,0,0,1,3.09,10.85,10.85,0,0,0-.1,3c.36,3.25,2.29,4.48,3.93,3.72a3.69,3.69,0,0,0,2.87,2.62A29,29,0,0,0,23,32.47a3.11,3.11,0,0,0,3.73,1.35,4.08,4.08,0,0,0,2.28-2.74c1.5.6,3.14.07,4.12-2.23A7.59,7.59,0,0,0,33.76,26C34.66,25.21,35.13,23.17,34.68,21Z"/><path class="cls-56" d="M32.86,21c.09-2.35-1.2-4.31-2-6.59S26.64,13,24.76,13.33c-1.52.25-2-1.32-3.69-1.12a5.74,5.74,0,0,0-2.31,1,15.61,15.61,0,0,0-3.5,3.08,6.6,6.6,0,0,0-1.65,3.21,8.38,8.38,0,0,0,.85,4.11c1.11,2.82,3.36,8.64,7.27,5.79,2.1.82,4,.66,5.35-.89a3.39,3.39,0,0,0,3.67-1.17,16.07,16.07,0,0,0,2-5.11A6.87,6.87,0,0,0,32.86,21Z"/><path class="cls-54" d="M27.77,18.34a3.26,3.26,0,0,0-1.15-.71,2.66,2.66,0,0,0-3.16-1.58,2.4,2.4,0,0,0-.4.17,2,2,0,0,0-2.59,0,2.83,2.83,0,0,0-.91,1.35,2.17,2.17,0,0,0-.36,0,2.2,2.2,0,0,0-1.72,1.63,1.62,1.62,0,0,0-.9.73,1.74,1.74,0,0,0,.36,2.2,1.92,1.92,0,0,0,.4.81,11.2,11.2,0,0,0,1.17,1.22A1.52,1.52,0,0,0,18.46,26a2.13,2.13,0,0,0,3.26.2h0a2,2,0,0,0,2.66,0,2.12,2.12,0,0,0,.62-.81,1.83,1.83,0,0,0,.46-.37,3,3,0,0,0,2.87-1.1A4.11,4.11,0,0,0,27.77,18.34Z"/><path class="cls-54" d="M32.65,11c-2.73,4-6.52,8.23-8.92,11.69C27,28,30.08,30.12,33.18,37.31,30.11,32.39,23.9,23.58,20.72,22.4c-1.53-.57-12.19-.15-17.69-1q9.66-.11,19.33.54C23.44,20.66,30.12,13.4,32.65,11Z"/><path class="cls-57" d="M33.17,28.85A7.59,7.59,0,0,0,33.76,26c.9-.83,1.37-2.87.92-5.06A7.54,7.54,0,0,0,33,17.52a8.31,8.31,0,0,0-1.87-4.43c.53-.71,1-1.42,1.52-2.13-.47.46-1.09,1.08-1.79,1.81-1.5-1.66-3.44-2.39-4.66-.74-1.27-1.38-3.45-2.13-4.39-.9-.91-.89-2-1-3,.39a4.6,4.6,0,0,0-.76,1.77,4.21,4.21,0,0,0-3.59,2.92c-1.3.54-2.43,2.53-2.38,4.95,0,.1,0,.18,0,.27-3-.07-6-.1-9.08-.07a74.81,74.81,0,0,0,9.13.61,4.32,4.32,0,0,0,.94,2.28,10.85,10.85,0,0,0-.1,3c.36,3.25,2.29,4.48,3.93,3.72a3.69,3.69,0,0,0,2.87,2.62A29,29,0,0,0,23,32.47a3.11,3.11,0,0,0,3.73,1.35A4,4,0,0,0,29,31.16c1.6,2.19,3.07,4.41,4.16,6.15a37.24,37.24,0,0,0-3.26-6C31.15,31.4,32.38,30.71,33.17,28.85Z"/></g></g></g></svg>