<svg xmlns="http://www.w3.org/2000/svg" xmlns:xlink="http://www.w3.org/1999/xlink" viewBox="0 0 129.19 135.92"><defs><style>.cls-1{isolation:isolate;}.cls-2{fill:#f97f06;opacity:0.04;}.cls-3{fill:#f98007;opacity:0.04;}.cls-4{fill:#f98008;opacity:0.05;}.cls-5{fill:#f98109;opacity:0.05;}.cls-6{fill:#f9810a;opacity:0.05;}.cls-7{fill:#f9820b;opacity:0.06;}.cls-8{fill:#f9820c;opacity:0.06;}.cls-9{fill:#f9830d;opacity:0.07;}.cls-10{fill:#f9830e;opacity:0.07;}.cls-11{fill:#f9840f;opacity:0.07;}.cls-12{fill:#f98410;opacity:0.08;}.cls-13{fill:#f98511;opacity:0.08;}.cls-14{fill:#f98512;opacity:0.09;}.cls-15{fill:#f98613;opacity:0.09;}.cls-16{fill:#f98614;opacity:0.09;}.cls-17{fill:#f98715;opacity:0.1;}.cls-18{fill:#f98716;opacity:0.1;}.cls-19{fill:#f98817;opacity:0.1;}.cls-20{fill:#f98818;opacity:0.11;}.cls-21{fill:#f98919;opacity:0.11;}.cls-22{fill:#f9891a;opacity:0.12;}.cls-23{fill:#fa8a1b;opacity:0.12;}.cls-24{fill:#fa8a1c;opacity:0.12;}.cls-25{fill:#fa8b1d;opacity:0.13;}.cls-26{fill:#fa8b1e;opacity:0.13;}.cls-27{fill:#fa8c1f;opacity:0.14;}.cls-28{fill:#fa8c20;opacity:0.14;}.cls-29{fill:#fa8d21;opacity:0.14;}.cls-30{fill:#fa8d22;opacity:0.15;}.cls-31{fill:#fa8e23;opacity:0.15;}.cls-32{fill:#fa8e24;opacity:0.15;}.cls-33{fill:#fa8f25;opacity:0.16;}.cls-34{fill:#fa8f26;opacity:0.16;}.cls-35{fill:#fa9027;opacity:0.17;}.cls-36{fill:#fa9028;opacity:0.17;}.cls-37{fill:#fa9129;opacity:0.17;}.cls-38{fill:#fa922a;opacity:0.18;}.cls-39{fill:#fa922b;opacity:0.18;}.cls-40{fill:#fa932c;opacity:0.19;}.cls-41{fill:#fa932d;opacity:0.19;}.cls-42{fill:#fa942e;opacity:0.19;}.cls-43{fill:#fa942f;opacity:0.2;}.cls-44{fill:#fa9530;opacity:0.2;}.cls-45{fill:#fa9531;opacity:0.21;}.cls-46{fill:#fa9632;opacity:0.21;}.cls-47{fill:#fa9633;opacity:0.21;}.cls-48{fill:#fa9734;opacity:0.22;}.cls-49{fill:#fa9735;opacity:0.22;}.cls-50{fill:#fa9836;opacity:0.22;}.cls-51{fill:#fa9837;opacity:0.23;}.cls-52{fill:#fa9938;opacity:0.23;}.cls-53{fill:#fa9939;opacity:0.24;}.cls-54{fill:#fa9a3a;opacity:0.24;}.cls-55{fill:#fa9a3b;opacity:0.24;}.cls-56{fill:#fa9b3c;opacity:0.25;}.cls-57{fill:#fa9b3d;opacity:0.25;}.cls-58{fill:#fa9c3e;opacity:0.26;}.cls-59{fill:#fa9c3f;opacity:0.26;}.cls-60{fill:#fa9d40;opacity:0.26;}.cls-61{fill:#fa9d41;opacity:0.27;}.cls-62{fill:#fa9e42;opacity:0.27;}.cls-63{fill:#fa9e43;opacity:0.27;}.cls-64{fill:#fa9f44;opacity:0.28;}.cls-65{fill:#fb9f45;opacity:0.28;}.cls-66{fill:#fba046;opacity:0.29;}.cls-67{fill:#fba047;opacity:0.29;}.cls-68{fill:#fba148;opacity:0.29;}.cls-69{fill:#fba149;opacity:0.3;}.cls-70{fill:#fba24a;opacity:0.3;}.cls-71{fill:#fba24b;opacity:0.31;}.cls-72{fill:#fba34c;opacity:0.31;}.cls-73{fill:#fba34d;opacity:0.31;}.cls-74{fill:#fba44e;opacity:0.32;}.cls-75{fill:#fba54f;opacity:0.32;}.cls-76{fill:#fba550;opacity:0.32;}.cls-77{fill:#fba651;opacity:0.33;}.cls-78{fill:#fba652;opacity:0.33;}.cls-79{fill:#fba753;opacity:0.34;}.cls-80{fill:#fba754;opacity:0.34;}.cls-81{fill:#fba855;opacity:0.34;}.cls-82{fill:#fba856;opacity:0.35;}.cls-83{fill:#fba957;opacity:0.35;}.cls-84{fill:#fba958;opacity:0.36;}.cls-85{fill:#fbaa59;opacity:0.36;}.cls-86{fill:#fbaa5a;opacity:0.36;}.cls-87{fill:#fbab5b;opacity:0.37;}.cls-88{fill:#fbab5c;opacity:0.37;}.cls-89{fill:#fbac5d;opacity:0.37;}.cls-90{fill:#fbac5e;opacity:0.38;}.cls-91{fill:#fbad5f;opacity:0.38;}.cls-92{fill:#fbad60;opacity:0.39;}.cls-93{fill:#fbae61;opacity:0.39;}.cls-94{fill:#fbae62;opacity:0.39;}.cls-95{fill:#fbaf63;opacity:0.4;}.cls-96{fill:#fbaf64;opacity:0.4;}.cls-97{fill:#fbb065;opacity:0.41;}.cls-98{fill:#fbb066;opacity:0.41;}.cls-99{fill:#fbb167;opacity:0.41;}.cls-100{fill:#fbb168;opacity:0.42;}.cls-101{fill:#fbb269;opacity:0.42;}.cls-102{fill:#fbb26a;opacity:0.43;}.cls-103{fill:#fbb36b;opacity:0.43;}.cls-104{fill:#fbb36c;opacity:0.43;}.cls-105{fill:#fbb46d;opacity:0.44;}.cls-106{fill:#fcb46e;opacity:0.44;}.cls-107{fill:#fcb56f;opacity:0.44;}.cls-108{fill:#fcb570;opacity:0.45;}.cls-109{fill:#fcb671;opacity:0.45;}.cls-110{fill:#fcb772;opacity:0.46;}.cls-111{fill:#fcb773;opacity:0.46;}.cls-112{fill:#fcb874;opacity:0.46;}.cls-113{fill:#fcb875;opacity:0.47;}.cls-114{fill:#fcb976;opacity:0.47;}.cls-115{fill:#fcb977;opacity:0.48;}.cls-116{fill:#fcba78;opacity:0.48;}.cls-117{fill:#fcba79;opacity:0.48;}.cls-118{fill:#fcbb7a;opacity:0.49;}.cls-119{fill:#fcbb7b;opacity:0.49;}.cls-120{fill:#fcbc7c;opacity:0.49;}.cls-121{fill:#fcbc7d;opacity:0.5;}.cls-122{fill:#fcbd7e;opacity:0.5;}.cls-123{fill:#fcbd7f;opacity:0.51;}.cls-124{fill:#fcbe80;opacity:0.51;}.cls-125{fill:#fcbe81;opacity:0.51;}.cls-126{fill:#fcbf82;opacity:0.52;}.cls-127{fill:#fcbf83;opacity:0.52;}.cls-128{fill:#fcc084;opacity:0.53;}.cls-129{fill:#fcc085;opacity:0.53;}.cls-130{fill:#fcc186;opacity:0.53;}.cls-131{fill:#fcc187;opacity:0.54;}.cls-132{fill:#fcc288;opacity:0.54;}.cls-133{fill:#fcc289;opacity:0.54;}.cls-134{fill:#fcc38a;opacity:0.55;}.cls-135{fill:#fcc38b;opacity:0.55;}.cls-136{fill:#fcc48c;opacity:0.56;}.cls-137{fill:#fcc48d;opacity:0.56;}.cls-138{fill:#fcc58e;opacity:0.56;}.cls-139{fill:#fcc58f;opacity:0.57;}.cls-140{fill:#fcc690;opacity:0.57;}.cls-141{fill:#fcc691;opacity:0.58;}.cls-142{fill:#fcc792;opacity:0.58;}.cls-143{fill:#fcc793;opacity:0.58;}.cls-144{fill:#fcc894;opacity:0.59;}.cls-145{fill:#fcc995;opacity:0.59;}.cls-146{fill:#fcc996;opacity:0.59;}.cls-147{fill:#fcca97;opacity:0.6;}.cls-148{fill:#fdca98;opacity:0.6;}.cls-149{fill:#fdcb99;opacity:0.61;}.cls-150{fill:#fdcb9a;opacity:0.61;}.cls-151{fill:#fdcc9b;opacity:0.61;}.cls-152{fill:#fdcc9c;opacity:0.62;}.cls-153{fill:#fdcd9d;opacity:0.62;}.cls-154{fill:#fdcd9e;opacity:0.63;}.cls-155{fill:#fdce9f;opacity:0.63;}.cls-156{fill:#fdcea0;opacity:0.63;}.cls-157{fill:#fdcfa1;opacity:0.64;}.cls-158{fill:#fdcfa2;opacity:0.64;}.cls-159{fill:#fdd0a3;opacity:0.65;}.cls-160{fill:#fdd0a4;opacity:0.65;}.cls-161{fill:#fdd1a5;opacity:0.65;}.cls-162{fill:#fdd1a6;opacity:0.66;}.cls-163{fill:#fdd2a7;opacity:0.66;}.cls-164{fill:#fdd2a8;opacity:0.66;}.cls-165{fill:#fdd3a9;opacity:0.67;}.cls-166{fill:#fdd3aa;opacity:0.67;}.cls-167{fill:#fdd4ab;opacity:0.68;}.cls-168{fill:#fdd4ac;opacity:0.68;}.cls-169{fill:#fdd5ad;opacity:0.68;}.cls-170{fill:#fdd5ae;opacity:0.69;}.cls-171{fill:#fdd6af;opacity:0.69;}.cls-172{fill:#fdd6b0;opacity:0.7;}.cls-173{fill:#fdd7b1;opacity:0.7;}.cls-174{fill:#fdd7b2;opacity:0.7;}.cls-175{fill:#fdd8b3;opacity:0.71;}.cls-176{fill:#fdd8b4;opacity:0.71;}.cls-177{fill:#fdd9b5;opacity:0.71;}.cls-178{fill:#fdd9b6;opacity:0.72;}.cls-179{fill:#fddab7;opacity:0.72;}.cls-180{fill:#fddbb8;opacity:0.73;}.cls-181{fill:#fddbb9;opacity:0.73;}.cls-182{fill:#fddcba;opacity:0.73;}.cls-183{fill:#fddcbb;opacity:0.74;}.cls-184{fill:#fdddbc;opacity:0.74;}.cls-185{fill:#fdddbd;opacity:0.75;}.cls-186{fill:#fddebe;opacity:0.75;}.cls-187{fill:#fddebf;opacity:0.75;}.cls-188{fill:#fddfc0;opacity:0.76;}.cls-189{fill:#fedfc1;opacity:0.76;}.cls-190{fill:#fee0c2;opacity:0.76;}.cls-191{fill:#fee0c3;opacity:0.77;}.cls-192{fill:#fee1c4;opacity:0.77;}.cls-193{fill:#fee1c5;opacity:0.78;}.cls-194{fill:#fee2c6;opacity:0.78;}.cls-195{fill:#fee2c7;opacity:0.78;}.cls-196{fill:#fee3c8;opacity:0.79;}.cls-197{fill:#fee3c9;opacity:0.79;}.cls-198{fill:#fee4ca;opacity:0.8;}.cls-199{fill:#fee4cb;opacity:0.8;}.cls-200{fill:#fee5cc;opacity:0.8;}.cls-201{fill:#fee5cd;opacity:0.81;}.cls-202{fill:#fee6ce;opacity:0.81;}.cls-203{fill:#fee6cf;opacity:0.81;}.cls-204{fill:#fee7d0;opacity:0.82;}.cls-205{fill:#fee7d1;opacity:0.82;}.cls-206{fill:#fee8d2;opacity:0.83;}.cls-207{fill:#fee8d3;opacity:0.83;}.cls-208{fill:#fee9d4;opacity:0.83;}.cls-209{fill:#fee9d5;opacity:0.84;}.cls-210{fill:#feead6;opacity:0.84;}.cls-211{fill:#feead7;opacity:0.85;}.cls-212{fill:#feebd8;opacity:0.85;}.cls-213{fill:#feebd9;opacity:0.85;}.cls-214{fill:#feecda;opacity:0.86;}.cls-215{fill:#feecdb;opacity:0.86;}.cls-216{fill:#feeddc;opacity:0.86;}.cls-217{fill:#feeedd;opacity:0.87;}.cls-218{fill:#feeede;opacity:0.87;}.cls-219{fill:#feefdf;opacity:0.88;}.cls-220{fill:#feefe0;opacity:0.88;}.cls-221{fill:#fef0e1;opacity:0.88;}.cls-222{fill:#fef0e2;opacity:0.89;}.cls-223{fill:#fef1e3;opacity:0.89;}.cls-224{fill:#fef1e4;opacity:0.9;}.cls-225{fill:#fef2e5;opacity:0.9;}.cls-226{fill:#fef2e6;opacity:0.9;}.cls-227{fill:#fef3e7;opacity:0.91;}.cls-228{fill:#fef3e8;opacity:0.91;}.cls-229{fill:#fef4e9;opacity:0.92;}.cls-230{fill:#fef4ea;opacity:0.92;}.cls-231{fill:#fff5eb;opacity:0.92;}.cls-232{fill:#fff5ec;opacity:0.93;}.cls-233{fill:#fff6ed;opacity:0.93;}.cls-234{fill:#fff6ee;opacity:0.93;}.cls-235{fill:#fff7ef;opacity:0.94;}.cls-236{fill:#fff7f0;opacity:0.94;}.cls-237{fill:#fff8f1;opacity:0.95;}.cls-238{fill:#fff8f2;opacity:0.95;}.cls-239{fill:#fff9f3;opacity:0.95;}.cls-240{fill:#fff9f4;opacity:0.96;}.cls-241{fill:#fffaf5;opacity:0.96;}.cls-242{fill:#fffaf6;opacity:0.97;}.cls-243{fill:#fffbf7;opacity:0.97;}.cls-244{fill:#fffbf8;opacity:0.97;}.cls-245{fill:#fffcf9;opacity:0.98;}.cls-246{fill:#fffcfa;opacity:0.98;}.cls-247{fill:#fffdfb;opacity:0.98;}.cls-248{fill:#fffdfc;opacity:0.99;}.cls-249{fill:#fffefd;opacity:0.99;}.cls-250{fill:#fffefe;opacity:1;}.cls-251{fill:#fff;}.cls-252{fill:#ce3e17;}.cls-253{fill:#ff871a;}.cls-254{fill:#fffb6c;}.cls-255{fill:#ffde17;}.cls-256{fill:#fffdcf;}.cls-257{fill:#fffffa;}.cls-258{fill:#fff5ab;}.cls-259{fill:#f15a29;}.cls-260{fill:#e5451a;}.cls-261{fill:#f47a21;}.cls-262,.cls-263,.cls-264,.cls-265,.cls-266,.cls-267{mix-blend-mode:multiply;}.cls-262{fill:url(#linear-gradient);}.cls-263{fill:url(#linear-gradient-2);}.cls-264{fill:url(#linear-gradient-3);}.cls-265{fill:url(#linear-gradient-4);}.cls-266{fill:url(#linear-gradient-5);}.cls-267{fill:url(#linear-gradient-6);}.cls-268{mix-blend-mode:overlay;}.cls-269{fill:url(#linear-gradient-7);}.cls-270{fill:url(#linear-gradient-8);}.cls-271{fill:url(#linear-gradient-9);}.cls-272{fill:url(#linear-gradient-10);}.cls-273{fill:url(#linear-gradient-11);}.cls-274{fill:url(#linear-gradient-12);}.cls-275{fill:url(#linear-gradient-13);}.cls-276{fill:url(#linear-gradient-14);}</style><linearGradient id="linear-gradient" x1="36.44" y1="28.34" x2="36.44" y2="14.9" gradientUnits="userSpaceOnUse"><stop offset="0" stop-color="#90131a"/><stop offset="1" stop-color="#fff"/></linearGradient><linearGradient id="linear-gradient-2" x1="737.1" y1="-150.48" x2="737.1" y2="-161.03" gradientTransform="translate(754.78 -285.06) rotate(161.7)" xlink:href="#linear-gradient"/><linearGradient id="linear-gradient-3" x1="114.82" y1="58.1" x2="114.82" y2="41.71" xlink:href="#linear-gradient"/><linearGradient id="linear-gradient-4" x1="45.17" y1="124.41" x2="45.17" y2="109.58" xlink:href="#linear-gradient"/><linearGradient id="linear-gradient-5" x1="316.73" y1="245.56" x2="316.73" y2="235.15" gradientTransform="translate(75.78 -315.06) rotate(62.51)" xlink:href="#linear-gradient"/><linearGradient id="linear-gradient-6" x1="551.7" y1="-364.13" x2="551.7" y2="-374.54" gradientTransform="translate(642.17 -333.68) rotate(-177.98)" xlink:href="#linear-gradient"/><linearGradient id="linear-gradient-7" x1="62.58" y1="90.79" x2="62.58" y2="49.63" gradientUnits="userSpaceOnUse"><stop offset="0"/><stop offset="1" stop-color="#878787"/></linearGradient><linearGradient id="linear-gradient-8" x1="60.04" y1="90.79" x2="60.04" y2="49.63" xlink:href="#linear-gradient-7"/><linearGradient id="linear-gradient-9" x1="109.32" y1="90.79" x2="109.32" y2="49.63" xlink:href="#linear-gradient-7"/><linearGradient id="linear-gradient-10" x1="123.03" y1="90.79" x2="123.03" y2="49.63" xlink:href="#linear-gradient-7"/><linearGradient id="linear-gradient-11" x1="95.92" y1="90.79" x2="95.92" y2="49.63" xlink:href="#linear-gradient-7"/><linearGradient id="linear-gradient-12" x1="66.21" y1="90.79" x2="66.21" y2="49.63" xlink:href="#linear-gradient-7"/><linearGradient id="linear-gradient-13" x1="8.72" y1="90.79" x2="8.72" y2="49.63" xlink:href="#linear-gradient-7"/><linearGradient id="linear-gradient-14" x1="3.59" y1="90.79" x2="3.59" y2="49.63" xlink:href="#linear-gradient-7"/></defs><g class="cls-1"><g id="Layer_2" data-name="Layer 2"><g id="Layer_1-2" data-name="Layer 1"><circle class="cls-2" cx="60.91" cy="66.35" r="58.06" transform="translate(-20.41 27.63) rotate(-21.99)"/><path class="cls-3" d="M60.91,124.23a57.87,57.87,0,1,1,57.87-57.87A57.87,57.87,0,0,1,60.91,124.23Zm0-57.94a.07.07,0,0,0-.07.07.07.07,0,0,0,.07.06.06.06,0,0,0,.06-.06A.07.07,0,0,0,60.91,66.29Z"/><path class="cls-4" d="M60.9,124a57.68,57.68,0,1,1,57.68-57.68A57.67,57.67,0,0,1,60.9,124Zm0-57.8a.12.12,0,1,0,0,.24.12.12,0,1,0,0-.24Z"/><path class="cls-5" d="M60.9,123.85a57.49,57.49,0,1,1,57.49-57.48A57.49,57.49,0,0,1,60.9,123.85Zm0-57.67a.18.18,0,0,0-.18.19.18.18,0,0,0,.18.18.18.18,0,0,0,.19-.18A.18.18,0,0,0,60.9,66.18Z"/><path class="cls-6" d="M60.9,123.66a57.29,57.29,0,1,1,57.3-57.29A57.29,57.29,0,0,1,60.9,123.66Zm0-57.54a.25.25,0,1,0,.25.25A.25.25,0,0,0,60.9,66.12Z"/><path class="cls-7" d="M60.9,123.48A57.11,57.11,0,1,1,118,66.38,57.11,57.11,0,0,1,60.9,123.48Zm0-57.41a.31.31,0,1,0,.31.31A.31.31,0,0,0,60.9,66.07Z"/><path class="cls-8" d="M60.9,123.29a56.91,56.91,0,1,1,56.91-56.91A56.91,56.91,0,0,1,60.9,123.29ZM60.9,66a.37.37,0,1,0,0,.74.37.37,0,0,0,0-.74Z"/><path class="cls-9" d="M60.9,123.1a56.72,56.72,0,1,1,56.72-56.72A56.72,56.72,0,0,1,60.9,123.1ZM60.9,66a.44.44,0,1,0,.43.43A.43.43,0,0,0,60.9,66Z"/><path class="cls-10" d="M60.9,122.91a56.52,56.52,0,1,1,56.52-56.52A56.51,56.51,0,0,1,60.9,122.91Zm0-57a.49.49,0,1,0,.49.49A.49.49,0,0,0,60.9,65.9Z"/><path class="cls-11" d="M60.9,122.72a56.33,56.33,0,1,1,56.33-56.33A56.33,56.33,0,0,1,60.9,122.72Zm0-56.88a.56.56,0,1,0,.55.55A.56.56,0,0,0,60.9,65.84Z"/><path class="cls-12" d="M60.9,122.54A56.14,56.14,0,1,1,117,66.4,56.14,56.14,0,0,1,60.9,122.54Zm0-56.76a.62.62,0,0,0-.62.62.61.61,0,0,0,.62.61.61.61,0,0,0,.61-.61A.61.61,0,0,0,60.9,65.78Z"/><path class="cls-13" d="M60.9,122.35A55.95,55.95,0,1,1,116.84,66.4,56,56,0,0,1,60.9,122.35Zm0-56.62a.68.68,0,1,0,.67.67A.67.67,0,0,0,60.9,65.73Z"/><path class="cls-14" d="M60.9,122.16a55.75,55.75,0,1,1,55.75-55.75A55.75,55.75,0,0,1,60.9,122.16Zm0-56.49a.74.74,0,1,0,.73.74A.74.74,0,0,0,60.9,65.67Z"/><path class="cls-15" d="M60.9,122a55.56,55.56,0,1,1,55.56-55.56A55.55,55.55,0,0,1,60.9,122Zm0-56.36a.8.8,0,1,0,.8.8A.8.8,0,0,0,60.9,65.61Z"/><path class="cls-16" d="M60.89,121.79a55.37,55.37,0,1,1,55.37-55.37A55.37,55.37,0,0,1,60.89,121.79Zm0-56.23a.86.86,0,1,0,.87.86A.86.86,0,0,0,60.89,65.56Z"/><path class="cls-17" d="M60.89,121.6a55.18,55.18,0,1,1,55.18-55.18A55.18,55.18,0,0,1,60.89,121.6Zm0-56.1a.93.93,0,0,0,0,1.85.93.93,0,1,0,0-1.85Z"/><path class="cls-18" d="M60.89,121.41a55,55,0,1,1,55-55A55,55,0,0,1,60.89,121.41Zm0-56a1,1,0,1,0,1,1A1,1,0,0,0,60.89,65.44Z"/><path class="cls-19" d="M60.89,121.22a54.79,54.79,0,1,1,54.79-54.79A54.79,54.79,0,0,1,60.89,121.22Zm0-55.83a1,1,0,0,0,0,2.09,1,1,0,1,0,0-2.09Z"/><path class="cls-20" d="M60.89,121a54.6,54.6,0,1,1,54.6-54.59A54.6,54.6,0,0,1,60.89,121Zm0-55.7A1.11,1.11,0,1,0,62,66.44,1.11,1.11,0,0,0,60.89,65.33Z"/><path class="cls-21" d="M60.89,120.85A54.41,54.41,0,1,1,115.3,66.44,54.4,54.4,0,0,1,60.89,120.85Zm0-55.58a1.17,1.17,0,0,0,0,2.34,1.17,1.17,0,0,0,0-2.34Z"/><path class="cls-22" d="M60.89,120.66A54.22,54.22,0,1,1,115.1,66.45,54.21,54.21,0,0,1,60.89,120.66Zm0-55.44a1.23,1.23,0,1,0,1.23,1.23A1.23,1.23,0,0,0,60.89,65.22Z"/><path class="cls-23" d="M60.89,120.47a54,54,0,1,1,54-54A54,54,0,0,1,60.89,120.47Zm0-55.31a1.29,1.29,0,1,0,1.29,1.29A1.29,1.29,0,0,0,60.89,65.16Z"/><path class="cls-24" d="M60.89,120.28a53.83,53.83,0,1,1,53.83-53.82A53.83,53.83,0,0,1,60.89,120.28Zm0-55.18a1.36,1.36,0,1,0,1.35,1.36A1.36,1.36,0,0,0,60.89,65.1Z"/><path class="cls-25" d="M60.89,120.1a53.64,53.64,0,1,1,53.63-53.64A53.65,53.65,0,0,1,60.89,120.1Zm0-55.06a1.42,1.42,0,1,0,1.41,1.42A1.43,1.43,0,0,0,60.89,65Z"/><path class="cls-26" d="M60.89,119.91a53.45,53.45,0,1,1,53.44-53.45A53.45,53.45,0,0,1,60.89,119.91Zm0-54.92a1.48,1.48,0,1,0,1.47,1.47A1.47,1.47,0,0,0,60.89,65Z"/><path class="cls-27" d="M60.89,119.72a53.25,53.25,0,1,1,53.25-53.25A53.25,53.25,0,0,1,60.89,119.72Zm0-54.79a1.54,1.54,0,1,0,1.53,1.54A1.54,1.54,0,0,0,60.89,64.93Z"/><path class="cls-28" d="M60.89,119.53a53.06,53.06,0,1,1,53.05-53.06A53.05,53.05,0,0,1,60.89,119.53Zm0-54.66a1.6,1.6,0,1,0,1.6,1.6A1.6,1.6,0,0,0,60.89,64.87Z"/><path class="cls-29" d="M60.88,119.34a52.87,52.87,0,1,1,52.87-52.86A52.86,52.86,0,0,1,60.88,119.34Zm0-54.52a1.66,1.66,0,1,0,1.67,1.66A1.66,1.66,0,0,0,60.88,64.82Z"/><path class="cls-30" d="M60.88,119.16a52.68,52.68,0,1,1,52.68-52.68A52.68,52.68,0,0,1,60.88,119.16Zm0-54.4a1.73,1.73,0,1,0,1.73,1.72A1.72,1.72,0,0,0,60.88,64.76Z"/><path class="cls-31" d="M60.88,119a52.48,52.48,0,1,1,52.48-52.48A52.48,52.48,0,0,1,60.88,119Zm0-54.27a1.79,1.79,0,1,0,1.79,1.79A1.79,1.79,0,0,0,60.88,64.7Z"/><path class="cls-32" d="M60.88,118.78a52.29,52.29,0,1,1,52.29-52.29A52.29,52.29,0,0,1,60.88,118.78Zm0-54.13a1.85,1.85,0,1,0,1.85,1.84A1.84,1.84,0,0,0,60.88,64.65Z"/><path class="cls-33" d="M60.88,118.59A52.1,52.1,0,1,1,113,66.5,52.09,52.09,0,0,1,60.88,118.59Zm0-54a1.91,1.91,0,1,0,1.91,1.91A1.91,1.91,0,0,0,60.88,64.59Z"/><path class="cls-34" d="M60.88,118.41a51.91,51.91,0,1,1,51.9-51.91A51.9,51.9,0,0,1,60.88,118.41Zm0-53.88a2,2,0,1,0,2,2A2,2,0,0,0,60.88,64.53Z"/><path class="cls-35" d="M60.88,118.22a51.71,51.71,0,1,1,51.71-51.71A51.71,51.71,0,0,1,60.88,118.22Zm0-53.74a2,2,0,1,0,2,2A2,2,0,0,0,60.88,64.48Z"/><path class="cls-36" d="M60.88,118A51.52,51.52,0,1,1,112.4,66.51,51.52,51.52,0,0,1,60.88,118Zm0-53.61A2.09,2.09,0,1,0,63,66.51,2.09,2.09,0,0,0,60.88,64.42Z"/><path class="cls-37" d="M60.88,117.84A51.33,51.33,0,1,1,112.2,66.52,51.33,51.33,0,0,1,60.88,117.84Zm0-53.48A2.16,2.16,0,1,0,63,66.52,2.16,2.16,0,0,0,60.88,64.36Z"/><path class="cls-38" d="M60.88,117.65A51.13,51.13,0,1,1,112,66.52,51.14,51.14,0,0,1,60.88,117.65Zm0-53.34a2.22,2.22,0,1,0,2.21,2.21A2.21,2.21,0,0,0,60.88,64.31Z"/><path class="cls-39" d="M60.88,117.47a50.94,50.94,0,1,1,50.94-50.94A50.94,50.94,0,0,1,60.88,117.47Zm0-53.22a2.28,2.28,0,1,0,2.27,2.28A2.28,2.28,0,0,0,60.88,64.25Z"/><path class="cls-40" d="M60.88,117.28a50.75,50.75,0,1,1,50.74-50.75A50.75,50.75,0,0,1,60.88,117.28Zm0-53.09a2.34,2.34,0,1,0,2.33,2.34A2.34,2.34,0,0,0,60.88,64.19Z"/><path class="cls-41" d="M60.87,117.09a50.56,50.56,0,1,1,50.56-50.55A50.55,50.55,0,0,1,60.87,117.09Zm0-52.95a2.4,2.4,0,1,0,2.4,2.4A2.4,2.4,0,0,0,60.87,64.14Z"/><path class="cls-42" d="M60.87,116.9a50.36,50.36,0,1,1,50.37-50.36A50.36,50.36,0,0,1,60.87,116.9Zm0-52.82a2.46,2.46,0,1,0,2.47,2.46A2.46,2.46,0,0,0,60.87,64.08Z"/><path class="cls-43" d="M60.87,116.72A50.18,50.18,0,1,1,111,66.55,50.17,50.17,0,0,1,60.87,116.72Zm0-52.7a2.53,2.53,0,1,0,2.53,2.53A2.52,2.52,0,0,0,60.87,64Z"/><path class="cls-44" d="M60.87,116.53a50,50,0,1,1,50-50A50,50,0,0,1,60.87,116.53Zm0-52.56a2.58,2.58,0,1,0,2.59,2.58A2.57,2.57,0,0,0,60.87,64Z"/><path class="cls-45" d="M60.87,116.34a49.79,49.79,0,1,1,49.79-49.79A49.79,49.79,0,0,1,60.87,116.34Zm0-52.43a2.65,2.65,0,1,0,2.65,2.64A2.64,2.64,0,0,0,60.87,63.91Z"/><path class="cls-46" d="M60.87,116.15a49.59,49.59,0,1,1,49.59-49.59A49.59,49.59,0,0,1,60.87,116.15Zm0-52.3a2.71,2.71,0,1,0,2.71,2.71A2.71,2.71,0,0,0,60.87,63.85Z"/><path class="cls-47" d="M60.87,116a49.41,49.41,0,1,1,49.4-49.41A49.41,49.41,0,0,1,60.87,116Zm0-52.18a2.77,2.77,0,1,0,2.77,2.77A2.77,2.77,0,0,0,60.87,63.79Z"/><path class="cls-48" d="M60.87,115.78a49.21,49.21,0,1,1,49.21-49.21A49.21,49.21,0,0,1,60.87,115.78Zm0-52a2.83,2.83,0,1,0,2.83,2.83A2.83,2.83,0,0,0,60.87,63.74Z"/><path class="cls-49" d="M60.87,115.59a49,49,0,1,1,49-49A49,49,0,0,1,60.87,115.59Zm0-51.91a2.9,2.9,0,1,0,2.89,2.89A2.89,2.89,0,0,0,60.87,63.68Z"/><path class="cls-50" d="M60.87,115.4a48.83,48.83,0,1,1,48.82-48.82A48.83,48.83,0,0,1,60.87,115.4Zm0-51.78a3,3,0,1,0,3,3A3,3,0,0,0,60.87,63.62Z"/><path class="cls-51" d="M60.87,115.21A48.63,48.63,0,1,1,109.5,66.58,48.63,48.63,0,0,1,60.87,115.21Zm0-51.64a3,3,0,1,0,3,3A3,3,0,0,0,60.87,63.57Z"/><path class="cls-52" d="M60.87,115A48.44,48.44,0,1,1,109.3,66.59,48.44,48.44,0,0,1,60.87,115Zm0-51.52a3.08,3.08,0,1,0,3.07,3.08A3.08,3.08,0,0,0,60.87,63.51Z"/><path class="cls-53" d="M60.87,114.84a48.25,48.25,0,1,1,48.24-48.25A48.25,48.25,0,0,1,60.87,114.84Zm0-51.39A3.14,3.14,0,1,0,64,66.59,3.14,3.14,0,0,0,60.87,63.45Z"/><path class="cls-54" d="M60.86,114.65A48.06,48.06,0,1,1,108.92,66.6,48.05,48.05,0,0,1,60.86,114.65Zm0-51.25a3.2,3.2,0,1,0,3.2,3.2A3.2,3.2,0,0,0,60.86,63.4Z"/><path class="cls-55" d="M60.86,114.46A47.86,47.86,0,1,1,108.72,66.6,47.86,47.86,0,0,1,60.86,114.46Zm0-51.12a3.26,3.26,0,1,0,3.27,3.26A3.26,3.26,0,0,0,60.86,63.34Z"/><path class="cls-56" d="M60.86,114.28a47.67,47.67,0,1,1,47.67-47.67A47.68,47.68,0,0,1,60.86,114.28Zm0-51a3.33,3.33,0,1,0,3.33,3.33A3.33,3.33,0,0,0,60.86,63.28Z"/><path class="cls-57" d="M60.86,114.09a47.48,47.48,0,1,1,47.48-47.48A47.47,47.47,0,0,1,60.86,114.09Zm0-50.86a3.39,3.39,0,1,0,3.39,3.38A3.38,3.38,0,0,0,60.86,63.23Z"/><path class="cls-58" d="M60.86,113.9a47.29,47.29,0,1,1,47.28-47.28A47.28,47.28,0,0,1,60.86,113.9Zm0-50.73a3.45,3.45,0,1,0,3.45,3.45A3.44,3.44,0,0,0,60.86,63.17Z"/><path class="cls-59" d="M60.86,113.71A47.09,47.09,0,1,1,108,66.62,47.09,47.09,0,0,1,60.86,113.71Zm0-50.6a3.51,3.51,0,1,0,3.51,3.51A3.51,3.51,0,0,0,60.86,63.11Z"/><path class="cls-60" d="M60.86,113.52a46.9,46.9,0,1,1,46.9-46.89A46.89,46.89,0,0,1,60.86,113.52Zm0-50.46a3.57,3.57,0,1,0,3.57,3.57A3.57,3.57,0,0,0,60.86,63.06Z"/><path class="cls-61" d="M60.86,113.34a46.71,46.71,0,1,1,46.7-46.71A46.71,46.71,0,0,1,60.86,113.34Zm0-50.34a3.63,3.63,0,1,0,3.63,3.63A3.63,3.63,0,0,0,60.86,63Z"/><path class="cls-62" d="M60.86,113.15a46.52,46.52,0,1,1,46.51-46.51A46.52,46.52,0,0,1,60.86,113.15Zm0-50.21a3.7,3.7,0,1,0,3.69,3.7A3.7,3.7,0,0,0,60.86,62.94Z"/><path class="cls-63" d="M60.86,113a46.32,46.32,0,1,1,46.32-46.32A46.32,46.32,0,0,1,60.86,113Zm0-50.07a3.75,3.75,0,1,0,3.75,3.75A3.75,3.75,0,0,0,60.86,62.89Z"/><path class="cls-64" d="M60.86,112.77A46.13,46.13,0,1,1,107,66.64,46.13,46.13,0,0,1,60.86,112.77Zm0-49.94a3.82,3.82,0,1,0,3.81,3.81A3.82,3.82,0,0,0,60.86,62.83Z"/><path class="cls-65" d="M60.86,112.59a45.94,45.94,0,1,1,45.93-45.94A45.94,45.94,0,0,1,60.86,112.59Zm0-49.82a3.88,3.88,0,1,0,3.87,3.88A3.88,3.88,0,0,0,60.86,62.77Z"/><path class="cls-66" d="M60.85,112.4A45.75,45.75,0,1,1,106.6,66.65,45.74,45.74,0,0,1,60.85,112.4Zm0-49.68a3.94,3.94,0,1,0,3.94,3.93A3.93,3.93,0,0,0,60.85,62.72Z"/><path class="cls-67" d="M60.85,112.21a45.55,45.55,0,1,1,45.56-45.55A45.55,45.55,0,0,1,60.85,112.21Zm0-49.55a4,4,0,1,0,4,4A4,4,0,0,0,60.85,62.66Z"/><path class="cls-68" d="M60.85,112a45.36,45.36,0,1,1,45.36-45.36A45.36,45.36,0,0,1,60.85,112Zm0-49.42a4.07,4.07,0,1,0,4.06,4.06A4.06,4.06,0,0,0,60.85,62.6Z"/><path class="cls-69" d="M60.85,111.83A45.17,45.17,0,1,1,106,66.67,45.16,45.16,0,0,1,60.85,111.83Zm0-49.28A4.12,4.12,0,1,0,65,66.67,4.12,4.12,0,0,0,60.85,62.55Z"/><path class="cls-70" d="M60.85,111.65a45,45,0,1,1,45-45A45,45,0,0,1,60.85,111.65Zm0-49.16A4.19,4.19,0,1,0,65,66.67,4.18,4.18,0,0,0,60.85,62.49Z"/><path class="cls-71" d="M60.85,111.46a44.78,44.78,0,1,1,44.78-44.78A44.78,44.78,0,0,1,60.85,111.46Zm0-49a4.25,4.25,0,1,0,4.25,4.25A4.25,4.25,0,0,0,60.85,62.43Z"/><path class="cls-72" d="M60.85,111.27a44.59,44.59,0,1,1,44.59-44.59A44.59,44.59,0,0,1,60.85,111.27Zm0-48.9a4.31,4.31,0,1,0,4.31,4.31A4.31,4.31,0,0,0,60.85,62.37Z"/><path class="cls-73" d="M60.85,111.08a44.4,44.4,0,1,1,44.4-44.39A44.39,44.39,0,0,1,60.85,111.08Zm0-48.76a4.37,4.37,0,1,0,4.37,4.37A4.37,4.37,0,0,0,60.85,62.32Z"/><path class="cls-74" d="M60.85,110.9a44.21,44.21,0,1,1,44.2-44.21A44.22,44.22,0,0,1,60.85,110.9Zm0-48.64a4.43,4.43,0,1,0,4.43,4.43A4.43,4.43,0,0,0,60.85,62.26Z"/><path class="cls-75" d="M60.85,110.71a44,44,0,1,1,44-44A44,44,0,0,1,60.85,110.71Zm0-48.51a4.5,4.5,0,1,0,4.49,4.5A4.5,4.5,0,0,0,60.85,62.2Z"/><path class="cls-76" d="M60.85,110.52A43.82,43.82,0,1,1,104.67,66.7,43.82,43.82,0,0,1,60.85,110.52Zm0-48.37A4.56,4.56,0,1,0,65.4,66.7,4.56,4.56,0,0,0,60.85,62.15Z"/><path class="cls-77" d="M60.85,110.33a43.63,43.63,0,1,1,43.62-43.62A43.62,43.62,0,0,1,60.85,110.33Zm0-48.24a4.62,4.62,0,1,0,4.61,4.62A4.62,4.62,0,0,0,60.85,62.09Z"/><path class="cls-78" d="M60.85,110.14a43.43,43.43,0,1,1,43.43-43.43A43.43,43.43,0,0,1,60.85,110.14Zm0-48.11a4.68,4.68,0,1,0,4.67,4.68A4.68,4.68,0,0,0,60.85,62Z"/><path class="cls-79" d="M60.84,110a43.25,43.25,0,1,1,43.25-43.24A43.24,43.24,0,0,1,60.84,110Zm0-48a4.74,4.74,0,1,0,4.74,4.74A4.74,4.74,0,0,0,60.84,62Z"/><path class="cls-80" d="M60.84,109.77a43.05,43.05,0,1,1,43.05-43A43.05,43.05,0,0,1,60.84,109.77Zm0-47.85a4.8,4.8,0,1,0,4.8,4.8A4.8,4.8,0,0,0,60.84,61.92Z"/><path class="cls-81" d="M60.84,109.58A42.86,42.86,0,1,1,103.7,66.72,42.85,42.85,0,0,1,60.84,109.58Zm0-47.72a4.87,4.87,0,1,0,4.86,4.86A4.87,4.87,0,0,0,60.84,61.86Z"/><path class="cls-82" d="M60.84,109.39a42.66,42.66,0,1,1,42.67-42.66A42.66,42.66,0,0,1,60.84,109.39Zm0-47.58a4.92,4.92,0,1,0,4.93,4.92A4.92,4.92,0,0,0,60.84,61.81Z"/><path class="cls-83" d="M60.84,109.21a42.48,42.48,0,1,1,42.47-42.48A42.47,42.47,0,0,1,60.84,109.21Zm0-47.46a5,5,0,1,0,5,5A5,5,0,0,0,60.84,61.75Z"/><path class="cls-84" d="M60.84,109a42.28,42.28,0,1,1,42.28-42.28A42.28,42.28,0,0,1,60.84,109Zm0-47.33a5.05,5.05,0,1,0,5,5A5,5,0,0,0,60.84,61.69Z"/><path class="cls-85" d="M60.84,108.83a42.09,42.09,0,1,1,42.09-42.09A42.09,42.09,0,0,1,60.84,108.83Zm0-47.19A5.11,5.11,0,1,0,66,66.74,5.1,5.1,0,0,0,60.84,61.64Z"/><path class="cls-86" d="M60.84,108.64a41.9,41.9,0,1,1,41.89-41.89A41.89,41.89,0,0,1,60.84,108.64Zm0-47.06A5.17,5.17,0,1,0,66,66.75,5.16,5.16,0,0,0,60.84,61.58Z"/><path class="cls-87" d="M60.84,108.45a41.7,41.7,0,1,1,41.7-41.7A41.7,41.7,0,0,1,60.84,108.45Zm0-46.93a5.23,5.23,0,1,0,5.23,5.23A5.23,5.23,0,0,0,60.84,61.52Z"/><path class="cls-88" d="M60.84,108.27a41.51,41.51,0,1,1,41.51-41.51A41.51,41.51,0,0,1,60.84,108.27Zm0-46.8a5.29,5.29,0,1,0,5.29,5.29A5.29,5.29,0,0,0,60.84,61.47Z"/><path class="cls-89" d="M60.84,108.08a41.32,41.32,0,1,1,41.31-41.32A41.32,41.32,0,0,1,60.84,108.08Zm0-46.67a5.36,5.36,0,1,0,5.35,5.35A5.36,5.36,0,0,0,60.84,61.41Z"/><path class="cls-90" d="M60.84,107.89A41.13,41.13,0,1,1,102,66.77,41.12,41.12,0,0,1,60.84,107.89Zm0-46.54a5.42,5.42,0,1,0,5.41,5.42A5.42,5.42,0,0,0,60.84,61.35Z"/><path class="cls-91" d="M60.83,107.7a40.93,40.93,0,1,1,40.94-40.93A40.93,40.93,0,0,1,60.83,107.7Zm0-46.4a5.48,5.48,0,1,0,5.48,5.47A5.47,5.47,0,0,0,60.83,61.3Z"/><path class="cls-92" d="M60.83,107.52a40.74,40.74,0,1,1,40.74-40.74A40.74,40.74,0,0,1,60.83,107.52Zm0-46.28a5.54,5.54,0,1,0,5.54,5.54A5.54,5.54,0,0,0,60.83,61.24Z"/><path class="cls-93" d="M60.83,107.33a40.55,40.55,0,1,1,40.55-40.55A40.55,40.55,0,0,1,60.83,107.33Zm0-46.15a5.6,5.6,0,1,0,5.6,5.6A5.6,5.6,0,0,0,60.83,61.18Z"/><path class="cls-94" d="M60.83,107.14a40.36,40.36,0,1,1,40.36-40.35A40.36,40.36,0,0,1,60.83,107.14Zm0-46a5.67,5.67,0,1,0,5.66,5.67A5.67,5.67,0,0,0,60.83,61.12Z"/><path class="cls-95" d="M60.83,107A40.16,40.16,0,1,1,101,66.79,40.16,40.16,0,0,1,60.83,107Zm0-45.88a5.72,5.72,0,1,0,5.72,5.72A5.72,5.72,0,0,0,60.83,61.07Z"/><path class="cls-96" d="M60.83,106.77a40,40,0,1,1,40-40A40,40,0,0,1,60.83,106.77Zm0-45.76a5.79,5.79,0,1,0,5.79,5.79A5.78,5.78,0,0,0,60.83,61Z"/><path class="cls-97" d="M60.83,106.58A39.78,39.78,0,1,1,100.61,66.8,39.78,39.78,0,0,1,60.83,106.58Zm0-45.63a5.85,5.85,0,1,0,5.85,5.85A5.85,5.85,0,0,0,60.83,61Z"/><path class="cls-98" d="M60.83,106.39a39.59,39.59,0,1,1,39.58-39.58A39.58,39.58,0,0,1,60.83,106.39Zm0-45.49a5.91,5.91,0,1,0,5.91,5.91A5.91,5.91,0,0,0,60.83,60.9Z"/><path class="cls-99" d="M60.83,106.2a39.39,39.39,0,1,1,39.39-39.39A39.38,39.38,0,0,1,60.83,106.2Zm0-45.36a6,6,0,1,0,6,6A6,6,0,0,0,60.83,60.84Z"/><path class="cls-100" d="M60.83,106A39.2,39.2,0,1,1,100,66.81,39.2,39.2,0,0,1,60.83,106Zm0-45.23a6,6,0,1,0,6,6A6,6,0,0,0,60.83,60.78Z"/><path class="cls-101" d="M60.83,105.83a39,39,0,1,1,39-39A39,39,0,0,1,60.83,105.83Zm0-45.1a6.09,6.09,0,1,0,6.09,6.09A6.09,6.09,0,0,0,60.83,60.73Z"/><path class="cls-102" d="M60.83,105.64A38.82,38.82,0,1,1,99.64,66.82,38.82,38.82,0,0,1,60.83,105.64Zm0-45A6.16,6.16,0,1,0,67,66.82,6.16,6.16,0,0,0,60.83,60.67Z"/><path class="cls-103" d="M60.83,105.45A38.62,38.62,0,1,1,99.45,66.83,38.63,38.63,0,0,1,60.83,105.45Zm0-44.84A6.22,6.22,0,1,0,67,66.83,6.22,6.22,0,0,0,60.83,60.61Z"/><path class="cls-104" d="M60.82,105.26A38.43,38.43,0,1,1,99.25,66.83,38.42,38.42,0,0,1,60.82,105.26Zm0-44.7a6.28,6.28,0,1,0,6.28,6.27A6.27,6.27,0,0,0,60.82,60.56Z"/><path class="cls-105" d="M60.82,105.08A38.24,38.24,0,1,1,99.06,66.84,38.24,38.24,0,0,1,60.82,105.08Zm0-44.58a6.34,6.34,0,1,0,6.34,6.34A6.33,6.33,0,0,0,60.82,60.5Z"/><path class="cls-106" d="M60.82,104.89a38,38,0,1,1,38.05-38A38,38,0,0,1,60.82,104.89Zm0-44.45a6.4,6.4,0,1,0,6.4,6.4A6.41,6.41,0,0,0,60.82,60.44Z"/><path class="cls-107" d="M60.82,104.7A37.85,37.85,0,1,1,98.67,66.85,37.86,37.86,0,0,1,60.82,104.7Zm0-44.31a6.46,6.46,0,1,0,6.46,6.46A6.46,6.46,0,0,0,60.82,60.39Z"/><path class="cls-108" d="M60.82,104.51A37.66,37.66,0,1,1,98.48,66.85,37.66,37.66,0,0,1,60.82,104.51Zm0-44.18a6.53,6.53,0,1,0,6.52,6.52A6.52,6.52,0,0,0,60.82,60.33Z"/><path class="cls-109" d="M60.82,104.32A37.47,37.47,0,1,1,98.29,66.86,37.47,37.47,0,0,1,60.82,104.32Zm0-44a6.59,6.59,0,1,0,6.59,6.59A6.58,6.58,0,0,0,60.82,60.27Z"/><path class="cls-110" d="M60.82,104.14A37.28,37.28,0,1,1,98.09,66.86,37.27,37.27,0,0,1,60.82,104.14Zm0-43.92a6.65,6.65,0,1,0,6.65,6.64A6.64,6.64,0,0,0,60.82,60.22Z"/><path class="cls-111" d="M60.82,104A37.09,37.09,0,1,1,97.9,66.87,37.08,37.08,0,0,1,60.82,104Zm0-43.79a6.71,6.71,0,1,0,6.71,6.71A6.7,6.7,0,0,0,60.82,60.16Z"/><path class="cls-112" d="M60.82,103.76A36.89,36.89,0,1,1,97.71,66.87,36.89,36.89,0,0,1,60.82,103.76Zm0-43.66a6.77,6.77,0,1,0,6.77,6.77A6.77,6.77,0,0,0,60.82,60.1Z"/><path class="cls-113" d="M60.82,103.57A36.7,36.7,0,1,1,97.51,66.88,36.7,36.7,0,0,1,60.82,103.57Zm0-43.52a6.83,6.83,0,1,0,6.83,6.83A6.82,6.82,0,0,0,60.82,60.05Z"/><path class="cls-114" d="M60.82,103.39a36.51,36.51,0,1,1,36.5-36.51A36.52,36.52,0,0,1,60.82,103.39Zm0-43.4a6.89,6.89,0,1,0,6.89,6.89A6.89,6.89,0,0,0,60.82,60Z"/><path class="cls-115" d="M60.82,103.2A36.32,36.32,0,1,1,97.13,66.89,36.32,36.32,0,0,1,60.82,103.2Zm0-43.27a7,7,0,1,0,6.95,7A7,7,0,0,0,60.82,59.93Z"/><path class="cls-116" d="M60.81,103A36.12,36.12,0,1,1,96.93,66.89,36.12,36.12,0,0,1,60.81,103Zm0-43.14a7,7,0,1,0,7,7A7,7,0,0,0,60.81,59.87Z"/><path class="cls-117" d="M60.81,102.82A35.93,35.93,0,1,1,96.74,66.9,35.92,35.92,0,0,1,60.81,102.82Zm0-43a7.08,7.08,0,1,0,7.08,7.08A7.08,7.08,0,0,0,60.81,59.82Z"/><path class="cls-118" d="M60.81,102.63A35.73,35.73,0,1,1,96.55,66.9,35.73,35.73,0,0,1,60.81,102.63Zm0-42.87A7.14,7.14,0,1,0,68,66.9,7.14,7.14,0,0,0,60.81,59.76Z"/><path class="cls-119" d="M60.81,102.45A35.55,35.55,0,1,1,96.35,66.9,35.55,35.55,0,0,1,60.81,102.45Zm0-42.75A7.2,7.2,0,1,0,68,66.9,7.21,7.21,0,0,0,60.81,59.7Z"/><path class="cls-120" d="M60.81,102.26A35.35,35.35,0,1,1,96.16,66.91,35.35,35.35,0,0,1,60.81,102.26Zm0-42.61a7.26,7.26,0,1,0,7.26,7.26A7.26,7.26,0,0,0,60.81,59.65Z"/><path class="cls-121" d="M60.81,102.07A35.16,35.16,0,1,1,96,66.91,35.16,35.16,0,0,1,60.81,102.07Zm0-42.48a7.33,7.33,0,1,0,7.32,7.32A7.32,7.32,0,0,0,60.81,59.59Z"/><path class="cls-122" d="M60.81,101.88a35,35,0,1,1,35-35A35,35,0,0,1,60.81,101.88Zm0-42.35a7.39,7.39,0,1,0,7.38,7.39A7.38,7.38,0,0,0,60.81,59.53Z"/><path class="cls-123" d="M60.81,101.7A34.78,34.78,0,1,1,95.58,66.92,34.78,34.78,0,0,1,60.81,101.7Zm0-42.22a7.45,7.45,0,1,0,7.45,7.44A7.45,7.45,0,0,0,60.81,59.48Z"/><path class="cls-124" d="M60.81,101.51A34.58,34.58,0,1,1,95.39,66.93,34.58,34.58,0,0,1,60.81,101.51Zm0-42.09a7.51,7.51,0,1,0,7.51,7.51A7.51,7.51,0,0,0,60.81,59.42Z"/><path class="cls-125" d="M60.81,101.32A34.39,34.39,0,1,1,95.19,66.93,34.39,34.39,0,0,1,60.81,101.32Zm0-42a7.57,7.57,0,1,0,7.57,7.57A7.57,7.57,0,0,0,60.81,59.36Z"/><path class="cls-126" d="M60.81,101.13A34.2,34.2,0,1,1,95,66.94,34.2,34.2,0,0,1,60.81,101.13Zm0-41.82a7.63,7.63,0,1,0,7.63,7.63A7.62,7.62,0,0,0,60.81,59.31Z"/><path class="cls-127" d="M60.81,100.94a34,34,0,1,1,34-34A34,34,0,0,1,60.81,100.94Zm0-41.69a7.69,7.69,0,1,0,7.69,7.69A7.69,7.69,0,0,0,60.81,59.25Z"/><path class="cls-128" d="M60.81,100.76A33.81,33.81,0,1,1,94.61,67,33.81,33.81,0,0,1,60.81,100.76Zm0-41.57A7.76,7.76,0,1,0,68.56,67,7.75,7.75,0,0,0,60.81,59.19Z"/><path class="cls-129" d="M60.8,100.57A33.62,33.62,0,1,1,94.42,67,33.62,33.62,0,0,1,60.8,100.57Zm0-41.43A7.82,7.82,0,1,0,68.62,67,7.81,7.81,0,0,0,60.8,59.14Z"/><path class="cls-130" d="M60.8,100.38A33.43,33.43,0,1,1,94.23,67,33.42,33.42,0,0,1,60.8,100.38Zm0-41.3A7.88,7.88,0,1,0,68.68,67,7.87,7.87,0,0,0,60.8,59.08Z"/><path class="cls-131" d="M60.8,100.19A33.23,33.23,0,1,1,94,67,33.23,33.23,0,0,1,60.8,100.19ZM60.8,59A7.94,7.94,0,1,0,68.74,67,7.95,7.95,0,0,0,60.8,59Z"/><path class="cls-132" d="M60.8,100a33,33,0,1,1,33-33A33,33,0,0,1,60.8,100Zm0-41a8,8,0,1,0,8,8A8,8,0,0,0,60.8,59Z"/><path class="cls-133" d="M60.8,99.82A32.85,32.85,0,1,1,93.65,67,32.85,32.85,0,0,1,60.8,99.82Zm0-40.91A8.06,8.06,0,1,0,68.86,67,8.06,8.06,0,0,0,60.8,58.91Z"/><path class="cls-134" d="M60.8,99.63A32.66,32.66,0,1,1,93.46,67,32.65,32.65,0,0,1,60.8,99.63Zm0-40.78A8.13,8.13,0,1,0,68.92,67,8.12,8.12,0,0,0,60.8,58.85Z"/><path class="cls-135" d="M60.8,99.44A32.46,32.46,0,1,1,93.26,67,32.46,32.46,0,0,1,60.8,99.44Zm0-40.64A8.18,8.18,0,1,0,69,67,8.18,8.18,0,0,0,60.8,58.8Z"/><path class="cls-136" d="M60.8,99.25A32.27,32.27,0,1,1,93.07,67,32.27,32.27,0,0,1,60.8,99.25Zm0-40.51A8.25,8.25,0,1,0,69.05,67,8.24,8.24,0,0,0,60.8,58.74Z"/><path class="cls-137" d="M60.8,99.07A32.08,32.08,0,1,1,92.88,67,32.08,32.08,0,0,1,60.8,99.07Zm0-40.39A8.31,8.31,0,1,0,69.11,67,8.31,8.31,0,0,0,60.8,58.68Z"/><path class="cls-138" d="M60.8,98.88A31.89,31.89,0,1,1,92.68,67,31.89,31.89,0,0,1,60.8,98.88Zm0-40.26A8.37,8.37,0,1,0,69.17,67,8.37,8.37,0,0,0,60.8,58.62Z"/><path class="cls-139" d="M60.8,98.69A31.69,31.69,0,1,1,92.49,67,31.69,31.69,0,0,1,60.8,98.69Zm0-40.12A8.43,8.43,0,1,0,69.23,67,8.42,8.42,0,0,0,60.8,58.57Z"/><path class="cls-140" d="M60.8,98.5A31.5,31.5,0,1,1,92.3,67,31.5,31.5,0,0,1,60.8,98.5Zm0-40A8.5,8.5,0,1,0,69.29,67,8.5,8.5,0,0,0,60.8,58.51Z"/><path class="cls-141" d="M60.79,98.32A31.31,31.31,0,1,1,92.1,67,31.3,31.3,0,0,1,60.79,98.32Zm0-39.87A8.56,8.56,0,1,0,69.35,67,8.55,8.55,0,0,0,60.79,58.45Z"/><path class="cls-142" d="M60.79,98.13A31.12,31.12,0,1,1,91.91,67,31.11,31.11,0,0,1,60.79,98.13Zm0-39.73A8.62,8.62,0,1,0,69.41,67,8.62,8.62,0,0,0,60.79,58.4Z"/><path class="cls-143" d="M60.79,97.94A30.92,30.92,0,1,1,91.72,67,30.92,30.92,0,0,1,60.79,97.94Zm0-39.6A8.68,8.68,0,1,0,69.47,67,8.68,8.68,0,0,0,60.79,58.34Z"/><path class="cls-144" d="M60.79,97.75A30.73,30.73,0,1,1,91.52,67,30.73,30.73,0,0,1,60.79,97.75Zm0-39.47A8.74,8.74,0,1,0,69.53,67,8.75,8.75,0,0,0,60.79,58.28Z"/><path class="cls-145" d="M60.79,97.56A30.54,30.54,0,1,1,91.33,67,30.54,30.54,0,0,1,60.79,97.56Zm0-39.33a8.8,8.8,0,1,0,8.8,8.8A8.8,8.8,0,0,0,60.79,58.23Z"/><path class="cls-146" d="M60.79,97.38A30.35,30.35,0,1,1,91.14,67,30.34,30.34,0,0,1,60.79,97.38Zm0-39.21A8.86,8.86,0,1,0,69.65,67,8.86,8.86,0,0,0,60.79,58.17Z"/><path class="cls-147" d="M60.79,97.19A30.16,30.16,0,1,1,90.94,67,30.15,30.15,0,0,1,60.79,97.19Zm0-39.08A8.93,8.93,0,1,0,69.71,67,8.92,8.92,0,0,0,60.79,58.11Z"/><path class="cls-148" d="M60.79,97a30,30,0,1,1,30-30A30,30,0,0,1,60.79,97Zm0-38.94a9,9,0,1,0,9,9A9,9,0,0,0,60.79,58.06Z"/><path class="cls-149" d="M60.79,96.81A29.77,29.77,0,1,1,90.56,67.05,29.76,29.76,0,0,1,60.79,96.81Zm0-38.81a9,9,0,1,0,9,9A9,9,0,0,0,60.79,58Z"/><path class="cls-150" d="M60.79,96.63A29.58,29.58,0,1,1,90.36,67.05,29.58,29.58,0,0,1,60.79,96.63Zm0-38.69a9.11,9.11,0,1,0,9.11,9.11A9.11,9.11,0,0,0,60.79,57.94Z"/><path class="cls-151" d="M60.79,96.44A29.39,29.39,0,1,1,90.17,67.06,29.39,29.39,0,0,1,60.79,96.44Zm0-38.55A9.17,9.17,0,1,0,70,67.06,9.16,9.16,0,0,0,60.79,57.89Z"/><path class="cls-152" d="M60.79,96.25A29.19,29.19,0,1,1,90,67.06,29.19,29.19,0,0,1,60.79,96.25Zm0-38.42A9.23,9.23,0,1,0,70,67.06,9.23,9.23,0,0,0,60.79,57.83Z"/><path class="cls-153" d="M60.79,96.06a29,29,0,1,1,29-29A29,29,0,0,1,60.79,96.06Zm0-38.29a9.3,9.3,0,1,0,9.29,9.3A9.3,9.3,0,0,0,60.79,57.77Z"/><path class="cls-154" d="M60.78,95.88A28.81,28.81,0,1,1,89.59,67.07,28.81,28.81,0,0,1,60.78,95.88Zm0-38.16a9.35,9.35,0,1,0,9.36,9.35A9.35,9.35,0,0,0,60.78,57.72Z"/><path class="cls-155" d="M60.78,95.69A28.62,28.62,0,1,1,89.4,67.07,28.61,28.61,0,0,1,60.78,95.69Zm0-38a9.42,9.42,0,1,0,9.42,9.41A9.41,9.41,0,0,0,60.78,57.66Z"/><path class="cls-156" d="M60.78,95.5A28.42,28.42,0,1,1,89.2,67.08,28.42,28.42,0,0,1,60.78,95.5Zm0-37.9a9.48,9.48,0,1,0,9.48,9.48A9.48,9.48,0,0,0,60.78,57.6Z"/><path class="cls-157" d="M60.78,95.31A28.23,28.23,0,1,1,89,67.08,28.23,28.23,0,0,1,60.78,95.31Zm0-37.76a9.54,9.54,0,1,0,9.54,9.53A9.54,9.54,0,0,0,60.78,57.55Z"/><path class="cls-158" d="M60.78,95.12a28,28,0,1,1,28-28A28,28,0,0,1,60.78,95.12Zm0-37.63a9.6,9.6,0,1,0,9.6,9.6A9.6,9.6,0,0,0,60.78,57.49Z"/><path class="cls-159" d="M60.78,94.94A27.85,27.85,0,1,1,88.62,67.09,27.84,27.84,0,0,1,60.78,94.94Zm0-37.51a9.67,9.67,0,1,0,9.66,9.66A9.66,9.66,0,0,0,60.78,57.43Z"/><path class="cls-160" d="M60.78,94.75A27.65,27.65,0,1,1,88.43,67.1,27.65,27.65,0,0,1,60.78,94.75Zm0-37.37A9.72,9.72,0,1,0,70.5,67.1,9.72,9.72,0,0,0,60.78,57.38Z"/><path class="cls-161" d="M60.78,94.56A27.46,27.46,0,1,1,88.24,67.1,27.45,27.45,0,0,1,60.78,94.56Zm0-37.24a9.79,9.79,0,1,0,9.78,9.78A9.79,9.79,0,0,0,60.78,57.32Z"/><path class="cls-162" d="M60.78,94.37A27.27,27.27,0,1,1,88,67.11,27.26,27.26,0,0,1,60.78,94.37Zm0-37.11a9.85,9.85,0,1,0,9.84,9.85A9.85,9.85,0,0,0,60.78,57.26Z"/><path class="cls-163" d="M60.78,94.19A27.08,27.08,0,1,1,87.85,67.11,27.09,27.09,0,0,1,60.78,94.19Zm0-37a9.91,9.91,0,1,0,9.91,9.91A9.91,9.91,0,0,0,60.78,57.2Z"/><path class="cls-164" d="M60.78,94A26.88,26.88,0,1,1,87.66,67.12,26.88,26.88,0,0,1,60.78,94Zm0-36.85a10,10,0,1,0,10,10A10,10,0,0,0,60.78,57.15Z"/><path class="cls-165" d="M60.78,93.81A26.69,26.69,0,1,1,87.46,67.12,26.69,26.69,0,0,1,60.78,93.81Zm0-36.72a10,10,0,1,0,10,10A10,10,0,0,0,60.78,57.09Z"/><path class="cls-166" d="M60.78,93.62A26.5,26.5,0,1,1,87.27,67.13,26.49,26.49,0,0,1,60.78,93.62Zm0-36.59a10.1,10.1,0,1,0,10.09,10.1A10.1,10.1,0,0,0,60.78,57Z"/><path class="cls-167" d="M60.77,93.43a26.3,26.3,0,1,1,26.31-26.3A26.3,26.3,0,0,1,60.77,93.43Zm0-36.45A10.16,10.16,0,1,0,70.93,67.13,10.15,10.15,0,0,0,60.77,57Z"/><path class="cls-168" d="M60.77,93.25A26.11,26.11,0,1,1,86.88,67.14,26.11,26.11,0,0,1,60.77,93.25Zm0-36.33A10.22,10.22,0,1,0,71,67.14,10.21,10.21,0,0,0,60.77,56.92Z"/><path class="cls-169" d="M60.77,93.06A25.92,25.92,0,1,1,86.69,67.14,25.93,25.93,0,0,1,60.77,93.06Zm0-36.2A10.28,10.28,0,1,0,71.05,67.14,10.28,10.28,0,0,0,60.77,56.86Z"/><path class="cls-170" d="M60.77,92.87A25.73,25.73,0,1,1,86.5,67.15,25.72,25.72,0,0,1,60.77,92.87Zm0-36.06A10.34,10.34,0,1,0,71.11,67.15,10.34,10.34,0,0,0,60.77,56.81Z"/><path class="cls-171" d="M60.77,92.68A25.53,25.53,0,1,1,86.3,67.15,25.53,25.53,0,0,1,60.77,92.68Zm0-35.93a10.4,10.4,0,1,0,10.4,10.4A10.4,10.4,0,0,0,60.77,56.75Z"/><path class="cls-172" d="M60.77,92.5A25.35,25.35,0,1,1,86.11,67.16,25.35,25.35,0,0,1,60.77,92.5Zm0-35.81A10.47,10.47,0,1,0,71.23,67.16,10.46,10.46,0,0,0,60.77,56.69Z"/><path class="cls-173" d="M60.77,92.31A25.15,25.15,0,1,1,85.92,67.16,25.15,25.15,0,0,1,60.77,92.31Zm0-35.67A10.52,10.52,0,1,0,71.29,67.16,10.52,10.52,0,0,0,60.77,56.64Z"/><path class="cls-174" d="M60.77,92.12a25,25,0,1,1,24.95-25A25,25,0,0,1,60.77,92.12Zm0-35.54A10.59,10.59,0,1,0,71.35,67.16,10.59,10.59,0,0,0,60.77,56.58Z"/><path class="cls-175" d="M60.77,91.93A24.76,24.76,0,1,1,85.53,67.17,24.76,24.76,0,0,1,60.77,91.93Zm0-35.41A10.65,10.65,0,1,0,71.41,67.17,10.65,10.65,0,0,0,60.77,56.52Z"/><path class="cls-176" d="M60.77,91.74A24.57,24.57,0,1,1,85.34,67.17,24.57,24.57,0,0,1,60.77,91.74Zm0-35.27a10.71,10.71,0,1,0,10.7,10.7A10.7,10.7,0,0,0,60.77,56.47Z"/><path class="cls-177" d="M60.77,91.56A24.38,24.38,0,1,1,85.14,67.18,24.38,24.38,0,0,1,60.77,91.56Zm0-35.15A10.77,10.77,0,1,0,71.54,67.18,10.77,10.77,0,0,0,60.77,56.41Z"/><path class="cls-178" d="M60.77,91.37A24.19,24.19,0,1,1,85,67.18,24.19,24.19,0,0,1,60.77,91.37Zm0-35A10.83,10.83,0,1,0,71.6,67.18,10.83,10.83,0,0,0,60.77,56.35Z"/><path class="cls-179" d="M60.76,91.18a24,24,0,1,1,24-24A24,24,0,0,1,60.76,91.18Zm0-34.88a10.89,10.89,0,1,0,10.9,10.89A10.89,10.89,0,0,0,60.76,56.3Z"/><path class="cls-180" d="M60.76,91a23.8,23.8,0,1,1,23.8-23.8A23.8,23.8,0,0,1,60.76,91Zm0-34.75a11,11,0,1,0,11,10.95A10.95,10.95,0,0,0,60.76,56.24Z"/><path class="cls-181" d="M60.76,90.81A23.61,23.61,0,1,1,84.37,67.2,23.6,23.6,0,0,1,60.76,90.81Zm0-34.63a11,11,0,1,0,11,11A11,11,0,0,0,60.76,56.18Z"/><path class="cls-182" d="M60.76,90.62A23.42,23.42,0,1,1,84.18,67.2,23.42,23.42,0,0,1,60.76,90.62Zm0-34.49A11.08,11.08,0,1,0,71.84,67.2,11.06,11.06,0,0,0,60.76,56.13Z"/><path class="cls-183" d="M60.76,90.43A23.23,23.23,0,1,1,84,67.21,23.23,23.23,0,0,1,60.76,90.43Zm0-34.36A11.14,11.14,0,1,0,71.9,67.21,11.14,11.14,0,0,0,60.76,56.07Z"/><path class="cls-184" d="M60.76,90.24a23,23,0,1,1,23-23A23,23,0,0,1,60.76,90.24Zm0-34.23A11.2,11.2,0,1,0,72,67.21,11.2,11.2,0,0,0,60.76,56Z"/><path class="cls-185" d="M60.76,90.05A22.84,22.84,0,1,1,83.6,67.22,22.84,22.84,0,0,1,60.76,90.05Zm0-34.1A11.27,11.27,0,1,0,72,67.22,11.27,11.27,0,0,0,60.76,56Z"/><path class="cls-186" d="M60.76,89.87A22.65,22.65,0,1,1,83.4,67.22,22.65,22.65,0,0,1,60.76,89.87Zm0-34A11.32,11.32,0,1,0,72.08,67.22,11.32,11.32,0,0,0,60.76,55.9Z"/><path class="cls-187" d="M60.76,89.68A22.46,22.46,0,1,1,83.21,67.23,22.45,22.45,0,0,1,60.76,89.68Zm0-33.84A11.39,11.39,0,1,0,72.14,67.23,11.39,11.39,0,0,0,60.76,55.84Z"/><path class="cls-188" d="M60.76,89.49A22.26,22.26,0,1,1,83,67.23,22.26,22.26,0,0,1,60.76,89.49Zm0-33.71A11.45,11.45,0,1,0,72.2,67.23,11.45,11.45,0,0,0,60.76,55.78Z"/><path class="cls-189" d="M60.76,89.3A22.07,22.07,0,1,1,82.82,67.24,22.07,22.07,0,0,1,60.76,89.3Zm0-33.57a11.51,11.51,0,1,0,11.5,11.51A11.51,11.51,0,0,0,60.76,55.73Z"/><path class="cls-190" d="M60.76,89.12A21.88,21.88,0,1,1,82.63,67.24,21.88,21.88,0,0,1,60.76,89.12Zm0-33.45A11.57,11.57,0,1,0,72.33,67.24,11.57,11.57,0,0,0,60.76,55.67Z"/><path class="cls-191" d="M60.76,88.93A21.69,21.69,0,1,1,82.44,67.24,21.69,21.69,0,0,1,60.76,88.93Zm0-33.32A11.64,11.64,0,1,0,72.39,67.24,11.64,11.64,0,0,0,60.76,55.61Z"/><path class="cls-192" d="M60.75,88.74A21.49,21.49,0,1,1,82.24,67.25,21.49,21.49,0,0,1,60.75,88.74Zm0-33.18a11.69,11.69,0,1,0,11.7,11.69A11.69,11.69,0,0,0,60.75,55.56Z"/><path class="cls-193" d="M60.75,88.55a21.3,21.3,0,1,1,21.3-21.3A21.29,21.29,0,0,1,60.75,88.55Zm0-33A11.76,11.76,0,1,0,72.51,67.25,11.75,11.75,0,0,0,60.75,55.5Z"/><path class="cls-194" d="M60.75,88.36a21.11,21.11,0,1,1,21.11-21.1A21.1,21.1,0,0,1,60.75,88.36Zm0-32.92A11.82,11.82,0,1,0,72.57,67.26,11.82,11.82,0,0,0,60.75,55.44Z"/><path class="cls-195" d="M60.75,88.18A20.92,20.92,0,1,1,81.66,67.26,20.92,20.92,0,0,1,60.75,88.18Zm0-32.79A11.88,11.88,0,1,0,72.63,67.26,11.87,11.87,0,0,0,60.75,55.39Z"/><path class="cls-196" d="M60.75,88A20.72,20.72,0,1,1,81.47,67.27,20.72,20.72,0,0,1,60.75,88Zm0-32.66A11.94,11.94,0,1,0,72.69,67.27,11.95,11.95,0,0,0,60.75,55.33Z"/><path class="cls-197" d="M60.75,87.8A20.53,20.53,0,1,1,81.28,67.27,20.53,20.53,0,0,1,60.75,87.8Zm0-32.53a12,12,0,1,0,12,12A12,12,0,0,0,60.75,55.27Z"/><path class="cls-198" d="M60.75,87.61A20.34,20.34,0,1,1,81.09,67.28,20.34,20.34,0,0,1,60.75,87.61Zm0-32.39A12.06,12.06,0,1,0,72.81,67.28,12.06,12.06,0,0,0,60.75,55.22Z"/><path class="cls-199" d="M60.75,87.43A20.15,20.15,0,1,1,80.89,67.28,20.14,20.14,0,0,1,60.75,87.43Zm0-32.27A12.13,12.13,0,1,0,72.87,67.28,12.12,12.12,0,0,0,60.75,55.16Z"/><path class="cls-200" d="M60.75,87.24a20,20,0,1,1,20-19.95A19.95,19.95,0,0,1,60.75,87.24Zm0-32.14A12.19,12.19,0,1,0,72.93,67.29,12.19,12.19,0,0,0,60.75,55.1Z"/><path class="cls-201" d="M60.75,87.05A19.76,19.76,0,1,1,80.51,67.29,19.76,19.76,0,0,1,60.75,87.05Zm0-32A12.25,12.25,0,1,0,73,67.29,12.24,12.24,0,0,0,60.75,55.05Z"/><path class="cls-202" d="M60.75,86.86A19.57,19.57,0,1,1,80.31,67.3,19.57,19.57,0,0,1,60.75,86.86Zm0-31.87A12.31,12.31,0,1,0,73.05,67.3,12.31,12.31,0,0,0,60.75,55Z"/><path class="cls-203" d="M60.75,86.68A19.38,19.38,0,1,1,80.12,67.3,19.38,19.38,0,0,1,60.75,86.68Zm0-31.75A12.37,12.37,0,1,0,73.11,67.3,12.37,12.37,0,0,0,60.75,54.93Z"/><path class="cls-204" d="M60.74,86.49A19.18,19.18,0,1,1,79.93,67.31,19.18,19.18,0,0,1,60.74,86.49Zm0-31.61A12.43,12.43,0,1,0,73.18,67.31,12.43,12.43,0,0,0,60.74,54.88Z"/><path class="cls-205" d="M60.74,86.3a19,19,0,1,1,19-19A19,19,0,0,1,60.74,86.3Zm0-31.48a12.49,12.49,0,1,0,12.5,12.49A12.49,12.49,0,0,0,60.74,54.82Z"/><path class="cls-206" d="M60.74,86.11a18.8,18.8,0,1,1,18.8-18.79A18.79,18.79,0,0,1,60.74,86.11Zm0-31.35A12.56,12.56,0,1,0,73.3,67.32,12.55,12.55,0,0,0,60.74,54.76Z"/><path class="cls-207" d="M60.74,85.92a18.6,18.6,0,1,1,18.61-18.6A18.6,18.6,0,0,1,60.74,85.92Zm0-31.22A12.62,12.62,0,1,0,73.36,67.32,12.61,12.61,0,0,0,60.74,54.7Z"/><path class="cls-208" d="M60.74,85.74A18.42,18.42,0,1,1,79.15,67.33,18.41,18.41,0,0,1,60.74,85.74Zm0-31.09A12.68,12.68,0,1,0,73.42,67.33,12.68,12.68,0,0,0,60.74,54.65Z"/><path class="cls-209" d="M60.74,85.55A18.22,18.22,0,1,1,79,67.33,18.22,18.22,0,0,1,60.74,85.55Zm0-31A12.74,12.74,0,1,0,73.48,67.33,12.74,12.74,0,0,0,60.74,54.59Z"/><path class="cls-210" d="M60.74,85.36a18,18,0,1,1,18-18A18,18,0,0,1,60.74,85.36Zm0-30.83a12.81,12.81,0,1,0,12.8,12.8A12.81,12.81,0,0,0,60.74,54.53Z"/><path class="cls-211" d="M60.74,85.17A17.83,17.83,0,1,1,78.57,67.34,17.83,17.83,0,0,1,60.74,85.17Zm0-30.69A12.86,12.86,0,1,0,73.6,67.34,12.86,12.86,0,0,0,60.74,54.48Z"/><path class="cls-212" d="M60.74,85A17.65,17.65,0,1,1,78.38,67.34,17.65,17.65,0,0,1,60.74,85Zm0-30.57A12.93,12.93,0,1,0,73.66,67.34,12.92,12.92,0,0,0,60.74,54.42Z"/><path class="cls-213" d="M60.74,84.8A17.45,17.45,0,1,1,78.19,67.35,17.45,17.45,0,0,1,60.74,84.8Zm0-30.44a13,13,0,1,0,13,13A13,13,0,0,0,60.74,54.36Z"/><path class="cls-214" d="M60.74,84.61A17.26,17.26,0,1,1,78,67.35,17.26,17.26,0,0,1,60.74,84.61Zm0-30.3a13,13,0,1,0,13,13A13,13,0,0,0,60.74,54.31Z"/><path class="cls-215" d="M60.74,84.42A17.07,17.07,0,1,1,77.8,67.36,17.06,17.06,0,0,1,60.74,84.42Zm0-30.17a13.11,13.11,0,1,0,13.1,13.11A13.11,13.11,0,0,0,60.74,54.25Z"/><path class="cls-216" d="M60.74,84.23A16.87,16.87,0,1,1,77.61,67.36,16.87,16.87,0,0,1,60.74,84.23Zm0-30A13.17,13.17,0,1,0,73.9,67.36,13.17,13.17,0,0,0,60.74,54.19Z"/><path class="cls-217" d="M60.73,84.05A16.68,16.68,0,1,1,77.41,67.37,16.67,16.67,0,0,1,60.73,84.05Zm0-29.91A13.23,13.23,0,1,0,74,67.37,13.23,13.23,0,0,0,60.73,54.14Z"/><path class="cls-218" d="M60.73,83.86A16.49,16.49,0,1,1,77.22,67.37,16.48,16.48,0,0,1,60.73,83.86Zm0-29.78A13.3,13.3,0,1,0,74,67.37,13.29,13.29,0,0,0,60.73,54.08Z"/><path class="cls-219" d="M60.73,83.67A16.3,16.3,0,1,1,77,67.38,16.29,16.29,0,0,1,60.73,83.67Zm0-29.65A13.36,13.36,0,1,0,74.09,67.38,13.36,13.36,0,0,0,60.73,54Z"/><path class="cls-220" d="M60.73,83.48a16.1,16.1,0,1,1,16.1-16.1A16.1,16.1,0,0,1,60.73,83.48Zm0-29.51A13.42,13.42,0,1,0,74.15,67.38,13.41,13.41,0,0,0,60.73,54Z"/><path class="cls-221" d="M60.73,83.3A15.91,15.91,0,1,1,76.64,67.39,15.92,15.92,0,0,1,60.73,83.3Zm0-29.39A13.48,13.48,0,1,0,74.21,67.39,13.48,13.48,0,0,0,60.73,53.91Z"/><path class="cls-222" d="M60.73,83.11A15.72,15.72,0,1,1,76.45,67.39,15.72,15.72,0,0,1,60.73,83.11Zm0-29.26A13.54,13.54,0,1,0,74.27,67.39,13.54,13.54,0,0,0,60.73,53.85Z"/><path class="cls-223" d="M60.73,82.92A15.53,15.53,0,1,1,76.25,67.4,15.52,15.52,0,0,1,60.73,82.92Zm0-29.12a13.6,13.6,0,1,0,13.6,13.6A13.6,13.6,0,0,0,60.73,53.8Z"/><path class="cls-224" d="M60.73,82.73A15.33,15.33,0,1,1,76.06,67.4,15.33,15.33,0,0,1,60.73,82.73Zm0-29A13.66,13.66,0,1,0,74.39,67.4,13.66,13.66,0,0,0,60.73,53.74Z"/><path class="cls-225" d="M60.73,82.54A15.14,15.14,0,1,1,75.87,67.41,15.13,15.13,0,0,1,60.73,82.54Zm0-28.86A13.73,13.73,0,1,0,74.45,67.41,13.73,13.73,0,0,0,60.73,53.68Z"/><path class="cls-226" d="M60.73,82.36a15,15,0,1,1,14.94-15A15,15,0,0,1,60.73,82.36Zm0-28.73A13.79,13.79,0,1,0,74.51,67.41,13.78,13.78,0,0,0,60.73,53.63Z"/><path class="cls-227" d="M60.73,82.17A14.76,14.76,0,1,1,75.48,67.42,14.76,14.76,0,0,1,60.73,82.17Zm0-28.6A13.85,13.85,0,1,0,74.57,67.42,13.85,13.85,0,0,0,60.73,53.57Z"/><path class="cls-228" d="M60.73,82A14.56,14.56,0,1,1,75.29,67.42,14.56,14.56,0,0,1,60.73,82Zm0-28.47a13.91,13.91,0,1,0,13.9,13.91A13.91,13.91,0,0,0,60.73,53.51Z"/><path class="cls-229" d="M60.72,81.79A14.37,14.37,0,1,1,75.09,67.42,14.36,14.36,0,0,1,60.72,81.79Zm0-28.33a14,14,0,1,0,14,14A14,14,0,0,0,60.72,53.46Z"/><path class="cls-230" d="M60.72,81.61A14.18,14.18,0,1,1,74.9,67.43,14.17,14.17,0,0,1,60.72,81.61Zm0-28.21a14,14,0,1,0,14,14A14,14,0,0,0,60.72,53.4Z"/><path class="cls-231" d="M60.72,81.42a14,14,0,1,1,14-14A14,14,0,0,1,60.72,81.42Zm0-28.08a14.1,14.1,0,1,0,14.1,14.09A14.09,14.09,0,0,0,60.72,53.34Z"/><path class="cls-232" d="M60.72,81.23A13.79,13.79,0,1,1,74.51,67.44,13.79,13.79,0,0,1,60.72,81.23Zm0-27.95A14.16,14.16,0,1,0,74.88,67.44,14.16,14.16,0,0,0,60.72,53.28Z"/><path class="cls-233" d="M60.72,81a13.6,13.6,0,1,1,13.6-13.6A13.6,13.6,0,0,1,60.72,81Zm0-27.81A14.22,14.22,0,1,0,74.94,67.44,14.21,14.21,0,0,0,60.72,53.23Z"/><path class="cls-234" d="M60.72,80.85a13.41,13.41,0,1,1,13.41-13.4A13.41,13.41,0,0,1,60.72,80.85Zm0-27.68A14.28,14.28,0,1,0,75,67.45,14.28,14.28,0,0,0,60.72,53.17Z"/><path class="cls-235" d="M60.72,80.67A13.22,13.22,0,1,1,73.93,67.45,13.21,13.21,0,0,1,60.72,80.67Zm0-27.56A14.34,14.34,0,1,0,75.06,67.45,14.34,14.34,0,0,0,60.72,53.11Z"/><path class="cls-236" d="M60.72,80.48a13,13,0,1,1,13-13A13,13,0,0,1,60.72,80.48Zm0-27.42a14.4,14.4,0,1,0,14.4,14.4A14.4,14.4,0,0,0,60.72,53.06Z"/><path class="cls-237" d="M60.72,80.29A12.83,12.83,0,1,1,73.55,67.46,12.82,12.82,0,0,1,60.72,80.29Zm0-27.29A14.46,14.46,0,1,0,75.18,67.46,14.46,14.46,0,0,0,60.72,53Z"/><path class="cls-238" d="M60.72,80.1A12.64,12.64,0,1,1,73.35,67.47,12.63,12.63,0,0,1,60.72,80.1Zm0-27.16A14.53,14.53,0,1,0,75.24,67.47,14.54,14.54,0,0,0,60.72,52.94Z"/><path class="cls-239" d="M60.72,79.92A12.45,12.45,0,1,1,73.16,67.47,12.45,12.45,0,0,1,60.72,79.92Zm0-27A14.59,14.59,0,1,0,75.3,67.47,14.59,14.59,0,0,0,60.72,52.89Z"/><path class="cls-240" d="M60.72,79.73A12.25,12.25,0,1,1,73,67.48,12.26,12.26,0,0,1,60.72,79.73Zm0-26.9A14.65,14.65,0,1,0,75.36,67.48,14.65,14.65,0,0,0,60.72,52.83Z"/><path class="cls-241" d="M60.72,79.54a12.06,12.06,0,1,1,12-12.06A12.06,12.06,0,0,1,60.72,79.54Zm0-26.77a14.71,14.71,0,1,0,14.7,14.71A14.71,14.71,0,0,0,60.72,52.77Z"/><path class="cls-242" d="M60.71,79.35A11.87,11.87,0,1,1,72.58,67.49,11.86,11.86,0,0,1,60.71,79.35Zm0-26.63A14.77,14.77,0,1,0,75.48,67.49,14.77,14.77,0,0,0,60.71,52.72Z"/><path class="cls-243" d="M60.71,79.16A11.67,11.67,0,1,1,72.39,67.49,11.67,11.67,0,0,1,60.71,79.16Zm0-26.5A14.83,14.83,0,1,0,75.54,67.49,14.83,14.83,0,0,0,60.71,52.66Z"/><path class="cls-244" d="M60.71,79A11.49,11.49,0,1,1,72.19,67.5,11.48,11.48,0,0,1,60.71,79Zm0-26.38a14.9,14.9,0,1,0,14.9,14.9A14.9,14.9,0,0,0,60.71,52.6Z"/><path class="cls-245" d="M60.71,78.79A11.29,11.29,0,1,1,72,67.5,11.3,11.3,0,0,1,60.71,78.79Zm0-26.24a15,15,0,1,0,15,15A14.95,14.95,0,0,0,60.71,52.55Z"/><path class="cls-246" d="M60.71,78.6a11.1,11.1,0,1,1,11.1-11.09A11.1,11.1,0,0,1,60.71,78.6Zm0-26.11a15,15,0,1,0,15,15A15,15,0,0,0,60.71,52.49Z"/><path class="cls-247" d="M60.71,78.41a10.9,10.9,0,1,1,10.9-10.9A10.9,10.9,0,0,1,60.71,78.41Zm0-26A15.08,15.08,0,1,0,75.79,67.51,15.08,15.08,0,0,0,60.71,52.43Z"/><path class="cls-248" d="M60.71,78.23A10.72,10.72,0,1,1,71.42,67.51,10.71,10.71,0,0,1,60.71,78.23Zm0-25.85A15.14,15.14,0,1,0,75.85,67.51,15.13,15.13,0,0,0,60.71,52.38Z"/><path class="cls-249" d="M60.71,78A10.52,10.52,0,1,1,71.23,67.52,10.52,10.52,0,0,1,60.71,78Zm0-25.72a15.2,15.2,0,1,0,15.2,15.2A15.19,15.19,0,0,0,60.71,52.32Z"/><path class="cls-250" d="M60.71,77.85A10.33,10.33,0,1,1,71,67.52,10.32,10.32,0,0,1,60.71,77.85Zm0-25.59A15.27,15.27,0,1,0,76,67.52,15.26,15.26,0,0,0,60.71,52.26Z"/><path class="cls-251" d="M60.71,77.66A10.14,10.14,0,1,1,70.84,67.53,10.13,10.13,0,0,1,60.71,77.66Zm0-25.45A15.32,15.32,0,1,0,76,67.53,15.32,15.32,0,0,0,60.71,52.21Z"/><path class="cls-252" d="M101.16,75.67c4.2,1.93,7.77-3.91,6.46-7.12l-6.38-4.61c6.07,2.57,3-8.44-4.34-9.74,9-6.15,2.59-12.93-4.21-17.06a36.87,36.87,0,0,0-4.49-2.35c-2.9-1.3-5.15-1.85-5.27-1.35,2-8.08-18-7-21.91-4.34-3-7.28-8.59-5-9.57,1.48-.85-3.1-2.84-4.36-6-3.78a13.55,13.55,0,0,0-.9,8.4c-1-1.72-10.23-3-11.78-2-2.77,1.74-.52,5.91,1.12,7.49-9.63-3.24-11.84-.19-7.22,8.25C16.45,47.29,13,71.8,24.18,75.11l.16,0h-.18c-7-.32-5.87,9.75-.69,10.14-1,2.17,1.8,7.68,7.61,8.21-4,.27-1.38,10.87,7.06,5.26-10.37,10.29,12.62,3.82,8.16,1.93,4.07,1.43,15.59,5.7,8.33,6,5.07-.23,10.31,10,13.68-2.2.11-.39.22-.81.32-1.25a6.23,6.23,0,0,0-.08,1.33c.35,5.21,9,4.59,9.12-.22,1.85,1.59,7.85-.42,6.46-7.92,0-.21-.09-.41-.14-.63a20,20,0,0,0,4.07,2.34s0,0,0,0a20.38,20.38,0,0,0,7.52,1.62c4-3.51-4.22-9-1.84-13.42C95.26,83.66,117.26,86,101.16,75.67Zm-10-3.27a24.49,24.49,0,0,1-4.51,10.66c-6.79,8.72-20.85,9.25-30.84,8.39a36.13,36.13,0,0,1-7.38-1.38,2.31,2.31,0,0,0-1.91-3.57c-1.24,0-2.69-1.29-3.65-2.72H43c3-.39,3-5.08,0-4.69a8.81,8.81,0,0,1-2.1,0,2.4,2.4,0,0,0-1.39-.31,5.17,5.17,0,0,1-1.34-.63c-.43-3-.59-6.29-.73-9.14A2.19,2.19,0,0,0,38,66.21a8.4,8.4,0,0,1-.48-1.06s0-.07,0-.1c-.06-7.92.2-13.25,7.09-18.36A27.49,27.49,0,0,0,47,44.61a2.57,2.57,0,0,0,3.43-1.13l.14,0a2.15,2.15,0,0,0,2.82-1.9,13.55,13.55,0,0,1,4,.93,2.34,2.34,0,0,0,2.64-1.08l6.11-3.14.89-.46c.23.26.46.51.67.78s.53.59.78.89c.84.18,1.88,1.33,2.67,1.73,1.84.93,5.56.81,7.53,1.55a16.49,16.49,0,0,1,5.61,3.59,21.52,21.52,0,0,1,4.5,6.41c0,.34,0,.67.07,1a12.49,12.49,0,0,0,.27,1.85,1.29,1.29,0,0,0,.64.93,1.39,1.39,0,0,0,.53.18A34.21,34.21,0,0,1,91.16,72.4Z"/><path class="cls-253" d="M90.88,87.17a2.65,2.65,0,0,1,.15-.54,2.38,2.38,0,0,1,.84-.95c3-2.22,12.27-3.51,9.27-6.86l-.19-.2A18.3,18.3,0,0,1,97,74.25c9.39-3.3-.13-6.83.42-10.93,5.61,3.39-1.06-9.22-1.06-9.42.17-5.46,8.56-12.12-3.8-8.63h0s0-.06,0-.09c-.07-1,.37-5.34.11-8A3.4,3.4,0,0,0,92,35c-2.3-1.75-2.59-.83-3.82-.21a4.11,4.11,0,0,1-1.69.37c-2.45.06-2.63,1.64-5.28.84-1.59-.49-1-3.6-3.28-3.91-3.06-.43-5.46,3-8.61,1.63-4.79-2-.89-8.8-8-1.27-5.4-10.08-5-2-7.78,1.9a4.74,4.74,0,0,1-1.24,1.21c-.18-.23-.36-.45-.55-.67C48.44,30.7,47,29.32,45,37.22c-1.58-.43-6.13-2.83-7.8-1.33s.28,4.64-.55,5.38c-.29.27-.74,1.75-1.68,2.48-1.85,1.44-5.39-3-7.5-.37-1.37,1.71.56,5.27.13,6.54-1.44,4.21-8.9,3.95-4.54,9.94-3.85,1.6-3.93,4.22-.43,6.43-4.91,2.89-.55,5.49,2.63,7.27a9.11,9.11,0,0,0-1.08,1.55s0,0,0,0c-2.16,3.79-.13,6.5,1.7,9.41l.14.22c.3.48.58,1,.84,1.46,1.87,3.52-1,4.7,5.95,6-3.08,5.7-.22,8.51,5.21,4.33,4.34,9.9,6.89-1,12.94,1.29,5.47,2.11,9.73,16.61,14.3,4a8.48,8.48,0,0,0,3.07,2.66,1.13,1.13,0,0,0,.24.08c2.26.68,3.56-2.24,5.62-5.43,4.5,5.6,8.49,5.22,10-2.71,0-.08,0-.16,0-.24a21.12,21.12,0,0,0,3.89,2s0,0,0,0c6.76,2.34,2.25-7.4,2.77-11C90.88,87.19,90.9,87.19,90.88,87.17ZM67.57,61.09a6.63,6.63,0,0,1,1.48,1.12c3,3.17,2,8.85-2.41,10a5.42,5.42,0,0,1-1.46.21.34.34,0,0,0,.16-.1.3.3,0,0,0,.06-.09,1.08,1.08,0,0,0-.24.19h-.07c-.5,0-.22.08.06,0l-.27.22c-.26.21-.52.42-.78.61C62.33,74.55,60.22,75.52,58,75a5.28,5.28,0,0,1-4.22-5.3,4.32,4.32,0,0,1-1.2-2.84c-.07-3.27,2-6.63,5.59-6.65a5.42,5.42,0,0,1,1,.09A5,5,0,0,1,62.6,57.7,4,4,0,0,1,67.57,61.09Z"/><path class="cls-254" d="M95.69,72.43a26,26,0,0,0-.63-6.27,24.67,24.67,0,0,0-2.21-17.07,7,7,0,0,0-.25-3.82.19.19,0,0,0,0-.08c-.1-.26-.21-.54-.34-.8-1.45-3-4.37-3.82-7.28-3.42a30.22,30.22,0,0,0-4.83-2.32c-.41-.27-.78-.56-1.19-.81a32.58,32.58,0,0,0-25.35-3.49c-.61.16-1.2.33-1.79.54a34.27,34.27,0,0,0-14.33,9,5.51,5.51,0,0,0-5.08,1.77,5.44,5.44,0,0,0-.51,6.29,30.33,30.33,0,0,0-2.52,9,30.38,30.38,0,0,0-.48,14.82,4.86,4.86,0,0,0-1.17,3.17c.06,2.27,1.86,3.47,3.91,4a23.44,23.44,0,0,0,5.65,6.74,28.84,28.84,0,0,0,17.08,6.32c1.32,2.52,3.19,4.52,6.54,5a5.82,5.82,0,0,0,5.85-2.69c10,.46,18.88-3.55,24.14-11,0,0,0,0,0,0,.36-.48.68-1,1-1.49A27.17,27.17,0,0,0,93.7,82c1.91-.23,3.55-1,4-3.3C98.25,76.24,97.2,74.21,95.69,72.43ZM67.57,61.09a6.63,6.63,0,0,1,1.48,1.12c3,3.17,2,8.85-2.41,10a5.42,5.42,0,0,1-1.46.21.34.34,0,0,0,.16-.1.3.3,0,0,0,.06-.09,1.08,1.08,0,0,0-.24.19h-.07c-.5,0-.22.08.06,0l-.27.22c-.26.21-.52.42-.78.61C62.33,74.55,60.22,75.52,58,75a5.28,5.28,0,0,1-4.22-5.3,4.32,4.32,0,0,1-1.2-2.84c-.07-3.27,2-6.63,5.59-6.65a5.42,5.42,0,0,1,1,.09A5,5,0,0,1,62.6,57.7,4,4,0,0,1,67.57,61.09Z"/><path class="cls-255" d="M34.76,58.09c-6.37.52-4.9,12.41.22,11.51C33.19,66,33,61.36,34.76,58.09Z"/><path class="cls-255" d="M62.78,38.26a2.75,2.75,0,0,0-.4-.76c-1.73-2.34-4-3.52-6.05-1.88s-3.07,5.1-3.48,8.71c0,.23,0,.42,0,.63C55.25,40.29,59.15,37.67,62.78,38.26Z"/><path class="cls-255" d="M83.32,85.19a16.46,16.46,0,0,1-12,8.61,1.44,1.44,0,0,0,1.56.92l1.68-.14c5,.75,10.85-2.72,10-8.18A1.44,1.44,0,0,0,83.32,85.19Z"/><path class="cls-255" d="M41.3,84.79a1.36,1.36,0,0,0-1.22.89c-.06.14-.1.29-.15.43h0a.25.25,0,0,0,0,.08A6.48,6.48,0,0,0,41.18,93a4.38,4.38,0,0,0,1.47,1,6.5,6.5,0,0,0,.66.47c2.91,1.67,5.79.19,7.48-2.32C46.19,92.33,41.69,89.42,41.3,84.79Z"/><path class="cls-256" d="M91.16,72.4a7.58,7.58,0,0,0-.62-.81,8.09,8.09,0,0,0-.06-.85,4.93,4.93,0,0,0-.24-5.36,22.8,22.8,0,0,0-.42-8.8,19.22,19.22,0,0,0-.91-2.78,18.64,18.64,0,0,0-4.35-6.39c-.07-.34-.14-.69-.22-1a6.38,6.38,0,0,0-2.72-4.07,9.18,9.18,0,0,0-6.75-.93,27,27,0,0,0-7.12-2.76c-.52-.13-1-.23-1.56-.32a29.58,29.58,0,0,0-19,3.13C41.65,41.13,36,46.55,35.93,52.11c-.25.43-.5.86-.73,1.29-4.3,3.34-7.13,9.39-3.54,13.43a.76.76,0,0,0,0,.15c-3.4,5.07-2.56,10.33,1.8,12.87a21.18,21.18,0,0,0,5.95,8,25.48,25.48,0,0,0,16.52,5.65,31.22,31.22,0,0,0,7.8,1.88c.92.09,1.83.12,2.73.12,6,2,13.22.15,15.7-5.29a21.15,21.15,0,0,0,3.29-3.33C91.5,84.27,95.1,78,91.16,72.4ZM67.57,61.09a6.63,6.63,0,0,1,1.48,1.12c3,3.17,2,8.85-2.41,10a5.42,5.42,0,0,1-1.46.21.34.34,0,0,0,.16-.1.3.3,0,0,0,.06-.09,1.08,1.08,0,0,0-.24.19h-.07c-.5,0-.22.08.06,0l-.27.22c-.26.21-.52.42-.78.61C62.33,74.55,60.22,75.52,58,75a5.28,5.28,0,0,1-4.22-5.3,4.32,4.32,0,0,1-1.2-2.84c-.07-3.27,2-6.63,5.59-6.65a5.42,5.42,0,0,1,1,.09A5,5,0,0,1,62.6,57.7,4,4,0,0,1,67.57,61.09Z"/><path class="cls-257" d="M82.56,70.88a5.9,5.9,0,0,0-.44-.58c0-.2,0-.4,0-.6a3.57,3.57,0,0,0-.17-3.83,16.29,16.29,0,0,0-.31-6.27,12.85,12.85,0,0,0-.65-2,13.17,13.17,0,0,0-3.1-4.55c0-.25-.09-.49-.15-.73a4.58,4.58,0,0,0-1.94-2.9,6.53,6.53,0,0,0-4.82-.66,19.13,19.13,0,0,0-5.07-2c-.38-.09-.74-.16-1.12-.22A21.06,21.06,0,0,0,51.22,48.8c-4-.22-8,3.64-8,7.61-.18.31-.36.61-.52.92-3.07,2.38-5.09,6.69-2.53,9.58a.31.31,0,0,0,0,.1c-2.42,3.62-1.83,7.37,1.29,9.18a15.14,15.14,0,0,0,4.24,5.73,18.22,18.22,0,0,0,11.78,4A22,22,0,0,0,63,87.28a18.42,18.42,0,0,0,1.95.09c4.25,1.41,9.42.11,11.19-3.77a15.05,15.05,0,0,0,2.35-2.37C82.8,79.34,85.37,74.86,82.56,70.88ZM65.74,62.82a4.67,4.67,0,0,1,1.05.79c2.16,2.26,1.47,6.32-1.71,7.12a4,4,0,0,1-1,.16.25.25,0,0,0,.12-.08s0,0,0-.06a.61.61,0,0,0-.17.14h0c-.36,0-.16,0,0,0l-.19.16-.56.43a5.26,5.26,0,0,1-4.35,1.22,3.76,3.76,0,0,1-3-3.78,3.11,3.11,0,0,1-.86-2c0-2.33,1.43-4.73,4-4.75a4.18,4.18,0,0,1,.72.07,3.56,3.56,0,0,1,2.44-1.84A2.86,2.86,0,0,1,65.74,62.82Z"/><path class="cls-258" d="M42.25,70.25a3.56,3.56,0,0,1-.38-1,7.35,7.35,0,0,1-.77-6.1,2.13,2.13,0,0,1,1.16-2.34,7.34,7.34,0,0,1,2.7-2.3A7.77,7.77,0,0,1,45.07,57,3.63,3.63,0,0,1,45,55.74a1.88,1.88,0,0,0,.14-.42,3,3,0,0,1,.09-.38,3.32,3.32,0,0,1,1.16-1.26,16.3,16.3,0,0,1,4.89-4.86C47,46.89,42.44,50,41.36,54.24A6.79,6.79,0,0,0,41.13,57c-3.68,1.2-5.38,6.85-2.59,9.77-1.42,2.67.21,6.71,2.75,8.24A14,14,0,0,1,42.25,70.25Z"/><path class="cls-258" d="M85,71.39a12,12,0,0,1-.83,5.69,4.69,4.69,0,0,1-.28,2.63,4.28,4.28,0,0,1-4.32,3,9.45,9.45,0,0,1-3.1,1.18c-3.26,3.74-7.07,6.49-11.5,7.37,3.94,3.14,10.62.37,12.82-4.23a9,9,0,0,0,10.54-6.55C89.35,76.65,88,73,85,71.39Z"/><path class="cls-258" d="M78.51,50a14.2,14.2,0,0,1,3.34,4.87c0-.05,0-.08,0-.13.38-3.39-.3-6.75-3.33-8.71-2.4-1.55-6.58-2-8.91.05A13.35,13.35,0,0,1,78.51,50Z"/><path class="cls-258" d="M59.72,79c-3.52.83-7.44-.37-9.37-3a5.23,5.23,0,0,0,1.27,5.45,5.56,5.56,0,0,0,7,1.12c2.16,2,5.84,1.42,8.08-1A9.28,9.28,0,0,1,59.72,79Z"/><path class="cls-258" d="M61.68,55.67c2.75-1.4,5.67.14,7.66,2.75,0-2.15-.6-4.49-2.63-5.59a4.67,4.67,0,0,0-4.65.4c-1.79-1.24-3.9-.76-5.76,1.19a1.93,1.93,0,0,0-.57,1.48A5.49,5.49,0,0,1,61.68,55.67Z"/><path class="cls-258" d="M74.36,62a7.64,7.64,0,0,1,.17,4.85c.19.33.1.67-.38.93a5.19,5.19,0,0,1-2.26,2.28,9.28,9.28,0,0,1-2.24,6.07,4,4,0,0,0,4-1.93,3.3,3.3,0,0,0,.51-1.87v-.2a5,5,0,0,0,3-1.49C80.55,67.5,78.14,63.12,74.36,62Z"/><path class="cls-259" d="M44,20.17a3.52,3.52,0,0,0-2.1-2.79,6.55,6.55,0,0,0-.61-.76,5.78,5.78,0,0,0-.89-.78s0,0,0,0c-3.4-2.39-8,.09-8.67,3.73-2,1.05-3.48,3.1-2.83,5.45a5,5,0,0,0,.65,1.47A3.74,3.74,0,0,0,31,27.83a4,4,0,0,0,3.44.22,3.2,3.2,0,0,0,.84-.44c1.44,1,5.56,0,5.4-1.25a7.94,7.94,0,0,0,2.87-2.86A5,5,0,0,0,44,20.17Z"/><path class="cls-260" d="M35.51,20.16c.45-1.46.66-2.69,2.58-3.61a8.23,8.23,0,0,1,2.32-.71c-3.4-2.39-8,.09-8.67,3.73a5,5,0,0,0-3,4.32A10.61,10.61,0,0,1,35.51,20.16Z"/><path class="cls-261" d="M43.51,23.5c-1.4,2.61-5.27,4.71-7.92,3.86a3.61,3.61,0,0,1-1.19.69A4,4,0,0,1,31,27.83a2.64,2.64,0,0,0,1-1.43,2.27,2.27,0,0,1,2.75-1.56C39.27,26,41,22.63,44,20.17A5,5,0,0,1,43.51,23.5Z"/><path class="cls-262" d="M28.91,25a5,5,0,0,0,.65,1.47A3.74,3.74,0,0,0,31,27.83a4,4,0,0,0,3.44.22,3.2,3.2,0,0,0,.84-.44c1.44,1,5.56,0,5.4-1.25h0a7.64,7.64,0,0,0,.83-.57l.11-.09q.35-.27.66-.57l.29-.31a5.6,5.6,0,0,0,.4-.45,6,6,0,0,0,.58-.87A5,5,0,0,0,44,20.17a3.52,3.52,0,0,0-2.1-2.79,6.55,6.55,0,0,0-.61-.76,5.78,5.78,0,0,0-.89-.78s0,0,0,0c-3.4-2.39-8,.09-8.67,3.73a7.41,7.41,0,0,0-.67.4l-.25.18-.35.29a2.44,2.44,0,0,0-.29.27L30,21a3.51,3.51,0,0,0-.29.36l-.12.16a4.27,4.27,0,0,0-.77,2.42h0A4.07,4.07,0,0,0,28.91,25Z"/><path class="cls-259" d="M99.78,97.5a2.29,2.29,0,0,0,1.86,1.29,4.4,4.4,0,0,0,.53.34,3.08,3.08,0,0,0,.71.3s0,0,0,0a3.71,3.71,0,0,0,4.58-4.06,3.09,3.09,0,0,0,.63-3.94,3.33,3.33,0,0,0-.7-.77,2.42,2.42,0,0,0-1.13-.54,2.62,2.62,0,0,0-2.17.56,2.49,2.49,0,0,0-.42.44,26,26,0,0,1-3.16-1.18c-.54-.23-1.25.24-1,.87s.74,1.44,1.1,2.19a5.08,5.08,0,0,0-1.19,2.34A3.25,3.25,0,0,0,99.78,97.5Z"/><path class="cls-260" d="M105,95.77a3,3,0,0,1-.86,2.75,5.31,5.31,0,0,1-1.28.91,3.71,3.71,0,0,0,4.58-4.06,3.25,3.25,0,0,0,1-3.27A6.85,6.85,0,0,1,105,95.77Z"/><path class="cls-261" d="M99.42,95.34c.33-1.89,2.28-4,4.09-4a2.5,2.5,0,0,1,.59-.67,2.62,2.62,0,0,1,2.17-.56,1.68,1.68,0,0,0-.36,1.09,1.47,1.47,0,0,1-1.37,1.53c-3,.19-3.4,2.63-4.76,4.76A3.25,3.25,0,0,1,99.42,95.34Z"/><path class="cls-263" d="M108.1,91.43a3.33,3.33,0,0,0-.7-.77,2.42,2.42,0,0,0-1.13-.54,2.62,2.62,0,0,0-2.17.56,2.49,2.49,0,0,0-.42.44,26,26,0,0,1-3.16-1.18c-.54-.23-1.25.24-1,.87s.74,1.44,1.1,2.19h0a4,4,0,0,0-.4.52l0,.07c-.1.16-.2.32-.29.49a1.89,1.89,0,0,0-.11.25,2.83,2.83,0,0,0-.16.36,4.23,4.23,0,0,0-.18.65,3.25,3.25,0,0,0,.36,2.16,2.29,2.29,0,0,0,1.86,1.29,4.4,4.4,0,0,0,.53.34,3.08,3.08,0,0,0,.71.3s0,0,0,0a3.71,3.71,0,0,0,4.58-4.06,3.09,3.09,0,0,0,.33-.39l.12-.16c0-.08.11-.16.16-.25l.12-.22.09-.2a2.33,2.33,0,0,0,.11-.28l0-.12a2.73,2.73,0,0,0,0-1.65h0A2.73,2.73,0,0,0,108.1,91.43Z"/><path class="cls-259" d="M120.63,46.16A4.3,4.3,0,0,0,116.24,44a.9.9,0,0,0-.22,0c-.07-.13-.15-.25-.23-.37a4.66,4.66,0,0,0-2.64-1.88,3.61,3.61,0,0,0-2.82.5,3.48,3.48,0,0,0-.39.28,3.22,3.22,0,0,0-.46,4.87l0,0a4.57,4.57,0,0,0-.4,1.76c-1.77,1-.77,4.82,2.1,4.82a3.92,3.92,0,0,0,1,2.51,4.13,4.13,0,0,0,1.61,1.21,4.43,4.43,0,0,0,.56.17,5.41,5.41,0,0,0,4.43-1l0,0,0,0a4.56,4.56,0,0,0,1.59-5.83A3.81,3.81,0,0,0,120.63,46.16Z"/><path class="cls-260" d="M115.79,43.69a7.66,7.66,0,0,0-2.62-1.18c0-.23,0-.47,0-.7A4.66,4.66,0,0,1,115.79,43.69Z"/><path class="cls-260" d="M120.41,51.13a4.78,4.78,0,0,1,.43,1.42,2.36,2.36,0,0,0-.76.82c-.09.19-.09,1.51-.23,1.88A6.35,6.35,0,0,1,118.78,57l0,0a5.41,5.41,0,0,1-4.43,1,11.81,11.81,0,0,0,2.61-4.8,4.19,4.19,0,0,0,1.9-4.11,1.37,1.37,0,0,0,.06-.86,2.08,2.08,0,0,0-.35-.66.07.07,0,0,1,0-.06A7.3,7.3,0,0,0,116.24,44a4.3,4.3,0,0,1,4.39,2.12A3.81,3.81,0,0,1,120.41,51.13Z"/><path class="cls-261" d="M113.77,57.78a4.13,4.13,0,0,1-1.61-1.21,4,4,0,0,1-1-2.72,4.69,4.69,0,0,1-1-1.08,5.27,5.27,0,0,1-.64-5.29l0,0a3.22,3.22,0,0,1,.46-4.87,3.31,3.31,0,0,0,1,3.51,2,2,0,0,1,.69,2.66c-.83,1.71,1.73,3.11,2,5C113.73,55.08,113.62,56.49,113.77,57.78Z"/><path class="cls-264" d="M120.41,51.13a3.81,3.81,0,0,0,.22-5A4.3,4.3,0,0,0,116.24,44a.9.9,0,0,0-.22,0c-.07-.13-.15-.25-.23-.37a4.66,4.66,0,0,0-2.64-1.88,3.61,3.61,0,0,0-2.82.5,3.48,3.48,0,0,0-.39.28,3.22,3.22,0,0,0-.46,4.87l0,0a4.67,4.67,0,0,0-.44,1.78c-1.76,1-.73,4.8,2.14,4.8a4.64,4.64,0,0,0,.07.64.11.11,0,0,0,0,0,4,4,0,0,0,.15.57l.1.21a3.89,3.89,0,0,0,.19.42,4.52,4.52,0,0,0,2,1.83,4.43,4.43,0,0,0,.56.17,5.41,5.41,0,0,0,4.43-1l0,0,0,0a4.56,4.56,0,0,0,1.59-5.83Z"/><path class="cls-259" d="M54.08,116.19a2.27,2.27,0,0,0-1.68-1.29A2.06,2.06,0,0,0,51,112.62a11.35,11.35,0,0,0-2-.54c.1-2.14-2.8-3.38-3.43-1.76a5.68,5.68,0,0,0-6.57,1,5.29,5.29,0,0,0-1.25,1.5,2.09,2.09,0,0,0-.25,1.19,8.86,8.86,0,0,0-1.15,1.39.65.65,0,0,0-.08.17,2.1,2.1,0,0,0,1.31,2.85l.29.12A10.3,10.3,0,0,0,38,119.6a9.87,9.87,0,0,0,.19,1.08.7.7,0,0,1,0,.13,2.09,2.09,0,0,0,2.52,1.43,3.37,3.37,0,0,0,3.3,2.17,4.28,4.28,0,0,0,2-.49c.12,0,.2,0,.33,0,1.74,0,3.52-1.39,4.81-2.4a11.08,11.08,0,0,0,2.48-2.37,3.3,3.3,0,0,0,.68-1.89A2.4,2.4,0,0,0,54.08,116.19Z"/><path class="cls-260" d="M54.28,117.3c0,1.82-1.84,3.26-3.16,4.26S48.05,124,46.31,124c-.13,0-.21,0-.33,0a4.28,4.28,0,0,1-2,.49,3.37,3.37,0,0,1-3.3-2.17,2.09,2.09,0,0,1-2.52-1.43.7.7,0,0,0,0-.13,10.32,10.32,0,0,1-.07-1.1l-.12,0a10.3,10.3,0,0,1-.12-1.07l-.29-.12a2.1,2.1,0,0,1-1.31-2.85,4.76,4.76,0,0,0,2.85-.68,2,2,0,0,1,3.07,1.76,24.88,24.88,0,0,1,0,2.73c2.08,2.48,3.45,2.6,4.08.35,1-1.89,3.69-.9,3.82,1,0,.62,2.42-1.35,2.42-1.37A7.63,7.63,0,0,0,54,116.32s0-.09,0-.13A2.4,2.4,0,0,1,54.28,117.3Z"/><path class="cls-261" d="M54.28,117.3a3.3,3.3,0,0,1-.68,1.89,10,10,0,0,0-1.31-1.4,14.15,14.15,0,0,1-1.62-1.27c-.39-.47-.53-1.29-.94-1.68-1.11-1.07,0-.27-1.6-.39s-2.46,0-3.79-.9c-.74-.52-1.36-1.68-2.09-2.11a3.47,3.47,0,0,0-3.26-.13c2.64-2.42,6.78-2.15,8.07.7a8.52,8.52,0,0,1,3.9.61,2.06,2.06,0,0,1,1.44,2.28,2.27,2.27,0,0,1,1.68,1.29A2.4,2.4,0,0,1,54.28,117.3Z"/><path class="cls-265" d="M53.93,118.64l0-.11a3.41,3.41,0,0,0,.18-.48.74.74,0,0,1,0-.14,3.09,3.09,0,0,0,.08-.61,2.4,2.4,0,0,0-.2-1.11,2.27,2.27,0,0,0-1.68-1.29A2.06,2.06,0,0,0,51,112.62a11.35,11.35,0,0,0-2-.54h0c.1-2.14-2.8-3.38-3.43-1.76a3.84,3.84,0,0,0-.8-.36c-.14,0-.28-.08-.42-.12l-.57-.11-.42,0a6.66,6.66,0,0,0-.77,0l-.26,0a6.28,6.28,0,0,0-1,.24l-.32.12c-.25.1-.5.22-.75.35l-.3.17a5.74,5.74,0,0,0-.94.7,5.29,5.29,0,0,0-1.25,1.5,2.09,2.09,0,0,0-.25,1.19,8.86,8.86,0,0,0-1.15,1.39.65.65,0,0,0-.08.17,2.1,2.1,0,0,0,1.31,2.85l.29.12A10.3,10.3,0,0,0,38,119.6a9.87,9.87,0,0,0,.19,1.08.7.7,0,0,1,0,.13,2.09,2.09,0,0,0,2.52,1.43,3.37,3.37,0,0,0,3.3,2.17,4.28,4.28,0,0,0,2-.49c.12,0,.2,0,.33,0,1.74,0,3.52-1.39,4.81-2.4.21-.15.42-.32.64-.5h0l.58-.5.13-.12c.17-.15.33-.31.49-.48l.11-.12a5.41,5.41,0,0,0,.6-.78A3.09,3.09,0,0,0,53.93,118.64Z"/><path class="cls-259" d="M12.15,82.14a1.55,1.55,0,0,0,.26-1.46,1.44,1.44,0,0,0,.95-1.63,7.2,7.2,0,0,0-.29-1.41c1.36-.62,1.19-2.83,0-2.7a4,4,0,0,0-2.75-3.77A3.75,3.75,0,0,0,9,70.88a1.44,1.44,0,0,0-.82.23,6.06,6.06,0,0,0-1.24-.27H6.78a1.47,1.47,0,0,0-1.35,1.74,1.55,1.55,0,0,1,0,.22,5.65,5.65,0,0,0-.62.42l-.62.46a.23.23,0,0,1-.07.06,1.46,1.46,0,0,0-.07,2,2.38,2.38,0,0,0-.29,2.76,3.12,3.12,0,0,0,.95,1.07c0,.07,0,.14.08.21.54,1.1,2,1.75,3.05,2.23a8.13,8.13,0,0,0,2.29.77,2.36,2.36,0,0,0,1.39-.19A1.57,1.57,0,0,0,12.15,82.14Z"/><path class="cls-260" d="M11.53,82.63c-1.15.57-2.63-.09-3.68-.58s-2.51-1.13-3-2.23c0-.07,0-.14-.08-.21a3.12,3.12,0,0,1-.95-1.07,2.38,2.38,0,0,1,.29-2.76,1.46,1.46,0,0,1,.07-2,.23.23,0,0,0,.07-.06c.22-.14.44-.27.67-.39,0,0,0,0,0-.07a5.65,5.65,0,0,1,.62-.42,1.55,1.55,0,0,0,0-.22,1.47,1.47,0,0,1,1.35-1.74A3.31,3.31,0,0,0,8.12,72.4,1.44,1.44,0,0,1,8,74.89c-.55.32-1.12.59-1.7.87-.88,2.09-.51,3,1.1,2.65A1.45,1.45,0,0,1,8,81.12c-.37.22,1.62,1.07,1.64,1.06a5.26,5.26,0,0,0,2.4,0l.09,0A1.57,1.57,0,0,1,11.53,82.63Z"/><path class="cls-261" d="M11.53,82.63a2.36,2.36,0,0,1-1.39.19,8.2,8.2,0,0,0,.44-1.27,8.88,8.88,0,0,1,.27-1.42c.16-.39.63-.75.74-1.13.3-1,.16-.09-.28-1.12a4.36,4.36,0,0,1-.66-2.66c.08-.62.6-1.38.63-2a2.42,2.42,0,0,0-1-2.07c2.37.86,3.54,3.53,2.19,5.25a5.86,5.86,0,0,1,.87,2.63,1.44,1.44,0,0,1-.95,1.63,1.55,1.55,0,0,1-.26,1.46A1.57,1.57,0,0,1,11.53,82.63Z"/><path class="cls-266" d="M10.59,82.85h.07a2.09,2.09,0,0,0,.36,0l.1,0a2,2,0,0,0,.41-.15,1.57,1.57,0,0,0,.62-.49,1.55,1.55,0,0,0,.26-1.46,1.44,1.44,0,0,0,.95-1.63,7.2,7.2,0,0,0-.29-1.41h0c1.36-.62,1.19-2.83,0-2.7a3.26,3.26,0,0,0,0-.62c0-.1,0-.19-.07-.29a2.85,2.85,0,0,0-.11-.39c0-.1-.07-.19-.11-.28a4.39,4.39,0,0,0-.27-.47,1.29,1.29,0,0,0-.09-.16,4.11,4.11,0,0,0-.48-.55L11.71,72a4.06,4.06,0,0,0-.46-.36l-.2-.13a4.71,4.71,0,0,0-.75-.36A3.75,3.75,0,0,0,9,70.88a1.44,1.44,0,0,0-.82.23,6.06,6.06,0,0,0-1.24-.27H6.78a1.47,1.47,0,0,0-1.35,1.74,1.55,1.55,0,0,1,0,.22,5.65,5.65,0,0,0-.62.42l-.62.46a.23.23,0,0,1-.07.06,1.46,1.46,0,0,0-.07,2,2.38,2.38,0,0,0-.29,2.76,3.12,3.12,0,0,0,.95,1.07c0,.07,0,.14.08.21.54,1.1,2,1.75,3.05,2.23l.52.23h0l.49.21.12,0,.46.15.11,0a4,4,0,0,0,.68.12Z"/><path class="cls-259" d="M71.54,16.37a1.57,1.57,0,0,0,1.14.94,1.45,1.45,0,0,0,.95,1.63,8.36,8.36,0,0,0,1.37.44c-.12,1.49,1.88,2.44,2.37,1.31A4,4,0,0,0,82,20.16a3.93,3.93,0,0,0,.91-1,1.51,1.51,0,0,0,.21-.83,5.54,5.54,0,0,0,.83-.95.34.34,0,0,0,.07-.11,1.48,1.48,0,0,0-.85-2l-.2-.09c0-.25,0-.49-.06-.75s-.06-.5-.1-.77a.3.3,0,0,1,0-.09,1.47,1.47,0,0,0-1.73-1.07,2.36,2.36,0,0,0-2.26-1.6,3,3,0,0,0-1.39.29c-.09,0-.15,0-.23,0C76,11,74.67,12,73.74,12.67a8,8,0,0,0-1.8,1.61,2.35,2.35,0,0,0-.52,1.3A1.52,1.52,0,0,0,71.54,16.37Z"/><path class="cls-260" d="M71.42,15.58c.07-1.27,1.37-2.24,2.32-2.91S76,11,77.18,11.11c.08,0,.14,0,.23,0a3,3,0,0,1,1.39-.29,2.36,2.36,0,0,1,2.26,1.6,1.47,1.47,0,0,1,1.73,1.07.3.3,0,0,0,0,.09,6.77,6.77,0,0,1,0,.78h.09c0,.26,0,.5.06.75l.2.09a1.48,1.48,0,0,1,.85,2,3.29,3.29,0,0,0-2,.41,1.44,1.44,0,0,1-2.11-1.32c0-.63,0-1.26.08-1.91-1.39-1.79-2.35-1.91-2.85-.34a1.45,1.45,0,0,1-2.65-.82c0-.43-1.73.89-1.73.91a5.18,5.18,0,0,0-1.17,2.1.32.32,0,0,0,0,.09A1.52,1.52,0,0,1,71.42,15.58Z"/><path class="cls-261" d="M71.42,15.58a2.35,2.35,0,0,1,.52-1.3,8.16,8.16,0,0,0,.89,1,9.67,9.67,0,0,1,1.1.93c.26.34.34.92.62,1.2.75.78,0,.19,1.11.31a4.42,4.42,0,0,1,2.64.73c.51.38.91,1.21,1.42,1.53a2.42,2.42,0,0,0,2.28.17c-1.92,1.63-4.81,1.34-5.65-.69a5.92,5.92,0,0,1-2.72-.53,1.45,1.45,0,0,1-.95-1.63,1.57,1.57,0,0,1-1.14-.94A1.52,1.52,0,0,1,71.42,15.58Z"/><path class="cls-267" d="M71.7,14.66a.43.43,0,0,0,0,.07,1.89,1.89,0,0,0-.13.33,1,1,0,0,0,0,.1,2.83,2.83,0,0,0-.07.42,1.52,1.52,0,0,0,.12.79,1.57,1.57,0,0,0,1.14.94,1.45,1.45,0,0,0,.95,1.63,8.36,8.36,0,0,0,1.37.44h0c-.12,1.49,1.88,2.44,2.37,1.31a3.15,3.15,0,0,0,.55.28,4.75,4.75,0,0,0,.68.18l.3,0a3.25,3.25,0,0,0,.54,0h.18a3.69,3.69,0,0,0,.72-.15l.23-.07a5,5,0,0,0,.53-.23l.22-.11a4.87,4.87,0,0,0,.68-.47,3.93,3.93,0,0,0,.91-1,1.42,1.42,0,0,0,.2-.83,5.19,5.19,0,0,0,.84-.95.34.34,0,0,0,.07-.11,1.48,1.48,0,0,0-.85-2l-.2-.09c0-.25,0-.49-.06-.75s-.06-.5-.1-.77a.3.3,0,0,1,0-.09,1.47,1.47,0,0,0-1.73-1.07,2.36,2.36,0,0,0-2.26-1.6,3,3,0,0,0-1.39.29c-.09,0-.15,0-.23,0C76,11,74.67,12,73.74,12.67c-.15.1-.3.22-.46.34h0l-.42.33-.09.08-.35.33-.09.08a5.37,5.37,0,0,0-.44.53A2.38,2.38,0,0,0,71.7,14.66Z"/><path class="cls-252" d="M59.52.5V10.8a.52.52,0,0,0,1,0V.5A.52.52,0,0,0,59.52.5Z"/><path class="cls-252" d="M112.9,11.09Q108.82,14.38,105,18c-.48.46.25,1.19.73.73q3.83-3.57,7.9-6.86C114.14,11.4,113.41,10.68,112.9,11.09Z"/><path class="cls-252" d="M128.7,70.36c-3.74,0-7.51.53-11.19-.33-.65-.15-.92.85-.28,1,3.78.87,7.63.4,11.47.36A.52.52,0,0,0,128.7,70.36Z"/><path class="cls-252" d="M100,129c-2.31-4.4-5.24-8.46-7.21-13-.26-.61-1.14-.09-.89.52,2,4.58,4.9,8.64,7.21,13C99.38,130.08,100.27,129.56,100,129Z"/><path class="cls-252" d="M67.06,135.27c-.81-3.57-.67-7.2-.67-10.84a.52.52,0,0,0-1,0c0,3.73-.13,7.45.7,11.12C66.21,136.19,67.2,135.92,67.06,135.27Z"/><path class="cls-252" d="M12.06,115.71c-2.49,1.09-4.76,2.6-7.21,3.77-.6.29-.07,1.18.52.89,2.45-1.17,4.72-2.68,7.21-3.78C13.19,116.33,12.66,115.44,12.06,115.71Z"/><path class="cls-252" d="M6.81,34.88A18.37,18.37,0,0,0,.5,33.83c-.66,0-.67,1.05,0,1a17.53,17.53,0,0,1,6,1C7.17,36.07,7.44,35.08,6.81,34.88Z"/><path class="cls-251" d="M65.14,72.42h0Z"/><g class="cls-268"><path class="cls-269" d="M93.79,86.41c1.47-2.75,23.47-.37,7.37-10.74,4.2,1.93,7.77-3.91,6.46-7.12l-6.38-4.61c6.07,2.57,3-8.44-4.34-9.74,9-6.15,2.59-12.93-4.21-17.06A3.4,3.4,0,0,0,92,35c-2.3-1.75-2.59-.83-3.82-.21-2.9-1.3-5.15-1.85-5.27-1.35,2-8.08-18-7-21.91-4.34-3-7.28-8.59-5-9.57,1.48-.85-3.1-2.84-4.36-6-3.78a13.55,13.55,0,0,0-.9,8.4c-1-1.72-10.23-3-11.78-2-2.77,1.74-.52,5.91,1.12,7.49-9.63-3.24-11.84-.19-7.22,8.25C16.45,47.29,13,71.8,24.18,75.11c0,0,0,0,0,0-7-.32-5.87,9.75-.69,10.14-1,2.17,1.8,7.68,7.61,8.21-4,.27-1.38,10.87,7.06,5.26-10.37,10.29,12.62,3.82,8.16,1.93,4.07,1.43,15.59,5.7,8.33,6,5.07-.23,10.31,10,13.68-2.2a1.13,1.13,0,0,0,.24.08c.35,5.21,9,4.59,9.12-.22,1.85,1.59,7.85-.42,6.46-7.92,0-.08,0-.16,0-.24a21.12,21.12,0,0,0,3.89,2s0,0,0,0a20.38,20.38,0,0,0,7.52,1.62C99.64,96.32,91.41,90.81,93.79,86.41Zm-34-24.18a3.56,3.56,0,0,1,2.44-1.84,2.86,2.86,0,0,1,3.55,2.43,4.67,4.67,0,0,1,1.05.79c2.16,2.26,1.47,6.32-1.71,7.12a4,4,0,0,1-1,.16.32.32,0,0,0,.12-.08s0,0,0-.06a.61.61,0,0,0-.17.14h0c-.36,0-.16,0,0,0l-.19.16-.56.43a5.26,5.26,0,0,1-4.35,1.22,3.76,3.76,0,0,1-3-3.78,3.11,3.11,0,0,1-.86-2c0-2.33,1.43-4.73,4-4.75A4.18,4.18,0,0,1,59.75,62.23Z"/><path class="cls-270" d="M60.55,10.8V.5a.52.52,0,0,0-1,0V10.8A.52.52,0,0,0,60.55,10.8Z"/><path class="cls-271" d="M105.73,18.68q3.83-3.57,7.9-6.86c.51-.42-.22-1.14-.73-.73Q108.82,14.38,105,18C104.52,18.41,105.25,19.14,105.73,18.68Z"/><path class="cls-272" d="M128.7,70.36c-3.74,0-7.51.53-11.19-.33-.65-.15-.92.85-.28,1,3.78.87,7.63.4,11.47.36A.52.52,0,0,0,128.7,70.36Z"/><path class="cls-273" d="M92.75,115.93c-.26-.61-1.14-.09-.89.52,2,4.58,4.9,8.64,7.21,13,.31.59,1.2.07.89-.52C97.65,124.57,94.72,120.51,92.75,115.93Z"/><path class="cls-274" d="M66.39,124.43a.52.52,0,0,0-1,0c0,3.73-.13,7.45.7,11.12.15.64,1.14.37,1-.28C66.25,131.7,66.39,128.07,66.39,124.43Z"/><path class="cls-275" d="M12.06,115.71c-2.49,1.09-4.76,2.6-7.21,3.77-.6.29-.07,1.18.52.89,2.45-1.17,4.72-2.68,7.21-3.78C13.19,116.33,12.66,115.44,12.06,115.71Z"/><path class="cls-276" d="M6.81,34.88A18.37,18.37,0,0,0,.5,33.83c-.66,0-.67,1.05,0,1a17.53,17.53,0,0,1,6,1C7.17,36.07,7.44,35.08,6.81,34.88Z"/></g></g></g></g></svg>