<svg xmlns="http://www.w3.org/2000/svg" xmlns:xlink="http://www.w3.org/1999/xlink" viewBox="0 0 108.56 105.99"><defs><style>.cls-1{isolation:isolate;}.cls-2{fill:#f97f06;opacity:0.04;}.cls-3{fill:#f87e06;opacity:0.04;}.cls-4{fill:#f77e06;opacity:0.05;}.cls-5{fill:#f67d06;opacity:0.05;}.cls-6{fill:#f57d06;opacity:0.06;}.cls-7{fill:#f47c06;opacity:0.07;}.cls-8{fill:#f37b06;opacity:0.07;}.cls-9{fill:#f27b06;opacity:0.08;}.cls-10{fill:#f17a06;opacity:0.08;}.cls-11{fill:#f07a06;opacity:0.09;}.cls-12{fill:#ef7906;opacity:0.09;}.cls-13{fill:#ee7806;opacity:0.1;}.cls-14{fill:#ed7806;opacity:0.1;}.cls-15{fill:#ec7706;opacity:0.11;}.cls-16{fill:#eb7706;opacity:0.11;}.cls-17{fill:#ea7606;opacity:0.12;}.cls-18{fill:#e97506;opacity:0.12;}.cls-19{fill:#e87506;opacity:0.13;}.cls-20{fill:#e77406;opacity:0.13;}.cls-21{fill:#e67406;opacity:0.14;}.cls-22{fill:#e57306;opacity:0.14;}.cls-23{fill:#e47206;opacity:0.15;}.cls-24{fill:#e37206;opacity:0.15;}.cls-25{fill:#e27106;opacity:0.16;}.cls-26{fill:#e17106;opacity:0.16;}.cls-27{fill:#e07006;opacity:0.17;}.cls-28{fill:#df6f06;opacity:0.17;}.cls-29{fill:#de6f06;opacity:0.18;}.cls-30{fill:#dd6e06;opacity:0.18;}.cls-31{fill:#dc6e06;opacity:0.19;}.cls-32{fill:#db6d06;opacity:0.19;}.cls-33{fill:#da6d06;opacity:0.2;}.cls-34{fill:#d96c06;opacity:0.2;}.cls-35{fill:#d86b06;opacity:0.21;}.cls-36{fill:#d76b06;opacity:0.21;}.cls-37{fill:#d66a06;opacity:0.22;}.cls-38{fill:#d56a06;opacity:0.23;}.cls-39{fill:#d46906;opacity:0.23;}.cls-40{fill:#d36806;opacity:0.24;}.cls-41{fill:#d26806;opacity:0.24;}.cls-42{fill:#d16706;opacity:0.25;}.cls-43{fill:#d06706;opacity:0.25;}.cls-44{fill:#cf6606;opacity:0.26;}.cls-45{fill:#ce6506;opacity:0.26;}.cls-46{fill:#cd6506;opacity:0.27;}.cls-47{fill:#cc6406;opacity:0.27;}.cls-48{fill:#cb6406;opacity:0.28;}.cls-49{fill:#ca6306;opacity:0.28;}.cls-50{fill:#c96206;opacity:0.29;}.cls-51{fill:#c86206;opacity:0.29;}.cls-52{fill:#c76106;opacity:0.3;}.cls-53{fill:#c66106;opacity:0.3;}.cls-54{fill:#c56006;opacity:0.31;}.cls-55{fill:#c45f06;opacity:0.31;}.cls-56{fill:#c35f06;opacity:0.32;}.cls-57{fill:#c25e06;opacity:0.32;}.cls-58{fill:#c15e06;opacity:0.33;}.cls-59{fill:#c05d06;opacity:0.33;}.cls-60{fill:#bf5c06;opacity:0.34;}.cls-61{fill:#be5c06;opacity:0.34;}.cls-62{fill:#bd5b06;opacity:0.35;}.cls-63{fill:#bc5b06;opacity:0.35;}.cls-64{fill:#bb5a06;opacity:0.36;}.cls-65{fill:#ba5906;opacity:0.36;}.cls-66{fill:#b95906;opacity:0.37;}.cls-67{fill:#b85806;opacity:0.37;}.cls-68{fill:#b75806;opacity:0.38;}.cls-69{fill:#b65706;opacity:0.39;}.cls-70{fill:#b55606;opacity:0.39;}.cls-71{fill:#b45606;opacity:0.4;}.cls-72{fill:#b35506;opacity:0.4;}.cls-73{fill:#b25506;opacity:0.41;}.cls-74{fill:#b15406;opacity:0.41;}.cls-75{fill:#b05306;opacity:0.42;}.cls-76{fill:#af5306;opacity:0.42;}.cls-77{fill:#ae5206;opacity:0.43;}.cls-78{fill:#ad5206;opacity:0.43;}.cls-79{fill:#ac5106;opacity:0.44;}.cls-80{fill:#ab5006;opacity:0.44;}.cls-81{fill:#aa5006;opacity:0.45;}.cls-82{fill:#a94f06;opacity:0.45;}.cls-83{fill:#a84f06;opacity:0.46;}.cls-84{fill:#a74e06;opacity:0.46;}.cls-85{fill:#a64d06;opacity:0.47;}.cls-86{fill:#a54d06;opacity:0.47;}.cls-87{fill:#a44c06;opacity:0.48;}.cls-88{fill:#a34c06;opacity:0.48;}.cls-89{fill:#a24b06;opacity:0.49;}.cls-90{fill:#a14a06;opacity:0.49;}.cls-91{fill:#a04a06;opacity:0.5;}.cls-92{fill:#9f4906;opacity:0.5;}.cls-93{fill:#9e4906;opacity:0.51;}.cls-94{fill:#9d4806;opacity:0.51;}.cls-95{fill:#9c4706;opacity:0.52;}.cls-96{fill:#9b4706;opacity:0.52;}.cls-97{fill:#9a4606;opacity:0.53;}.cls-98{fill:#994606;opacity:0.54;}.cls-99{fill:#984506;opacity:0.54;}.cls-100{fill:#974506;opacity:0.55;}.cls-101{fill:#964406;opacity:0.55;}.cls-102{fill:#954306;opacity:0.56;}.cls-103{fill:#944306;opacity:0.56;}.cls-104{fill:#934206;opacity:0.57;}.cls-105{fill:#924206;opacity:0.57;}.cls-106{fill:#914106;opacity:0.58;}.cls-107{fill:#904006;opacity:0.58;}.cls-108{fill:#8f4006;opacity:0.59;}.cls-109{fill:#8e3f06;opacity:0.59;}.cls-110{fill:#8d3f06;opacity:0.6;}.cls-111{fill:#8c3e06;opacity:0.6;}.cls-112{fill:#8b3d06;opacity:0.61;}.cls-113{fill:#8a3d06;opacity:0.61;}.cls-114{fill:#893c06;opacity:0.62;}.cls-115{fill:#883c06;opacity:0.62;}.cls-116{fill:#873b06;opacity:0.63;}.cls-117{fill:#863a06;opacity:0.63;}.cls-118{fill:#853a06;opacity:0.64;}.cls-119{fill:#843906;opacity:0.64;}.cls-120{fill:#833906;opacity:0.65;}.cls-121{fill:#823806;opacity:0.65;}.cls-122{fill:#813706;opacity:0.66;}.cls-123{fill:#803706;opacity:0.66;}.cls-124{fill:#7f3606;opacity:0.67;}.cls-125{fill:#7e3606;opacity:0.67;}.cls-126{fill:#7d3506;opacity:0.68;}.cls-127{fill:#7c3406;opacity:0.68;}.cls-128{fill:#7b3406;opacity:0.69;}.cls-129{fill:#7a3306;opacity:0.7;}.cls-130{fill:#793306;opacity:0.7;}.cls-131{fill:#783206;opacity:0.71;}.cls-132{fill:#773106;opacity:0.71;}.cls-133{fill:#763106;opacity:0.72;}.cls-134{fill:#753006;opacity:0.72;}.cls-135{fill:#743006;opacity:0.73;}.cls-136{fill:#732f06;opacity:0.73;}.cls-137{fill:#722e06;opacity:0.74;}.cls-138{fill:#712e06;opacity:0.74;}.cls-139{fill:#702d06;opacity:0.75;}.cls-140{fill:#6f2d06;opacity:0.75;}.cls-141{fill:#6e2c06;opacity:0.76;}.cls-142{fill:#6d2b06;opacity:0.76;}.cls-143{fill:#6c2b06;opacity:0.77;}.cls-144{fill:#6b2a06;opacity:0.77;}.cls-145{fill:#6a2a06;opacity:0.78;}.cls-146{fill:#692906;opacity:0.78;}.cls-147{fill:#682806;opacity:0.79;}.cls-148{fill:#672806;opacity:0.79;}.cls-149{fill:#662706;opacity:0.8;}.cls-150{fill:#652706;opacity:0.8;}.cls-151{fill:#642606;opacity:0.81;}.cls-152{fill:#632506;opacity:0.81;}.cls-153{fill:#622506;opacity:0.82;}.cls-154{fill:#612406;opacity:0.82;}.cls-155{fill:#602406;opacity:0.83;}.cls-156{fill:#5f2306;opacity:0.83;}.cls-157{fill:#5e2206;opacity:0.84;}.cls-158{fill:#5d2206;opacity:0.85;}.cls-159{fill:#5c2106;opacity:0.85;}.cls-160{fill:#5b2106;opacity:0.86;}.cls-161{fill:#5a2006;opacity:0.86;}.cls-162{fill:#592006;opacity:0.87;}.cls-163{fill:#581f06;opacity:0.87;}.cls-164{fill:#571e06;opacity:0.88;}.cls-165{fill:#561e06;opacity:0.88;}.cls-166{fill:#551d06;opacity:0.89;}.cls-167{fill:#541d06;opacity:0.89;}.cls-168{fill:#531c06;opacity:0.9;}.cls-169{fill:#521b06;opacity:0.9;}.cls-170{fill:#511b06;opacity:0.91;}.cls-171{fill:#501a06;opacity:0.91;}.cls-172{fill:#4f1a06;opacity:0.92;}.cls-173{fill:#4e1906;opacity:0.92;}.cls-174{fill:#4d1806;opacity:0.93;}.cls-175{fill:#4c1806;opacity:0.93;}.cls-176{fill:#4b1706;opacity:0.94;}.cls-177{fill:#4a1706;opacity:0.94;}.cls-178{fill:#491606;opacity:0.95;}.cls-179{fill:#481506;opacity:0.95;}.cls-180{fill:#471506;opacity:0.96;}.cls-181{fill:#461406;opacity:0.96;}.cls-182{fill:#451406;opacity:0.97;}.cls-183{fill:#441306;opacity:0.97;}.cls-184{fill:#431206;opacity:0.98;}.cls-185{fill:#421206;opacity:0.98;}.cls-186{fill:#411106;opacity:0.99;}.cls-187{fill:#401106;opacity:0.99;}.cls-188{fill:#3f1006;}.cls-189{fill:#a32305;}.cls-190{fill:#ce3e17;}.cls-191{fill:#ffc81a;}.cls-192{fill:#eab41b;}.cls-193{fill:#f15a29;}.cls-194{fill:#e5451a;}.cls-195{fill:#f47a21;}.cls-196,.cls-197,.cls-198{mix-blend-mode:multiply;}.cls-196{fill:url(#linear-gradient);}.cls-197{fill:url(#linear-gradient-2);}.cls-198{fill:url(#linear-gradient-3);}.cls-199{fill:#fff;}.cls-200{mix-blend-mode:overlay;fill:url(#linear-gradient-4);}</style><linearGradient id="linear-gradient" x1="462.52" y1="-209.13" x2="462.52" y2="-218.76" gradientTransform="translate(468.82 -265.72) rotate(161.7)" gradientUnits="userSpaceOnUse"><stop offset="0" stop-color="#90131a"/><stop offset="1" stop-color="#fff"/></linearGradient><linearGradient id="linear-gradient-2" x1="236.28" y1="106.59" x2="236.28" y2="97.09" gradientTransform="translate(-13.88 -194.03) rotate(62.51)" xlink:href="#linear-gradient"/><linearGradient id="linear-gradient-3" x1="269.41" y1="-376.44" x2="269.41" y2="-385.94" gradientTransform="translate(353.66 -365.47) rotate(-177.98)" xlink:href="#linear-gradient"/><linearGradient id="linear-gradient-4" x1="57.59" y1="94.65" x2="57.59" y2="13.5" gradientUnits="userSpaceOnUse"><stop offset="0"/><stop offset="1" stop-color="#878787"/></linearGradient></defs><g class="cls-1"><g id="Layer_2" data-name="Layer 2"><g id="Layer_1-2" data-name="Layer 1"><circle class="cls-2" cx="55.56" cy="53" r="53"/><path class="cls-3" d="M55.56.2A52.8,52.8,0,1,1,2.76,53,52.8,52.8,0,0,1,55.56.2Z"/><path class="cls-4" d="M55.56.41A52.6,52.6,0,1,1,3,53,52.6,52.6,0,0,1,55.56.41Z"/><path class="cls-5" d="M55.56.61A52.4,52.4,0,1,1,3.16,53,52.4,52.4,0,0,1,55.56.61Z"/><path class="cls-6" d="M55.56.82A52.2,52.2,0,1,1,3.35,53,52.2,52.2,0,0,1,55.56.82Z"/><path class="cls-7" d="M55.56,1a52,52,0,1,1-52,52A52,52,0,0,1,55.56,1Z"/><path class="cls-8" d="M55.55,1.23A51.81,51.81,0,1,1,3.75,53,51.8,51.8,0,0,1,55.55,1.23Z"/><path class="cls-9" d="M55.55,1.43A51.61,51.61,0,1,1,4,53,51.61,51.61,0,0,1,55.55,1.43Z"/><path class="cls-10" d="M55.55,1.63A51.41,51.41,0,1,1,4.14,53,51.41,51.41,0,0,1,55.55,1.63Z"/><path class="cls-11" d="M55.55,1.84A51.21,51.21,0,1,1,4.34,53.05,51.21,51.21,0,0,1,55.55,1.84Z"/><path class="cls-12" d="M55.55,2a51,51,0,1,1-51,51A51,51,0,0,1,55.55,2Z"/><path class="cls-13" d="M55.55,2.25A50.81,50.81,0,1,1,4.74,53.06,50.81,50.81,0,0,1,55.55,2.25Z"/><path class="cls-14" d="M55.55,2.45A50.62,50.62,0,1,1,4.93,53.07,50.61,50.61,0,0,1,55.55,2.45Z"/><path class="cls-15" d="M55.55,2.66A50.42,50.42,0,1,1,5.13,53.07,50.41,50.41,0,0,1,55.55,2.66Z"/><path class="cls-16" d="M55.55,2.86A50.22,50.22,0,1,1,5.33,53.08,50.21,50.21,0,0,1,55.55,2.86Z"/><path class="cls-17" d="M55.55,3.06a50,50,0,1,1-50,50A50,50,0,0,1,55.55,3.06Z"/><path class="cls-18" d="M55.54,3.27A49.82,49.82,0,1,1,5.72,53.09,49.82,49.82,0,0,1,55.54,3.27Z"/><path class="cls-19" d="M55.54,3.47A49.63,49.63,0,1,1,5.92,53.09,49.63,49.63,0,0,1,55.54,3.47Z"/><path class="cls-20" d="M55.54,3.68A49.42,49.42,0,1,1,6.12,53.1,49.42,49.42,0,0,1,55.54,3.68Z"/><path class="cls-21" d="M55.54,3.88A49.23,49.23,0,1,1,6.32,53.11,49.23,49.23,0,0,1,55.54,3.88Z"/><path class="cls-22" d="M55.54,4.09a49,49,0,1,1-49,49A49,49,0,0,1,55.54,4.09Z"/><path class="cls-23" d="M55.54,4.29A48.83,48.83,0,1,1,6.71,53.12,48.83,48.83,0,0,1,55.54,4.29Z"/><path class="cls-24" d="M55.54,4.49A48.63,48.63,0,1,1,6.91,53.12,48.63,48.63,0,0,1,55.54,4.49Z"/><path class="cls-25" d="M55.54,4.7A48.43,48.43,0,1,1,7.11,53.13,48.43,48.43,0,0,1,55.54,4.7Z"/><path class="cls-26" d="M55.54,4.9A48.24,48.24,0,1,1,7.3,53.14,48.23,48.23,0,0,1,55.54,4.9Z"/><path class="cls-27" d="M55.54,5.11a48,48,0,1,1-48,48A48,48,0,0,1,55.54,5.11Z"/><path class="cls-28" d="M55.53,5.31A47.84,47.84,0,1,1,7.7,53.15,47.84,47.84,0,0,1,55.53,5.31Z"/><path class="cls-29" d="M55.53,5.52A47.64,47.64,0,1,1,7.9,53.15,47.63,47.63,0,0,1,55.53,5.52Z"/><path class="cls-30" d="M55.53,5.72A47.44,47.44,0,1,1,8.09,53.16,47.44,47.44,0,0,1,55.53,5.72Z"/><path class="cls-31" d="M55.53,5.92A47.24,47.24,0,1,1,8.29,53.16,47.24,47.24,0,0,1,55.53,5.92Z"/><path class="cls-32" d="M55.53,6.13a47,47,0,1,1-47,47A47,47,0,0,1,55.53,6.13Z"/><path class="cls-33" d="M55.53,6.33A46.85,46.85,0,1,1,8.69,53.18,46.84,46.84,0,0,1,55.53,6.33Z"/><path class="cls-34" d="M55.53,6.54A46.65,46.65,0,1,1,8.88,53.18,46.64,46.64,0,0,1,55.53,6.54Z"/><path class="cls-35" d="M55.53,6.74A46.45,46.45,0,1,1,9.08,53.19,46.45,46.45,0,0,1,55.53,6.74Z"/><path class="cls-36" d="M55.53,6.94A46.25,46.25,0,1,1,9.28,53.19,46.25,46.25,0,0,1,55.53,6.94Z"/><path class="cls-37" d="M55.53,7.15a46.05,46.05,0,1,1-46,46.05A46.05,46.05,0,0,1,55.53,7.15Z"/><path class="cls-38" d="M55.53,7.35A45.86,45.86,0,1,1,9.67,53.2,45.85,45.85,0,0,1,55.53,7.35Z"/><path class="cls-39" d="M55.52,7.56A45.65,45.65,0,1,1,9.87,53.21,45.65,45.65,0,0,1,55.52,7.56Z"/><path class="cls-40" d="M55.52,7.76A45.46,45.46,0,1,1,10.07,53.22,45.46,45.46,0,0,1,55.52,7.76Z"/><path class="cls-41" d="M55.52,8A45.26,45.26,0,1,1,10.27,53.22,45.25,45.25,0,0,1,55.52,8Z"/><path class="cls-42" d="M55.52,8.17A45.06,45.06,0,1,1,10.46,53.23,45.05,45.05,0,0,1,55.52,8.17Z"/><path class="cls-43" d="M55.52,8.37A44.86,44.86,0,1,1,10.66,53.23,44.86,44.86,0,0,1,55.52,8.37Z"/><path class="cls-44" d="M55.52,8.58A44.66,44.66,0,1,1,10.86,53.24,44.66,44.66,0,0,1,55.52,8.58Z"/><path class="cls-45" d="M55.52,8.78A44.47,44.47,0,1,1,11.06,53.24,44.47,44.47,0,0,1,55.52,8.78Z"/><path class="cls-46" d="M55.52,9A44.26,44.26,0,1,1,11.25,53.25,44.26,44.26,0,0,1,55.52,9Z"/><path class="cls-47" d="M55.52,9.19A44.07,44.07,0,1,1,11.45,53.26,44.07,44.07,0,0,1,55.52,9.19Z"/><path class="cls-48" d="M55.52,9.4A43.87,43.87,0,1,1,11.65,53.26,43.86,43.86,0,0,1,55.52,9.4Z"/><path class="cls-49" d="M55.51,9.6A43.67,43.67,0,1,1,11.85,53.27,43.67,43.67,0,0,1,55.51,9.6Z"/><path class="cls-50" d="M55.51,9.8A43.47,43.47,0,1,1,12,53.27,43.47,43.47,0,0,1,55.51,9.8Z"/><path class="cls-51" d="M55.51,10A43.27,43.27,0,1,1,12.24,53.28,43.27,43.27,0,0,1,55.51,10Z"/><path class="cls-52" d="M55.51,10.21A43.08,43.08,0,1,1,12.44,53.29,43.07,43.07,0,0,1,55.51,10.21Z"/><path class="cls-53" d="M55.51,10.42A42.87,42.87,0,1,1,12.64,53.29,42.87,42.87,0,0,1,55.51,10.42Z"/><path class="cls-54" d="M55.51,10.62A42.68,42.68,0,1,1,12.83,53.3,42.67,42.67,0,0,1,55.51,10.62Z"/><path class="cls-55" d="M55.51,10.83A42.48,42.48,0,1,1,13,53.3,42.47,42.47,0,0,1,55.51,10.83Z"/><path class="cls-56" d="M55.51,11A42.28,42.28,0,1,1,13.23,53.31,42.28,42.28,0,0,1,55.51,11Z"/><path class="cls-57" d="M55.51,11.23A42.08,42.08,0,1,1,13.43,53.31,42.08,42.08,0,0,1,55.51,11.23Z"/><path class="cls-58" d="M55.51,11.44A41.88,41.88,0,1,1,13.62,53.32,41.88,41.88,0,0,1,55.51,11.44Z"/><path class="cls-59" d="M55.5,11.64A41.69,41.69,0,1,1,13.82,53.33,41.69,41.69,0,0,1,55.5,11.64Z"/><path class="cls-60" d="M55.5,11.85A41.49,41.49,0,1,1,14,53.33,41.49,41.49,0,0,1,55.5,11.85Z"/><path class="cls-61" d="M55.5,12.05A41.29,41.29,0,1,1,14.22,53.34,41.29,41.29,0,0,1,55.5,12.05Z"/><path class="cls-62" d="M55.5,12.26A41.09,41.09,0,1,1,14.41,53.34,41.09,41.09,0,0,1,55.5,12.26Z"/><path class="cls-63" d="M55.5,12.46A40.89,40.89,0,1,1,14.61,53.35,40.89,40.89,0,0,1,55.5,12.46Z"/><path class="cls-64" d="M55.5,12.66A40.69,40.69,0,1,1,14.81,53.35,40.69,40.69,0,0,1,55.5,12.66Z"/><path class="cls-65" d="M55.5,12.87A40.49,40.49,0,1,1,15,53.36,40.49,40.49,0,0,1,55.5,12.87Z"/><path class="cls-66" d="M55.5,13.07a40.3,40.3,0,1,1-40.3,40.3A40.29,40.29,0,0,1,55.5,13.07Z"/><path class="cls-67" d="M55.5,13.28A40.1,40.1,0,1,1,15.4,53.37,40.09,40.09,0,0,1,55.5,13.28Z"/><path class="cls-68" d="M55.5,13.48a39.9,39.9,0,1,1-39.9,39.9A39.89,39.89,0,0,1,55.5,13.48Z"/><path class="cls-69" d="M55.49,13.69A39.7,39.7,0,1,1,15.8,53.38,39.69,39.69,0,0,1,55.49,13.69Z"/><path class="cls-70" d="M55.49,13.89A39.5,39.5,0,1,1,16,53.39,39.49,39.49,0,0,1,55.49,13.89Z"/><path class="cls-71" d="M55.49,14.09A39.31,39.31,0,1,1,16.19,53.4,39.3,39.3,0,0,1,55.49,14.09Z"/><path class="cls-72" d="M55.49,14.3a39.1,39.1,0,1,1-39.1,39.1A39.1,39.1,0,0,1,55.49,14.3Z"/><path class="cls-73" d="M55.49,14.5a38.91,38.91,0,1,1-38.9,38.91A38.9,38.9,0,0,1,55.49,14.5Z"/><path class="cls-74" d="M55.49,14.71a38.71,38.71,0,1,1-38.71,38.7A38.71,38.71,0,0,1,55.49,14.71Z"/><path class="cls-75" d="M55.49,14.91A38.51,38.51,0,1,1,17,53.42,38.51,38.51,0,0,1,55.49,14.91Z"/><path class="cls-76" d="M55.49,15.12a38.31,38.31,0,1,1-38.31,38.3A38.31,38.31,0,0,1,55.49,15.12Z"/><path class="cls-77" d="M55.49,15.32A38.11,38.11,0,1,1,17.38,53.43,38.11,38.11,0,0,1,55.49,15.32Z"/><path class="cls-78" d="M55.49,15.52A37.92,37.92,0,1,1,17.57,53.44,37.92,37.92,0,0,1,55.49,15.52Z"/><path class="cls-79" d="M55.49,15.73A37.71,37.71,0,1,1,17.77,53.44,37.71,37.71,0,0,1,55.49,15.73Z"/><path class="cls-80" d="M55.48,15.93A37.52,37.52,0,1,1,18,53.45,37.52,37.52,0,0,1,55.48,15.93Z"/><path class="cls-81" d="M55.48,16.14A37.32,37.32,0,1,1,18.17,53.45,37.31,37.31,0,0,1,55.48,16.14Z"/><path class="cls-82" d="M55.48,16.34A37.12,37.12,0,1,1,18.36,53.46,37.12,37.12,0,0,1,55.48,16.34Z"/><path class="cls-83" d="M55.48,16.55A36.92,36.92,0,1,1,18.56,53.46,36.91,36.91,0,0,1,55.48,16.55Z"/><path class="cls-84" d="M55.48,16.75A36.72,36.72,0,1,1,18.76,53.47,36.72,36.72,0,0,1,55.48,16.75Z"/><path class="cls-85" d="M55.48,17A36.53,36.53,0,1,1,19,53.48,36.53,36.53,0,0,1,55.48,17Z"/><path class="cls-86" d="M55.48,17.16A36.33,36.33,0,1,1,19.15,53.48,36.32,36.32,0,0,1,55.48,17.16Z"/><path class="cls-87" d="M55.48,17.36A36.13,36.13,0,1,1,19.35,53.49,36.13,36.13,0,0,1,55.48,17.36Z"/><path class="cls-88" d="M55.48,17.57A35.93,35.93,0,1,1,19.55,53.49,35.92,35.92,0,0,1,55.48,17.57Z"/><path class="cls-89" d="M55.48,17.77A35.73,35.73,0,1,1,19.75,53.5,35.73,35.73,0,0,1,55.48,17.77Z"/><path class="cls-90" d="M55.47,18A35.53,35.53,0,1,1,19.94,53.5,35.52,35.52,0,0,1,55.47,18Z"/><path class="cls-91" d="M55.47,18.18A35.33,35.33,0,1,1,20.14,53.51,35.33,35.33,0,0,1,55.47,18.18Z"/><path class="cls-92" d="M55.47,18.38A35.14,35.14,0,1,1,20.34,53.52,35.14,35.14,0,0,1,55.47,18.38Z"/><path class="cls-93" d="M55.47,18.59A34.94,34.94,0,1,1,20.54,53.52,34.93,34.93,0,0,1,55.47,18.59Z"/><path class="cls-94" d="M55.47,18.79A34.74,34.74,0,1,1,20.73,53.53,34.74,34.74,0,0,1,55.47,18.79Z"/><path class="cls-95" d="M55.47,19A34.54,34.54,0,1,1,20.93,53.53,34.54,34.54,0,0,1,55.47,19Z"/><path class="cls-96" d="M55.47,19.2A34.34,34.34,0,1,1,21.13,53.54,34.34,34.34,0,0,1,55.47,19.2Z"/><path class="cls-97" d="M55.47,19.41A34.14,34.14,0,1,1,21.33,53.55,34.14,34.14,0,0,1,55.47,19.41Z"/><path class="cls-98" d="M55.47,19.61A33.94,33.94,0,1,1,21.52,53.55,33.95,33.95,0,0,1,55.47,19.61Z"/><path class="cls-99" d="M55.47,19.81A33.75,33.75,0,1,1,21.72,53.56,33.75,33.75,0,0,1,55.47,19.81Z"/><path class="cls-100" d="M55.46,20A33.55,33.55,0,1,1,21.92,53.56,33.55,33.55,0,0,1,55.46,20Z"/><path class="cls-101" d="M55.46,20.22A33.35,33.35,0,1,1,22.12,53.57,33.35,33.35,0,0,1,55.46,20.22Z"/><path class="cls-102" d="M55.46,20.43A33.15,33.15,0,1,1,22.32,53.57,33.15,33.15,0,0,1,55.46,20.43Z"/><path class="cls-103" d="M55.46,20.63a33,33,0,1,1-32.95,33A32.95,32.95,0,0,1,55.46,20.63Z"/><path class="cls-104" d="M55.46,20.83A32.76,32.76,0,1,1,22.71,53.59,32.76,32.76,0,0,1,55.46,20.83Z"/><path class="cls-105" d="M55.46,21A32.55,32.55,0,1,1,22.91,53.59,32.55,32.55,0,0,1,55.46,21Z"/><path class="cls-106" d="M55.46,21.24A32.36,32.36,0,1,1,23.11,53.6,32.35,32.35,0,0,1,55.46,21.24Z"/><path class="cls-107" d="M55.46,21.45A32.16,32.16,0,1,1,23.3,53.6,32.14,32.14,0,0,1,55.46,21.45Z"/><path class="cls-108" d="M55.46,21.65a32,32,0,1,1-32,32A32,32,0,0,1,55.46,21.65Z"/><path class="cls-109" d="M55.46,21.86A31.76,31.76,0,1,1,23.7,53.61,31.74,31.74,0,0,1,55.46,21.86Z"/><path class="cls-110" d="M55.45,22.06A31.56,31.56,0,1,1,23.9,53.62,31.55,31.55,0,0,1,55.45,22.06Z"/><path class="cls-111" d="M55.45,22.26A31.37,31.37,0,1,1,24.09,53.63,31.38,31.38,0,0,1,55.45,22.26Z"/><path class="cls-112" d="M55.45,22.47A31.16,31.16,0,1,1,24.29,53.63,31.17,31.17,0,0,1,55.45,22.47Z"/><path class="cls-113" d="M55.45,22.67a31,31,0,1,1-31,31A31,31,0,0,1,55.45,22.67Z"/><path class="cls-114" d="M55.45,22.88A30.77,30.77,0,1,1,24.69,53.64,30.77,30.77,0,0,1,55.45,22.88Z"/><path class="cls-115" d="M55.45,23.08A30.57,30.57,0,1,1,24.88,53.65,30.57,30.57,0,0,1,55.45,23.08Z"/><path class="cls-116" d="M55.45,23.29A30.37,30.37,0,1,1,25.08,53.66,30.37,30.37,0,0,1,55.45,23.29Z"/><path class="cls-117" d="M55.45,23.49A30.17,30.17,0,1,1,25.28,53.66,30.17,30.17,0,0,1,55.45,23.49Z"/><path class="cls-118" d="M55.45,23.69a30,30,0,1,1-30,30A30,30,0,0,1,55.45,23.69Z"/><path class="cls-119" d="M55.45,23.9A29.78,29.78,0,1,1,25.67,53.67,29.77,29.77,0,0,1,55.45,23.9Z"/><path class="cls-120" d="M55.45,24.1A29.58,29.58,0,1,1,25.87,53.68,29.57,29.57,0,0,1,55.45,24.1Z"/><path class="cls-121" d="M55.44,24.31A29.38,29.38,0,1,1,26.07,53.68,29.37,29.37,0,0,1,55.44,24.31Z"/><path class="cls-122" d="M55.44,24.51A29.18,29.18,0,1,1,26.27,53.69,29.18,29.18,0,0,1,55.44,24.51Z"/><path class="cls-123" d="M55.44,24.72a29,29,0,1,1-29,29A29,29,0,0,1,55.44,24.72Z"/><path class="cls-124" d="M55.44,24.92A28.78,28.78,0,1,1,26.66,53.7,28.78,28.78,0,0,1,55.44,24.92Z"/><path class="cls-125" d="M55.44,25.12A28.59,28.59,0,1,1,26.86,53.71,28.58,28.58,0,0,1,55.44,25.12Z"/><path class="cls-126" d="M55.44,25.33A28.39,28.39,0,1,1,27.06,53.71,28.38,28.38,0,0,1,55.44,25.33Z"/><path class="cls-127" d="M55.44,25.53A28.19,28.19,0,1,1,27.25,53.72,28.19,28.19,0,0,1,55.44,25.53Z"/><path class="cls-128" d="M55.44,25.74a28,28,0,1,1-28,28A28,28,0,0,1,55.44,25.74Z"/><path class="cls-129" d="M55.44,25.94A27.79,27.79,0,1,1,27.65,53.73,27.79,27.79,0,0,1,55.44,25.94Z"/><path class="cls-130" d="M55.44,26.15A27.59,27.59,0,1,1,27.85,53.74,27.59,27.59,0,0,1,55.44,26.15Z"/><path class="cls-131" d="M55.43,26.35A27.39,27.39,0,1,1,28,53.74,27.39,27.39,0,0,1,55.43,26.35Z"/><path class="cls-132" d="M55.43,26.55a27.2,27.2,0,1,1-27.19,27.2A27.2,27.2,0,0,1,55.43,26.55Z"/><path class="cls-133" d="M55.43,26.76a27,27,0,1,1-27,27A27,27,0,0,1,55.43,26.76Z"/><path class="cls-134" d="M55.43,27a26.8,26.8,0,1,1-26.79,26.8A26.8,26.8,0,0,1,55.43,27Z"/><path class="cls-135" d="M55.43,27.17a26.6,26.6,0,1,1-26.6,26.59A26.6,26.6,0,0,1,55.43,27.17Z"/><path class="cls-136" d="M55.43,27.37A26.4,26.4,0,1,1,29,53.77,26.4,26.4,0,0,1,55.43,27.37Z"/><path class="cls-137" d="M55.43,27.58a26.2,26.2,0,1,1-26.2,26.2A26.2,26.2,0,0,1,55.43,27.58Z"/><path class="cls-138" d="M55.43,27.78a26,26,0,1,1-26,26A26,26,0,0,1,55.43,27.78Z"/><path class="cls-139" d="M55.43,28A25.81,25.81,0,1,1,29.62,53.79,25.81,25.81,0,0,1,55.43,28Z"/><path class="cls-140" d="M55.43,28.19a25.61,25.61,0,1,1-25.61,25.6A25.6,25.6,0,0,1,55.43,28.19Z"/><path class="cls-141" d="M55.42,28.39A25.41,25.41,0,1,1,30,53.8,25.41,25.41,0,0,1,55.42,28.39Z"/><path class="cls-142" d="M55.42,28.6a25.21,25.21,0,1,1-25.2,25.21A25.2,25.2,0,0,1,55.42,28.6Z"/><path class="cls-143" d="M55.42,28.8a25,25,0,1,1-25,25A25,25,0,0,1,55.42,28.8Z"/><path class="cls-144" d="M55.42,29A24.81,24.81,0,1,1,30.61,53.82,24.81,24.81,0,0,1,55.42,29Z"/><path class="cls-145" d="M55.42,29.21A24.62,24.62,0,1,1,30.81,53.82,24.61,24.61,0,0,1,55.42,29.21Z"/><path class="cls-146" d="M55.42,29.41A24.42,24.42,0,1,1,31,53.83,24.41,24.41,0,0,1,55.42,29.41Z"/><path class="cls-147" d="M55.42,29.62A24.22,24.22,0,1,1,31.2,53.83,24.21,24.21,0,0,1,55.42,29.62Z"/><path class="cls-148" d="M55.42,29.82a24,24,0,1,1-24,24A24,24,0,0,1,55.42,29.82Z"/><path class="cls-149" d="M55.42,30A23.82,23.82,0,1,1,31.6,53.85,23.82,23.82,0,0,1,55.42,30Z"/><path class="cls-150" d="M55.42,30.23A23.62,23.62,0,1,1,31.8,53.85,23.63,23.63,0,0,1,55.42,30.23Z"/><path class="cls-151" d="M55.42,30.44A23.42,23.42,0,1,1,32,53.86,23.42,23.42,0,0,1,55.42,30.44Z"/><path class="cls-152" d="M55.41,30.64A23.23,23.23,0,1,1,32.19,53.86,23.23,23.23,0,0,1,55.41,30.64Z"/><path class="cls-153" d="M55.41,30.84a23,23,0,1,1-23,23A23,23,0,0,1,55.41,30.84Z"/><path class="cls-154" d="M55.41,31.05A22.83,22.83,0,1,1,32.59,53.87,22.83,22.83,0,0,1,55.41,31.05Z"/><path class="cls-155" d="M55.41,31.25A22.63,22.63,0,1,1,32.78,53.88,22.63,22.63,0,0,1,55.41,31.25Z"/><path class="cls-156" d="M55.41,31.46A22.43,22.43,0,1,1,33,53.89,22.43,22.43,0,0,1,55.41,31.46Z"/><path class="cls-157" d="M55.41,31.66A22.23,22.23,0,1,1,33.18,53.89,22.23,22.23,0,0,1,55.41,31.66Z"/><path class="cls-158" d="M55.41,31.87a22,22,0,1,1-22,22A22,22,0,0,1,55.41,31.87Z"/><path class="cls-159" d="M55.41,32.07A21.84,21.84,0,1,1,33.57,53.9,21.83,21.83,0,0,1,55.41,32.07Z"/><path class="cls-160" d="M55.41,32.27A21.64,21.64,0,1,1,33.77,53.91,21.63,21.63,0,0,1,55.41,32.27Z"/><path class="cls-161" d="M55.41,32.48A21.44,21.44,0,1,1,34,53.91,21.44,21.44,0,0,1,55.41,32.48Z"/><path class="cls-162" d="M55.4,32.68A21.24,21.24,0,1,1,34.17,53.92,21.24,21.24,0,0,1,55.4,32.68Z"/><path class="cls-163" d="M55.4,32.89a21,21,0,1,1-21,21A21,21,0,0,1,55.4,32.89Z"/><path class="cls-164" d="M55.4,33.09A20.84,20.84,0,1,1,34.56,53.93,20.84,20.84,0,0,1,55.4,33.09Z"/><path class="cls-165" d="M55.4,33.3A20.64,20.64,0,1,1,34.76,53.94,20.64,20.64,0,0,1,55.4,33.3Z"/><path class="cls-166" d="M55.4,33.5A20.45,20.45,0,1,1,35,53.94,20.44,20.44,0,0,1,55.4,33.5Z"/><path class="cls-167" d="M55.4,33.7A20.25,20.25,0,1,1,35.15,54,20.25,20.25,0,0,1,55.4,33.7Z"/><path class="cls-168" d="M55.4,33.91A20,20,0,1,1,35.35,54,20,20,0,0,1,55.4,33.91Z"/><path class="cls-169" d="M55.4,34.11A19.85,19.85,0,1,1,35.55,54,19.85,19.85,0,0,1,55.4,34.11Z"/><path class="cls-170" d="M55.4,34.32A19.65,19.65,0,1,1,35.75,54,19.65,19.65,0,0,1,55.4,34.32Z"/><path class="cls-171" d="M55.4,34.52A19.45,19.45,0,1,1,35.94,54,19.45,19.45,0,0,1,55.4,34.52Z"/><path class="cls-172" d="M55.39,34.72A19.26,19.26,0,1,1,36.14,54,19.26,19.26,0,0,1,55.39,34.72Z"/><path class="cls-173" d="M55.39,34.93a19.06,19.06,0,1,1-19,19A19.05,19.05,0,0,1,55.39,34.93Z"/><path class="cls-174" d="M55.39,35.13A18.86,18.86,0,1,1,36.54,54,18.86,18.86,0,0,1,55.39,35.13Z"/><path class="cls-175" d="M55.39,35.34A18.66,18.66,0,1,1,36.73,54,18.65,18.65,0,0,1,55.39,35.34Z"/><path class="cls-176" d="M55.39,35.54A18.46,18.46,0,1,1,36.93,54,18.46,18.46,0,0,1,55.39,35.54Z"/><path class="cls-177" d="M55.39,35.75A18.26,18.26,0,1,1,37.13,54,18.25,18.25,0,0,1,55.39,35.75Z"/><path class="cls-178" d="M55.39,36A18.07,18.07,0,1,1,37.33,54,18.07,18.07,0,0,1,55.39,36Z"/><path class="cls-179" d="M55.39,36.15A17.87,17.87,0,1,1,37.52,54,17.87,17.87,0,0,1,55.39,36.15Z"/><path class="cls-180" d="M55.39,36.36A17.67,17.67,0,1,1,37.72,54,17.66,17.66,0,0,1,55.39,36.36Z"/><path class="cls-181" d="M55.39,36.56A17.47,17.47,0,1,1,37.92,54,17.47,17.47,0,0,1,55.39,36.56Z"/><path class="cls-182" d="M55.38,36.77A17.27,17.27,0,1,1,38.12,54,17.27,17.27,0,0,1,55.38,36.77Z"/><path class="cls-183" d="M55.38,37A17.07,17.07,0,1,1,38.31,54,17.07,17.07,0,0,1,55.38,37Z"/><path class="cls-184" d="M55.38,37.18A16.87,16.87,0,1,1,38.51,54.05,16.87,16.87,0,0,1,55.38,37.18Z"/><path class="cls-185" d="M55.38,37.38A16.68,16.68,0,1,1,38.71,54.05,16.68,16.68,0,0,1,55.38,37.38Z"/><path class="cls-186" d="M55.38,37.58A16.48,16.48,0,1,1,38.91,54.06,16.48,16.48,0,0,1,55.38,37.58Z"/><path class="cls-187" d="M55.38,37.79A16.28,16.28,0,1,1,39.1,54.07,16.28,16.28,0,0,1,55.38,37.79Z"/><path class="cls-188" d="M55.38,38A16.08,16.08,0,1,0,71.46,54.07,16.08,16.08,0,0,0,55.38,38Z"/><path class="cls-189" d="M101.51,48a22.26,22.26,0,0,0-2.6-5.62c-1-1.58-2.71-2.88-3.9-4.35-.2-3.45-.42-6.66-3.13-9.48a11.37,11.37,0,0,0-5.13-3.08c-.36-.1-.83-.22-1.3-.31-.19-.52-.38-1-.51-1.31a11.16,11.16,0,0,0-4.08-5.21C78,16.77,75.11,17,72.08,17c-3-1.79-5.45-3.54-9.51-3.44a26.84,26.84,0,0,0-6.69,1.34c-1.86.54-1.73,0-4.53-.46-6.19-1-12.55,1.78-16.63,6.47a15.69,15.69,0,0,0-8.2,2.43c-4.49,3-5.65,7.76-5.75,12.79a18.8,18.8,0,0,0-5.63,8.27,19.89,19.89,0,0,0-.9,6.54,36,36,0,0,0,.44,5.56c-.22.54-.4,1.1-.56,1.54a12.18,12.18,0,0,0-.74,6.59,12.78,12.78,0,0,0,3.41,6.6,8.42,8.42,0,0,0,2.42,1.6v0a12.45,12.45,0,0,0,2.61,6.82,13.53,13.53,0,0,0,4.5,3.77c.15.08,1.64.74,3,1.28A10.08,10.08,0,0,0,30.3,87,11.13,11.13,0,0,0,36,91.54c3.11,1.11,6.34.34,9-.11a12.57,12.57,0,0,0,3.09,2.12,15.64,15.64,0,0,0,9.25.73c2.3-.46,4-1.25,6-1.33,2.92-.11,5.69-.15,8.39-1.39A14.12,14.12,0,0,0,74,90.31c.34-.22,1.69-1,2.16-1.44a29.42,29.42,0,0,0,3-.1,15.37,15.37,0,0,0,3.38-.91A12.26,12.26,0,0,0,87.72,84c1.31-1.69,1.55-4,2.76-5.62,2-2.7,6.15-4.14,7.54-8.37a16.49,16.49,0,0,0,.3-8c0-.29-.08-.83-.14-1.38C102,58.42,102.55,51.44,101.51,48ZM78.68,67.8a12.88,12.88,0,0,0-1.74,2.65,19.16,19.16,0,0,1-4.67,3,16.4,16.4,0,0,0-3.42,1.26C63,76.38,56.3,76.37,50.91,75.91a33.19,33.19,0,0,1-6.74-1.27,2.1,2.1,0,0,0-1.74-3.25c-1.14,0-2.45-1.18-3.33-2.49h.13c2.69-.35,2.72-4.63,0-4.28a7.84,7.84,0,0,1-1.92,0A2.27,2.27,0,0,0,36,64.38a4.61,4.61,0,0,1-1.23-.57c-.38-2.72-.53-5.74-.65-8.34a2,2,0,0,0,.51-2.61,7.62,7.62,0,0,1-.44-1s0-.06,0-.09a36.66,36.66,0,0,1,.56-8.22,7.87,7.87,0,0,0,.79-2.43,13.32,13.32,0,0,1,2.56-3.85c3.07.26,6.1-1.93,7.49-4.62a1.87,1.87,0,0,0,.37-.57l.13,0a2,2,0,0,0,2.57-1.74,12.81,12.81,0,0,1,3.69.85,2.2,2.2,0,0,0,1.93-.4l.76,0c2.28-.05,4.29-1.15,6.48-1.41.75-.09.86-.22.85-.29a4,4,0,0,0,.75.42c2.09,1,3.1,2.19,5.49,2.69.22.05,1,.17,1.9.25A21.9,21.9,0,0,0,74.77,38a27.68,27.68,0,0,0,4.7,2c0,.32.06.57.07.62a11.85,11.85,0,0,0,1.63,5.12,13.71,13.71,0,0,0,2.15,2.59,31.76,31.76,0,0,1,.34,4.36A11.66,11.66,0,0,0,83,54.16a19.8,19.8,0,0,0-.87,8.3,21.64,21.64,0,0,1-1.54,3.46A17.92,17.92,0,0,0,78.68,67.8Z"/><path class="cls-190" d="M95.89,49.79a13.5,13.5,0,0,0-2.4-5.35c.4-4.12-.32-8-3-11.17A11,11,0,0,0,88.81,33a8.77,8.77,0,0,0-5.89-5.18c-2.26-3.87-6.82-6.22-12.5-7.15a8.36,8.36,0,0,0-6.94-3.46c-2.62,0-4.7,1.15-6.81,2.19a11.46,11.46,0,0,0-8-.32,19.22,19.22,0,0,0-6.05,3.47c-1,.81-2.15,2.25-3.23,3.32-5,.45-8.94,3-10.16,8.37A33.47,33.47,0,0,0,27,36.75a11,11,0,0,0-4.19,2.52c-4.26,4.24-5.22,13.23-2.2,18.88a13,13,0,0,0,.12,11.08,10.39,10.39,0,0,0,6.42,5.46,13.26,13.26,0,0,0,6.42,8.75A16.73,16.73,0,0,0,38,85c.74.11,1.49.2,2.23.29a27.19,27.19,0,0,0,2.52,2.24,10.67,10.67,0,0,0,5.63,1.66A10,10,0,0,0,53,88.47h0a11.43,11.43,0,0,0,3.68,1.72c5.18,1.3,9.4-1,13.23-4A10.32,10.32,0,0,0,81.12,80c2.25-1,3.69-2.24,3.88-3.79,4.5-1.21,8.13-4,9.21-9.32a17,17,0,0,0,.27-4.72c-.06-.66-.41-4.14-1.1-3.71.78-1.14,2-2.16,2.39-3.62A11.28,11.28,0,0,0,95.89,49.79ZM74.4,73.94c-8.79,8.6-21.76,9.55-31,1.08-8.8-8-13.71-21.3-6.37-31.81,7.65-11,18.16-12.09,30.52-12a6.5,6.5,0,0,1,6.64,5.74,7,7,0,0,1,2.18,3.21C80.41,51.88,84.63,63.93,74.4,73.94Z"/><path class="cls-190" d="M82.94,71.93a.64.64,0,0,1,0,.07S82.94,72,82.94,71.93Z"/><path class="cls-191" d="M31.7,45.46c-5.82.47-4.48,11.32.2,10.5A12,12,0,0,1,31.7,45.46Z"/><path class="cls-191" d="M76,70.19a15,15,0,0,1-11,7.86,1.31,1.31,0,0,0,1.42.84L68,78.76c4.54.68,9.91-2.48,9.17-7.47A1.31,1.31,0,0,0,76,70.19Z"/><path class="cls-191" d="M37.67,69.83a1.23,1.23,0,0,0-1.11.81c-.06.13-.1.26-.15.39h0a.25.25,0,0,1,0,.08,5.93,5.93,0,0,0,1.18,6.2,3.93,3.93,0,0,0,1.34.88,4.29,4.29,0,0,0,.6.42c2.65,1.53,5.29.18,6.83-2.11C42.13,76.71,38,74.06,37.67,69.83Z"/><path class="cls-192" d="M89,59.55a10.63,10.63,0,0,0-.68-.9c0-.31,0-.62-.06-.93A5.53,5.53,0,0,0,88,51.78,25.33,25.33,0,0,0,87.53,42a19.81,19.81,0,0,0-1-3.08,21,21,0,0,0-4.81-7.08c-.08-.38-.16-.76-.25-1.13a7,7,0,0,0-3-4.5,10.14,10.14,0,0,0-7.48-1,29.73,29.73,0,0,0-7.88-3.06c-.58-.14-1.15-.26-1.73-.36a32.79,32.79,0,0,0-21,3.47c-6.16-.34-12.44,5.66-12.49,11.82-.28.48-.56,1-.81,1.43-4.76,3.69-7.9,10.39-3.93,14.88a.81.81,0,0,0,0,.16c-3.76,5.61-2.84,11.44,2,14.25a23.55,23.55,0,0,0,6.59,8.9A28.14,28.14,0,0,0,50,83,34.22,34.22,0,0,0,58.62,85c1,.1,2,.14,3,.14,6.59,2.19,14.64.16,17.38-5.86a23.59,23.59,0,0,0,3.65-3.69C89.39,72.7,93.38,65.73,89,59.55ZM74.85,57.2c-1.59,6.38-7.71,11.51-14.43,11a15.59,15.59,0,0,1-5.08,2.6A13,13,0,0,1,40.56,65a14.62,14.62,0,0,1-2.09-6.83,11.15,11.15,0,0,1-1.81-3.54,10.85,10.85,0,0,1,6.76-13.25,11.41,11.41,0,0,1,7.41-6.14,10.78,10.78,0,0,1,8.62,1.39,14,14,0,0,1,7.89.77,10.31,10.31,0,0,1,6.5,9.4,10.42,10.42,0,0,1-.1,1.38A12.05,12.05,0,0,1,74.85,57.2Z"/><path class="cls-191" d="M34.85,57.17a3.4,3.4,0,0,1-.42-1.06,8.13,8.13,0,0,1-.86-6.76,2.36,2.36,0,0,1,1.29-2.6,8,8,0,0,1,3-2.53,8.67,8.67,0,0,1,.13-1.7,3.75,3.75,0,0,1-.13-1.42,1.72,1.72,0,0,0,.14-.47,3.59,3.59,0,0,1,.11-.41,3.62,3.62,0,0,1,1.29-1.41,18,18,0,0,1,5.41-5.37c-4.66-2.15-9.74,1.32-10.93,6a7.66,7.66,0,0,0-.26,3c-4.08,1.34-6,7.59-2.87,10.82-1.56,3,.23,7.43,3.05,9.13A15.29,15.29,0,0,1,34.85,57.17Z"/><path class="cls-191" d="M82.15,58.43a13.3,13.3,0,0,1-.92,6.3,5.28,5.28,0,0,1-.32,2.92,4.72,4.72,0,0,1-4.78,3.26,10.39,10.39,0,0,1-3.43,1.31c-3.61,4.14-7.83,7.19-12.74,8.16,4.37,3.48,11.76.41,14.2-4.69a10,10,0,0,0,11.67-7.24C87,64.26,85.51,60.23,82.15,58.43Z"/><path class="cls-191" d="M75,34.72a15.57,15.57,0,0,1,3.7,5.4c0-.06,0-.1,0-.16.42-3.74-.34-7.47-3.69-9.64-2.66-1.72-7.29-2.16-9.87.06A14.83,14.83,0,0,1,75,34.72Z"/><path class="cls-191" d="M49.26,72.22c-3.9.92-8.24-.41-10.37-3.27a5.79,5.79,0,0,0,1.4,6A6.16,6.16,0,0,0,48,76.23c2.39,2.27,6.48,1.57,9-1.13A10.28,10.28,0,0,1,49.26,72.22Z"/><path class="cls-191" d="M56.65,33.1c3-1.56,6.28.15,8.48,3,0-2.38-.66-5-2.91-6.19a5.14,5.14,0,0,0-5.15.44c-2-1.37-4.32-.84-6.38,1.32a2.14,2.14,0,0,0-.63,1.64A6.09,6.09,0,0,1,56.65,33.1Z"/><path class="cls-191" d="M79,45a8.48,8.48,0,0,1,.19,5.37c.2.37.11.74-.43,1a5.77,5.77,0,0,1-2.49,2.52,10.29,10.29,0,0,1-2.49,6.72,4.42,4.42,0,0,0,4.45-2.14,3.59,3.59,0,0,0,.57-2.07v-.22a5.47,5.47,0,0,0,3.32-1.65C85.86,51.09,83.2,46.24,79,45Z"/><path class="cls-193" d="M93.13,85.6a2.08,2.08,0,0,0,1.7,1.18,3.84,3.84,0,0,0,1.13.59h0a3.39,3.39,0,0,0,4.18-3.7,2.82,2.82,0,0,0,.58-3.59,3,3,0,0,0-.64-.71,2.27,2.27,0,0,0-1-.49,2.38,2.38,0,0,0-2.36.91,25.44,25.44,0,0,1-2.88-1.08.67.67,0,0,0-.93.8c.25.65.68,1.31,1,2a4.73,4.73,0,0,0-1.08,2.14A3,3,0,0,0,93.13,85.6Z"/><path class="cls-194" d="M97.92,84a2.72,2.72,0,0,1-.78,2.51,4.86,4.86,0,0,1-1.17.83,3.39,3.39,0,0,0,4.18-3.7,3,3,0,0,0,.86-3A6.23,6.23,0,0,1,97.92,84Z"/><path class="cls-195" d="M92.8,83.63C93.1,81.9,94.89,80,96.54,80a2,2,0,0,1,.53-.61,2.36,2.36,0,0,1,2-.51,1.57,1.57,0,0,0-.33,1,1.33,1.33,0,0,1-1.25,1.39c-2.75.18-3.1,2.41-4.34,4.35A3,3,0,0,1,92.8,83.63Z"/><path class="cls-196" d="M100.73,80.07a3,3,0,0,0-.64-.71,2.27,2.27,0,0,0-1-.49,2.38,2.38,0,0,0-2.36.91,25.44,25.44,0,0,1-2.88-1.08.67.67,0,0,0-.93.8c.25.65.68,1.31,1,2h0a4.29,4.29,0,0,0-.36.48.43.43,0,0,0,0,.07,4,4,0,0,0-.27.44,1.6,1.6,0,0,0-.1.23c0,.11-.11.22-.15.33a3.47,3.47,0,0,0-.16.59,3,3,0,0,0,.33,2,2.08,2.08,0,0,0,1.7,1.18,3.84,3.84,0,0,0,1.13.59h0a3.39,3.39,0,0,0,4.18-3.7,3.37,3.37,0,0,0,.3-.36s.07-.1.11-.14.1-.15.14-.23a2.12,2.12,0,0,0,.11-.21l.09-.17c0-.09.07-.17.1-.26l0-.11a2.51,2.51,0,0,0,0-1.51h0A2.17,2.17,0,0,0,100.73,80.07Z"/><path class="cls-193" d="M7.93,67.41a1.44,1.44,0,0,0,.24-1.34A1.3,1.3,0,0,0,9,64.59a6.72,6.72,0,0,0-.28-1.29c1.25-.57,1.1-2.58,0-2.47a3.64,3.64,0,0,0-2.51-3.44A3.63,3.63,0,0,0,5,57.13a1.32,1.32,0,0,0-.75.21,5.51,5.51,0,0,0-1.13-.24H3a1.35,1.35,0,0,0-1.23,1.59c0,.07,0,.13,0,.2a6.27,6.27,0,0,0-.57.38,7,7,0,0,0-.56.43s0,0-.07,0A1.34,1.34,0,0,0,.54,61.6a2.17,2.17,0,0,0-.26,2.52,2.84,2.84,0,0,0,.86,1c0,.07,0,.13.08.2.49,1,1.83,1.6,2.79,2A7.19,7.19,0,0,0,6.09,68a2.2,2.2,0,0,0,1.27-.17A1.56,1.56,0,0,0,7.93,67.41Z"/><path class="cls-194" d="M7.36,67.86c-1.05.51-2.4-.09-3.35-.54s-2.3-1-2.79-2c0-.07,0-.13-.08-.2a2.84,2.84,0,0,1-.86-1A2.17,2.17,0,0,1,.54,61.6a1.34,1.34,0,0,1,.07-1.85s.05,0,.07,0a4.65,4.65,0,0,1,.61-.36s0,0-.05-.07a6.27,6.27,0,0,1,.57-.38c0-.07,0-.13,0-.2A1.35,1.35,0,0,1,3,57.1a3,3,0,0,0,1.23,1.42,1.31,1.31,0,0,1-.09,2.27c-.5.29-1,.54-1.56.79-.79,1.91-.46,2.73,1,2.42a1.32,1.32,0,0,1,.55,2.47c-.34.21,1.48,1,1.49,1a4.68,4.68,0,0,0,2.2,0h.08A1.56,1.56,0,0,1,7.36,67.86Z"/><path class="cls-195" d="M7.36,67.86A2.2,2.2,0,0,1,6.09,68a7.17,7.17,0,0,0,.4-1.16,9.93,9.93,0,0,1,.25-1.3c.15-.36.57-.68.67-1,.28-.94.16-.08-.25-1a4,4,0,0,1-.61-2.42c.08-.58.56-1.27.59-1.82a2.24,2.24,0,0,0-.9-1.89c2.16.79,3.23,3.22,2,4.8A5.39,5.39,0,0,1,9,64.59a1.3,1.3,0,0,1-.87,1.48,1.44,1.44,0,0,1-.24,1.34A1.56,1.56,0,0,1,7.36,67.86Z"/><path class="cls-197" d="M6.5,68.05h.07l.33,0L7,68a2.72,2.72,0,0,0,.37-.13,1.56,1.56,0,0,0,.57-.45,1.44,1.44,0,0,0,.24-1.34A1.3,1.3,0,0,0,9,64.59a6.72,6.72,0,0,0-.28-1.29h0c1.25-.57,1.1-2.58,0-2.47a2.67,2.67,0,0,0,0-.56A2.61,2.61,0,0,0,8.66,60c0-.12-.06-.23-.1-.35l-.11-.26A4.5,4.5,0,0,0,8.22,59a.67.67,0,0,1-.09-.14,4.23,4.23,0,0,0-.44-.51l-.17-.14a3,3,0,0,0-.41-.32l-.19-.13a4.76,4.76,0,0,0-.68-.33A3.63,3.63,0,0,0,5,57.13a1.32,1.32,0,0,0-.75.21,5.51,5.51,0,0,0-1.13-.24H3a1.35,1.35,0,0,0-1.23,1.59c0,.07,0,.13,0,.2a6.27,6.27,0,0,0-.57.38,7,7,0,0,0-.56.43s0,0-.07,0A1.34,1.34,0,0,0,.54,61.6a2.17,2.17,0,0,0-.26,2.52,2.84,2.84,0,0,0,.86,1c0,.07,0,.13.08.2.49,1,1.83,1.6,2.79,2l.47.22h0l.45.18.1,0,.42.14.1,0a4.76,4.76,0,0,0,.62.11Z"/><path class="cls-193" d="M65.26,6.33a1.44,1.44,0,0,0,1,.86,1.31,1.31,0,0,0,.87,1.49,6.48,6.48,0,0,0,1.25.4c-.12,1.36,1.71,2.22,2.16,1.2a3.62,3.62,0,0,0,4.22-.49,3.61,3.61,0,0,0,.84-.93,1.3,1.3,0,0,0,.18-.75,6.54,6.54,0,0,0,.77-.87.24.24,0,0,0,.05-.1,1.35,1.35,0,0,0-.77-1.86L75.7,5.2c0-.23,0-.45-.06-.69s0-.45-.09-.7a.54.54,0,0,1,0-.08,1.34,1.34,0,0,0-1.58-1,2.19,2.19,0,0,0-2.07-1.47,2.91,2.91,0,0,0-1.27.27c-.08,0-.13,0-.21,0-1.11-.07-2.29.81-3.14,1.43a7,7,0,0,0-1.64,1.46,2.21,2.21,0,0,0-.47,1.2A1.46,1.46,0,0,0,65.26,6.33Z"/><path class="cls-194" d="M65.16,5.62c.06-1.17,1.25-2.05,2.11-2.66s2-1.5,3.14-1.43c.08,0,.13,0,.21,0a2.91,2.91,0,0,1,1.27-.27A2.19,2.19,0,0,1,74,2.76a1.34,1.34,0,0,1,1.58,1,.54.54,0,0,0,0,.08,5.63,5.63,0,0,1,0,.71h.08c0,.24,0,.46.06.69l.18.08a1.35,1.35,0,0,1,.77,1.86,3,3,0,0,0-1.84.37,1.31,1.31,0,0,1-1.92-1.2A17.18,17.18,0,0,1,73,4.56c-1.27-1.63-2.15-1.74-2.6-.31a1.32,1.32,0,0,1-2.42-.74c0-.4-1.58.81-1.58.82a4.91,4.91,0,0,0-1.07,1.92.26.26,0,0,1,0,.08A1.46,1.46,0,0,1,65.16,5.62Z"/><path class="cls-195" d="M65.16,5.62a2.21,2.21,0,0,1,.47-1.2,7.52,7.52,0,0,0,.81.92,9.18,9.18,0,0,1,1,.86c.24.31.31.83.56,1.09.69.71,0,.17,1,.29a4,4,0,0,1,2.41.66c.46.35.83,1.11,1.29,1.4a2.19,2.19,0,0,0,2.08.15c-1.74,1.49-4.39,1.23-5.15-.63a5.26,5.26,0,0,1-2.48-.48,1.31,1.31,0,0,1-.87-1.49,1.44,1.44,0,0,1-1-.86A1.46,1.46,0,0,1,65.16,5.62Z"/><path class="cls-198" d="M65.41,4.77l0,.06a2.88,2.88,0,0,0-.13.31.24.24,0,0,0,0,.08,1.76,1.76,0,0,0-.07.4,1.46,1.46,0,0,0,.1.71,1.44,1.44,0,0,0,1,.86,1.31,1.31,0,0,0,.87,1.49,6.48,6.48,0,0,0,1.25.4h0c-.12,1.36,1.71,2.22,2.16,1.2a2.59,2.59,0,0,0,.5.25,1.12,1.12,0,0,0,.26.08l.36.09.27,0a2.69,2.69,0,0,0,.49,0h.17a3.85,3.85,0,0,0,.66-.13l.21-.07a5,5,0,0,0,.48-.21l.2-.1a3.27,3.27,0,0,0,.62-.43,3.61,3.61,0,0,0,.84-.93,1.3,1.3,0,0,0,.18-.75,6.54,6.54,0,0,0,.77-.87.24.24,0,0,0,.05-.1,1.35,1.35,0,0,0-.77-1.86L75.7,5.2c0-.23,0-.45-.06-.69s0-.45-.09-.7a.54.54,0,0,1,0-.08,1.34,1.34,0,0,0-1.58-1,2.19,2.19,0,0,0-2.07-1.47,2.91,2.91,0,0,0-1.27.27c-.08,0-.13,0-.21,0-1.11-.07-2.29.81-3.14,1.43l-.42.3h0a3.57,3.57,0,0,0-.38.3l-.09.07-.32.3L66,4a4.52,4.52,0,0,0-.4.49C65.52,4.59,65.46,4.68,65.41,4.77Z"/><path class="cls-199" d="M59.43,58.54l0,0h0Z"/><path class="cls-200" d="M101.51,48a22.26,22.26,0,0,0-2.6-5.62c-1-1.58-2.71-2.88-3.9-4.35-.2-3.45-.42-6.66-3.13-9.48a11.37,11.37,0,0,0-5.13-3.08c-.36-.1-.83-.22-1.3-.31-.19-.52-.38-1-.51-1.31a11.16,11.16,0,0,0-4.08-5.21C78,16.77,75.11,17,72.08,17c-3-1.79-5.45-3.54-9.51-3.44a26.84,26.84,0,0,0-6.69,1.34c-1.86.54-1.73,0-4.53-.46-6.19-1-12.55,1.78-16.63,6.47a15.69,15.69,0,0,0-8.2,2.43c-4.49,3-5.65,7.76-5.75,12.79a18.8,18.8,0,0,0-5.63,8.27,19.89,19.89,0,0,0-.9,6.54,36,36,0,0,0,.44,5.56c-.22.54-.4,1.1-.56,1.54a12.18,12.18,0,0,0-.74,6.59,12.78,12.78,0,0,0,3.41,6.6,8.42,8.42,0,0,0,2.42,1.6v0a12.45,12.45,0,0,0,2.61,6.82,13.53,13.53,0,0,0,4.5,3.77c.15.08,1.64.74,3,1.28A10.08,10.08,0,0,0,30.3,87,11.13,11.13,0,0,0,36,91.54c3.11,1.11,6.34.34,9-.11a12.57,12.57,0,0,0,3.09,2.12,15.64,15.64,0,0,0,9.25.73c2.3-.46,4-1.25,6-1.33,2.92-.11,5.69-.15,8.39-1.39A14.12,14.12,0,0,0,74,90.31c.34-.22,1.69-1,2.16-1.44a29.42,29.42,0,0,0,3-.1,15.37,15.37,0,0,0,3.38-.91A12.26,12.26,0,0,0,87.72,84c1.31-1.69,1.55-4,2.76-5.62,2-2.7,6.15-4.14,7.54-8.37a16.49,16.49,0,0,0,.3-8c0-.29-.08-.83-.14-1.38C102,58.42,102.55,51.44,101.51,48ZM73.84,46.79a10.42,10.42,0,0,1-.1,1.38,12.05,12.05,0,0,1,1.11,9c-1.59,6.38-7.71,11.51-14.43,11a15.59,15.59,0,0,1-5.08,2.6,12.94,12.94,0,0,1-14.15-4.9,1.74,1.74,0,0,0-.68-1,14.67,14.67,0,0,1-2-6.73,11.15,11.15,0,0,1-1.81-3.54,10.85,10.85,0,0,1,6.76-13.25,11.41,11.41,0,0,1,7.41-6.14,10.78,10.78,0,0,1,8.62,1.39,14,14,0,0,1,7.89.77A10.31,10.31,0,0,1,73.84,46.79Z"/></g></g></g></svg>