<svg xmlns="http://www.w3.org/2000/svg" xmlns:xlink="http://www.w3.org/1999/xlink" viewBox="0 0 63.16 63.16"><defs><style>.cls-1{isolation:isolate;}.cls-2{mix-blend-mode:screen;}.cls-3{fill:#f9830d;opacity:0.07;}.cls-4{fill:#f98512;opacity:0.08;}.cls-5{fill:#f98816;opacity:0.1;}.cls-6{fill:#f98a1b;opacity:0.12;}.cls-7{fill:#f98d20;opacity:0.14;}.cls-8{fill:#fa8f25;opacity:0.16;}.cls-9{fill:#fa9229;opacity:0.18;}.cls-10{fill:#fa942e;opacity:0.19;}.cls-11{fill:#fa9633;opacity:0.21;}.cls-12{fill:#fa9938;opacity:0.23;}.cls-13{fill:#fa9b3c;opacity:0.25;}.cls-14{fill:#fa9e41;opacity:0.27;}.cls-15{fill:#faa046;opacity:0.29;}.cls-16{fill:#fba34b;opacity:0.3;}.cls-17{fill:#fba54f;opacity:0.32;}.cls-18{fill:#fba754;opacity:0.34;}.cls-19{fill:#fbaa59;opacity:0.36;}.cls-20{fill:#fbac5e;opacity:0.38;}.cls-21{fill:#fbaf62;opacity:0.4;}.cls-22{fill:#fbb167;opacity:0.41;}.cls-23{fill:#fbb46c;opacity:0.43;}.cls-24{fill:#fbb671;opacity:0.45;}.cls-25{fill:#fcb875;opacity:0.47;}.cls-26{fill:#fcbb7a;opacity:0.49;}.cls-27{fill:#fcbd7f;opacity:0.51;}.cls-28{fill:#fcc084;opacity:0.52;}.cls-29{fill:#fcc288;opacity:0.54;}.cls-30{fill:#fcc58d;opacity:0.56;}.cls-31{fill:#fcc792;opacity:0.58;}.cls-32{fill:#fcca97;opacity:0.6;}.cls-33{fill:#fdcc9b;opacity:0.62;}.cls-34{fill:#fdcea0;opacity:0.63;}.cls-35{fill:#fdd1a5;opacity:0.65;}.cls-36{fill:#fdd3aa;opacity:0.67;}.cls-37{fill:#fdd6ae;opacity:0.69;}.cls-38{fill:#fdd8b3;opacity:0.71;}.cls-39{fill:#fddbb8;opacity:0.73;}.cls-40{fill:#fdddbd;opacity:0.74;}.cls-41{fill:#fddfc1;opacity:0.76;}.cls-42{fill:#fee2c6;opacity:0.78;}.cls-43{fill:#fee4cb;opacity:0.8;}.cls-44{fill:#fee7d0;opacity:0.82;}.cls-45{fill:#fee9d4;opacity:0.84;}.cls-46{fill:#feecd9;opacity:0.85;}.cls-47{fill:#feeede;opacity:0.87;}.cls-48{fill:#fef0e3;opacity:0.89;}.cls-49{fill:#fef3e7;opacity:0.91;}.cls-50{fill:#fff5ec;opacity:0.93;}.cls-51{fill:#fff8f1;opacity:0.95;}.cls-52{fill:#fffaf6;opacity:0.96;}.cls-53{fill:#fffdfa;opacity:0.98;}.cls-54{fill:#fff;}.cls-55{fill:#f15a29;}.cls-56{fill:#ffde17;}.cls-57{fill:#fffb6c;}.cls-58{mix-blend-mode:overlay;fill:url(#linear-gradient);}</style><linearGradient id="linear-gradient" x1="31.69" y1="48.12" x2="31.69" y2="16.95" gradientUnits="userSpaceOnUse"><stop offset="0"/><stop offset="1" stop-color="#fff"/></linearGradient></defs><g class="cls-1"><g id="Layer_2" data-name="Layer 2"><g id="Layer_1-2" data-name="Layer 1"><g class="cls-2"><circle class="cls-3" cx="31.58" cy="31.58" r="31.58" transform="translate(-6.49 8.22) rotate(-13.47)"/><circle class="cls-4" cx="31.58" cy="31.58" r="31.01" transform="translate(-6.48 54.94) rotate(-76.54)"/><circle class="cls-5" cx="31.58" cy="31.58" r="30.44" transform="translate(-9.55 14.18) rotate(-22.07)"/><circle class="cls-6" cx="31.58" cy="31.58" r="29.87" transform="translate(-6.34 7.99) rotate(-13.11)"/><circle class="cls-7" cx="31.58" cy="31.58" r="29.31" transform="translate(-6.02 7.48) rotate(-12.35)"/><circle class="cls-8" cx="31.58" cy="31.58" r="28.74" transform="translate(-6.48 54.94) rotate(-76.55)"/><circle class="cls-9" cx="31.58" cy="31.58" r="28.17" transform="translate(-6.48 54.95) rotate(-76.55)"/><circle class="cls-10" cx="31.58" cy="31.58" r="27.6" transform="translate(-6.35 8) rotate(-13.12)"/><circle class="cls-11" cx="31.58" cy="31.58" r="27.04" transform="translate(-6.49 8.24) rotate(-13.49)"/><circle class="cls-12" cx="31.58" cy="31.58" r="26.47" transform="translate(-6.47 54.95) rotate(-76.56)"/><circle class="cls-13" cx="31.58" cy="31.58" r="25.9" transform="translate(-6.47 54.96) rotate(-76.57)"/><circle class="cls-14" cx="31.58" cy="31.58" r="25.33" transform="translate(-6.35 8) rotate(-13.14)"/><circle class="cls-15" cx="31.58" cy="31.58" r="24.77" transform="translate(-12.23 40.27) rotate(-56.22)"/><circle class="cls-16" cx="31.58" cy="31.58" r="24.2" transform="translate(-6.47 54.96) rotate(-76.58)"/><circle class="cls-17" cx="31.58" cy="31.58" r="23.63" transform="translate(-6.47 54.96) rotate(-76.58)"/><circle class="cls-18" cx="31.58" cy="31.58" r="23.06" transform="translate(-6.36 8.01) rotate(-13.15)"/><circle class="cls-19" cx="31.58" cy="31.58" r="22.5" transform="translate(-11.81 42.17) rotate(-58.72)"/><circle class="cls-20" cx="31.58" cy="31.58" r="21.93" transform="translate(-6.46 54.97) rotate(-76.59)"/><circle class="cls-21" cx="31.58" cy="31.58" r="21.36" transform="translate(-6.46 54.97) rotate(-76.59)"/><circle class="cls-22" cx="31.58" cy="31.58" r="20.79" transform="translate(-6.36 8.02) rotate(-13.16)"/><circle class="cls-23" cx="31.58" cy="31.58" r="20.23" transform="translate(-12.22 40.28) rotate(-56.24)"/><circle class="cls-24" cx="31.58" cy="31.58" r="19.66" transform="translate(-6.46 54.98) rotate(-76.6)"/><circle class="cls-25" cx="31.58" cy="31.58" r="19.09" transform="translate(-6.46 54.98) rotate(-76.61)"/><circle class="cls-26" cx="31.58" cy="31.58" r="18.52" transform="translate(-11.92 41.67) rotate(-58.07)"/><circle class="cls-27" cx="31.58" cy="31.58" r="17.95" transform="translate(-11.8 42.2) rotate(-58.76)"/><circle class="cls-28" cx="31.58" cy="31.58" r="17.39" transform="translate(-6.45 54.99) rotate(-76.62)"/><circle class="cls-29" cx="31.58" cy="31.58" r="16.82" transform="translate(-6.45 54.99) rotate(-76.62)"/><circle class="cls-30" cx="31.58" cy="31.58" r="16.25" transform="translate(-11.92 41.69) rotate(-58.09)"/><circle class="cls-31" cx="31.58" cy="31.58" r="15.68" transform="translate(-12.22 40.29) rotate(-56.25)"/><circle class="cls-32" cx="31.58" cy="31.58" r="15.12" transform="translate(-6.45 55) rotate(-76.63)"/><circle class="cls-33" cx="31.58" cy="31.58" r="14.55" transform="translate(-6.45 55) rotate(-76.63)"/><path class="cls-34" d="M45.56,31.58a14,14,0,1,1-14-14A14,14,0,0,1,45.56,31.58Z"/><path class="cls-35" d="M45,31.58A13.42,13.42,0,1,1,31.58,18.16,13.41,13.41,0,0,1,45,31.58Z"/><circle class="cls-36" cx="31.58" cy="31.58" r="12.85" transform="translate(-6.44 55.01) rotate(-76.64)"/><path class="cls-37" d="M43.86,31.58A12.28,12.28,0,1,1,31.58,19.3,12.28,12.28,0,0,1,43.86,31.58Z"/><path class="cls-38" d="M43.29,31.58A11.71,11.71,0,1,1,31.58,19.87,11.71,11.71,0,0,1,43.29,31.58Z"/><path class="cls-39" d="M42.72,31.58A11.15,11.15,0,1,1,31.58,20.43,11.14,11.14,0,0,1,42.72,31.58Z"/><circle class="cls-40" cx="31.58" cy="31.58" r="10.58" transform="translate(-6.44 55.01) rotate(-76.66)"/><path class="cls-41" d="M41.59,31.58a10,10,0,1,1-10-10A10,10,0,0,1,41.59,31.58Z"/><path class="cls-42" d="M41,31.58a9.44,9.44,0,1,1-9.44-9.44A9.44,9.44,0,0,1,41,31.58Z"/><path class="cls-43" d="M40.45,31.58a8.88,8.88,0,1,1-8.87-8.88A8.87,8.87,0,0,1,40.45,31.58Z"/><circle class="cls-44" cx="31.58" cy="31.58" r="8.31" transform="translate(-6.43 55.02) rotate(-76.67)"/><path class="cls-45" d="M39.32,31.58a7.74,7.74,0,1,1-7.74-7.74A7.75,7.75,0,0,1,39.32,31.58Z"/><path class="cls-46" d="M38.75,31.58a7.17,7.17,0,1,1-7.17-7.17A7.17,7.17,0,0,1,38.75,31.58Z"/><path class="cls-47" d="M38.18,31.58a6.6,6.6,0,1,1-6.6-6.6A6.61,6.61,0,0,1,38.18,31.58Z"/><path class="cls-48" d="M37.61,31.58a6,6,0,1,1-6-6A6,6,0,0,1,37.61,31.58Z"/><path class="cls-49" d="M37,31.58a5.47,5.47,0,1,1-5.46-5.47A5.45,5.45,0,0,1,37,31.58Z"/><path class="cls-50" d="M36.48,31.58a4.9,4.9,0,1,1-4.9-4.9A4.91,4.91,0,0,1,36.48,31.58Z"/><path class="cls-51" d="M35.91,31.58a4.33,4.33,0,1,1-4.33-4.33A4.33,4.33,0,0,1,35.91,31.58Z"/><path class="cls-52" d="M35.34,31.58a3.77,3.77,0,1,1-3.76-3.77A3.76,3.76,0,0,1,35.34,31.58Z"/><path class="cls-53" d="M34.77,31.58a3.2,3.2,0,1,1-3.19-3.2A3.19,3.19,0,0,1,34.77,31.58Z"/><path class="cls-54" d="M34.21,31.58A2.63,2.63,0,1,1,31.58,29,2.63,2.63,0,0,1,34.21,31.58Z"/></g><path class="cls-55" d="M46.56,28.79c-1.09-3.82-3.34-7.92-7.14-9.58-.93-.41-1.15,0-1.82-.17a35.27,35.27,0,0,0-3.76-1.83,4.79,4.79,0,0,0-3.76.26c-2.43,1.23-1.28,1.07-4.16,1.41a3.54,3.54,0,0,0-2.46,1c-3.28.29-5.58,3.21-6.49,6.58-1,2.62-.8,4.6-.43,7.34.22,1.64-.68,3.11,0,4.84a4.23,4.23,0,0,0,1,1.53,9,9,0,0,0,3.13,5.64c1.6,1.27,3,1.08,4.9,1.28,2.21.23,4.12,1.23,6.37,1,1.2-.1,3-1.19,3.95-1.4,1.32-.28,2.86.06,4.16-.36a6.69,6.69,0,0,0,3.53-2.8A17.13,17.13,0,0,0,46.56,28.79ZM42.56,41c-3.22,4.13-9.88,4.38-14.62,4a17.47,17.47,0,0,1-3.49-.65,1.09,1.09,0,0,0-.9-1.69c-.6,0-1.28-.61-1.73-1.29h.06c1.4-.18,1.42-2.4,0-2.21a4.84,4.84,0,0,1-1,0,1.18,1.18,0,0,0-.65-.15,2.22,2.22,0,0,1-.64-.3c-.2-1.41-.28-3-.34-4.33A1,1,0,0,0,19.51,33c-.08-.15-.15-.33-.22-.5v0c0-3.75.1-6.27,3.36-8.7.74-.54,1.29-1.2,1.92-1.69a6.23,6.23,0,0,1,.9.18,1,1,0,0,0,1.34-.9,6.63,6.63,0,0,1,1.91.44A1.1,1.1,0,0,0,30,21.31l3.32-1.7.69.78c.39.09.88.63,1.26.82.87.45,2.64.39,3.57.74C45.5,24.49,46.7,35.72,42.56,41Z"/><path class="cls-56" d="M46.05,34.51a2.12,2.12,0,0,0-.95-1.18c1.28.82.76-3,.72-3.16-.25-1.07-.43-3.33-1.74-3.77-.32-2-3.54-7.39-5.87-4.23,1.6-2.16-1.71-3.73-3.53-2.54-2.12-1.79-5.42-1.87-6.77.63l-.16.06a4.41,4.41,0,0,0-5.21,2.1,2.81,2.81,0,0,0-.58-.06,5.2,5.2,0,0,0-2.16,1.53,7.9,7.9,0,0,0-2.28,4.85,2.14,2.14,0,0,0,.36,2.67A7.67,7.67,0,0,0,19,38.14c-.4,2-.11,3.8,2.27,4.1a3.79,3.79,0,0,0,1.66,2.52,3.66,3.66,0,0,0,3.06,1,8.16,8.16,0,0,0,1.91-.28c2.87,2.6,6.29,3,8.88-.2,2.58,1,5.44-.76,6.4-3.39a8.19,8.19,0,0,0,1.09-2C44.87,38.39,46.55,36.16,46.05,34.51Z"/><path class="cls-57" d="M43.11,32.69a8.29,8.29,0,0,0-3-8.59,9.77,9.77,0,0,0-2.32-1.24c-.14-.09-.27-.2-.42-.29a11.82,11.82,0,0,0-15.86,3.71A10.43,10.43,0,0,0,20,30.8c-1,3.63-.18,7.83,2.79,10.26a10.2,10.2,0,0,0,6.65,2.28,12,12,0,0,0,3.14.75c5.1.5,9.55-2.34,10.61-7.46A9.16,9.16,0,0,0,43.11,32.69Z"/><path class="cls-54" d="M41.28,33.06a7,7,0,0,0-2.48-7.24,8.23,8.23,0,0,0-2-1.05c-.12-.08-.23-.17-.35-.24A10,10,0,0,0,23.1,27.65a8.79,8.79,0,0,0-1.36,3.82,8.29,8.29,0,0,0,2.35,8.66,8.64,8.64,0,0,0,5.62,1.92,10.38,10.38,0,0,0,2.65.64c4.3.41,8.06-2,9-6.3A7.61,7.61,0,0,0,41.28,33.06Z"/><path class="cls-58" d="M46.56,28.79c-1.09-3.82-3.34-7.92-7.14-9.58-.93-.41-1.15,0-1.82-.17a35.27,35.27,0,0,0-3.76-1.83,4.79,4.79,0,0,0-3.76.26c-2.43,1.23-1.28,1.07-4.16,1.41a3.54,3.54,0,0,0-2.46,1c-3.28.29-5.58,3.21-6.49,6.58-1,2.62-.8,4.6-.43,7.34.22,1.64-.68,3.11,0,4.84a4.23,4.23,0,0,0,1,1.53,9,9,0,0,0,3.13,5.64c1.6,1.27,3,1.08,4.9,1.28,2.21.23,4.12,1.23,6.37,1,1.2-.1,3-1.19,3.95-1.4,1.32-.28,2.86.06,4.16-.36a6.69,6.69,0,0,0,3.53-2.8A17.13,17.13,0,0,0,46.56,28.79Z"/></g></g></g></svg>