<svg xmlns="http://www.w3.org/2000/svg" xmlns:xlink="http://www.w3.org/1999/xlink" viewBox="0 0 89.47 89.47"><defs><style>.cls-1{isolation:isolate;}.cls-2{mix-blend-mode:screen;}.cls-3{fill:#f9830d;opacity:0.07;}.cls-4{fill:#f98512;opacity:0.08;}.cls-5{fill:#f98816;opacity:0.1;}.cls-6{fill:#f98a1b;opacity:0.12;}.cls-7{fill:#f98d20;opacity:0.14;}.cls-8{fill:#fa8f25;opacity:0.16;}.cls-9{fill:#fa9229;opacity:0.18;}.cls-10{fill:#fa942e;opacity:0.19;}.cls-11{fill:#fa9633;opacity:0.21;}.cls-12{fill:#fa9938;opacity:0.23;}.cls-13{fill:#fa9b3c;opacity:0.25;}.cls-14{fill:#fa9e41;opacity:0.27;}.cls-15{fill:#faa046;opacity:0.29;}.cls-16{fill:#fba34b;opacity:0.3;}.cls-17{fill:#fba54f;opacity:0.32;}.cls-18{fill:#fba754;opacity:0.34;}.cls-19{fill:#fbaa59;opacity:0.36;}.cls-20{fill:#fbac5e;opacity:0.38;}.cls-21{fill:#fbaf62;opacity:0.4;}.cls-22{fill:#fbb167;opacity:0.41;}.cls-23{fill:#fbb46c;opacity:0.43;}.cls-24{fill:#fbb671;opacity:0.45;}.cls-25{fill:#fcb875;opacity:0.47;}.cls-26{fill:#fcbb7a;opacity:0.49;}.cls-27{fill:#fcbd7f;opacity:0.51;}.cls-28{fill:#fcc084;opacity:0.52;}.cls-29{fill:#fcc288;opacity:0.54;}.cls-30{fill:#fcc58d;opacity:0.56;}.cls-31{fill:#fcc792;opacity:0.58;}.cls-32{fill:#fcca97;opacity:0.6;}.cls-33{fill:#fdcc9b;opacity:0.62;}.cls-34{fill:#fdcea0;opacity:0.63;}.cls-35{fill:#fdd1a5;opacity:0.65;}.cls-36{fill:#fdd3aa;opacity:0.67;}.cls-37{fill:#fdd6ae;opacity:0.69;}.cls-38{fill:#fdd8b3;opacity:0.71;}.cls-39{fill:#fddbb8;opacity:0.73;}.cls-40{fill:#fdddbd;opacity:0.74;}.cls-41{fill:#fddfc1;opacity:0.76;}.cls-42{fill:#fee2c6;opacity:0.78;}.cls-43{fill:#fee4cb;opacity:0.8;}.cls-44{fill:#fee7d0;opacity:0.82;}.cls-45{fill:#fee9d4;opacity:0.84;}.cls-46{fill:#feecd9;opacity:0.85;}.cls-47{fill:#feeede;opacity:0.87;}.cls-48{fill:#fef0e3;opacity:0.89;}.cls-49{fill:#fef3e7;opacity:0.91;}.cls-50{fill:#fff5ec;opacity:0.93;}.cls-51{fill:#fff8f1;opacity:0.95;}.cls-52{fill:#fffaf6;opacity:0.96;}.cls-53{fill:#fffdfa;opacity:0.98;}.cls-54{fill:#fff;}.cls-55{fill:#f15a29;}.cls-56{fill:#ffde17;}.cls-57{fill:#fffb6c;}.cls-58{fill:#fff5ab;}.cls-59,.cls-61,.cls-62,.cls-63{mix-blend-mode:overlay;}.cls-59{fill:url(#linear-gradient);}.cls-60{fill:#fc6803;}.cls-61{fill:url(#linear-gradient-3);}.cls-62{fill:url(#linear-gradient-4);}.cls-63{fill:url(#linear-gradient-5);}</style><linearGradient id="linear-gradient" x1="45.94" y1="72.64" x2="45.94" y2="17.17" gradientUnits="userSpaceOnUse"><stop offset="0"/><stop offset="1" stop-color="#fff"/></linearGradient><linearGradient id="linear-gradient-3" x1="74.52" y1="31.34" x2="78.77" y2="31.34" xlink:href="#linear-gradient"/><linearGradient id="linear-gradient-4" x1="28.9" y1="15.54" x2="32.39" y2="15.54" xlink:href="#linear-gradient"/><linearGradient id="linear-gradient-5" x1="32.58" y1="76.19" x2="37.71" y2="76.19" xlink:href="#linear-gradient"/></defs><g class="cls-1"><g id="Layer_2" data-name="Layer 2"><g id="Layer_1-2" data-name="Layer 1"><g class="cls-2"><circle class="cls-3" cx="44.74" cy="44.74" r="44.74" transform="translate(-6.59 81.73) rotate(-80.78)"/><circle class="cls-4" cx="44.74" cy="44.74" r="43.93"/><circle class="cls-5" cx="44.74" cy="44.74" r="43.13" transform="translate(-8.97 78.17) rotate(-76.9)"/><circle class="cls-6" cx="44.74" cy="44.74" r="42.32" transform="translate(-6.53 81.81) rotate(-80.87)"/><circle class="cls-7" cx="44.74" cy="44.74" r="41.52"/><circle class="cls-8" cx="44.74" cy="44.74" r="40.71" transform="translate(-8.98 78.16) rotate(-76.9)"/><circle class="cls-9" cx="44.74" cy="44.74" r="39.91"/><circle class="cls-10" cx="44.74" cy="44.74" r="39.11"/><circle class="cls-11" cx="44.74" cy="44.74" r="38.3" transform="translate(-9.08 78) rotate(-76.72)"/><circle class="cls-12" cx="44.74" cy="44.74" r="37.5"/><circle class="cls-13" cx="44.74" cy="44.74" r="36.69"/><circle class="cls-14" cx="44.74" cy="44.74" r="35.89" transform="translate(-8.98 78.16) rotate(-76.89)"/><circle class="cls-15" cx="44.74" cy="44.74" r="35.09"/><circle class="cls-16" cx="44.74" cy="44.74" r="34.28"/><circle class="cls-17" cx="44.74" cy="44.74" r="33.48" transform="translate(-8.98 78.15) rotate(-76.89)"/><circle class="cls-18" cx="44.74" cy="44.74" r="32.67"/><circle class="cls-19" cx="44.74" cy="44.74" r="31.87" transform="translate(-13.89 20.96) rotate(-22.93)"/><circle class="cls-20" cx="44.74" cy="44.74" r="31.06" transform="translate(-8.98 78.15) rotate(-76.88)"/><circle class="cls-21" cx="44.74" cy="44.74" r="30.26"/><circle class="cls-22" cx="44.74" cy="44.74" r="29.46" transform="translate(-8.99 78.15) rotate(-76.88)"/><circle class="cls-23" cx="44.74" cy="44.74" r="28.65" transform="translate(-8.99 78.15) rotate(-76.88)"/><circle class="cls-24" cx="44.74" cy="44.74" r="27.85"/><circle class="cls-25" cx="44.74" cy="44.74" r="27.04" transform="translate(-8.99 78.15) rotate(-76.88)"/><circle class="cls-26" cx="44.74" cy="44.74" r="26.24" transform="translate(-6.54 81.8) rotate(-80.86)"/><circle class="cls-27" cx="44.74" cy="44.74" r="25.44"/><circle class="cls-28" cx="44.74" cy="44.74" r="24.63" transform="translate(-8.99 78.14) rotate(-76.87)"/><circle class="cls-29" cx="44.74" cy="44.74" r="23.83" transform="translate(-6.54 81.8) rotate(-80.86)"/><circle class="cls-30" cx="44.74" cy="44.74" r="23.02"/><circle class="cls-31" cx="44.74" cy="44.74" r="22.22" transform="translate(-8.99 78.14) rotate(-76.87)"/><circle class="cls-32" cx="44.74" cy="44.74" r="21.42"/><circle class="cls-33" cx="44.74" cy="44.74" r="20.61"/><circle class="cls-34" cx="44.74" cy="44.74" r="19.81" transform="translate(-8.99 78.14) rotate(-76.87)"/><circle class="cls-35" cx="44.74" cy="44.74" r="19"/><circle class="cls-36" cx="44.74" cy="44.74" r="18.2"/><circle class="cls-37" cx="44.74" cy="44.74" r="17.39" transform="translate(-9 78.13) rotate(-76.86)"/><circle class="cls-38" cx="44.74" cy="44.74" r="16.59"/><circle class="cls-39" cx="44.74" cy="44.74" r="15.79" transform="translate(-13.87 20.9) rotate(-22.87)"/><circle class="cls-40" cx="44.74" cy="44.74" r="14.98" transform="translate(-9 78.13) rotate(-76.86)"/><circle class="cls-41" cx="44.74" cy="44.74" r="14.18"/><circle class="cls-42" cx="44.74" cy="44.74" r="13.37" transform="translate(-13.71 20.52) rotate(-22.5)"/><circle class="cls-43" cx="44.74" cy="44.74" r="12.57" transform="translate(-9.08 78) rotate(-76.72)"/><circle class="cls-44" cx="44.74" cy="44.74" r="11.77"/><circle class="cls-45" cx="44.74" cy="44.74" r="10.96" transform="translate(-9.08 78) rotate(-76.72)"/><circle class="cls-46" cx="44.74" cy="44.74" r="10.16" transform="translate(-6.59 81.73) rotate(-80.78)"/><circle class="cls-47" cx="44.74" cy="44.74" r="9.35"/><circle class="cls-48" cx="44.74" cy="44.74" r="8.55" transform="translate(-9.08 78) rotate(-76.72)"/><circle class="cls-49" cx="44.74" cy="44.74" r="7.74" transform="translate(-6.59 81.73) rotate(-80.78)"/><circle class="cls-50" cx="44.74" cy="44.74" r="6.94"/><path class="cls-51" d="M50.87,44.74a6.14,6.14,0,1,1-6.13-6.14A6.14,6.14,0,0,1,50.87,44.74Z"/><circle class="cls-52" cx="44.74" cy="44.74" r="5.33"/><circle class="cls-53" cx="44.74" cy="44.74" r="4.53"/><path class="cls-54" d="M48.46,44.74A3.73,3.73,0,1,1,44.74,41,3.73,3.73,0,0,1,48.46,44.74Z"/></g><path class="cls-55" d="M73.8,50.06a1.26,1.26,0,0,0,1.09-1.89c-2.12-2.88-3-5.33-1.43-8.75a1.28,1.28,0,0,0-1.09-1.9A2.8,2.8,0,0,1,70,36.76a1.93,1.93,0,0,1-.49-.38c-.12-.38-.25-.77-.39-1.16a4.07,4.07,0,0,1,1.07-2,1.27,1.27,0,0,0,0-2.18c-3.44-1.48-3.31-4.06-3.29-7.27a1.27,1.27,0,0,0-1.26-1.26c-2,0-5.6,1.4-6.3-1.54a1.27,1.27,0,0,0-1.55-.88c-2.1.65-4,1.11-6.06.27-1.66-.67-2.15-1.45-3.21-2.79A1.27,1.27,0,0,0,47,17.34a6,6,0,0,1-5.89.88,1.28,1.28,0,0,0-1.85.75c-.69,2.32-.95,1.92-2.66.5a1.28,1.28,0,0,0-2.15.89,22,22,0,0,1-.14,2.4c-1.47-.66-3.3-1.28-4.65-.44a4.1,4.1,0,0,0-1.42,1.87,5.58,5.58,0,0,1-.65.67,7.68,7.68,0,0,1-2.8,2.4,13.45,13.45,0,0,1-2.06.59c-.86.43-1,.36-1.51,1.33a7,7,0,0,0-.21,2.6c-.08,2.36-.47,3.39-2.49,4.62a1.28,1.28,0,0,0-.45,1.72c1.19,1.84,1.05,3.29-.26,5.05a1.26,1.26,0,0,0,.2,1.52,11,11,0,0,1,2.32,4c0,.6-.06,1.2-.07,1.79a1.15,1.15,0,0,1-.06.17C19.63,52,17.9,53.27,17,54.5a1.27,1.27,0,0,0,.45,1.72c.34.22,2,.9,2.25,1.12,1.94,1.4,2.38,2.09,1.33,4a1.28,1.28,0,0,0,.75,1.85c2,.71,3.24.65,4.95,2S28.88,68,30,69.81a1.29,1.29,0,0,0,1.72.45c2.38-1.38,4.6-3.81,7.31-2.67,2.11.88,2.7,3,4.13,4.68a1.27,1.27,0,0,0,1.53.2,25.8,25.8,0,0,1,4.45-3.2c.49-.12,1-.26,1.46-.42a4,4,0,0,1,3.53,1.58,1.25,1.25,0,0,0,2-.25c1.16-2.19,1.82-3.83,4.48-4.73,2-.67,4.43-.45,6.53-.49a1.26,1.26,0,0,0,1.21-1.59c-1.53-4.4,0-6.54,4.66-6.8A1.27,1.27,0,0,0,74,54.68C73.38,53.7,70.74,50,73.8,50.06ZM63.89,57c-5,6.37-15.25,6.76-22.55,6.13a26.34,26.34,0,0,1-5.4-1,1.68,1.68,0,0,0-1.39-2.6c-.91,0-2-1-2.66-2H32c2.16-.28,2.19-3.71,0-3.42a6.68,6.68,0,0,1-1.54,0,1.7,1.7,0,0,0-1-.22,4.1,4.1,0,0,1-1-.46c-.31-2.19-.43-4.6-.52-6.69a1.6,1.6,0,0,0,.4-2.08c-.13-.24-.24-.51-.35-.77,0,0,0,0,0-.08,0-5.79.15-9.68,5.18-13.42,1.14-.84,2-1.85,3-2.61a8.21,8.21,0,0,1,1.39.29,1.58,1.58,0,0,0,2.06-1.4,9.77,9.77,0,0,1,3,.68,1.7,1.7,0,0,0,1.93-.78L49.58,24l1.06,1.21c.61.14,1.37,1,2,1.27,1.34.68,4.07.58,5.5,1.13a13.7,13.7,0,0,1,7.39,7.31A13.12,13.12,0,0,0,65.73,37a1,1,0,0,0,.85.81C68.53,44.31,67.61,52.21,63.89,57Z"/><path class="cls-56" d="M71.66,47.54a1.23,1.23,0,0,0,0-.72c-.2-1-.66-2.06-.76-3.11a9,9,0,0,1,.74-3.12A1.27,1.27,0,0,0,70.47,39a1.82,1.82,0,0,1-.84-.24c-.28-.63-.65-1.16-.93-1.82-1-2.27-.36-2.82-.56-4.89a14.89,14.89,0,0,0-1.83-4.79,5.26,5.26,0,0,0-2.19-2.71c-.91-.43-1.94-.12-2.88-.15-1.7,0-2.92-.79-4.45-1.24-2.95-.86-5.67-1.08-8.52-2.27a7.92,7.92,0,0,0-2.52-.7,3.93,3.93,0,0,0-1.82-.28c-2.74.22-5.51,3.06-7.93,3.87-.81.28-1.47.51-2.1.77-1.29-.66-2.93-1.15-4-.29-.8.61-1.08,1.65-1.68,2.41a5,5,0,0,1-.44.48,5.66,5.66,0,0,0-1.3.82c-.2.17-.4.36-.6.56-.56.34-1.13.66-1.64,1a8.28,8.28,0,0,0-1.41.83c-1.61,1.21-1.2,2.68-.47,4.11-.85,1.08-1.72,2.15-2.62,3.19a1.27,1.27,0,0,0,0,1.78,18.06,18.06,0,0,1,1.55,1.83c-.46.54-.91,1.08-1.32,1.65a1.27,1.27,0,0,0,.45,1.72c1.27.79,1.62,2.94,1.85,4.46a1.38,1.38,0,0,0-.43.35c-1.21,1.61-3,3.25-2.33,5.43A4,4,0,0,0,21,57c1.32.89,1.71.28,2.1,2.28.27,1.44.32,2.95,1.94,3.54.71.26,1.47-.19,2.13,0,2.57.63,2.71,2.84,3.51,4.74a1.29,1.29,0,0,0,1.73.46c.73-.43,1.45-1.16,2.21-1.63.95,0,1.79-.38,2.72-.5,1.23.32,2.2,1.37,3.41,2.28a6.9,6.9,0,0,0,3.62,1.74c2,.08,3.9-1.17,5.83-1.51a19.57,19.57,0,0,0,6.26-1.94,60.49,60.49,0,0,1,7.49-3,4.17,4.17,0,0,0,2.7-2.62c.89-2.13.47-2.8,2.44-5,.55-.61,1-.58,1.43-1.28.6-1,.38-2.07.62-3.1C71.56,49.69,72.17,49.3,71.66,47.54Z"/><path class="cls-57" d="M68.08,48.84a17.6,17.6,0,0,0-.41-4.13,16.17,16.17,0,0,0-1.46-11.22,4.73,4.73,0,0,0-.4-3.1c-1-2-2.87-2.51-4.79-2.25a19.77,19.77,0,0,0-3.18-1.52c-.26-.18-.51-.37-.78-.54-8.86-5.39-20.36-3.31-27.28,4a3.53,3.53,0,0,0-3.67,5.31,19.85,19.85,0,0,0-1.66,5.9A19.85,19.85,0,0,0,24.14,51a3.22,3.22,0,0,0-.77,2.1c0,1.49,1.22,2.28,2.57,2.63a15.56,15.56,0,0,0,3.71,4.44,19.08,19.08,0,0,0,11.24,4.16,5.5,5.5,0,0,0,4.3,3.26A3.82,3.82,0,0,0,49,65.8c7.93.36,14.86-3.57,17.73-10.66A2.68,2.68,0,0,0,69.42,53,4.74,4.74,0,0,0,68.08,48.84Z"/><path class="cls-56" d="M28,39.41c-4.19.34-3.22,8.16.15,7.56A8.63,8.63,0,0,1,28,39.41Z"/><path class="cls-56" d="M35.66,27.86a2.29,2.29,0,0,0-.29-.56c-1.27-1.71-2.9-2.56-4.42-1.37S28.7,29.66,28.4,32.3a3.45,3.45,0,0,0,0,.46C30.16,29.35,33,27.43,35.66,27.86Z"/><path class="cls-56" d="M59.94,57.23A10.83,10.83,0,0,1,52,62.9a.93.93,0,0,0,1,.6l1.11-.09c3.27.49,7.14-1.79,6.6-5.38A.94.94,0,0,0,59.94,57.23Z"/><path class="cls-56" d="M32.31,57a.87.87,0,0,0-.8.58c-.05.1-.07.19-.11.29h0a.13.13,0,0,0,0,.06,4.26,4.26,0,0,0,.85,4.47,3,3,0,0,0,1,.64c.14.1.28.21.43.3,1.92,1.1,3.82.13,4.93-1.52C35.52,61.93,32.56,60,32.31,57Z"/><path class="cls-58" d="M67.8,48.44c0-.22,0-.43,0-.64a3.74,3.74,0,0,0-.18-4,15.42,15.42,0,0,0-4.27-13.5,5.2,5.2,0,0,0-2.21-3.82,6.93,6.93,0,0,0-5.07-.7,21.64,21.64,0,0,0-20.77,0c-4.18-.24-8.44,3.84-8.47,8-.19.32-.39.64-.56,1-3.22,2.51-5.36,7-2.66,10.09a.45.45,0,0,0,0,.11c-2.54,3.81-1.92,7.76,1.36,9.67a15.92,15.92,0,0,0,4.47,6,19.07,19.07,0,0,0,12.4,4.25,23.1,23.1,0,0,0,5.87,1.4,20.24,20.24,0,0,0,2.05.1c4.47,1.49,9.93.11,11.79-4A16.16,16.16,0,0,0,64,60C68.74,57.87,71.47,52.77,67.8,48.44Z"/><path class="cls-54" d="M53.33,63.79a8.55,8.55,0,0,1-2.62-.42l-.49-.17h-.51A15.5,15.5,0,0,1,48,63.12a19.82,19.82,0,0,1-5.06-1.21l-.55-.21h-.58a16,16,0,0,1-10.35-3.52,12.58,12.58,0,0,1-3.55-4.82l-.42-1-.92-.53a2.5,2.5,0,0,1-1.26-1.6,4.73,4.73,0,0,1,.95-3.5l.44-.65.09-.85v-.12l.16-1.42-1-1a1.59,1.59,0,0,1-.41-1.34,6.64,6.64,0,0,1,2.63-4.08l.57-.43.32-.64c.12-.23.26-.46.4-.68L30,34.7v-.87A5.47,5.47,0,0,1,34.9,29h.17l.9.05.79-.43a19.24,19.24,0,0,1,9.05-2.29,17.7,17.7,0,0,1,8.64,2.23l1.06.59,1.19-.25a4.79,4.79,0,0,1,1.06-.12,3.07,3.07,0,0,1,1.58.37c.32.2.57.45.79,1.69l.19,1,.74.72c3.7,3.58,3.67,8.27,3.32,10.75l-.16,1.14.61,1c.28.46.23.55.1.79l-.45.82s.1,1.37.1,1.45l0,1.13.73.87a3.18,3.18,0,0,1,.87,2.86A6,6,0,0,1,62.68,57l-.73.32-.5.62a13,13,0,0,1-2,2l-.58.48-.31.68c-.74,1.63-2.8,2.68-5.24,2.68Z"/><path class="cls-58" d="M33,45.93a2.06,2.06,0,0,1-.23-.59,4.57,4.57,0,0,1-.48-3.76A1.33,1.33,0,0,1,33,40.14a4.54,4.54,0,0,1,1.66-1.41,4.21,4.21,0,0,1,.07-.94,2.21,2.21,0,0,1-.08-.79,1,1,0,0,0,.09-.26.71.71,0,0,1,.06-.23,2,2,0,0,1,.71-.78,9.84,9.84,0,0,1,3-3c-2.59-1.19-5.41.73-6.08,3.33a4.5,4.5,0,0,0-.14,1.69c-2.26.74-3.31,4.21-1.59,6-.87,1.65.13,4.13,1.69,5.07A8.59,8.59,0,0,1,33,45.93Z"/><path class="cls-58" d="M59.29,46.63a7.18,7.18,0,0,1-.51,3.5,2.81,2.81,0,0,1-.17,1.62A2.63,2.63,0,0,1,56,53.56a5.69,5.69,0,0,1-1.9.73A12.93,12.93,0,0,1,47,58.82c2.43,1.93,6.54.23,7.89-2.6a5.54,5.54,0,0,0,6.48-4A4.67,4.67,0,0,0,59.29,46.63Z"/><path class="cls-58" d="M55.32,33.46a8.64,8.64,0,0,1,2.06,3,.32.32,0,0,1,0-.09c.23-2.08-.19-4.15-2-5.35-1.48-1-4-1.21-5.48,0A8.16,8.16,0,0,1,55.32,33.46Z"/><path class="cls-58" d="M43.77,51.33A5.69,5.69,0,0,1,38,49.52a3.21,3.21,0,0,0,.78,3.36,3.4,3.4,0,0,0,4.27.68c1.33,1.26,3.59.88,5-.63A5.7,5.7,0,0,1,43.77,51.33Z"/><path class="cls-58" d="M45,37c1.68-.86,3.49.09,4.7,1.69a3.68,3.68,0,0,0-1.61-3.43,2.83,2.83,0,0,0-2.86.24c-1.1-.76-2.4-.47-3.55.73a1.23,1.23,0,0,0-.35.91A3.4,3.4,0,0,1,45,37Z"/><path class="cls-58" d="M52.77,40.86a4.7,4.7,0,0,1,.11,3c.11.21.06.41-.24.58a3.21,3.21,0,0,1-1.38,1.4,5.71,5.71,0,0,1-1.38,3.73,2.44,2.44,0,0,0,2.47-1.19,2,2,0,0,0,.31-1.15v-.12a3,3,0,0,0,1.84-.91C56.58,44.24,55.1,41.54,52.77,40.86Z"/><path class="cls-59" d="M73.46,39.42a1.28,1.28,0,0,0-1.09-1.9A2.8,2.8,0,0,1,70,36.76a1.93,1.93,0,0,1-.49-.38c-.12-.38-.25-.77-.39-1.16a4.07,4.07,0,0,1,1.07-2,1.27,1.27,0,0,0,0-2.18c-3.44-1.48-3.31-4.06-3.29-7.27a1.27,1.27,0,0,0-1.26-1.26c-2,0-5.6,1.4-6.3-1.54a1.27,1.27,0,0,0-1.55-.88c-2.1.65-4,1.11-6.06.27-1.66-.67-2.15-1.45-3.21-2.79A1.27,1.27,0,0,0,47,17.34a6,6,0,0,1-5.89.88,1.28,1.28,0,0,0-1.85.75c-.69,2.32-.95,1.92-2.66.5a1.28,1.28,0,0,0-2.15.89,22,22,0,0,1-.14,2.4c-1.47-.66-3.3-1.28-4.65-.44a4.1,4.1,0,0,0-1.42,1.87,5.58,5.58,0,0,1-.65.67,7.68,7.68,0,0,1-2.8,2.4,13.45,13.45,0,0,1-2.06.59c-.86.43-1,.36-1.51,1.33a7,7,0,0,0-.21,2.6c-.08,2.36-.47,3.39-2.49,4.62a1.28,1.28,0,0,0-.45,1.72c1.19,1.84,1.05,3.29-.26,5.05a1.26,1.26,0,0,0,.2,1.52,11,11,0,0,1,2.32,4c0,.6-.06,1.2-.07,1.79a1.15,1.15,0,0,1-.06.17C19.63,52,17.9,53.27,17,54.5a1.27,1.27,0,0,0,.45,1.72c.34.22,2,.9,2.25,1.12,1.94,1.4,2.38,2.09,1.33,4a1.28,1.28,0,0,0,.75,1.85c2,.71,3.24.65,4.95,2S28.88,68,30,69.81a1.29,1.29,0,0,0,1.72.45c2.38-1.38,4.6-3.81,7.31-2.67,2.11.88,2.7,3,4.13,4.68a1.27,1.27,0,0,0,1.53.2,25.8,25.8,0,0,1,4.45-3.2c.49-.12,1-.26,1.46-.42a4,4,0,0,1,3.53,1.58,1.25,1.25,0,0,0,2-.25c1.16-2.19,1.82-3.83,4.48-4.73,2-.67,4.43-.45,6.53-.49a1.26,1.26,0,0,0,1.21-1.59c-1.53-4.4,0-6.54,4.66-6.8A1.27,1.27,0,0,0,74,54.68c-.66-1-3.3-4.71-.24-4.62a1.26,1.26,0,0,0,1.09-1.89C72.77,45.29,71.85,42.84,73.46,39.42Z"/><path class="cls-60" d="M74.52,33.35A7.26,7.26,0,0,0,76.18,31a4.61,4.61,0,0,1,.66-1.24,1.07,1.07,0,0,1,1.27-.34,1.2,1.2,0,0,1,.44.48,2.4,2.4,0,0,1-.7,2.85,3.3,3.3,0,0,1-3,.47Z"/><path class="cls-59" d="M73.46,39.42a1.28,1.28,0,0,0-1.09-1.9A2.8,2.8,0,0,1,70,36.76a1.93,1.93,0,0,1-.49-.38c-.12-.38-.25-.77-.39-1.16a4.07,4.07,0,0,1,1.07-2,1.27,1.27,0,0,0,0-2.18c-3.44-1.48-3.31-4.06-3.29-7.27a1.27,1.27,0,0,0-1.26-1.26c-2,0-5.6,1.4-6.3-1.54a1.27,1.27,0,0,0-1.55-.88c-2.1.65-4,1.11-6.06.27-1.66-.67-2.15-1.45-3.21-2.79A1.27,1.27,0,0,0,47,17.34a6,6,0,0,1-5.89.88,1.28,1.28,0,0,0-1.85.75c-.69,2.32-.95,1.92-2.66.5a1.28,1.28,0,0,0-2.15.89,22,22,0,0,1-.14,2.4c-1.47-.66-3.3-1.28-4.65-.44a4.1,4.1,0,0,0-1.42,1.87,5.58,5.58,0,0,1-.65.67,7.68,7.68,0,0,1-2.8,2.4,13.45,13.45,0,0,1-2.06.59c-.86.43-1,.36-1.51,1.33a7,7,0,0,0-.21,2.6c-.08,2.36-.47,3.39-2.49,4.62a1.28,1.28,0,0,0-.45,1.72c1.19,1.84,1.05,3.29-.26,5.05a1.26,1.26,0,0,0,.2,1.52,11,11,0,0,1,2.32,4c0,.6-.06,1.2-.07,1.79a1.15,1.15,0,0,1-.06.17C19.63,52,17.9,53.27,17,54.5a1.27,1.27,0,0,0,.45,1.72c.34.22,2,.9,2.25,1.12,1.94,1.4,2.38,2.09,1.33,4a1.28,1.28,0,0,0,.75,1.85c2,.71,3.24.65,4.95,2S28.88,68,30,69.81a1.29,1.29,0,0,0,1.72.45c2.38-1.38,4.6-3.81,7.31-2.67,2.11.88,2.7,3,4.13,4.68a1.27,1.27,0,0,0,1.53.2,25.8,25.8,0,0,1,4.45-3.2c.49-.12,1-.26,1.46-.42a4,4,0,0,1,3.53,1.58,1.25,1.25,0,0,0,2-.25c1.16-2.19,1.82-3.83,4.48-4.73,2-.67,4.43-.45,6.53-.49a1.26,1.26,0,0,0,1.21-1.59c-1.53-4.4,0-6.54,4.66-6.8A1.27,1.27,0,0,0,74,54.68c-.66-1-3.3-4.71-.24-4.62a1.26,1.26,0,0,0,1.09-1.89C72.77,45.29,71.85,42.84,73.46,39.42Z"/><path class="cls-60" d="M31.6,18a6.33,6.33,0,0,1-2.26-1.79,2.19,2.19,0,0,1,0-2.68,3.25,3.25,0,0,1,1.88-.7.67.67,0,0,1,.42,0,.59.59,0,0,1,.22.33,8.27,8.27,0,0,1,.18,5Z"/><path class="cls-61" d="M74.52,33.35A7.26,7.26,0,0,0,76.18,31a4.61,4.61,0,0,1,.66-1.24,1.07,1.07,0,0,1,1.27-.34,1.2,1.2,0,0,1,.44.48,2.4,2.4,0,0,1-.7,2.85,3.3,3.3,0,0,1-3,.47Z"/><path class="cls-60" d="M35.78,73.37l-3,3.49a.78.78,0,0,0-.22.42c0,.31.35.49.66.5a2.5,2.5,0,0,1,.91,0,1.12,1.12,0,0,0,.61,1.27,1.13,1.13,0,0,0,1.35-.39c.12-.18.2-.42.41-.51a1.83,1.83,0,0,1,.4,0c.77-.11.86-1.18.75-2a1,1,0,0,0-.21-.55,1.25,1.25,0,0,0-.67-.23,1.62,1.62,0,0,1-1-2.23Z"/><path class="cls-62" d="M31.6,18a6.33,6.33,0,0,1-2.26-1.79,2.19,2.19,0,0,1,0-2.68,3.25,3.25,0,0,1,1.88-.7.67.67,0,0,1,.42,0,.59.59,0,0,1,.22.33,8.27,8.27,0,0,1,.18,5Z"/><path class="cls-63" d="M35.78,73.37l-3,3.49a.78.78,0,0,0-.22.42c0,.31.35.49.66.5a2.5,2.5,0,0,1,.91,0,1.12,1.12,0,0,0,.61,1.27,1.13,1.13,0,0,0,1.35-.39c.12-.18.2-.42.41-.51a1.83,1.83,0,0,1,.4,0c.77-.11.86-1.18.75-2a1,1,0,0,0-.21-.55,1.25,1.25,0,0,0-.67-.23,1.62,1.62,0,0,1-1-2.23Z"/></g></g></g></svg>