<svg xmlns="http://www.w3.org/2000/svg" viewBox="0 0 85.03 90.8"><defs><style>.cls-1{fill:#deded9;}.cls-2{fill:#cdcdc6;}.cls-3{fill:#a2a295;}.cls-4{fill:#797976;}.cls-5{fill:#328bf6;}.cls-6{fill:#585854;}.cls-7{fill:#aaaa9f;}.cls-8{fill:#0b75f4;}.cls-9{fill:#7f87c2;}.cls-10{fill:#d5d5cf;}.cls-11{fill:#525dad;}.cls-12{fill:#59a1f8;}.cls-13{fill:#3d49a3;}.cls-14{fill:#d5d5d4;}.cls-15{fill:#6a73b8;}</style></defs><g id="Layer_2" data-name="Layer 2"><g id="Layer_2-2" data-name="Layer 2"><path class="cls-1" d="M34.06,13.28c-.13,1.24-.25,2.47-.39,3.71-.2,1.76-.42,3.51-.63,5.27l-.36,3L32.13,25a1.22,1.22,0,0,0-1-.44H29.41l-1.2-2.3c-.11-.2-.22-.39-.48-.44a1,1,0,0,0-.8-.34c-1.08,0-2.15,0-3.23-.09a1.14,1.14,0,0,0-1.1.54c-.49.71-1,1.39-1.54,2.1a.61.61,0,0,1-.54.32c-1.06,0-2.12,0-3.17,0-.31,0-.46-.07-.34-.43.44-1.39.85-2.78,1.26-4.17,0-.14.08-.25.24-.27,1.41.22,2.83.05,4.24.18.28,0,.28-.17.3-.37.06-.56.12-1.13.2-1.69.06-.35,0-.52-.43-.52-1.21,0-2.41-.06-3.62-.09a1.43,1.43,0,0,1,.34-1,1,1,0,0,0,.21.09c1.11,0,2.22.06,3.34.11.26,0,.31-.12.33-.34,0-.51.1-1,.17-1.52.06-.35,0-.53-.42-.54-1,0-2,0-3-.07,0-.29-.08-.64.33-.77a8.28,8.28,0,0,0,1.57.09c.51,0,1.13.18,1.49,0s.2-.93.27-1.43a2.56,2.56,0,0,1,.05-.27c.07-.36-.05-.53-.44-.53L21.8,10.6c-.2-.13-.58.14-.65-.23a.38.38,0,0,1,.32-.5c.51,0,1,.08,1.52.1,1,0,1,0,1.12-.92,0-.3.05-.61.09-.9s-.08-.53-.46-.52c-.57,0-1.13,0-1.7,0a3.41,3.41,0,0,1,.28-1.13c.28-1.11.74-2.16.92-3.29.38,0,.5.42.78.46.58.1.58.5.64.93s.05.92.56,1.14a.65.65,0,0,0,.66.32,21.15,21.15,0,0,1,2.25.08A2.63,2.63,0,0,0,30,6,9.62,9.62,0,0,0,32.14,4.1a14.57,14.57,0,0,1,3,.11A7.88,7.88,0,0,1,35,5.66l0,.59,0,.12c-.12.57,0,1.17-.29,1.7-2.45-.09-4.91-.17-7.36-.28-.35,0-.42.11-.45.4-.08,1-.19,2-.3,2.94-.28,2.64-.56,5.29-.86,7.94,0,.43.05.63.53.59a6.28,6.28,0,0,1,1.3,0c.44.06.53-.1.57-.51.18-1.84.4-3.68.59-5.52,0-.39.18-.53.6-.51C30.85,13.22,32.45,13.24,34.06,13.28Z"/><path class="cls-2" d="M38.49,56.19A13.37,13.37,0,0,1,38,60a4.56,4.56,0,0,1-.9,1.48.54.54,0,0,1-.44.2h-3.1a1.27,1.27,0,0,0-.72-.12c-3.09,0-6.18.09-9.28.12-.3,0-.64.13-.92-.12a2.69,2.69,0,0,0,.48-3c-.15-.3-.22-.64-.53-.13-.09.16-.24.15-.4.14a9.76,9.76,0,0,0,.13-5.69c.31,0,.29.3.41.47s.22.27.42.21.34-.17.31-.41,0-.52-.07-.78-.1-.29.07-.35a8.15,8.15,0,0,1,2.59-.9c3.38,0,6.75,0,10.13,0a.58.58,0,0,1,.66.51,2.54,2.54,0,0,0,.51,1.25,2.42,2.42,0,0,0-.25-1.22c-.12-.4,0-.57.41-.56s.27.63.59.82c-.22.17,0,.36,0,.52A13.49,13.49,0,0,1,38.49,56.19Z"/><path class="cls-1" d="M33,66.27a25.22,25.22,0,0,1,.47,2.89c.37,2.45.73,4.91,1.08,7.36a5.45,5.45,0,0,1,.13,1.4,1.31,1.31,0,0,0-.62-.07c-1.41,0-2.83.07-4.24.14-.37,0-.51-.08-.56-.48-.23-1.83-.52-3.66-.75-5.5-.05-.41-.23-.51-.59-.48s-.87.08-1.3.08c-.69,0-.7,0-.61.63.49,3.48,1,7,1.44,10.44.06.47.25.54.65.52,1.5-.06,3-.06,4.48-.16a19,19,0,0,0,2.82-.16l.21.63c0,.26.18.48.12.74-.09.09-.16.19-.32.19a10.47,10.47,0,0,0-2.53.38c-.53.15-.71.32-.64.83a1.8,1.8,0,0,1,0,.4c-.78-.49-1.38-1.3-2.4-1.36s-2.26,0-3.39.08S25.29,84.81,25,86a.45.45,0,0,0,0,.11c0,.32-.22.35-.46.36s-.77.24-.91-.15a13.2,13.2,0,0,1-.92-2.94c.62,0,1.24,0,1.86,0,.34,0,.44-.13.38-.44a8.14,8.14,0,0,1-.17-1.29c0-.5-.23-.57-.66-.54-.7.06-1.39.06-2.09.08a.59.59,0,0,1-.24-.7l2.53-.06c.22,0,.29-.09.26-.32-.09-.52-.15-1-.21-1.56,0-.31-.2-.43-.49-.38-.92.14-1.84,0-2.76.1-.39-.14-.36-.47-.35-.78,1,.09,2.11-.06,3.16,0,.3,0,.27-.21.24-.4A9.5,9.5,0,0,1,24,75.72c0-.6-.33-.71-.79-.65-.93.13-1.85,0-2.78.09-.71.07-.72-.46-.79-.94l3.68,0c.34,0,.47-.14.41-.48-.09-.54-.17-1.09-.22-1.63,0-.29-.14-.38-.42-.37L19,71.76c-.26-.05-.3-.26-.37-.45-.14-.43-.29-.85-.42-1.28-.45-1.47-1.05-2.9-1.41-4.39l0,0c.48.17.78.6,1.23.81l.22.11a2.38,2.38,0,0,0,1.44.09,2,2,0,0,1,2.19,1.05,4.73,4.73,0,0,0,1.92,1.92,1,1,0,0,0,.32.12c1.2,0,2.41,0,3.61,0a.91.91,0,0,0,.83-.58c.28-.6.6-1.18.92-1.75.18-.32.25-.72.58-.95A23.85,23.85,0,0,0,33,66.27Z"/><path class="cls-1" d="M38.49,56.19a13.49,13.49,0,0,0-.44-3.8c0-.16-.22-.35,0-.52,1.21.64,2.49,1.2,3.64,2a3.27,3.27,0,0,0,3.7.26c3.22-1.62,6.55-3,9.84-4.48a.55.55,0,0,0,.41-.58c0-2,0-4,0-6,0-.18.07-.4-.21-.45C54.28,42,53.1,41.45,51.91,41a10.8,10.8,0,0,0-1.61-.77.06.06,0,0,0-.07,0A35.55,35.55,0,0,0,45,37.76a4.72,4.72,0,0,0-1.24-.49l.07-.15a8.93,8.93,0,0,1,2.18.75,23.32,23.32,0,0,0,3.27,1.22s.07.14.13.16c1.92.78,3.84,1.54,5.77,2.31.32.32.79.12,1.14.33-.09.24-.35.39-.39.67.19.15.41.09.61.1.68,0,1.36.08,2,.08,1.41,0,2.82.2,4.23.12l.55,0a1,1,0,0,0,.81.1h.55a1.12,1.12,0,0,0,.93.1H66a1.75,1.75,0,0,0,1.15.11h.21a9.35,9.35,0,0,0,2.74.22h.33a1.44,1.44,0,0,0,1,.09l.55,0a1.25,1.25,0,0,0,.93.09l.65,0a1,1,0,0,0,.82.07l.88,0a2.21,2.21,0,0,0,1.11.12c.3,0,.39.13.38.41,0,.83,0,1.67,0,2.49s0,1.5-.83,1.88c-.63,0-1.2.37-1.85.33.32-.28.79-.32,1.16-.69l-1.1,0-5.6.44c-2.3.18-4.6.33-6.89.56-1.35.13-2.69.35-4,.5a13.44,13.44,0,0,0-2.59.56c-1,.31-1.85.76-2.78,1.14-2.71,1.11-5.4,2.27-8.14,3.3a2.88,2.88,0,0,0-1.64,1.41C41.14,56.36,39.82,56.1,38.49,56.19Z"/><path class="cls-2" d="M37.41,30.63a5.33,5.33,0,0,1,.73,2.26c.2,1,.14,2,.24,3a11.41,11.41,0,0,1-1.11,4.63c-.12.18-.25.36-.37.55a.2.2,0,0,0-.22.11,6.82,6.82,0,0,1-1,.12c-.71,0-1.42-.09-2.12-.1-2.2,0-4.41,0-6.61,0-.2,0-.42-.07-.59.1a2.12,2.12,0,0,0-.66-.11,34.37,34.37,0,0,0-3.66,0,1.71,1.71,0,0,0,.68-2.13c-.17-.41-.29-.57-.69-.33,0-.15,0-.3.08-.44a10.33,10.33,0,0,0,.15-4.94c.24-.07.4,0,.44.25a.68.68,0,0,0,.26.56c.21-.33.61-.5.51-1s-.07-.64-.14-1,.07-.36.32-.36.51.08.56-.29c0-.18.2-.12.33-.11s.42,0,.62,0l11.23.12c.35,0,.45.1.54.45a14.87,14.87,0,0,1,.28,4.51,8.06,8.06,0,0,1-1,4c-.07.12-.25.25-.06.51a5.75,5.75,0,0,0,.79-1.43,16.14,16.14,0,0,0,.41-6.84A11,11,0,0,1,37.41,30.63Z"/><path class="cls-3" d="M6.91,40.83c-.14,0-.35.13-.42,0-.27-.52-.7-.27-1.09-.28q-2,0-3.9-.12a.79.79,0,0,1-.75-.57,9.2,9.2,0,0,1-.48-2.26H.44c.13.53.25,1.07.38,1.6a.51.51,0,0,0,.41.42c.24,0,.35-.21.41-.4A8.29,8.29,0,0,0,2,38.11a21.11,21.11,0,0,0,.1-5,3.76,3.76,0,0,0-.46-1.85c-.24-.38-.43-.4-.64,0a8.39,8.39,0,0,0-.38,1.06H.42A4.87,4.87,0,0,1,.73,31a1,1,0,0,1,1.05-.75A33.19,33.19,0,0,1,6,30.32c.09,0,.22,0,.27,0A2.42,2.42,0,0,1,8,30a23.37,23.37,0,0,1,4,.09c.54.11.52-.33.56-.63.29-2.14.55-4.28.81-6.42s.46-4,.7-6,.5-4.25.8-6.36a3,3,0,0,1,.31-1.53c.5,1.09,1,2.2,1.51,3.28S17.57,15,19,15.68a3.25,3.25,0,0,1-.06.45c-.8,2.59-1.62,5.17-2.4,7.76S14.8,29,14.2,31.68H14l-.24-.52a.53.53,0,0,0-.82-.31c-1.5.79-3.17,1.19-4.6,2.16a.87.87,0,0,0-.48.84,29,29,0,0,1,0,2.95A8.57,8.57,0,0,1,6.91,40.83ZM5.59,35.52a14.55,14.55,0,0,0,.34,3.34c.11.45.2,1.15.68,1.12s.69-.71.78-1.24a21.27,21.27,0,0,0,.2-5.8A4,4,0,0,0,7,31c-.22-.32-.44-.24-.63,0a1.42,1.42,0,0,0-.2.41A14.3,14.3,0,0,0,5.59,35.52Z"/><path class="cls-4" d="M23.83,69.57a4.73,4.73,0,0,1-1.92-1.92,2,2,0,0,0-2.19-1.05,2.38,2.38,0,0,1-1.44-.09,3.35,3.35,0,0,0,.36-1.84c0-1.77-.2-3.54-.13-5.31a7,7,0,0,1,1.83-.07,6.27,6.27,0,0,0,2,2.13h0l.1.1h.12c.28.25.62.12.92.12,3.1,0,6.19-.08,9.28-.12a1.27,1.27,0,0,1,.72.12c0,.83,0,1.65,0,2.47A2.89,2.89,0,0,1,33,66.27a23.85,23.85,0,0,1-2.93.13c-.16-.52-.57-.23-.86-.23l-6.91.12c-.16,0-.37-.08-.46.11s.09.27.17.39c.53.69,1,1.38,1.6,2.06A.77.77,0,0,1,23.83,69.57Z"/><path class="cls-3" d="M7.16,61a.59.59,0,0,1-.84-.41c-.1-.32-.29-.39-.63-.35-1.53.15-3.06,0-4.59,0-.28,0-.32-.22-.4-.4A9.71,9.71,0,0,1,0,56.16a15.62,15.62,0,0,1,.33-4.62c0-.11,0-.22.08-.33.3-1,.3-1,1.36-1s2-.12,3.06-.09,2,.14,3.05.1c.41,0,.56-.09.52-.53a78.36,78.36,0,0,1,0-8.67H9.66a11.25,11.25,0,0,0-.21,2.32c0,.32,0,.75.55.74a38.23,38.23,0,0,0,0,3.86.69.69,0,0,0-.25.1,2.94,2.94,0,0,0-.28,1.93c.12.19.7.18.71,0,.05-.55.43-.41.74-.42h1.24c0,.46,0,.88.63.82a.43.43,0,0,1,.38.2,33.62,33.62,0,0,0-4.35,2A1.38,1.38,0,0,0,7.93,54C8,56.32,8.24,58.72,7.16,61Zm.69-5.21A14.85,14.85,0,0,0,7.4,52c-.11-.4-.29-.91-.7-.92s-.49.54-.59.91a16.22,16.22,0,0,0-.23,6.13,4.79,4.79,0,0,0,.52,1.84.41.41,0,0,0,.75.05,1.55,1.55,0,0,0,.26-.55A13.59,13.59,0,0,0,7.85,55.75ZM2,55.39a15.16,15.16,0,0,0-.45-3.77c-.08-.28-.16-.67-.48-.7s-.34.42-.48.66a1.26,1.26,0,0,0-.1.33A15.41,15.41,0,0,0,.6,58.8a1.44,1.44,0,0,0,.22.47c.19.32.41.3.58,0a3.09,3.09,0,0,0,.23-.57A13.81,13.81,0,0,0,2,55.39Z"/><path class="cls-2" d="M7.16,61c1.08-2.24.79-4.64.77-7a1.38,1.38,0,0,1,.89-1.44,33.62,33.62,0,0,1,4.35-2A2.82,2.82,0,0,1,14,51.78c.06.21,0,.46.16.65.06.46.13.92.17,1.38a12.33,12.33,0,0,1,.1,2.85c-.13.9-.25,1.81-.38,2.71A2,2,0,0,1,12.16,61a.62.62,0,0,0-.44.08h-4C7.56,61.05,7.34,61.13,7.16,61Z"/><path class="cls-2" d="M9.66,41H8.47l-1.56-.16a8.57,8.57,0,0,0,.92-4,29,29,0,0,0,0-2.95A.87.87,0,0,1,8.31,33c1.43-1,3.1-1.37,4.6-2.16a.53.53,0,0,1,.82.31l.24.52a.55.55,0,0,0,.12.46c0,.41.07.82.13,1.23a12.81,12.81,0,0,1-.1,4.74A3.25,3.25,0,0,0,14,39.27c-.35.81-.75,1.55-1.79,1.58l-.26,0A2.33,2.33,0,0,0,11,41Z"/><path class="cls-5" d="M35.42,82.88A19,19,0,0,1,32.6,83c-1.49.1-3,.1-4.48.16-.4,0-.59,0-.65-.52-.46-3.49-.95-7-1.44-10.44-.09-.65-.08-.64.61-.63.43,0,.87,0,1.3-.08s.54.07.59.48c.23,1.84.52,3.67.75,5.5,0,.4.19.5.56.48,1.41-.07,2.83-.17,4.24-.14a1.31,1.31,0,0,1,.62.07c.24,1.61.48,3.22.73,4.83Z"/><path class="cls-5" d="M34.06,13.28c-1.61,0-3.21-.06-4.82-.13-.42,0-.56.12-.6.51-.19,1.84-.41,3.68-.59,5.52,0,.41-.13.57-.57.51a6.28,6.28,0,0,0-1.3,0c-.48,0-.58-.16-.53-.59.3-2.65.58-5.3.86-7.94.11-1,.22-2,.3-2.94,0-.29.1-.41.45-.4,2.45.11,4.91.19,7.36.28,0,1.26-.27,2.5-.38,3.76C34.2,12.31,34.12,12.8,34.06,13.28Z"/><path class="cls-2" d="M19,15.68c-1.4-.66-1.66-2.1-2.25-3.3s-1-2.19-1.51-3.28a3.55,3.55,0,0,1,.06-1.83c.15-1.39.34-2.78.51-4.18,1.47-.13,2.93.19,4.39.08.11.14.16.34.38.35.52.06,1.07.38,1.49-.22a1.36,1.36,0,0,0,.8,0c-.12.41-.22.84-.36,1.25C22,6.08,21.6,7.64,21,9.14l-1.3,0c-.29,0-.4.09-.41.39,0,.56-.12,1.12-.17,1.68-.1,1.08-.18,2.17-.28,3.25,0,.36.11.48.44.47A2.64,2.64,0,0,1,19,15.68Z"/><path class="cls-4" d="M33,25.64c.21.12.21.33.21.54,0,1,0,1.93,0,2.89-.49,0-1-.09-1.47-.1-3.7-.06-7.4-.09-11.11-.13a1.56,1.56,0,0,0-1.63.83c-.07.14-.18.33-.39.24s-.16-.24-.16-.39c0-1.18,0-2.35,0-3.52,0-.31.13-.44.44-.45.51,0,1,.08,1.52.09,2.15.06,4.3,0,6.46.12,1.71.1,3.43-.07,5.15.11C32.29,25.9,32.71,26.06,33,25.64Z"/><path class="cls-2" d="M23.08,86.12c-.74,0-1.47.1-2.2.12l-6.23.15c0-.22-.08-.44-.1-.66-.09-1-.11-1.91-.27-2.84-.07-.42.1-.9-.24-1.27l0-.24c.15-.12.08-.29.1-.45l5.83-.22c.31,0,.49,0,.58.41.2.87.23.87,1.19.84C22.17,83.34,22.71,84.7,23.08,86.12Z"/><path class="cls-2" d="M74.08,49c.65,0,1.22-.33,1.85-.33,0,.06.08.17.12.18.3,0,.92-.58.92-.9,0-1.29,0-2.57,0-3.86,0-.12,0-.31-.09-.35-.55-.17-.92-.61-1.49-.76a3.52,3.52,0,0,1-1.85-.86l.24,0a1.21,1.21,0,0,0,.63.21,4.82,4.82,0,0,1,2.65,1.13c.16.17.42.14.64.14a27.2,27.2,0,0,1,4.6.28A3.19,3.19,0,0,0,84,44.5c.84.19,1,.38,1,1.19,0,.55.2,1.25-.42,1.58a19.17,19.17,0,0,1-6.85,2.23c-1.14.12-2.28.29-3.42.41-.32,0-.67.16-1-.07a1,1,0,0,0,.12-.57ZM81,47c-1-.22-1.93,0-2.9-.2V47Z"/><path class="cls-5" d="M74.08,49l-.63.24c-.23,0-.46,0-.68,0-2.68.33-5.36.65-8,1-1.66.22-3.33.39-5,.67-4.47.75-8.54,2.66-12.75,4.19l-.21,0a.19.19,0,0,0-.24.08l-3.69,1c-.13,0-.26,0-.39.06a2.88,2.88,0,0,1,1.64-1.41c2.74-1,5.43-2.19,8.14-3.3.93-.38,1.83-.83,2.78-1.14a13.44,13.44,0,0,1,2.59-.56c1.34-.15,2.68-.37,4-.5,2.29-.23,4.59-.38,6.89-.56l5.6-.44,1.1,0C74.87,48.71,74.4,48.75,74.08,49Z"/><path class="cls-3" d="M37.41,30.63a11,11,0,0,0-.09,2.23,16.14,16.14,0,0,1-.41,6.84,5.75,5.75,0,0,1-.79,1.43c-.19-.26,0-.39.06-.51a8.06,8.06,0,0,0,1-4,14.87,14.87,0,0,0-.28-4.51c-.09-.35-.19-.44-.54-.45l-11.23-.12c-.2,0-.41,0-.62,0s-.3-.07-.33.11c-.05.37-.32.3-.56.29s-.39.05-.32.36.08.63.14,1-.3.64-.51,1a.68.68,0,0,1-.26-.56c0-.28-.2-.32-.44-.25a6,6,0,0,0-.15-.64c-.09-.25-.13-.58-.53-.49v-.33A13.07,13.07,0,0,0,22.15,30c.05-.2.06-.45.36-.42,1.59.18,3.19,0,4.79.08.58,0,1.17,0,1.75,0a38.84,38.84,0,0,0,3.89.06c.08,0,.16-.08.23-.12l3,0A1.36,1.36,0,0,1,37.41,30.63Z"/><path class="cls-6" d="M33.17,29.61c-.07,0-.15.13-.23.12a38.84,38.84,0,0,1-3.89-.06c-.58-.07-1.17,0-1.75,0-1.6,0-3.2.1-4.79-.08-.3,0-.31.22-.36.42a13.07,13.07,0,0,1-.57,1.94,1.13,1.13,0,0,0-.54-.13l-4-.11c0-1.07.3-2.11.35-3.18s.21-2.13.32-3.19c0-.24.13-.46.42-.44a14,14,0,0,1,3.42.18,1.39,1.39,0,0,0,1-.05l3.72.06a4.14,4.14,0,0,0,2.18.05h.91c.57,0,1.13,0,1.7,0,.34,0,.7.12,1-.11l.55.26.27.41c-.24.42-.66.26-1,.23-1.72-.18-3.44,0-5.15-.11-2.16-.13-4.31-.06-6.46-.12-.51,0-1-.1-1.52-.09-.31,0-.45.14-.44.45,0,1.17,0,2.34,0,3.52,0,.15,0,.33.16.39s.32-.1.39-.24a1.56,1.56,0,0,1,1.63-.83c3.71,0,7.41.07,11.11.13.49,0,1,.09,1.47.1Z"/><path class="cls-6" d="M20.55,3.52c-.22,0-.27-.21-.38-.35a8.44,8.44,0,0,1,0-1.74c.09-.44.26-.72.79-.65s.85-.07,1.19.47c.2.31.88.23,1.34,0,.33,0,.5-.38.87-.36,1.47.06,2.94.08,4.41.14l6.31.32c.34,0,.44-.14.41-.44.34-.48.72-.88,1.39-.69.3.08.45-.27.77-.24a1.67,1.67,0,0,1,1.46,1.49c0,.15,0,.3,0,.45a.67.67,0,0,0-.75.43,3.2,3.2,0,0,0-.36,1,4.28,4.28,0,0,1-.73,2.13l-.21,0s0,0,0,0a2.06,2.06,0,0,1,.21-.39,2.6,2.6,0,0,0,.54-1.78c0-.54-.41-.38-.66-.47s-.35.11-.38.34a4.31,4.31,0,0,1-.68,2.09,1.11,1.11,0,0,1-.7-1.08,1.9,1.9,0,0,0,.47-1c0-.25,0-.39-.33-.4-.67,0-1.35-.1-2-.12-.85,0-1.7-.06-2.54-.12-2-.14-4-.27-6-.32-.22,0-.43,0-.58.22s-.52.2-.57,0c-.12-.38-.4-.32-.66-.39a7.35,7.35,0,0,1-.91-.28c-.42-.15-1.42.34-1.44.76A2.79,2.79,0,0,1,20.55,3.52Z"/><path class="cls-7" d="M23.08,86.12c-.37-1.42-.91-2.78-1.39-4.16a11.7,11.7,0,0,0-.83-2.3.6.6,0,0,0-.18-.58,2.14,2.14,0,0,0-.06-.27c-.69-1.85-1.27-3.73-1.88-5.6-.31-.89-.61-1.79-.91-2.68-.56-1.62-1-3.26-1.7-4.84a1.74,1.74,0,0,0-.08-.5,38.73,38.73,0,0,1-1.74-5.8l3,0a22.72,22.72,0,0,0,.29,2.74c.16,1.44.34,2.87.51,4.3-.45-.21-.75-.64-1.23-.81l-.08,0,0,.09c.36,1.49,1,2.92,1.41,4.39.13.43.28.85.42,1.28.07.19.11.4.37.45a1.31,1.31,0,0,0,.13.7,15.53,15.53,0,0,1,.54,1.76c.07.48.08,1,.79.94-.28.11-.38.26-.24.59.23.55.39,1.12.58,1.69,0,.31,0,.64.35.78a14.53,14.53,0,0,0,.67,2.22.59.59,0,0,0,.24.7c.15.75.58,1.43.68,2.2a13.2,13.2,0,0,0,.92,2.94c.14.39.59.17.91.15s.47,0,.46-.36A.45.45,0,0,1,25,86c.25-1.15.26-1.13,1.42-1.19s2.26-.12,3.39-.08c0,.23-.17.21-.32.22l-2.7.12c-.2,0-.42-.06-.6.1s-.32.18-.34.42c-.06.47-.15.94-.22,1.41-.35.13-.8,0-1.07.33a.9.9,0,0,1-.84.36l-.14,0A8.75,8.75,0,0,0,23.08,86.12Z"/><path class="cls-4" d="M23.62,87.63l.14,0c.26.16.66.12.72.59,0,.27.38.2.59.16s.2-.26.16-.45-.1-.49-.15-.76c1.11,0,2.17-.17,3.25-.13A11.2,11.2,0,0,0,30,87c1.85-.19,3.7,0,5.54-.18.22,0,.52,0,.59.32a1.88,1.88,0,0,0,.34.64c.27.39,0,1.16-.35,1.18-1.44.08-2.89.18-4.34.22-1.06,0-2.11.08-3.16.17a17.73,17.73,0,0,0-2.82.17c-.33.07-.61,0-.56-.44a.43.43,0,0,0-.33-.42c-.11,0-.28,0-.3.07-.1.65-.6.41-1,.47s-.56-.17-.67.23a.22.22,0,0,1-.1.22H22.1c-.2,0-.42-.06-.4-.3.06-.73-.19-1.45-.13-2.18.49,0,1-.23,1.37.4C23.05,87.8,23.38,87.64,23.62,87.63Z"/><path class="cls-4" d="M38.26,85.14c.89.08,1.65.39,1.71,1.3,0,.55.28.73.87.69a24.18,24.18,0,0,1,5-.15c2.11.31,4.17-.11,6.25,0,.13.3.3.58.11.91L49.15,88a2.68,2.68,0,0,0-1.68,0c-.39.2-.92-.1-1.26.33-.1-.15-.25-.13-.4-.13-1.71-.08-3.4.17-5.11.12-.22,0-.45,0-.51.33s.08.81-.24,1.14c-.16,0-.33,0-.46.14s-.28.33-.46.23-.07-.34-.08-.52C38.85,88.12,39.31,86.51,38.26,85.14Z"/><path class="cls-6" d="M38.26,85.14c1.05,1.37.59,3,.69,4.5,0,.18-.11.43.08.52s.35-.07.46-.23.3-.12.46-.14c-.36.89-1.09,1.21-1.8.79,0-.23-.07-.35-.31-.34s-.55-.06-.61.32c-.35-.07-.46-.48-.79-.59,0-.22.1-.46-.29-.53a15,15,0,0,0-2.59-.09.26.26,0,0,0-.31.18h-.78a2.63,2.63,0,0,0-1.83.1l-.89,0a2.09,2.09,0,0,0-1.61.08l-1,0a2.34,2.34,0,0,0-1.61.06,1.06,1.06,0,0,1-.66,0,1.34,1.34,0,0,0-.62-.43l-1.31.09c.11-.4.43-.2.67-.23s.87.18,1-.47c0-.12.19-.12.3-.07a.43.43,0,0,1,.33.42c-.05.46.23.51.56.44a17.73,17.73,0,0,1,2.82-.17c1.05-.09,2.1-.13,3.16-.17,1.45,0,2.9-.14,4.34-.22.39,0,.62-.79.35-1.18a1.88,1.88,0,0,1-.34-.64c-.07-.31-.37-.34-.59-.32-1.84.21-3.69,0-5.54.18a11.2,11.2,0,0,1-1.64,0c-1.08,0-2.14.1-3.25.13.05.27.09.52.15.76s.12.4-.16.45-.55.11-.59-.16c-.06-.47-.46-.43-.72-.59a.9.9,0,0,0,.84-.36c.27-.35.72-.2,1.07-.33,2.39,0,4.77-.14,7.15-.25,1,.09,2.06-.15,3.1-.1.21,0,.42,0,.42-.33.2-.63.55-1.06,1.29-.91C37.91,85.43,38,85,38.26,85.14Zm-1.07.57a1.41,1.41,0,0,1,.3.58,7.77,7.77,0,0,1,.21,3c0,.24-.06.53.33.49s.69,0,.69-.46,0-1.25,0-1.87C38.6,86.08,38.33,85.78,37.19,85.71Z"/><path class="cls-7" d="M37.27,40.55a11.41,11.41,0,0,0,1.11-4.63c1.36,0,2.71-.22,4.08-.16.4.51.68,1.13,1.36,1.36l-.07.15a.64.64,0,0,0-.43.1c-.92.49-1.82,1-2.75,1.47C39.47,39.4,38.42,40.07,37.27,40.55Z"/><path class="cls-7" d="M73.54,42.15a3.52,3.52,0,0,0,1.85.86c.57.15.94.59,1.49.76.14,0,.09.23.09.35,0,1.29,0,2.57,0,3.86,0,.32-.62.92-.92.9,0,0-.08-.12-.12-.18.85-.38.87-1.1.83-1.88s0-1.66,0-2.49c0-.28-.08-.39-.38-.41a2.21,2.21,0,0,1-1.11-.12,3.31,3.31,0,0,0-1.94-1c-1.32-.21-2.66-.34-4-.5-2-.25-4-.49-6.05-.77a36.88,36.88,0,0,1-4.3-.65c-1.56-.43-3.15-.78-4.72-1.16l-5.71-2.34c-.17-.12-.42-.08-.55-.28a18.63,18.63,0,0,1,3,1.06,49.34,49.34,0,0,0,8.53,2.4c2.56.49,5.17.64,7.75,1,1.78.23,3.57.41,5.35.63A2,2,0,0,0,73.54,42.15Z"/><path class="cls-4" d="M37.33,5.55a4.28,4.28,0,0,0,.73-2.13,3.2,3.2,0,0,1,.36-1,.67.67,0,0,1,.75-.43l.11.26c-.06.43.13.56.55.54a12.83,12.83,0,0,1,1.64,0c1.89.14,3.79.22,5.67.42,1.31.14,2.63.17,3.94.24.13,0,.29,0,.32.16s-.08.24-.21.3a32.29,32.29,0,0,0-5.37-.18,50.41,50.41,0,0,1-6.27,0c-.4,0-.45.21-.45.47a2,2,0,0,1-.57,1.2c-.21.25-.63,0-.77.38Z"/><path class="cls-1" d="M47,55.17c4.21-1.53,8.28-3.44,12.75-4.19,1.66-.28,3.33-.45,5-.67,2.67-.36,5.35-.68,8-1,.22,0,.45,0,.68,0a1,1,0,0,1-.12.57c-1.2.12-2.4.22-3.59.36-1.44.16-2.87.41-4.31.52a51.47,51.47,0,0,0-9.92,1.77c-2.38.66-4.66,1.63-7,2.38A3.33,3.33,0,0,1,47,55.17Z"/><path class="cls-4" d="M52.78,85.88a2,2,0,0,1,1.49.17l.16,1.72a9.11,9.11,0,0,0,.74-2,6.55,6.55,0,0,1,1.32-.25c.36-.08.34.21.38.42.17.93.16.93,1.1.93.74,0,1.47,0,2.21,0,.19,0,.52-.15.55.19s-.32.23-.5.25a24.17,24.17,0,0,0-2.42.22c-.68.14-1.36.21-2.05.29-.2,0-.32.05-.3.33.09.92.07.92-.85.79-.16,0-.34,0-.46-.16-.17-.39-.36-.36-.56,0h-.24a2,2,0,0,1-.21-1.39A2.42,2.42,0,0,0,52.78,85.88Z"/><path class="cls-7" d="M15.78,3.09c-.17,1.4-.36,2.79-.51,4.18a3.55,3.55,0,0,0-.06,1.83,3,3,0,0,0-.31,1.53c-.3,2.11-.55,4.24-.8,6.36s-.46,4-.7,6-.52,4.28-.81,6.42c0,.3,0,.74-.56.63.31-1.71.47-3.44.69-5.16q.9-7,1.78-14c.16-1.29.33-2.58.49-3.87a.89.89,0,0,0,0-.56,7.51,7.51,0,0,0,.37-2.45C15.53,3.77,15.35,3.29,15.78,3.09Z"/><path class="cls-6" d="M51.19,3.87c.13-.06.23-.14.21-.3s-.19-.15-.32-.16c-1.31-.07-2.63-.1-3.94-.24-1.88-.2-3.78-.28-5.67-.42a12.83,12.83,0,0,0-1.64,0c-.42,0-.61-.11-.55-.54a33.66,33.66,0,0,1,5.7.29c1.88.41,3.75.22,5.61.47.39,0,.68,0,.75-.49a.64.64,0,0,1,.78-.54,11.35,11.35,0,0,0,2,.1c.39,0,.37.21.25.48-.21,0-.47,0-.51.23s.24.18.38.24,0,.06,0,.09c-.52-.06-.64.33-.82.68s0,.64-.2.91h-.12a2.18,2.18,0,0,0,.13-.84c0-.75-.07-.78-.8-.52-.29.1-.31.33-.33.53a3.3,3.3,0,0,1-.36,1.07C51.17,4.78,51.21,4.31,51.19,3.87Z"/><path class="cls-4" d="M38.71,81.87c.79.16,1.33-.51,2-.64.46-.09.55,0,.48.44s-.08.63-.12,1c0,.17-.28.06-.35.29.7-.18,1.4.15,2.06-.19.83,0,1.66,0,2.49,0,.18,0,.53-.17.53.19s-.36.19-.55.2c-.62.06-1.24.06-1.86.11-1,.08-1,.09-1.1,1,0,.56-.26.72-.77.6-.14,0-.32,0-.44-.07a4.41,4.41,0,0,0-2.29-.38c.05-.31.28-.58.23-.92s0-.81.59-.89c.12,0,.29-.06.26-.23s-.22-.1-.34-.1C39.21,82.29,38.82,82.36,38.71,81.87Z"/><path class="cls-4" d="M40.3,4.94c1.05.27,2-.24,3.06-.3.34,0,.45.07.48.42.06.81-.13,1,1.14,1.09l2,.13c.17,0,.37,0,.37.24s-.23.19-.39.19H44.28a6.46,6.46,0,0,0-2.16-.1c.17.27.33.18.46.21a1.29,1.29,0,0,1,0,.28c-.07.31.31.8-.08.9a1.2,1.2,0,0,1-1.28-.37c0-.18.32-.3.17-.5s-.36-.1-.53,0-.51.09-.41-.26A3.42,3.42,0,0,0,40.3,4.94Z"/><path class="cls-1" d="M32.47,89.54h.78a6.6,6.6,0,0,1,1,0c.38.07.85.1.78.7a4.77,4.77,0,0,1-1.55.18c-1.4.1-2.81.09-4.22.15s-2.58.13-3.88.2c-.14,0-.3,0-.4-.12l-.11-.87a1.06,1.06,0,0,0,.66,0,3.8,3.8,0,0,0,1.61-.06l1,0a3.81,3.81,0,0,0,1.61-.08l.89,0A5.11,5.11,0,0,0,32.47,89.54Z"/><path class="cls-7" d="M35.54.93c0,.3-.07.46-.41.44l-6.31-.32C27.35,1,25.88,1,24.41.91c-.37,0-.54.33-.87.36a.4.4,0,0,1,0-.11c.25-.95.25-1,1.24-.92,3.31.14,6.62.29,9.93.42A1.33,1.33,0,0,1,35.54.93Z"/><path class="cls-8" d="M48,37.11c.13.2.38.16.55.28l.25.63c.14.36.51.62.46,1.07A23.32,23.32,0,0,1,46,37.87a8.93,8.93,0,0,0-2.18-.75c-.68-.23-1-.85-1.36-1.36,1.3.2,2.56.57,3.84.88.05.13.13.18.25.06l.2,0c.17.18.35.29.59.16l.21.05c0,.14.11.2.24.09Z"/><path class="cls-7" d="M36.34,86.28c0,.29-.21.34-.42.33-1,0-2.06.19-3.1.1a.47.47,0,0,0-.42-.43l-.15-.23a1.8,1.8,0,0,0,0-.4c-.07-.51.11-.68.64-.83a10.47,10.47,0,0,1,2.53-.38c.16,0,.23-.1.32-.19.13.58.25,1.16.39,1.73C36.16,86.1,36.16,86.26,36.34,86.28Z"/><path class="cls-6" d="M15.33,4.07A7.51,7.51,0,0,1,15,6.52c-.11,0-.27,0-.31-.08-.34-.55-.88-.41-1.37-.44C13.19,6,13,6,13,6c-.19.59-.66.34-1,.37s-.65-.18-.69-.59a4.85,4.85,0,0,1,.08-1.52c0-.18.11-.33.33-.31a3.49,3.49,0,0,1,.36,2c1-.36,1-.36,1-1.5.62,0,1.27.22,1.78-.34C15,4,15.16,4,15.33,4.07Z"/><path class="cls-4" d="M53.25,4.66c.21-.27,0-.62.2-.91s.3-.74.82-.68a.63.63,0,0,0,.44.22,42.28,42.28,0,0,0,4.91.47c0,.33-.25.22-.41.22H56.79c-.55,0-1,.08-1,.78,0,.31-.16.41-.47.37A7.76,7.76,0,0,1,53.25,4.66Z"/><path class="cls-4" d="M82.3,43.87a27.2,27.2,0,0,0-4.6-.28c-.22,0-.48,0-.64-.14a4.82,4.82,0,0,0-2.65-1.13,1.21,1.21,0,0,1-.63-.21,25.3,25.3,0,0,1,8.52,1.62Z"/><path class="cls-6" d="M11.81,83.21c.57.17,1.14.3,1.62-.21a.57.57,0,0,1,.44-.22c.26.29-.09.76.3,1v.33c-.13.29-.19.57.1.81v.32l-.11,0c-.18,0-.4.08-.52-.09-.3-.41-.73-.35-1.15-.37v-.22c0-.45-.45-1-.78-1a1,1,0,0,0-.93,1,.73.73,0,0,1-.35.72,2.82,2.82,0,0,1-.09-2.17A1.49,1.49,0,0,0,11.81,83.21Z"/><path class="cls-7" d="M11.72,61.07a.62.62,0,0,1,.44-.08c0,.43,0,.85.08,1.29.2,1.73.3,3.47.5,5.2A5.75,5.75,0,0,0,13,69.13v.11c-.3.48,0,1,0,1.48h-.19c-.18-1.68-.37-3.37-.55-5-.16-1.4-.23-2.81-.47-4.2A1.79,1.79,0,0,1,11.72,61.07Z"/><path class="cls-7" d="M37.33,5.55l.43.14a5.74,5.74,0,0,0,1.94.06c.11.3.28.6-.08.85-.29,0-.58.06-.86-.06a.4.4,0,0,0-.39-.18c-1.14,0-2.27-.19-3.42-.11l0-.59c.36,0,.72,0,1.08,0s.74.17,1.07-.11Z"/><path class="cls-9" d="M14.17,83.79c-.39-.25,0-.72-.3-1a29.45,29.45,0,0,0-.26-3.1c-.11-1.37-.28-2.73-.42-4.1-.09-.83-.17-1.66-.25-2.48.28,0,.23.19.24.35.19,1.81.38,3.62.56,5.43,0,.33,0,.67.24,1v1.09l0,.46a2,2,0,0,0,0,.24A19.74,19.74,0,0,1,14.17,83.79Z"/><path class="cls-4" d="M10.44,85.26a.73.73,0,0,0,.35-.72,1,1,0,0,1,.93-1c.33,0,.77.58.78,1v.22a1.34,1.34,0,0,0-.75.41C11.48,85.54,10.89,85.46,10.44,85.26Z"/><path class="cls-6" d="M52.78,85.88a2.42,2.42,0,0,1,.36,1.49,2,2,0,0,0,.21,1.39c-.82,0-.82,0-1.13-.89.19-.33,0-.61-.11-.91.22-.24.06-.63.33-.86C52.54,86,52.58,85.82,52.78,85.88Z"/><path class="cls-6" d="M39.62,6.6c.36-.25.19-.55.08-.85.11-.33,0-.81.6-.81a3.42,3.42,0,0,1,.14,1.88c-.1.35.15.34.41.26s.41-.12.53,0-.12.32-.17.5l-.55,0C39.78,7.55,39.73,7.51,39.62,6.6Z"/><path class="cls-6" d="M21.57,87.2c-.06.73.19,1.45.13,2.18,0,.24.2.3.4.3h.74c0,.23-.13.31-.36.34-1.22.14-1.48,0-1.54-1.28a3.09,3.09,0,0,1,.11-1.17C21.13,87.33,21.24,87.09,21.57,87.2Z"/><path class="cls-7" d="M35.42,82.88v-.13a16.6,16.6,0,0,0,2.82,0c0,.27-.2.22-.36.24a2.26,2.26,0,0,0-.77.07c.05,0,.08,0,.12,0H38c.58,0,.59,0,.31.56a14.68,14.68,0,0,0-2.65-.15Z"/><path class="cls-6" d="M38.28,83.66c.28-.54.27-.55-.31-.56h-.73s-.07,0-.12,0a2.26,2.26,0,0,1,.77-.07c.16,0,.36,0,.36-.24s0-.73.46-.86c.11.49.5.42.86.44.12,0,.3-.08.34.1s-.14.21-.26.23c-.54.08-.67.42-.59.89s-.18.61-.23.92C38.29,84.43,38.39,84,38.28,83.66Z"/><path class="cls-4" d="M51.77,4.89a3.3,3.3,0,0,0,.36-1.07c0-.2,0-.43.33-.53.73-.26.79-.23.8.52a2.18,2.18,0,0,1-.13.84C52.75,5.13,52.26,5,51.77,4.89Z"/><path class="cls-4" d="M13.06,4.46c0,1.14,0,1.14-1,1.5a3.49,3.49,0,0,0-.36-2c.32,0,.63,0,.94,0S13,4.27,13.06,4.46Z"/><path class="cls-10" d="M14,79.83c-.25-.28-.2-.62-.24-1-.18-1.81-.37-3.62-.56-5.43,0-.16,0-.38-.24-.35V73c.22-.3.27-.58-.09-.81l0-.33c.2,0,.21-.1.2-.24s-.07-.45-.1-.68v-.23c0-.5-.27-1,0-1.48.12,1.32.22,2.65.37,4,.09.8.16,1.6.23,2.4.12,1.4.28,2.8.42,4.19Z"/><path class="cls-7" d="M35,90.26c.07-.6-.4-.63-.78-.7a6.6,6.6,0,0,0-1,0,.26.26,0,0,1,.31-.18,15,15,0,0,1,2.59.09c.39.07.29.31.29.53a.51.51,0,0,1-.65.34A6.47,6.47,0,0,0,35,90.26Z"/><path class="cls-11" d="M59.62,3.76a42.28,42.28,0,0,1-4.91-.47.63.63,0,0,1-.44-.22s0-.06,0-.09h.11c.11,0,.22.06.33.07,1.51.07,3,.42,4.5.46C59.36,3.5,59.66,3.38,59.62,3.76Z"/><path class="cls-3" d="M40.19,88.65c.06-.29.29-.34.51-.33,1.71.05,3.4-.2,5.11-.12.15,0,.3,0,.4.13-1.25.17-2.51.11-3.76.21C41.7,88.59,40.94,88.61,40.19,88.65Z"/><path class="cls-7" d="M.42,32.35H.57a21.13,21.13,0,0,0-.13,5.21H.27A19.1,19.1,0,0,1,.42,32.35Z"/><path class="cls-6" d="M55.17,85.75a9.11,9.11,0,0,1-.74,2l-.16-1.72Z"/><path class="cls-3" d="M35,6.25c1.15-.08,2.28.13,3.42.11a.4.4,0,0,1,.39.18,33,33,0,0,1-3.85-.17Z"/><path class="cls-10" d="M14.17,83.79A19.74,19.74,0,0,0,14,81.62c.34.37.17.85.24,1.27.16.93.18,1.89.27,2.84,0,.22.07.44.1.66-.17,0-.23-.07-.22-.23,0-.31.1-.64-.15-.91v-.32c0-.28.12-.57-.1-.81V84c.08,0,.07,0,0,0Z"/><path class="cls-7" d="M11.81,83.21a1.49,1.49,0,0,1-1.46-.12A1,1,0,0,1,11.81,83.21Z"/><path class="cls-7" d="M24.87,89.8l.11.87c-.27.14-.32-.06-.38-.24-.11-.35-.23-.71-.35-1.06A1.34,1.34,0,0,1,24.87,89.8Z"/><path class="cls-3" d="M42.58,6.82c-.13,0-.29.06-.46-.21a6.46,6.46,0,0,1,2.16.1C43.73,7,43.15,6.74,42.58,6.82Z"/><path class="cls-11" d="M42.82,82.72c-.66.34-1.36,0-2.06.19.07-.23.31-.12.35-.29A6.53,6.53,0,0,1,42.82,82.72Z"/><path class="cls-9" d="M82.3,43.87v-.14A5.65,5.65,0,0,1,84,44.5,3.19,3.19,0,0,1,82.3,43.87Z"/><path class="cls-4" d="M37.23,90.56c.06-.38.36-.3.61-.32s.33.11.31.34Z"/><path class="cls-6" d="M47.47,88a2.68,2.68,0,0,1,1.68,0Z"/><path class="cls-4" d="M54.37,3h-.11c-.14-.06-.41-.07-.38-.24s.3-.23.51-.23Z"/><path class="cls-9" d="M14.28,85.25c.25.27.1.6.15.91-.34-.23-.17-.6-.26-.89Z"/><path class="cls-7" d="M12.93,71c0,.23.07.45.1.68s0,.27-.2.24l-.08-.81Z"/><path class="cls-6" d="M53.59,88.76c.2-.34.39-.37.56,0Z"/><path class="cls-7" d="M12.85,72.2c.36.23.31.51.09.81Z"/><path class="cls-7" d="M47.34,36.91c-.24.13-.42,0-.59-.16A.69.69,0,0,1,47.34,36.91Z"/><path class="cls-9" d="M12.93,71l-.18.11,0-.34h.19Z"/><path class="cls-7" d="M47.79,37.05c-.13.11-.2.05-.24-.09A.19.19,0,0,1,47.79,37.05Z"/><path class="cls-1" d="M46.55,55.29a.19.19,0,0,1,.24-.08C46.75,55.35,46.68,55.43,46.55,55.29Z"/><path class="cls-7" d="M46.55,36.7c-.12.12-.2.07-.25-.06C46.4,36.59,46.47,36.63,46.55,36.7Z"/><path class="cls-7" d="M22.6,25a1.39,1.39,0,0,1-1,.05,14,14,0,0,0-3.42-.18c-.29,0-.39.2-.42.44-.11,1.06-.28,2.12-.32,3.19s-.38,2.11-.35,3.18H14.2c.6-2.65,1.54-5.19,2.31-7.79s1.6-5.17,2.4-7.76a3.25,3.25,0,0,0,.06-.45,2.64,2.64,0,0,0,.33-.79c.38-1.21.78-2.42,1.12-3.65a14,14,0,0,0,.6-2.1c.58-1.5,1-3.06,1.46-4.57.14-.41.24-.84.36-1.25L23,3.19h.29c-.18,1.13-.64,2.18-.92,3.29A3.41,3.41,0,0,0,22,7.6a22.83,22.83,0,0,0-.57,2.27.38.38,0,0,0-.32.5c.07.37.45.1.65.23-.63,0-.83.39-.93.94s-.28.85-.32,1.31c-.41.13-.31.48-.33.77-.23.76-.45,1.52-.68,2.27a1.43,1.43,0,0,0-.34,1l-.69,2.49c-.16,0-.2.13-.24.27-.41,1.39-.82,2.78-1.26,4.17-.12.36,0,.43.34.43,1,0,2.11,0,3.17,0a.61.61,0,0,0,.54-.32c.51-.71,1.05-1.39,1.54-2.1a1.14,1.14,0,0,1,1.1-.54c1.08.05,2.15.07,3.23.09a1,1,0,0,1,.8.34c-.13.2-.34.14-.52.14a11.35,11.35,0,0,1-1.75,0,2.32,2.32,0,0,0-2.67,1.34c-.28.56-.78,1-1.05,1.56C22.05,25,22.36,24.77,22.6,25Z"/><path class="cls-4" d="M23.24,3.18H23c-.32-.11-.66-.34-.91.11-.42.6-1,.28-1.49.22a2.79,2.79,0,0,0,.25-.91c0-.42,1-.91,1.44-.76a7.35,7.35,0,0,0,.91.28c.26.07.54,0,.66.39.05.18.44.2.57,0s.36-.23.58-.22c2,.05,4,.18,6,.32.84.06,1.69.08,2.54.12.67,0,1.35.11,2,.12.29,0,.36.15.33.4a1.9,1.9,0,0,1-.47,1,.29.29,0,0,0-.31,0,14.57,14.57,0,0,0-3-.11A2.46,2.46,0,0,0,31.7,4c-2.07,0-4.14-.1-6.21-.25-.4,0-.44.2-.37.49a6,6,0,0,1,.1,1.46c-.51-.22-.49-.72-.56-1.14s-.06-.83-.64-.93C23.74,3.6,23.62,3.15,23.24,3.18Z"/><path class="cls-2" d="M22.6,25c-.24-.22-.55,0-.86-.17.27-.58.77-1,1.05-1.56a2.32,2.32,0,0,1,2.67-1.34,11.35,11.35,0,0,0,1.75,0c.18,0,.39.06.52-.14.26.05.37.24.48.44l1.2,2.3c.05.19.14.39,0,.58H28.5a5.92,5.92,0,0,0-2.18-.05Z"/><path class="cls-2" d="M25.22,5.71a6,6,0,0,0-.1-1.46c-.07-.29,0-.52.37-.49,2.07.15,4.14.2,6.21.25a2.46,2.46,0,0,1,.44.09A9.62,9.62,0,0,1,30,6a2.63,2.63,0,0,1-1.82.12A21.15,21.15,0,0,0,25.88,6,.65.65,0,0,1,25.22,5.71Z"/><path class="cls-5" d="M18.51,19.41l.69-2.49c1.21,0,2.41.08,3.62.09.4,0,.49.17.43.52-.08.56-.14,1.13-.2,1.69,0,.2,0,.4-.3.37C21.34,19.46,19.92,19.63,18.51,19.41Z"/><path class="cls-5" d="M19.54,15.89c.23-.75.45-1.51.68-2.27,1,0,2,.06,3,.07.38,0,.48.19.42.54-.07.5-.13,1-.17,1.52,0,.22-.07.35-.33.34C22,16,20.86,16,19.75,16A1,1,0,0,1,19.54,15.89Z"/><path class="cls-5" d="M20.55,12.85c0-.46.25-.87.32-1.31s.3-.95.93-.94l1.69.06c.39,0,.51.17.44.53a2.56,2.56,0,0,0-.05.27c-.07.5.1,1.18-.27,1.43s-1,.06-1.49,0A8.28,8.28,0,0,1,20.55,12.85Z"/><path class="cls-5" d="M21.47,9.87A22.83,22.83,0,0,1,22,7.6c.57,0,1.13,0,1.7,0,.38,0,.51.15.46.52s-.05.6-.09.9C24,10,24,10,23,10,22.48,10,22,9.9,21.47,9.87Z"/><path class="cls-7" d="M29.41,25.11c.14-.19.05-.39,0-.58h1.74a1.22,1.22,0,0,1,1,.44c-.32.23-.68.09-1,.11C30.54,25.11,30,25.1,29.41,25.11Z"/><path class="cls-9" d="M36.68,41.21a.2.2,0,0,1,.22-.11c.18,0,.36.14.56,0s.36,0,.48.16a.44.44,0,0,0-.13.33c0,2.87,0,5.75,0,8.62,0,.26,0,.47.29.61l5.16,2.48c0,.12-.06.3.17.39.42-.75.84-1.5,1.24-2.25.16-.29-.06-.31-.27-.31-1.28-.38-2.61-.59-3.91-.91-.24-.06-.55,0-.64-.35,0-2.37,0-4.75,0-7.12,0-.22-.15-.52.22-.61a.78.78,0,0,0,.78.15c.85-.22,1.71-.4,2.58-.59L46.55,41c.2.08.23.26.27.44s0,.37,0,.56c0,2.75,0,5.5,0,8.25a2.5,2.5,0,0,1-.36,1.28,5.31,5.31,0,0,0-.91,1.73l0,0,.05,0c.13,0,.26-.07.38-.12,2.89-1.16,5.63-2.63,8.42-4a.46.46,0,0,0,.28-.49V43.32c0-.22,0-.43-.31-.41a1.1,1.1,0,0,0-.51-.34c-1.24-.61-2.48-1.2-3.7-1.82-1.48-.75-3-1.32-4.56-2a.76.76,0,0,1-.47-.63.94.94,0,0,1,.49.12c.79.34,1.58.71,2.39,1a11.84,11.84,0,0,0,2.29.9.06.06,0,0,1,.07,0,2.54,2.54,0,0,0,1.45.79A27.71,27.71,0,0,0,55,42.65a.36.36,0,0,0,.47-.09c.28,0,.21.27.21.45,0,2,0,4,0,6a.55.55,0,0,1-.41.58c-3.29,1.47-6.62,2.86-9.84,4.48a3.27,3.27,0,0,1-3.7-.26c-1.15-.75-2.43-1.31-3.64-2-.32-.19-.21-.68-.59-.82-.21-.35-.34-.77-.8-.89C36.66,47.18,36.67,44.19,36.68,41.21Z"/><path class="cls-10" d="M17.26,59.36l-3,0-.22,0c.13-.9.25-1.81.38-2.71a12.33,12.33,0,0,0-.1-2.85c0-.46-.11-.92-.17-1.38.77,0,1.54-.06,2.32-.07,1.6,0,3.2,0,4.8,0,.25,0,.52,0,.5-.34a2.3,2.3,0,0,1,.45.88,9.76,9.76,0,0,1-.13,5.69l-.58.68-1.22,0a7,7,0,0,0-1.83.07Z"/><path class="cls-3" d="M22.27,52.88a2.3,2.3,0,0,0-.45-.88.63.63,0,0,0-.6-.24l0-.22c0-.15.05-.3.09-.44.22-.86.3-.92,1.17-.92H25a11.93,11.93,0,0,0,2.39-.11.36.36,0,0,0,.31.11l7.57,0a4.76,4.76,0,0,1,1.41,0c.46.12.59.54.8.89-.41,0-.53.16-.41.56a2.42,2.42,0,0,1,.25,1.22,2.54,2.54,0,0,1-.51-1.25.58.58,0,0,0-.66-.51c-3.38,0-6.75,0-10.13,0a8.15,8.15,0,0,0-2.59.9c-.17.06-.09.22-.07.35s0,.52.07.78-.11.34-.31.41-.31-.06-.42-.21S22.58,52.89,22.27,52.88Z"/><path class="cls-3" d="M21.56,59.25l.58-.68c.16,0,.31,0,.4-.14.31-.51.38-.17.53.13a2.69,2.69,0,0,1-.48,3h-.12l-.1-.1h0a8.55,8.55,0,0,0-.52-1.94A.3.3,0,0,0,21.56,59.25Z"/><path class="cls-2" d="M23.83,69.57a.77.77,0,0,0-.2-.72c-.55-.68-1.07-1.37-1.6-2.06-.08-.12-.24-.24-.17-.39s.3-.1.46-.11l6.91-.12c.29,0,.7-.29.86.23-.33.23-.4.63-.58.95-.32.57-.64,1.15-.92,1.75a.91.91,0,0,1-.83.58c-1.2,0-2.41,0-3.61,0A1,1,0,0,1,23.83,69.57Z"/><path class="cls-5" d="M19.65,74.22a15.53,15.53,0,0,0-.54-1.76,1.31,1.31,0,0,1-.13-.7l4.12-.05c.28,0,.4.08.42.37.05.54.13,1.09.22,1.63.06.34-.07.48-.41.48Z"/><path class="cls-2" d="M32.25,86.05l.15.23a6.07,6.07,0,0,1-1.9.16c-1.33.11-2.68.11-4,.17-.31,0-.4-.13-.36-.41s.08-.71.11-1.07c.18-.16.4-.09.6-.1l2.7-.12c.15,0,.32,0,.32-.22C30.87,84.75,31.47,85.56,32.25,86.05Z"/><path class="cls-5" d="M20.78,77.44c-.19-.57-.35-1.14-.58-1.69-.14-.33,0-.48.24-.59.93-.06,1.85,0,2.78-.09.46-.06.79.05.79.65A9.5,9.5,0,0,0,24.18,77c0,.19.06.4-.24.4C22.89,77.38,21.83,77.53,20.78,77.44Z"/><path class="cls-5" d="M21.8,80.44a14.53,14.53,0,0,1-.67-2.22c.92-.06,1.84,0,2.76-.1.29-.05.45.07.49.38.06.52.12,1,.21,1.56,0,.23,0,.31-.26.32Z"/><path class="cls-6" d="M17.26,59.36h1.25c-.07,1.77.13,3.54.13,5.31a3.35,3.35,0,0,1-.36,1.84l-.22-.11c-.17-1.43-.35-2.86-.51-4.3A22.72,22.72,0,0,1,17.26,59.36Z"/><path class="cls-5" d="M22.72,83.34c-.1-.77-.53-1.45-.68-2.2.7,0,1.39,0,2.09-.08.43,0,.66,0,.66.54A8.14,8.14,0,0,0,25,82.89c.06.31,0,.44-.38.44C24,83.31,23.34,83.33,22.72,83.34Z"/><path class="cls-8" d="M54.27,39.73c1.57.38,3.16.73,4.72,1.16a36.88,36.88,0,0,0,4.3.65c2,.28,4,.52,6.05.77,1.32.16,2.66.29,4,.5a3.31,3.31,0,0,1,1.94,1l-.88,0a.72.72,0,0,0-.82-.07l-.65,0a.89.89,0,0,0-.93-.09l-.55,0a1,1,0,0,0-1-.09h-.33a5.43,5.43,0,0,0-2.74-.22h-.21A1.15,1.15,0,0,0,66,43.1h-.32c-.28-.28-.6-.19-.93-.1h-.55c-.24-.29-.52-.19-.81-.1l-.55,0c-.08-.17-.24-.16-.38-.16a17.4,17.4,0,0,1-2.61-.33l-3.5-.48c-.35-.21-.82,0-1.14-.33Z"/><path class="cls-6" d="M45.06,38.15a.79.79,0,0,0,.47.64.88.88,0,0,0,.16.51A7.21,7.21,0,0,1,46.55,41l-3.11.68c-.87.19-1.73.37-2.58.59a.78.78,0,0,1-.78-.15c.19-.31.53-.24.81-.31,1-.25,2-.46,3-.68.37-.09.45-.25.26-.59s-.5-.93-.79-1.38c-.19-.3-.35-.29-.63-.15-1,.5-1.91,1-2.89,1.44a9.54,9.54,0,0,1-1.86.79c-.12-.2-.28-.34-.48-.16s-.38,0-.56,0c.12-.19.25-.37.37-.55,1.15-.48,2.2-1.15,3.3-1.71.93-.48,1.83-1,2.75-1.47a.64.64,0,0,1,.43-.1,4.72,4.72,0,0,1,1.24.49L45,38l.1.11Z"/><path class="cls-5" d="M54.27,39.73l.9,1.83c-1.93-.77-3.85-1.53-5.77-2.31-.06,0-.09-.11-.13-.16,0-.45-.32-.71-.46-1.07l-.25-.63Z"/><path class="cls-7" d="M56.31,41.89l3.5.48a17.4,17.4,0,0,0,2.61.33c.14,0,.3,0,.38.16-1.41.08-2.82-.11-4.23-.12-.68,0-1.36,0-2-.08-.2,0-.42.05-.61-.1C56,42.28,56.22,42.13,56.31,41.89Z"/><path class="cls-4" d="M45,38l0-.28a35.55,35.55,0,0,1,5.24,2.42,11.84,11.84,0,0,1-2.29-.9c-.81-.3-1.6-.67-2.39-1a.94.94,0,0,0-.49-.12h0Z"/><path class="cls-11" d="M55.42,42.56a.36.36,0,0,1-.47.09A27.71,27.71,0,0,1,51.75,41l.16,0C53.1,41.45,54.28,42,55.42,42.56Z"/><path class="cls-7" d="M67.32,43.22a5.43,5.43,0,0,1,2.74.22A9.35,9.35,0,0,1,67.32,43.22Z"/><path class="cls-3" d="M51.91,41l-.16,0a2.54,2.54,0,0,1-1.45-.79A10.8,10.8,0,0,1,51.91,41Z"/><path class="cls-7" d="M66,43.1a1.15,1.15,0,0,1,1.15.11A1.75,1.75,0,0,1,66,43.1Z"/><path class="cls-7" d="M70.39,43.45a1,1,0,0,1,1,.09A1.44,1.44,0,0,1,70.39,43.45Z"/><path class="cls-7" d="M64.71,43c.33-.09.65-.18.93.1A1.12,1.12,0,0,1,64.71,43Z"/><path class="cls-7" d="M72,43.56a.89.89,0,0,1,.93.09A1.25,1.25,0,0,1,72,43.56Z"/><path class="cls-7" d="M73.56,43.68a.72.72,0,0,1,.82.07A1,1,0,0,1,73.56,43.68Z"/><path class="cls-7" d="M63.35,42.88c.29-.09.57-.19.81.1A1,1,0,0,1,63.35,42.88Z"/><path class="cls-7" d="M23.4,50.17h-.9c-.87,0-.95.06-1.17.92,0,.14-.06.29-.09.44H18c-.19,0-.44-.08-.49.24H14a2.82,2.82,0,0,0-.87-1.27.43.43,0,0,0-.38-.2c-.66.06-.67-.36-.63-.82v-7a.52.52,0,0,0,0-.68l0-.93c1,0,1.43-.77,1.78-1.58l3.4,0-.13.56c-.25,0-.36-.26-.53-.4s-.43-.1-.65-.08-.16.14-.16.25c0,.9,0,.91-.95.69-.26-.06-.39,0-.42.26-.06.6-.16,1.2-.22,1.8-.15,1.31-.22,2.63-.43,3.94S13.63,47.67,15,48c.6.16,1.18.52,1.8,0,.1-.08.3,0,.45,0h3.06c.12,0,.28.06.35-.1s-.05-.25-.14-.35c-.25-.32-.6-.57-.81-.88a5.12,5.12,0,0,1-.79-4.26c.07-.31.17-.71.44-.83.63-.28.88-.64.53-1.29v-.14c.39.24.83.09,1.24.13.31.3.27,1,.92.91a34.37,34.37,0,0,1,3.66,0,2.12,2.12,0,0,1,.66.11,1.93,1.93,0,0,1,.57.45h-1c-.07-.27-.29-.21-.46-.19a4.31,4.31,0,0,0-3.35,1.58,4.69,4.69,0,0,0,.22,6C22.64,49.52,23.14,49.71,23.4,50.17Z"/><path class="cls-10" d="M17.38,39.32l-3.4,0a3.25,3.25,0,0,1,.14-1.16,12.81,12.81,0,0,0,.1-4.74c-.06-.41-.09-.82-.13-1.23h.79c2.23.06,4.46.14,6.7.1.4-.09.44.24.53.49a6,6,0,0,1,.15.64,10.33,10.33,0,0,1-.15,4.94c0,.14-.05.29-.08.44a2,2,0,0,1-.91.64H19.31A7.35,7.35,0,0,0,17.38,39.32Z"/><path class="cls-1" d="M26.93,41.76a1.93,1.93,0,0,0-.57-.45c.17-.17.39-.09.59-.1,2.2,0,4.41,0,6.61,0,.7,0,1.41.05,2.12.1a6.82,6.82,0,0,0,1-.12c0,3,0,6,0,8.95a4.76,4.76,0,0,0-1.41,0A3.88,3.88,0,0,0,35,49.7a3,3,0,0,0-2.23-1.61c-1-.1-2,0-3-.07A4.33,4.33,0,0,0,30.07,45c-.16-.56-.21-1.25-1-1.42-.09-.32-.18-.63-.54-.74-.19-.51-.66-.61-1.09-.78Z"/><path class="cls-3" d="M21.12,39.39a2,2,0,0,0,.91-.64c.4-.24.52-.08.69.33A1.71,1.71,0,0,1,22,41.21c-.65,0-.61-.61-.92-.91Z"/><path class="cls-12" d="M5.59,35.52a14.3,14.3,0,0,1,.58-4.09,1.42,1.42,0,0,1,.2-.41c.19-.24.41-.32.63,0a4,4,0,0,1,.59,1.92,21.27,21.27,0,0,1-.2,5.8C7.3,39.27,7.14,40,6.61,40s-.57-.67-.68-1.12A14.55,14.55,0,0,1,5.59,35.52Z"/><path class="cls-12" d="M.44,37.57a21.13,21.13,0,0,1,.13-5.21A8.39,8.39,0,0,1,1,31.3c.21-.4.4-.38.64,0a3.76,3.76,0,0,1,.46,1.85,21.11,21.11,0,0,1-.1,5,8.29,8.29,0,0,1-.31,1.08c-.06.19-.17.42-.41.4a.51.51,0,0,1-.41-.42C.69,38.64.57,38.1.44,37.57Z"/><path class="cls-4" d="M21.58,32.24c-2.24,0-4.47,0-6.7-.1h-.79a.55.55,0,0,1-.12-.46h3.08l4,.11a1.13,1.13,0,0,1,.54.13Z"/><path class="cls-6" d="M21.56,59.25a.3.3,0,0,1,.29.23,8.55,8.55,0,0,1,.52,1.94,6.27,6.27,0,0,1-2-2.13Z"/><path class="cls-6" d="M22.37,61.41l.1.1Z"/><path class="cls-12" d="M7.85,55.75a13.59,13.59,0,0,1-.44,3.66,1.55,1.55,0,0,1-.26.55.41.41,0,0,1-.75-.05,4.79,4.79,0,0,1-.52-1.84,16.22,16.22,0,0,1,.23-6.13c.1-.37.17-.92.59-.91s.59.52.7.92A14.85,14.85,0,0,1,7.85,55.75Z"/><path class="cls-12" d="M2,55.39a13.81,13.81,0,0,1-.4,3.29,3.09,3.09,0,0,1-.23.57c-.17.32-.39.34-.58,0A1.44,1.44,0,0,1,.6,58.8a15.41,15.41,0,0,1-.08-6.89,1.26,1.26,0,0,1,.1-.33c.14-.24.08-.7.48-.66s.4.42.48.7A15.16,15.16,0,0,1,2,55.39Z"/><path class="cls-6" d="M12.16,42.46v7H10.92c-.31,0-.69-.13-.74.42,0,.2-.59.21-.71,0A2.94,2.94,0,0,1,9.75,48a.69.69,0,0,1,.25-.1l.34.51c.39.58.8.56,1.19,0a3.34,3.34,0,0,0,.34-1.8,4.85,4.85,0,0,0-.46-3.15c-.26-.42-.58-.41-.92-.07s-.21.53-.49.67c-.53,0-.55-.42-.55-.74A11.25,11.25,0,0,1,9.66,41H11c0,.37.11.82-.44.88-.31,0-.37.18-.35.45s.28.24.47.25A14.34,14.34,0,0,1,12.16,42.46Z"/><path class="cls-13" d="M10,44.05c.28-.14.29-.47.49-.67s.66-.35.92.07a4.85,4.85,0,0,1,.46,3.15,3.34,3.34,0,0,1-.34,1.8c-.39.58-.8.6-1.19,0L10,47.91A38.23,38.23,0,0,1,10,44.05Z"/><path class="cls-3" d="M14.09,59.37l.22,0a38.73,38.73,0,0,0,1.74,5.8,1.74,1.74,0,0,1,.08.5c-.16.16-.33.31-.48.48l-2.7,3a5.75,5.75,0,0,1-.21-1.65c-.2-1.73-.3-3.47-.5-5.2,0-.44-.08-.86-.08-1.29A2,2,0,0,0,14.09,59.37Z"/><path class="cls-4" d="M14,51.78h7.18a.63.63,0,0,1,.6.24c0,.39-.25.34-.5.34-1.6,0-3.2,0-4.8,0-.78,0-1.55,0-2.32.07C14.05,52.24,14.1,52,14,51.78Z"/><path class="cls-3" d="M12.16,42.46a14.34,14.34,0,0,0-1.46.11c-.19,0-.43.07-.47-.25s0-.41.35-.45c.55-.06.44-.51.44-.88a2.33,2.33,0,0,1,.91-.12c.05.31-.16.68.23.91A.52.52,0,0,1,12.16,42.46Z"/><path class="cls-6" d="M12.16,41.78c-.39-.23-.18-.6-.23-.91l.26,0Z"/><path class="cls-9" d="M21,9.14a14,14,0,0,1-.6,2.1c-.34,1.23-.74,2.44-1.12,3.65-.33,0-.48-.11-.44-.47.1-1.08.18-2.17.28-3.25.05-.56.14-1.12.17-1.68,0-.3.12-.4.41-.39Z"/><path class="cls-14" d="M22,3.3c.25-.45.59-.22.91-.11l-.11.13A1.36,1.36,0,0,1,22,3.3Z"/><path class="cls-3" d="M14,80.92V79.8l6.89-.14a11.7,11.7,0,0,1,.83,2.3c-1,0-1,0-1.19-.84-.09-.39-.27-.42-.58-.41l-5.83.22Z"/><path class="cls-10" d="M14,80.92h.12c0,.16.05.33-.1.45Z"/><path class="cls-7" d="M81,47h-2.9v-.2C79,46.94,80,46.74,81,47Z"/><path class="cls-7" d="M26.32,25.05a5.92,5.92,0,0,1,2.18.05A4.14,4.14,0,0,1,26.32,25.05Z"/><path class="cls-4" d="M37.07,5.53c-.3-.18-.65-.1-1-.21a4.31,4.31,0,0,0,.68-2.09c0-.23.11-.44.38-.34s.69-.07.66.47a2.6,2.6,0,0,1-.54,1.78A2.06,2.06,0,0,0,37.07,5.53Z"/><path class="cls-2" d="M20.86,79.66,14,79.8c-.14-1.39-.3-2.79-.42-4.19-.07-.8-.14-1.6-.23-2.4-.15-1.32-.25-2.65-.37-4v-.11l2.7-3c.15-.17.32-.32.48-.48.65,1.58,1.14,3.22,1.7,4.84.3.89.6,1.79.91,2.68-.21.07-.58-.13-.53.36.15,1.71.29,3.43.42,5.15,0,.29.12.41.41.39.54,0,1.09,0,1.64,0A.6.6,0,0,1,20.86,79.66Z"/><path class="cls-9" d="M20.68,79.08c-.55,0-1.1,0-1.64,0-.29,0-.39-.1-.41-.39-.13-1.72-.27-3.44-.42-5.15-.05-.49.32-.29.53-.36.61,1.87,1.19,3.75,1.88,5.6A2.14,2.14,0,0,1,20.68,79.08Z"/><path class="cls-3" d="M26.23,85.13c0,.36-.07.72-.11,1.07s.05.42.36.41c1.34-.06,2.69-.06,4-.17a6.07,6.07,0,0,0,1.9-.16.47.47,0,0,1,.42.43c-2.38.11-4.76.24-7.15.25.07-.47.16-.94.22-1.41C25.91,85.31,26,85.15,26.23,85.13Z"/><path class="cls-1" d="M16.78,65.64l0-.09.08,0Z"/><path class="cls-4" d="M37.19,85.71c1.14.07,1.41.37,1.52,1.74,0,.62,0,1.25,0,1.87s-.39.42-.69.46-.35-.25-.33-.49a7.77,7.77,0,0,0-.21-3A1.41,1.41,0,0,0,37.19,85.71Z"/><path class="cls-7" d="M32.47,89.54a5.11,5.11,0,0,1-1.83.1A2.63,2.63,0,0,1,32.47,89.54Z"/><path class="cls-7" d="M27.14,89.77a3.8,3.8,0,0,1-1.61.06A2.34,2.34,0,0,1,27.14,89.77Z"/><path class="cls-7" d="M29.75,89.66a3.81,3.81,0,0,1-1.61.08A2.09,2.09,0,0,1,29.75,89.66Z"/><path class="cls-9" d="M14.18,84.12c.22.24.12.53.1.81C14,84.69,14.05,84.41,14.18,84.12Z"/><path class="cls-9" d="M14.17,83.92c.07,0,.08,0,0,0Z"/><path class="cls-11" d="M45.52,53.24a5.31,5.31,0,0,1,.91-1.73,2.5,2.5,0,0,0,.36-1.28c0-2.75,0-5.5,0-8.25,0-.19,0-.37,0-.56,1.64.34,3.34.4,5,.9.82.25,1.68.39,2.52.59.3,0,.31.19.31.41v5.32a.46.46,0,0,1-.28.49c-2.79,1.37-5.53,2.84-8.42,4-.12,0-.25.08-.38.12Z"/><path class="cls-13" d="M37.94,41.22a9.54,9.54,0,0,0,1.86-.79c1-.44,1.93-.94,2.89-1.44.28-.14.44-.15.63.15.29.45.53.92.79,1.38s.11.5-.26.59c-1,.22-2,.43-3,.68-.28.07-.62,0-.81.31-.37.09-.22.39-.22.61,0,2.37,0,4.75,0,7.12-1.05-.17-1.35-.52-1.35-1.55,0-2,0-3.91,0-5.87,0-.55-.17-.81-.69-.86A.44.44,0,0,1,37.94,41.22Z"/><path class="cls-11" d="M37.81,41.55c.52.05.7.31.69.86,0,2,0,3.91,0,5.87,0,1,.3,1.38,1.35,1.55.09.33.4.29.64.35,1.3.32,2.63.53,3.91.91-.36.73-.85,1.4-1.14,2.17l-5.16-2.48c-.28-.14-.29-.35-.29-.61C37.8,47.3,37.8,44.42,37.81,41.55Z"/><path class="cls-13" d="M54.3,42.91c-.84-.2-1.7-.34-2.52-.59-1.62-.5-3.32-.56-5-.9,0-.18-.07-.36-.27-.44a7.21,7.21,0,0,0-.86-1.68.88.88,0,0,1-.16-.51c1.53.64,3.08,1.21,4.56,2,1.22.62,2.46,1.21,3.7,1.82A1.1,1.1,0,0,1,54.3,42.91Z"/><path class="cls-6" d="M43.25,53.26c.29-.77.78-1.44,1.14-2.17.21,0,.43,0,.27.31-.4.75-.82,1.5-1.24,2.25C43.19,53.56,43.29,53.38,43.25,53.26Z"/><path class="cls-11" d="M45.53,53.25l-.05,0,0,0Z"/><path class="cls-7" d="M29.74,48c1,0,2,0,3,.07A3,3,0,0,1,35,49.7a3.88,3.88,0,0,1,.24.45l-7.57,0a.36.36,0,0,1-.31-.11.39.39,0,0,0,.35-.25c.29-.19.8-.09.8-.64.4-.09.54-.46.79-.72C29.6,48.45,29.56,48.13,29.74,48Z"/><path class="cls-9" d="M23.4,50.17c-.26-.46-.76-.65-1.1-1a4.69,4.69,0,0,1-.22-6,4.31,4.31,0,0,1,3.35-1.58c.17,0,.39-.08.46.19a3.51,3.51,0,0,0-1.82.64c-.29.18-.23.28,0,.49s.69.4.83.8A6.39,6.39,0,0,1,24,45c0-.08,0-.17,0-.22.37-.53,0-.72-.4-.88a1.52,1.52,0,0,1-.32-.12c-.34-.23-.47-.06-.64.24a4.09,4.09,0,0,0-.31,3.38c.13.41.16,1.06.85,1.11.19.59.26.61.89.37.26-.09.41-.39.73-.34a1,1,0,0,1-.56.59c-.46.26-.38.46.06.63l.7.46Z"/><path class="cls-6" d="M21.22,51.76H17.49c.05-.32.3-.23.49-.24h3.26Z"/><path class="cls-11" d="M25,50.18l-.7-.46a9.05,9.05,0,0,0,3.44.1.39.39,0,0,1-.35.25A11.93,11.93,0,0,1,25,50.18Z"/><path class="cls-9" d="M45,38l.1.11Z"/><path class="cls-1" d="M19.87,40.31c.35.65.1,1-.53,1.29-.27.12-.37.52-.44.83a5.12,5.12,0,0,0,.79,4.26c.21.31.56.56.81.88.09.1.2.2.14.35s-.23.1-.35.1H17.23c-.15,0-.35-.05-.45,0-.62.5-1.2.14-1.8,0-1.35-.37-1.3-.36-1.09-1.7s.28-2.63.43-3.94c.06-.6.16-1.2.22-1.8,0-.29.16-.32.42-.26.91.22.91.21.95-.69,0-.11,0-.24.16-.25s.45-.09.65.08.28.36.53.4c.07.41.41.39.7.4Z"/><path class="cls-11" d="M24.89,43.68c-.14-.4-.55-.54-.83-.8s-.28-.31,0-.49a3.51,3.51,0,0,1,1.82-.64h1l.54.26c0,.15,0,.33-.2.31-.54-.06-.73.33-.95.7A2.42,2.42,0,0,0,24.89,43.68Z"/><path class="cls-4" d="M19.87,40.31l-1.92,0c-.29,0-.63,0-.7-.4l.13-.56a7.35,7.35,0,0,1,1.93.07c.13.31.51.43.57.78Z"/><path class="cls-6" d="M19.88,40.17c-.06-.35-.44-.47-.57-.78h1.81v.91C20.71,40.26,20.27,40.41,19.88,40.17Z"/><path class="cls-14" d="M24.89,43.68A2.42,2.42,0,0,1,26.32,43a2.8,2.8,0,0,1,1.56.34c.46.33.55.09.62-.3l.06-.27c.36.11.45.42.54.74s-.25.54,0,.9a2.8,2.8,0,0,1,.21,2.47c-.19.55-.36,1,0,1.55-.25.26-.39.63-.79.72-.16-.71-.16-.71-.81-.42a2.78,2.78,0,0,1-2.36,0c-.18-.08-.34-.25-.57-.21s-.47.25-.73.34c-.63.24-.7.22-.89-.37l.21-.24c.22-.1.45-.19.67-.3s.24-.21.13-.36a4.58,4.58,0,0,1-.43-1.39A2.44,2.44,0,0,1,24,45,6.39,6.39,0,0,0,24.89,43.68Zm.18,3.22.12.2a1.93,1.93,0,0,0,2.34.81,2.15,2.15,0,0,0,1.18-2.08A2,2,0,0,0,26.92,44a1.79,1.79,0,0,0-2,1,1.71,1.71,0,0,0,.14,1.86Z"/><path class="cls-15" d="M29.31,48.46c-.39-.51-.22-1,0-1.55a2.8,2.8,0,0,0-.21-2.47c-.22-.36.09-.6,0-.9.76.17.81.86,1,1.42A4.33,4.33,0,0,1,29.74,48C29.56,48.13,29.6,48.45,29.31,48.46Z"/><path class="cls-15" d="M28.56,42.8l-.06.27c-.07.39-.16.63-.62.3A2.8,2.8,0,0,0,26.32,43c.22-.37.41-.76.95-.7.21,0,.2-.16.2-.31C27.9,42.19,28.37,42.29,28.56,42.8Z"/><path class="cls-15" d="M24.78,48.5c.23,0,.39.13.57.21a2.78,2.78,0,0,0,2.36,0c.65-.29.65-.29.81.42,0,.55-.51.45-.8.64a9.05,9.05,0,0,1-3.44-.1c-.44-.17-.52-.37-.06-.63A1,1,0,0,0,24.78,48.5Z"/><path class="cls-11" d="M23.37,48.23l-.21.24c-.69,0-.72-.7-.85-1.11A4.09,4.09,0,0,1,22.62,44c.17-.3.3-.47.64-.24a1.52,1.52,0,0,0,.32.12c.43.16.77.35.4.88,0,0,0,.14,0,.22a2.44,2.44,0,0,0-.23,1.22A5.14,5.14,0,0,0,23.37,48.23Z"/><path class="cls-15" d="M26.92,44a2,2,0,0,1,1.79,1.82,2.15,2.15,0,0,1-1.18,2.08,1.93,1.93,0,0,1-2.34-.81c0-.09,0-.17-.12-.2h0a1.76,1.76,0,0,0,0-.23A2,2,0,0,1,26.92,44Z"/><path class="cls-15" d="M23.37,48.23a5.14,5.14,0,0,1,.37-2,4.58,4.58,0,0,0,.43,1.39c.11.15,0,.29-.13.36S23.59,48.13,23.37,48.23Z"/><path class="cls-4" d="M26.92,44a2,2,0,0,0-1.85,2.67,1.76,1.76,0,0,1,0,.23,1.71,1.71,0,0,1-.14-1.86A1.79,1.79,0,0,1,26.92,44Z"/><path class="cls-4" d="M25.07,46.9c.1,0,.12.11.12.2Z"/></g></g></svg>