<svg xmlns="http://www.w3.org/2000/svg" viewBox="0 0 78.31 96.08"><defs><style>.cls-1{fill:#e5e5e5;}.cls-2{fill:#8b8b8b;}.cls-3{fill:#5e5f5f;}.cls-4{fill:#898989;}.cls-5{fill:#991717;}.cls-6{fill:#aeaeae;}.cls-7{fill:#565656;}.cls-8{fill:#d9d9d9;}.cls-9{fill:#ddd;}.cls-10{fill:#8d8d8d;}.cls-11{fill:#595959;}.cls-12{fill:#b1b1b1;}.cls-13{fill:#dfdfdf;}.cls-14{fill:#f02929;}.cls-15{fill:#7f7f7f;}.cls-16{fill:#5d5d5d;}.cls-17{fill:#cbcbcb;}.cls-18{fill:#828282;}.cls-19{fill:#585858;}.cls-20{fill:#a4a4a4;}.cls-21{fill:#a1a1a1;}.cls-22{fill:#a0a0a0;}.cls-23{fill:#9f9f9f;}.cls-24{fill:#6d6d6d;}.cls-25{fill:#727272;}.cls-26{fill:#e2e2e2;}.cls-27{fill:#b2b2b2;}.cls-28{fill:#e4e4e4;}.cls-29{fill:#ababab;}.cls-30{fill:#f02b2b;}.cls-31{fill:#5b5b5b;}.cls-32{fill:#535353;}.cls-33{fill:#656565;}.cls-34{fill:#dedede;}.cls-35{fill:#666;}.cls-36{fill:#6f6f6f;}.cls-37{fill:#e3e3e3;}.cls-38{fill:#6b6b6b;}.cls-39{fill:#606060;}.cls-40{fill:#c42222;}.cls-41{fill:#787878;}.cls-42{fill:#696969;}.cls-43{fill:#c52424;}.cls-44{fill:#747474;}.cls-45{fill:#9b1c1c;}</style></defs><g id="Layer_2" data-name="Layer 2"><g id="Layer_2-2" data-name="Layer 2"><path class="cls-1" d="M31.31,65.88a18.74,18.74,0,0,1-7.63-6.08,4.86,4.86,0,0,1-.27-2.07c0-1,.22-1.12,1.14-.62.11.06.24.09.35.15a5.11,5.11,0,0,1,1.15.92,10.3,10.3,0,0,0,4,2.33,1.43,1.43,0,0,1,.28.13,20,20,0,0,0,7.14,1.79A26.23,26.23,0,0,0,44.29,62c.65-.12,1.25-.35,1.89-.49a10.13,10.13,0,0,0,2.49-.94,1.12,1.12,0,0,1,.25-.11,4.33,4.33,0,0,0,1.75-.85,1,1,0,0,1,.22-.14,3.43,3.43,0,0,0,1.56-1.06,1,1,0,0,1,.24-.17c1.2-.66,1.37-.53,1.44.88a2.29,2.29,0,0,1-.76,1.89c-.81.78-1.67,1.53-2.45,2.35a1.54,1.54,0,0,1-.49.34A39.18,39.18,0,0,1,45.27,66a19.33,19.33,0,0,1-4.56.14c-.36,0-.57-.28-.67-.62a.85.85,0,0,0-.94-.68.81.81,0,0,0-.84.67.82.82,0,0,1-.94.66A15,15,0,0,1,33.54,66a1,1,0,0,0-.66.08A1.61,1.61,0,0,1,31.31,65.88Z"/><path class="cls-1" d="M23.68,36.28a18.74,18.74,0,0,1,7.63-6.08.93.93,0,0,1,.81-.26c1.67.31,3.34-.17,5,0,.57,0,1,.13,1.17.78a.77.77,0,0,0,.82.57.83.83,0,0,0,.9-.6c.11-.37.3-.7.71-.7a18.82,18.82,0,0,1,4.56.15,25,25,0,0,1,5.14,2.33,1.28,1.28,0,0,1,.51.31c.92.81,1.82,1.65,2.67,2.54A3,3,0,0,1,54,37.85c-.43.73-.87.15-1.3,0a1.28,1.28,0,0,1-.25-.15,3.55,3.55,0,0,0-1.56-1.08.76.76,0,0,1-.23-.13A4.31,4.31,0,0,0,49,35.59a1.09,1.09,0,0,1-.25-.1,9.77,9.77,0,0,0-2.51-1,20.05,20.05,0,0,0-6.9-1,20.7,20.7,0,0,0-9,1.89,1.1,1.1,0,0,1-.26.15,9.92,9.92,0,0,0-4,2.32,5.64,5.64,0,0,1-1.16.9c-1.41.74-1.51.68-1.5-.91A4.15,4.15,0,0,1,23.68,36.28Z"/><path class="cls-2" d="M44.48.23a6.58,6.58,0,0,1,3.78.14,2.86,2.86,0,0,0,1.06.08c8.93,0,17.85,0,26.77,0,.87,0,1.3.65,2,.76.23,0,.2.65.06.66-.68.08-1,.81-1.72.81q-15.63,0-31.26,0H43.06a.19.19,0,0,1,0-.25,1.3,1.3,0,0,1,.48,0,47.9,47.9,0,0,1-8.8,0,1.07,1.07,0,0,1,.47,0,.18.18,0,0,1,0,.25H12.39c-3.39,0-6.78-.06-10.16,0-.88,0-1.31-.64-2-.76-.25,0-.25-.68,0-.72.73-.13,1.17-.78,2-.77C11,.48,19.8.44,28.59.46c1.42,0,2.76-.66,4.2-.4.35.06.72-.07,1,.17L34,.31a1,1,0,0,0,.81.26h8.79A.89.89,0,0,0,44.22.4.78.78,0,0,1,44.48.23Z"/><path class="cls-2" d="M43.06,93.46q11.44,0,22.88,0c3.42,0,6.84.05,10.26,0,.84,0,1.21.7,1.94.78.22,0,.23.68,0,.72-.73.13-1.18.76-2,.75-8.74-.06-17.47,0-26.2,0-1.49,0-2.9.66-4.4.4-.35-.06-.72.06-1-.2s-.61-.3-1-.3H35a1.43,1.43,0,0,0-1.08.31,6.19,6.19,0,0,1-3.69-.07A3,3,0,0,0,29,95.64c-8.93,0-17.86,0-26.79,0-.86,0-1.31-.62-2-.75-.26,0-.25-.7,0-.72.66-.06.93-.76,1.64-.76q15.6,0,31.19,0h2.24a.18.18,0,0,1,0,.25.81.81,0,0,1-.38,0,47.36,47.36,0,0,1,8.75,0,1.46,1.46,0,0,1-.51,0A.19.19,0,0,1,43.06,93.46Z"/><path class="cls-1" d="M33.71,73.27l-1.41-5c-.61-.36-.62-1-.71-1.58-.05-.33.07-.56.44-.59,1.73-.11,3.45,0,5.17,0,.67,0,1.06.17,1.08.91a.83.83,0,0,0,.92.91A.81.81,0,0,0,40,67c0-.73.4-1,1.08-.92,1.82.1,3.63-.15,5.45,0A1.71,1.71,0,0,1,46,68.24l-1.42,5a2.69,2.69,0,0,1-1.5.32H35.21A2.6,2.6,0,0,1,33.71,73.27Z"/><path class="cls-1" d="M32.3,27.85l1.41-5a2.6,2.6,0,0,1,1.5-.32H43.1a2.69,2.69,0,0,1,1.5.32l1.42,5a1.68,1.68,0,0,1,.48,2.22c-1.91,0-3.82-.07-5.74,0-.55,0-.69-.37-.72-.84s-.25-1-.87-1-.86.39-.89.94-.28.9-.91.88c-1.84-.08-3.69.15-5.53-.05A1.82,1.82,0,0,1,32.3,27.85Z"/><path class="cls-1" d="M34.24,22.18l.83-5c.09-.37.08-.71.67-.74,1.35-.07,2.7-.18,4.06-.19,1.11,0,2.18.2,3.27.3l1,5.67c-.06.48-.44.4-.74.4q-4.19,0-8.37,0C34.68,22.58,34.29,22.66,34.24,22.18Z"/><path class="cls-1" d="M35.07,78.94l-.83-5c0-.48.44-.4.74-.4q4.17,0,8.36,0c.3,0,.68-.08.74.41l-1,5.66a29.33,29.33,0,0,1-7.43.1C35.08,79.63,35.19,79.23,35.07,78.94Z"/><path class="cls-1" d="M35.64,14.16l1.59-9a5,5,0,0,1,3.85,0l1.59,9A19.77,19.77,0,0,1,35.64,14.16Z"/><path class="cls-1" d="M42.67,81.91l-1.59,9a5,5,0,0,1-3.85,0l-1.59-9A19.77,19.77,0,0,1,42.67,81.91Z"/><path class="cls-1" d="M23.08,59.45,19.8,57.82a15.56,15.56,0,0,1-.1-3.2c0-1.53,0-3.06,0-4.59,0-1,.09-1.07,1.12-1.11.81,0,1.58,0,2,.91.11.29.5.28.67.54a2.39,2.39,0,0,1,.17,1.24c0,2.34,0,4.68-.1,7C23.49,59,23.62,59.38,23.08,59.45Z"/><path class="cls-1" d="M19.8,38.26l3.28-1.63c.35,0,.42.25.42.53.07,2.69.16,5.38.08,8.07a.94.94,0,0,1-.13.46,4.07,4.07,0,0,0-1,.94A2.64,2.64,0,0,1,20,47a.62.62,0,0,1-.28-.58c0-2.71-.07-5.41.06-8.11A.41.41,0,0,1,19.8,38.26Z"/><path class="cls-3" d="M56,57.82c0,1-.78,1.4-1.33,2a.53.53,0,0,1-.29-.42c-.07-.69,0-1.38-.05-2.07,0-.16,0-.33,0-.49-.05-1.87.12-3.75-.1-5.62a.32.32,0,0,0-.41-.06,2.79,2.79,0,0,1-.33.19A3.54,3.54,0,0,0,51,54c-.26.26-.46.67-1,.42a.85.85,0,0,1,0-.91,21.49,21.49,0,0,1,1-2.35.63.63,0,0,1,.39-.15,4.42,4.42,0,0,0,2.7-1.44c0-.24.09-.47.08-.71,0-.57,0-1.13,0-1.69,0-.25-.1-.48-.1-.72A4.39,4.39,0,0,0,51.53,45a.59.59,0,0,1-.4-.15c-.43-1.06-1.19-2-1.09-3.25.49-.27.7.14,1,.41.28,1.6,1.49,2.31,2.82,2.89a.31.31,0,0,0,.4-.08c.21-1.87,0-3.74.09-5.6,0-.17,0-.33,0-.5,0-.69,0-1.38.05-2.07a.53.53,0,0,1,.29-.42c.55.59,1.3,1,1.33,2-.25.13-.42-.06-.64-.19.12.67,0,1.34.17,2.1.22-.65-.12-1.34.51-1.75l.55,1.19c0,1,.49,2,.2,3a2.79,2.79,0,0,0-.3,1.58,16,16,0,0,1-.15,3.53c-.21.19-.26.39,0,.59a15.54,15.54,0,0,1,.16,3.54,2.81,2.81,0,0,0,.3,1.58c.3,1-.23,2-.2,3L56,57.66c-.63-.41-.29-1.1-.49-1.7a16.93,16.93,0,0,0-.21,2C55.55,57.89,55.73,57.69,56,57.82Z"/><path class="cls-2" d="M46.78,66.29c-1.92,0-3.84,0-5.76-.05-.68,0-.76.34-.69.85.14.94-.31,1.14-1.17,1.14S37.83,68.06,38,67.1c.09-.59-.1-.89-.78-.87-1.82,0-3.64,0-5.46,0-.23.08-.45.15-.41-.23a.44.44,0,0,1,0-.16c1.94-.38,3.89.09,5.84,0,.51,0,.87,0,.85-.72,0-.92.71-.64,1.2-.65s1.13-.2,1.12.65c0,.46.09.73.64.71a26.48,26.48,0,0,0,4.45-.19l.46,0c.34,0,.72-.19.94.24l0,.27Z"/><path class="cls-2" d="M31.73,29.81c1.79,0,3.58,0,5.37,0,.66,0,1-.17.88-.87-.16-1,.34-1.12,1.18-1.13s1.32.2,1.17,1.14c-.1.61.12.87.79.86,1.89-.05,3.77,0,5.66-.05a.12.12,0,0,1,0,.19l0,.2c-.22.43-.6.28-.94.24l-.46,0A25.46,25.46,0,0,0,41,30.22c-.45,0-.67.14-.64.61.07.9-.58.77-1.12.76s-1.28.22-1.21-.76c0-.58-.31-.63-.74-.61a29.18,29.18,0,0,0-4.06.23,6.86,6.86,0,0,1-1.88-.25.44.44,0,0,1,0-.16C31.29,29.66,31.51,29.73,31.73,29.81Z"/><path class="cls-4" d="M19.8,38.26c0,2.57,0,5.15,0,7.72,0,.77.26,1,1,.9s1.45.2,1.63-.87c.07-.43.6-.27.93-.35l.11.12a2.09,2.09,0,0,1-.18,1.53c-.68.44-1.45.25-2.18.35-.3,0-.75-.07-.73.41s.42.32.7.35a5,5,0,0,1,2.19.34,2,2,0,0,1,.2,1.54l-.11.12a1,1,0,0,1-1.11-.7c-.37-1-1.28-.42-1.94-.47s-.44.6-.44,1c0,2.54,0,5.08,0,7.62-.34-.19-.21-.52-.21-.79q0-9,0-18C19.59,38.78,19.46,38.45,19.8,38.26Z"/><path class="cls-5" d="M56,47.88c.42-1.41.09-2.85.2-4.26,0-.4-.17-.89.41-1.07.29,0,.37-.19.41-.45s.06-.59.37-.74l.53.62a3.21,3.21,0,0,0,0,2.12v.81a4.62,4.62,0,0,0,0,2.73v.8a4.62,4.62,0,0,0,0,2.73V52a3.21,3.21,0,0,0,0,2.12l-.53.62c-.3-.15-.33-.44-.37-.72s-.13-.49-.45-.48c-.52-.19-.34-.63-.37-1-.11-1.44.22-2.9-.2-4.33A.2.2,0,0,1,56,47.88Z"/><path class="cls-6" d="M54.58,59.38l.06.43a18.76,18.76,0,0,1-2.6,3c-.56.62-.93,1.44-1.85,1.66,0,0,0,0-.06-.06a.25.25,0,0,1,0-.09c-.19-.59.58-.57.63-1a15.53,15.53,0,0,1,2.5-2.36c.79-.78.53-1.66.55-2.53,0-.28-.19-.29-.4-.16s-.41.43-.74.39a.63.63,0,0,1,.14-.73,2.58,2.58,0,0,0,.62-2.16c0-1.17,0-2.34,0-3.51a2.17,2.17,0,0,1,.39-1.38l.44-.2c.3.4.14.87.17,1.31a33.26,33.26,0,0,0,.15,4.89l0,.43A2.93,2.93,0,0,0,54.58,59.38Z"/><path class="cls-6" d="M54.64,36.27l-.06.43a2.93,2.93,0,0,0,0,2.12l0,.43a24.65,24.65,0,0,0-.15,4.12c-.06.7.18,1.41-.17,2.09l-.44-.21a2.11,2.11,0,0,1-.39-1.38c0-1,0-1.95,0-2.92s.18-2.1-.71-2.92a.49.49,0,0,1,0-.56c1.19.51,1.16.51,1.18-.85a1.83,1.83,0,0,0-.56-1.38A28.61,28.61,0,0,0,50.72,33c.13-.17.19-.32-.09-.41a.65.65,0,0,1-.51-.78c.62-.24,1,.28,1.24.6.87,1.42,2.36,2.28,3.2,3.7C54.59,36.16,54.61,36.22,54.64,36.27Z"/><path class="cls-7" d="M35.26,93.62a.88.88,0,0,1,0-.16c.54-.49,1.62-.17,1.79-1.21a1,1,0,0,1,.76-.35c1.17.08,2.39-.38,3.49.35a.57.57,0,0,0,.55.73c.48,0,.81.36,1.23.48a.86.86,0,0,1,0,.16c-.39.26-.82.12-1.23.13-1.87,0-3.75,0-5.63,0C35.88,93.74,35.54,93.86,35.26,93.62Z"/><path class="cls-7" d="M35.24,2.62a.88.88,0,0,1,0-.16c.38-.26.82-.12,1.22-.13q2.82,0,5.64,0c.31,0,.65-.11.93.13a.86.86,0,0,1,0,.16c-.42.12-.75.44-1.22.48a.59.59,0,0,0-.56.73,1,1,0,0,1-.77.35c-1.16-.08-2.38.38-3.48-.35.08-.45-.18-.62-.55-.73S35.65,2.78,35.24,2.62Z"/><path class="cls-8" d="M33.87,95.82c-.12-.33-.23-.62.33-.61q5,0,9.91,0c.56,0,.45.28.33.61a.18.18,0,0,1-.14.1c-3.12,0-6.25,0-9.38,0a2.34,2.34,0,0,1-1.05-.08Z"/><path class="cls-9" d="M41.28,92.25H37l-.22-.93a10.31,10.31,0,0,1,4.49,0Z"/><path class="cls-2" d="M44.08,73.91c-.18-.27-.45-.22-.7-.22H34.94c-.25,0-.53-.06-.7.21l-.53-.63H44.6Z"/><path class="cls-2" d="M34.24,22.18c.17.27.45.21.7.21h8.43c.25,0,.53.05.71-.21l.52.63H33.71Z"/><path class="cls-9" d="M37,3.83h4.25l0,.94a9.42,9.42,0,0,1-4.29,0Z"/><path class="cls-10" d="M23.29,45.66c0-2.75,0-5.49,0-8.24,0-.28.08-.6-.23-.79.12-.26.44-.17.6-.35.29.91-.19,1.85.1,2.79.48,0,.61-.68,1.13-.64a.67.67,0,0,1-.14.73,3,3,0,0,0-.66,2.46q0,1.47,0,2.94a1.63,1.63,0,0,1-.28,1.11.42.42,0,0,1-.49.07A.56.56,0,0,1,23.29,45.66Z"/><path class="cls-10" d="M23.08,59.45c.31-.19.23-.51.23-.79,0-2.75,0-5.49,0-8.24l.05-.08a.41.41,0,0,1,.49.08,1.58,1.58,0,0,1,.28,1.1c0,.87,0,1.74,0,2.61,0,1-.15,2.09.74,2.9a.58.58,0,0,1,.1.64c-.51,0-.68-.55-1.16-.68-.32.94.19,1.9-.11,2.81C23.52,59.62,23.2,59.71,23.08,59.45Z"/><path class="cls-11" d="M35.64,14.16c2.34.11,4.69.1,7,0-.27.6-1.09-.13-1.33.55a.74.74,0,0,1-.68.32c-1,0-2,0-3,0a.72.72,0,0,1-.67-.32C36.73,14,35.91,14.77,35.64,14.16Z"/><path class="cls-11" d="M42.67,81.91c-2.34-.09-4.69-.1-7,0,.27-.61,1.09.12,1.33-.56a.72.72,0,0,1,.67-.32c1,0,2,0,3,0a.74.74,0,0,1,.68.32C41.58,82,42.4,81.31,42.67,81.91Z"/><path class="cls-12" d="M56,57.82,54.9,59c.3-1.53-.51-3,1-4.06A13.68,13.68,0,0,1,56,57.66.94.94,0,0,1,56,57.82Z"/><path class="cls-12" d="M56,38.42v2.66c-1.16-.75-1.29-1.35-.93-3.83l.89,1A.94.94,0,0,1,56,38.42Z"/><path class="cls-1" d="M42.85,80.75a.23.23,0,0,1,0,.18c-.13.28-.39.29-.65.29H36.1c-.27,0-.52,0-.65-.3v-.08l0-.09A20.85,20.85,0,0,1,42.85,80.75Z"/><path class="cls-1" d="M35.46,15.33l0-.09v-.08c.13-.29.39-.3.65-.3h6.11c.26,0,.52,0,.65.3a.2.2,0,0,1,0,.17A20.85,20.85,0,0,1,35.46,15.33Z"/><path class="cls-11" d="M35.07,78.94c.19.34.27.71.85.69,2.38-.06,4.77,0,7.15-.06-.38.54-1.22-.11-1.54.6a36.27,36.27,0,0,1-4,.06A.91.91,0,0,1,36.8,80a1.31,1.31,0,0,0-.93-.14C35.23,79.85,35,79.56,35.07,78.94Z"/><path class="cls-11" d="M43.07,16.51c-2.38,0-4.77,0-7.15-.06-.58,0-.66.34-.85.69-.09-.63.16-.91.8-.87a1.31,1.31,0,0,0,.93-.14,1,1,0,0,1,.69-.28,36.27,36.27,0,0,1,4,.06C41.85,16.62,42.69,16,43.07,16.51Z"/><path class="cls-13" d="M50.12,31.8c.15.39.5.54.8.77s0,.35-.2.42l-.47-.26a11.12,11.12,0,0,0-3.32-1.83,11.22,11.22,0,0,1-1.32-.51s0-.05,0-.07,0-.05.06-.07l1.14-.06C48,30.47,49,31.37,50.12,31.8Z"/><path class="cls-13" d="M50.75,63.27c.11,0,.49-.26.24.15s-.76.38-.87.86c-1.15.43-2.08,1.33-3.31,1.61l-1.14-.06c-.13-.46.32-.32.47-.36a25,25,0,0,0,4.19-2Z"/><path class="cls-14" d="M56.54,53.52a.59.59,0,0,1,.7-.36c.25.1.09.46.11.7s0,.57,0,.86l-.8,1.75C56.08,55.49,56.49,54.5,56.54,53.52Z"/><path class="cls-14" d="M57.36,41.36c0,.32,0,.64,0,1s.11.54-.1.61a.54.54,0,0,1-.67-.37,4.91,4.91,0,0,1,0-2.94C56.83,40.19,57.1,40.78,57.36,41.36Z"/><path class="cls-2" d="M33.83.23c.18-.2.41-.17.64-.17h9.37c.22,0,.46,0,.64.17L44.4.31c-.24.3-.58.25-.9.25H34.81c-.32,0-.66,0-.9-.25Z"/><path class="cls-2" d="M33.87,95.82h9.27a2.83,2.83,0,0,1,1.16.1,51.1,51.1,0,0,1-5.25.1c-1.43,0-2.86,0-4.29,0C34.46,96,34.1,96.16,33.87,95.82Z"/><path class="cls-15" d="M41.53,15.91c-.73.43-1.52.16-2.29.21s-1.62,0-2.44,0v-.39a11.58,11.58,0,0,1,4.69,0A.51.51,0,0,1,41.53,15.91Z"/><path class="cls-15" d="M36.8,80c1.24,0,2.48,0,3.71,0,.35,0,.73-.08,1,.22a.51.51,0,0,1,0,.17,11.4,11.4,0,0,1-4.69,0Z"/><path class="cls-16" d="M41.3,91.31a32,32,0,0,0-4.49,0c0-.27.31-.27.42-.44h3.85Z"/><path class="cls-16" d="M37,4.77a30.71,30.71,0,0,0,4.29,0l-.22.43H37.23Z"/><path class="cls-2" d="M42.86,15.16A1.11,1.11,0,0,0,42,15c-1.92,0-3.83,0-5.75,0a1.16,1.16,0,0,0-.83.21c.31-.83,1-.21,1.52-.44h4.37C41.82,15,42.55,14.33,42.86,15.16Z"/><path class="cls-2" d="M35.45,80.92a1.16,1.16,0,0,0,.83.21H42a1.15,1.15,0,0,0,.83-.2c-.31.82-1,.2-1.52.43H37C36.49,81.13,35.76,81.75,35.45,80.92Z"/><path class="cls-2" d="M42.85,80.75H35.46c.36-.46.89-.1,1.31-.25a40,40,0,0,1,4.77,0C42,80.66,42.49,80.29,42.85,80.75Z"/><path class="cls-2" d="M35.46,15.33h7.39c-.36.46-.89.09-1.31.25a40,40,0,0,1-4.77,0C36.35,15.43,35.82,15.79,35.46,15.33Z"/><path class="cls-17" d="M31.73,29.81c-.15.05-.34,0-.4.23a4.35,4.35,0,0,1,.53-2.43c.26-.15.24.26.44.24A6.91,6.91,0,0,1,31.73,29.81Z"/><path class="cls-17" d="M31.33,66c.06.2.25.2.41.23l.56,2c-.2,0-.18.39-.44.24A4.35,4.35,0,0,1,31.33,66Z"/><path class="cls-18" d="M23.66,35.46a1.91,1.91,0,0,1-1.15.62.55.55,0,0,1-.72-.57c0-.35.36-.43.67-.38S23.19,35.33,23.66,35.46Z"/><path class="cls-18" d="M23.67,60.63c-.49.13-.85.25-1.23.32a.53.53,0,0,1-.65-.55c0-.35.33-.46.64-.41A2,2,0,0,1,23.67,60.63Z"/><path class="cls-17" d="M46.78,30l0-.1,0-.09c-.53-.55-.43-1.34-.76-2,.19,0,.37-.57.56-.08a13.36,13.36,0,0,1,.6,2C47.25,30.14,47,30,46.78,30Z"/><path class="cls-17" d="M46.78,66.29l0-.07v-.06c.21-.13.48-.23.39.17-.15.65-.36,1.28-.57,1.92s-.4,0-.59,0C46.52,67.69,46.21,66.82,46.78,66.29Z"/><path class="cls-2" d="M57.91,47.64a2.5,2.5,0,0,1,0-2.73Z"/><path class="cls-2" d="M57.91,51.17a2.5,2.5,0,0,1,0-2.73Z"/><path class="cls-19" d="M41.54,80.5H36.77a.42.42,0,0,1,0-.16H41.5A.75.75,0,0,1,41.54,80.5Z"/><path class="cls-19" d="M36.77,15.58h4.77a.75.75,0,0,1,0,.16H36.81A.42.42,0,0,1,36.77,15.58Z"/><path class="cls-2" d="M57.9,44.1c-.41-.7-.67-1.41,0-2.12C57.89,42.69,57.89,43.4,57.9,44.1Z"/><path class="cls-2" d="M57.89,54.1c-.66-.71-.4-1.41,0-2.12C57.89,52.69,57.89,53.39,57.89,54.1Z"/><path class="cls-1" d="M25,57.67a3.26,3.26,0,0,1-1.27-3.21c.11-1.35,0-2.71,0-4.07a1.17,1.17,0,0,1,.64-1,6.2,6.2,0,0,1,2.06.09c.08,0,.18.11.2.2.27,1.43.94,2.74,1.13,4.19-.06.27-.4.55,0,.81,1.07.1,1.4,1.07,2,1.71A10.05,10.05,0,0,0,31,57.53a11.73,11.73,0,0,0,6.23,2.91,5.68,5.68,0,0,0,3.06.07,12,12,0,0,0,6.44-2.44,2.45,2.45,0,0,0,.65-.71A1.69,1.69,0,0,1,47.8,57a4.21,4.21,0,0,0,1.34-1.35,2.3,2.3,0,0,1,1.41-1c.28-.15.19-.49.37-.68A2.5,2.5,0,0,1,52,51.64c.58-.28,1.17-.54,1.76-.81,0,2,0,4,.05,6,0,1-1,1.06-1.19,1.75h0a9.65,9.65,0,0,1-1.78,1.18h0a12.52,12.52,0,0,1-2,1h0a14.08,14.08,0,0,1-2.64.94A23.87,23.87,0,0,1,30,60.76h0a24.72,24.72,0,0,1-4.2-2.36Z"/><path class="cls-20" d="M30,60.76c1.63.4,3.18,1.08,4.85,1.38a25.6,25.6,0,0,0,11.58-.58c.13.06.13.13,0,.2a13,13,0,0,1-4.34.94,23.62,23.62,0,0,1-10.83-1.27A2.42,2.42,0,0,1,30,60.76Z"/><path class="cls-21" d="M50.33,63.5a12.86,12.86,0,0,1-3.59,1.89l-1.07.44-.26-.16Z"/><path class="cls-21" d="M25.77,58.41,30,60.77A10.19,10.19,0,0,1,25.77,58.41Z"/><path class="cls-22" d="M24.19,59.71,26,61.58A5.1,5.1,0,0,1,24.19,59.71Z"/><path class="cls-22" d="M46.39,61.76v-.2c.89-.15,1.65-.71,2.55-.8A5.12,5.12,0,0,1,46.39,61.76Z"/><path class="cls-23" d="M50.88,59.79a5.59,5.59,0,0,1,1.78-1.18A2.68,2.68,0,0,1,50.88,59.79Z"/><path class="cls-23" d="M48.93,60.77a6,6,0,0,1,2-1A3.07,3.07,0,0,1,48.93,60.77Z"/><path class="cls-23" d="M30.52,64.7l-1.47-.82A1.73,1.73,0,0,1,30.52,64.7Z"/><path class="cls-23" d="M26.66,61.93l1.08.82-.14.19-1.11-.83Z"/><path class="cls-1" d="M23.7,45.69c0-1.43.09-2.87,0-4.29a3.14,3.14,0,0,1,1.23-3,2.73,2.73,0,0,1,.93-.68A15.78,15.78,0,0,1,30,35.31h0a23.91,23.91,0,0,1,16.33-1,14.69,14.69,0,0,1,2.65,1h0a12.52,12.52,0,0,1,2,1h0a9.65,9.65,0,0,1,1.78,1.18h0c1.4.91,1.2,2.33,1.17,3.69s0,2.73,0,4.09c-.56-.26-1.12-.5-1.67-.77a2.49,2.49,0,0,1-1.22-2.33c-.19-.21-.08-.57-.39-.71a2,2,0,0,1-1.35-1,4.12,4.12,0,0,0-1.35-1.34,2.4,2.4,0,0,1-.64-.55,1.58,1.58,0,0,1-.15-.24,11.68,11.68,0,0,0-5.9-2.73c-.25,0-.5-.09-.75-.16a12.81,12.81,0,0,0-9.08,2.81l-.21.19a7.65,7.65,0,0,0-1.93,2,2.34,2.34,0,0,1-1.44,1c-.38.26,0,.52,0,.78a24.32,24.32,0,0,1-1.31,4.39,6.21,6.21,0,0,1-2.06.11A1.14,1.14,0,0,1,23.7,45.69Z"/><path class="cls-20" d="M46.39,34.52a24.35,24.35,0,0,0-16,.73,1.84,1.84,0,0,1-.47.07A7.87,7.87,0,0,1,33.36,34a24.49,24.49,0,0,1,12.69.16,1.54,1.54,0,0,1,.34.17C46.52,34.39,46.52,34.46,46.39,34.52Z"/><path class="cls-21" d="M45.67,30.25A31.54,31.54,0,0,1,49.6,32c.27.16.73.19.65.7a29.88,29.88,0,0,0-4.84-2.32Z"/><path class="cls-21" d="M30,35.31l-4.13,2.44A8.32,8.32,0,0,1,30,35.31Z"/><path class="cls-22" d="M24.17,36.35a6.09,6.09,0,0,1,1.89-1.9Z"/><path class="cls-22" d="M46.39,34.52v-.2a5.21,5.21,0,0,1,2.55,1C48,35.23,47.28,34.67,46.39,34.52Z"/><path class="cls-23" d="M52.66,37.47a5.59,5.59,0,0,1-1.78-1.18A2.68,2.68,0,0,1,52.66,37.47Z"/><path class="cls-23" d="M50.9,36.3a6,6,0,0,1-2-1A3.07,3.07,0,0,1,50.9,36.3Z"/><path class="cls-23" d="M29.08,32.17l1.46-.8A1.69,1.69,0,0,1,29.08,32.17Z"/><path class="cls-23" d="M27.68,33.24a2,2,0,0,1-1.1.82A1.86,1.86,0,0,1,27.68,33.24Z"/><path class="cls-1" d="M39.25,1.25h26c.35,0,1-.2,1,.24,0,.64-.65.32-1,.32q-26.08,0-52.18,0c-.35,0-1,.2-1-.24,0-.64.66-.32,1-.32Q26.17,1.24,39.25,1.25Z"/><path class="cls-1" d="M72.51,1.25h4.87c.23,0,.6-.13.63.24s-.39.33-.64.33q-5,0-9.94,0c-.23,0-.6.12-.63-.24s.39-.33.64-.33C69.13,1.24,70.82,1.25,72.51,1.25Z"/><path class="cls-1" d="M6,1.25h4.87c.24,0,.61-.13.64.24s-.4.33-.64.33c-3.31,0-6.63,0-9.94,0C.7,1.83.32,2,.3,1.59s.39-.33.64-.33C2.63,1.24,4.32,1.25,6,1.25Z"/><path class="cls-8" d="M33.91.31c3.5-.08,7-.08,10.49,0,.38.58,0,.56-.42.56H34.33C33.94.87,33.53.89,33.91.31Z"/><path class="cls-1" d="M45.26.7H65.74V.8H45.24Z"/><path class="cls-1" d="M33.06.82H12.58V.73H33.06Z"/><path class="cls-1" d="M12.58,2.27H32.87v.09H12.58Z"/><path class="cls-1" d="M45.44,2.27H65.73v.09H45.43Z"/><path class="cls-1" d="M43.05,2.46H33.72V2.29H44.61v.09Z"/><path class="cls-1" d="M1.44.7H11.73V.8H1.42Z"/><path class="cls-1" d="M66.56.7H76.88V.8H66.56Z"/><path class="cls-1" d="M11.75,2.39H1.44v-.1h10.3Z"/><path class="cls-1" d="M66.58,2.27H76.89v.1H66.55Z"/><path class="cls-1" d="M12,94.26l31.28,0H65.83c.22,0,.5,0,.46.33s-.27.23-.46.24a4,4,0,0,1-.49,0H12.56l-.59,0A.36.36,0,0,1,12,94.26Z"/><path class="cls-1" d="M72.41,94.83c-1.65,0-3.31,0-5,0-.25,0-.68.16-.65-.32s.4-.25.63-.25q5,0,9.93,0c.25,0,.68-.15.65.32s-.4.25-.63.25Z"/><path class="cls-1" d="M11.56,94.82c-3.51,0-7,0-10.53,0-.26,0-.77.2-.73-.33s.48-.24.73-.24c3.51,0,7,0,10.53,0A.36.36,0,0,1,11.56,94.82Z"/><path class="cls-1" d="M12.37,95.23H33.12c-.28.3-.57.18-.81.18q-9.51,0-19,0c-.31,0-.66.13-.91-.18Z"/><path class="cls-1" d="M45.26,95.26H65.74v.1H45.24Z"/><path class="cls-1" d="M65.73,93.81H45.44v-.09H65.73Z"/><path class="cls-1" d="M12.37,93.84c.19-.27.47-.18.72-.18H32.51a.43.43,0,0,1,.37.18Z"/><path class="cls-1" d="M35.26,93.62h9.33v.17H33.7V93.7Z"/><path class="cls-1" d="M66.58,95.26H76.89v.1H66.56Z"/><path class="cls-1" d="M66.57,93.69H76.88v.1H66.57Z"/><path class="cls-1" d="M11.77,93.87H1.4v-.21c2.52,0,5.05,0,7.57,0a8,8,0,0,1,3,.16s0,.08-.09.07S11.77,93.89,11.77,93.87Z"/><path class="cls-1" d="M11.93,95.25c-.16.23-.41.16-.62.16q-4.77,0-9.55,0a.42.42,0,0,1-.37-.21H11.77C11.85,95.15,11.9,95.16,11.93,95.25Z"/><path class="cls-24" d="M11.93,95.25l-.16,0-.21-.38v-.56l.21-.39.16,0h.44l-.4.42v.55l.4.42h0Z"/><path class="cls-25" d="M54.58,46.24v.86a1.56,1.56,0,0,0,0,1.88v.86a1.19,1.19,0,0,1-1.37.07c-.68-.4-.92-.13-1,.54-.07.4-.18.83-.68.94l-.18-.21a.38.38,0,0,1-.33-.3,11,11,0,0,0,0-5.68.39.39,0,0,1,.34-.3l.18-.21c.5.11.61.54.68.94.11.67.35.94,1,.54A1.19,1.19,0,0,1,54.58,46.24Z"/><path class="cls-26" d="M51.32,44.9l-.41.18a.31.31,0,0,1-.26.09c-.66-.34-.51-1.18-1-1.63a.85.85,0,0,1-.22-.5,4.69,4.69,0,0,0-1.08-1.95,8.23,8.23,0,0,0-1.2-1.36c-.26-.28-.59-.53-.49-1s.34-.52.71-.35l.47.43a10.1,10.1,0,0,1,2.21,2.62v.13A23.77,23.77,0,0,1,51.32,44.9Z"/><path class="cls-26" d="M50.91,51l.41.18a22.74,22.74,0,0,1-1.25,3.31v.14A24.12,24.12,0,0,1,48,57.35l-.38.08c-.11.15-.22.32-.44.32a.58.58,0,0,1-.47-.49c0-.64.54-.91.89-1.31a5.72,5.72,0,0,0,.81-1,5.18,5.18,0,0,0,1.09-1.92,2.1,2.1,0,0,1,.24-.5c.43-.49.3-1.3,1-1.66A.31.31,0,0,1,50.91,51Z"/><path class="cls-27" d="M55,54.31V49.26c0-.35,0-.65.5-.65s.52.29.52.65c0,1.26,0,2.53,0,3.79C56,53.7,55.55,54,55,54.31Z"/><path class="cls-27" d="M55,41.61a1.83,1.83,0,0,1,1,1.68c0,1.13,0,2.27,0,3.4,0,.34.09.75-.47.77s-.54-.33-.54-.7Z"/><path class="cls-27" d="M51.5,51.39a4.27,4.27,0,0,0,.39-1.48c.1-.65.8-1,1.2-.57s1,.41,1.49.5A5.15,5.15,0,0,1,51.5,51.39Z"/><path class="cls-27" d="M54.58,46.24c-.52.09-1,0-1.49.5s-1.1.08-1.2-.57a4.27,4.27,0,0,0-.39-1.48A5.15,5.15,0,0,1,54.58,46.24Z"/><path class="cls-1" d="M54.56,56.83c-.61.14-.33-.36-.33-.55,0-1.88,0-3.77,0-5.65.5-.24.36.18.36.38C54.6,53,54.58,54.89,54.56,56.83Z"/><path class="cls-1" d="M54.24,45.46c0-1.89,0-3.78,0-5.66,0-.19-.28-.68.33-.55,0,1.94,0,3.88,0,5.82C54.6,45.27,54.74,45.69,54.24,45.46Z"/><path class="cls-27" d="M54.58,49c-.83.07-.54-.57-.54-.94s-.29-1,.54-.94Z"/><path class="cls-28" d="M54.58,38.82c-.53-.7-.53-1.84,0-2.12Z"/><path class="cls-28" d="M54.58,59.38l-.27,0c-.09-.74-.38-1.51.27-2.16Z"/><path class="cls-21" d="M50.92,53.94c.06.38.59.78-.05,1.13-.28-.18-.84,0-.78-.58h0C50.43,54.43,50.46,53.86,50.92,53.94Z"/><path class="cls-21" d="M50.87,41c.65.36.08.76,0,1.14-.45.06-.48-.5-.84-.57h0C50,41,50.59,41.19,50.87,41Z"/><path class="cls-27" d="M56,47.88v.32c-.31,0-.63.15-.95-.15C55.3,47.72,55.64,47.83,56,47.88Z"/><path class="cls-29" d="M56,41.73a1,1,0,0,1-.79-.85Z"/><path class="cls-29" d="M56,54.05a2.24,2.24,0,0,1-.93,1.1C55.21,54.73,55.51,54.47,56,54.05Z"/><path class="cls-1" d="M38.38,66.3c0-1.45.08-1.57,1.06-1.42.2,0,.45,0,.45.26a12.93,12.93,0,0,1,0,2.41c-.08.48-.65.21-1,.25a.38.38,0,0,1-.48-.44Z"/><path class="cls-1" d="M38.37,29.82a8.61,8.61,0,0,0,0-.88c-.06-.59.25-.68.75-.68s.89.07.82.72c0,.38,0,.77,0,1.16s.17,1.08-.75,1.09-.81-.56-.82-1.12Z"/><path class="cls-28" d="M23.09,48.8a18.56,18.56,0,0,1-2.79,0c-.64,0-.49-.47-.51-.83s-.05-.77.51-.73a20,20,0,0,1,2.79,0A1,1,0,0,1,23.09,48.8Z"/><path class="cls-7" d="M23.09,48.8V47.28c.09-.51-.11-1.07.25-1.54l.36-.05c.45.08.62.32.42.76.22.49-.11.95-.09,1.43a.45.45,0,0,0,0,.34c-.09.48.34.93.08,1.41.2.44,0,.68-.42.76l-.36,0C23,49.87,23.18,49.31,23.09,48.8Z"/><path class="cls-30" d="M56.38,45.3V43.64c0-.17,0-.36.24-.35s.22.11.3.21a2.62,2.62,0,0,1,.44,1.83c0,.52,0,1,0,1.57,0,.34-.12.56-.5.55s-.48-.26-.48-.59c0-.52,0-1,0-1.56Z"/><path class="cls-30" d="M56.38,52.74c0-1.2,0-2.37,0-3.54,0-.27,0-.54.38-.56s.54,0,.54.27c0,1.19.3,2.41-.32,3.53A.55.55,0,0,1,56.38,52.74Z"/><path class="cls-1" d="M57,48.3c-.25-.08-.62.12-.62-.28s.33-.23.52-.21.59-.14.59.25S57.17,48.21,57,48.3Z"/><path class="cls-1" d="M39.09,93.24c-.18,0-.53.13-.55-.27s.38-.32.63-.35.69,0,.67.34S39.42,93.26,39.09,93.24Z"/><path class="cls-1" d="M39.08,3.45c-.19,0-.53.09-.54-.3s.4-.29.64-.31.68,0,.65.32S39.41,3.47,39.08,3.45Z"/><path class="cls-31" d="M26.41,46.44A10.78,10.78,0,0,1,27.3,43c.11-.3.33-.55,0-.85.22-.33.38-.75.91-.6a.59.59,0,0,1,.14.27,4.11,4.11,0,0,1-.56,1.63,6.72,6.72,0,0,0-.5,2,8.73,8.73,0,0,0,.09,5.35A5.17,5.17,0,0,0,28,53.08a2.46,2.46,0,0,1,.35,1.19.51.51,0,0,1-.14.26c-.53.15-.69-.27-.91-.6.31-.29.09-.55,0-.85a11,11,0,0,1-.89-3.43c-.15-.17-.37-.28-.43-.52A3.85,3.85,0,0,1,26,47C26,46.71,26.26,46.6,26.41,46.44Z"/><path class="cls-32" d="M40.33,60.77a9.16,9.16,0,0,1-4.64-.35,11.12,11.12,0,0,1-5-2.77.39.39,0,0,1,.26-.17.65.65,0,0,1,.31,0A14.94,14.94,0,0,0,36.64,60c1.14.23,2.31.14,3.45.36A.51.51,0,0,1,40.33,60.77Z"/><path class="cls-32" d="M40.33,60.77l-.2-.17c.15-.35.49-.4.8-.45A12.87,12.87,0,0,0,47,57.48c.21.16.39-.06.58,0a.41.41,0,0,1-.19.51A11.55,11.55,0,0,1,40.33,60.77Z"/><path class="cls-10" d="M26.24,49.21l.17.44-2.29,0c-.32-.18-.59-.39-.37-.82s-.06-.43-.22-.6a1.1,1.1,0,0,1,1.67.19C25.5,48.76,26,48.88,26.24,49.21Z"/><path class="cls-33" d="M31,57.61l-.31,0a6,6,0,0,1-1.78-1.86,1.33,1.33,0,0,0-1.45-.72c-.06-.59.43-.43.73-.52l0-.25s.08,0,.09,0A10.22,10.22,0,0,1,31,57.61Z"/><path class="cls-11" d="M50.09,54.49c.11.4.6.28.78.58a1.28,1.28,0,0,0-1.44.69A4.69,4.69,0,0,1,48,57.35,19.2,19.2,0,0,1,50.09,54.49Z"/><path class="cls-21" d="M28.17,54.55c-.12.36-.59.2-.73.52-.67-.31-.35-.73-.12-1.14C27.81,53.85,27.9,54.32,28.17,54.55Z"/><path class="cls-26" d="M47.38,38.4a.73.73,0,0,0-.49.43c-.41.35-.71,0-1-.18a4.93,4.93,0,0,0-1.7-.88,2.34,2.34,0,0,1-.56-.25,8.64,8.64,0,0,0-5-1,7,7,0,0,0-3.84,1,1.59,1.59,0,0,1-.51.24,3.63,3.63,0,0,0-1.85,1,1.34,1.34,0,0,1-.23.16,1.39,1.39,0,0,1-.67.13.84.84,0,0,1-.62-.52.29.29,0,0,1,.08-.25v0a12.81,12.81,0,0,1,16.45,0Z"/><path class="cls-32" d="M40.14,35.48a12.52,12.52,0,0,0-8.85,2.74c-.08.06-.24,0-.36,0a11.64,11.64,0,0,1,6.13-2.95,13.75,13.75,0,0,1,3.45-.14C40.57,35.51,40.25,35.35,40.14,35.48Z"/><path class="cls-10" d="M26.41,46.44l-.17.43c-.76.37-1.19,1.4-2.27,1.17a1.07,1.07,0,0,1-.44-.17c.32-.14.17-.51.35-.72-.72-.51.2-.46.24-.7Z"/><path class="cls-32" d="M40.14,35.48l.37-.31a13.75,13.75,0,0,1,6.37,2.57c.2.15.47.24.5.55-.27.09-.41-.12-.58-.25A12.56,12.56,0,0,0,40.14,35.48Z"/><path class="cls-33" d="M30.94,38.24l.28.26c-.76,1.18-1.87,2.06-2.66,3.22a.3.3,0,0,1-.36.06l0-.25c-.3-.09-.79.07-.73-.52a1.35,1.35,0,0,0,1.46-.73A6,6,0,0,1,30.94,38.24Z"/><path class="cls-11" d="M50.87,41c-.18.3-.67.18-.78.58l-2.24-2.76c.83.15,1.14.9,1.56,1.46S50.19,41.15,50.87,41Z"/><path class="cls-21" d="M27.44,41c.14.32.62.16.73.52-.27.23-.36.69-.85.62C27.08,41.74,26.77,41.33,27.44,41Z"/><path class="cls-34" d="M50.91,51l-.17,0c-.39-.24-.29-.59-.24-.95a13.28,13.28,0,0,0,0-4c0-.36-.15-.71.24-.95l.17,0C52,46,52,50.06,50.91,51Z"/><path class="cls-27" d="M53.63,48c0,.43.15.91-.6.81-.54-.08-1,0-1-.8s.53-.75,1.07-.81C53.92,47.15,53.51,47.76,53.63,48Z"/><path class="cls-1" d="M49.73,43l.07.32a1.85,1.85,0,0,1,.38,2,.72.72,0,0,1-.16.25,4,4,0,0,0-1,1.26.79.79,0,0,1-.6.54c-3.09.06-6.17,0-9.25,0H28.77c-1.36,0-1.58-.28-1.34-1.64.14-.76.48-1.48.57-2.26a1.77,1.77,0,0,1,.3-.69,1.62,1.62,0,0,1,1.07-.67c6.52,0,13-.06,19.56,0A1.12,1.12,0,0,1,49.73,43Z"/><path class="cls-35" d="M48.73,47.05a2.41,2.41,0,0,1,1.17-1.77c.47.45-.28.85,0,1.29.25-.42.42-.84,0-1.28.52-.68.09-1.31-.1-2,.75.36.48,1.26.94,1.77a18.13,18.13,0,0,1,0,5.88c-.41.58-.34,1.38-.88,1.9-.43-.66,0-1.33,0-2,.48-.3.35-.78.33-1.22,0-.15-.13-.22-.28-.18s-.12.19-.07.32c.11.34.49.67,0,1-1-.27-1.34-.74-1.3-1.83.31-.71,1.14-.29,1.56-.74a.28.28,0,0,0,0-.46,1.83,1.83,0,0,0-.91-.28C48.93,47.48,48.65,47.42,48.73,47.05Z"/><path class="cls-36" d="M44,37.32c1.14.18,1.87,1.13,2.91,1.51.4.84,1.33,1.26,1.71,2.11l-.1.11c-.47.08-.69-.3-1-.55a20.85,20.85,0,0,0-2.81-2.23C44.35,38.06,44,37.83,44,37.32Z"/><path class="cls-36" d="M49.73,43c-.34-.11-.29-.53-.57-.68a3,3,0,0,1-.43-.3c-.12-.31-.47-.56-.27-1l.14-.12A3.79,3.79,0,0,1,49.73,43Z"/><path class="cls-1" d="M49.9,50.79c.63.71-.08,1.39,0,2.09l-.13.19c-.15.41-.32.79-.79.9-4.07.09-8.15,0-12.22,0-2.44,0-4.88,0-7.32,0a1.62,1.62,0,0,1-1.08-.67,1.56,1.56,0,0,1-.31-.68c-.1-.88-.51-1.68-.62-2.56-.13-1.08.07-1.36,1.18-1.36H47.46c.44,0,.92-.11,1.27.3A2.41,2.41,0,0,0,49.9,50.8Z"/><path class="cls-26" d="M47,57.48c.19.5-.26.6-.51.79a12.38,12.38,0,0,1-6.35,2.33,12.5,12.5,0,0,1-8.19-2.25c-.28-.2-.76-.31-.64-.84-.09-.21,0-.32.2-.41a1.13,1.13,0,0,1,.65.11,1.07,1.07,0,0,1,.22.15,4.21,4.21,0,0,0,1.82,1,1.64,1.64,0,0,1,.52.24,7.7,7.7,0,0,0,3.87.94,9,9,0,0,0,5.07-1,2.11,2.11,0,0,1,.55-.25,5.46,5.46,0,0,0,1.68-.9c.3-.21.6-.53,1-.18Z"/><path class="cls-36" d="M46.89,57.25c-1,.38-1.71,1.21-2.73,1.51a.64.64,0,0,1,.38-.8A27.5,27.5,0,0,0,48,55.15a.65.65,0,0,1,.35-.15.3.3,0,0,1,.24.14C48.22,56,47.29,56.41,46.89,57.25Z"/><path class="cls-36" d="M49.16,53.75c.28-.15.23-.57.57-.68a3.79,3.79,0,0,1-1.13,2.07L48.46,55c-.2-.41.15-.66.27-1A3,3,0,0,1,49.16,53.75Z"/><path class="cls-1" d="M23.53,47.87c.55-.22,1.59.49,1.56-.89,0-.22.75-.06,1.15-.11v2.34c-.55,0-1.17.26-1.32-.74-.08-.48-.92-.14-1.39-.26Z"/><path class="cls-37" d="M28.48,43l-.08.27a13.93,13.93,0,0,1-.68,1.87.44.44,0,0,1-.51.15c-.43-.52-.05-1,.11-1.45.25-.69.58-1.35.88-2a16.6,16.6,0,0,1,2.15-2.72,1.51,1.51,0,0,1,.87-.56c.07.11.14.22.2.33.39.41-.05.62-.23.86A8.58,8.58,0,0,0,30,41a.83.83,0,0,1-.16.21C29.4,41.79,28.93,42.37,28.48,43Z"/><path class="cls-37" d="M31.42,57.25l-.12.26-.32.1A15.47,15.47,0,0,1,28.2,54.3c-.35-.82-.71-1.63-1-2.46-.11-.3-.37-.69.21-.84a.26.26,0,0,1,.26-.08c.47.53.45,1.27.78,1.86l.07.34c.44.6.93,1.15,1.39,1.72a.87.87,0,0,1,.17.21,8.07,8.07,0,0,0,1.17,1.37C31.39,56.65,31.81,56.86,31.42,57.25Z"/><path class="cls-34" d="M27.57,51l-.2,0a1,1,0,0,1-.6-.81,13.53,13.53,0,0,1,0-4.26c0-.28.09-.59.45-.68l.36-.15c.05,0,.13.1.12.14-.35,1.29.18,2.61-.17,3.89C27.34,49.77,28,50.35,27.57,51Z"/><path class="cls-1" d="M48.46,41.06,49,42a.78.78,0,0,1-.63.19c-6.25,0-12.5.05-18.74,0-.72-.51.11-.77.19-1.15v0a16,16,0,0,1,2.36-2.36h0a9.68,9.68,0,0,1,2-1.19l.33-.08a8.59,8.59,0,0,1,4.15-1,12.29,12.29,0,0,1,5.36.92l0,0L46,38.72A14.11,14.11,0,0,1,48.46,41.06Z"/><path class="cls-36" d="M44,37.28c-.42.14-.76-.11-1.11-.23a12.45,12.45,0,0,0-4.28-.59c-.14-.06-.14-.13,0-.2A9.15,9.15,0,0,1,44,37.28Z"/><path class="cls-36" d="M38.55,36.26l0,.2a14.57,14.57,0,0,0-4.12.92c.78-.91,1.94-.81,2.95-1.08A4.89,4.89,0,0,1,38.55,36.26Z"/><path class="cls-33" d="M32.12,38.64,29.76,41c.25-1,1.3-1.29,1.66-2.17Z"/><path class="cls-38" d="M34.12,37.46a6.93,6.93,0,0,1-2,1.19A3.09,3.09,0,0,1,34.12,37.46Z"/><path class="cls-39" d="M27.57,51a18.7,18.7,0,0,1,0-5.88c.41-.56.34-1.34.83-1.87-.22.94-.4,1.9-.68,2.82s.06,1,.87,1c3.52,0,7,0,10.56,0a.76.76,0,0,1,.45.41,1.44,1.44,0,0,1,0,1.08.76.76,0,0,1-.45.41c-3.51,0-7,0-10.51,0-.88,0-1.18.18-.91,1.07s.46,1.81.68,2.71C27.86,52.3,28,51.51,27.57,51Z"/><path class="cls-40" d="M34.36,46.24c-1.69,0-3.38,0-5.07,0-.69,0-.84-.21-.68-.86C29.23,43,29.22,43,31.68,43s5.15,0,7.72,0c.66,0,.9.2.91.89,0,2.39,0,2.38-2.34,2.38Z"/><path class="cls-27" d="M29.35,42H49l.21.36h-20C29.07,42.12,29,42,29.35,42Z"/><path class="cls-2" d="M39.35,47.46l-.2-.37,9.58,0c.56.52,1.39-.14,1.94.44a1.33,1.33,0,0,1-1.07.37c-3.06,0-6.13,0-9.19,0A1.28,1.28,0,0,1,39.35,47.46Z"/><path class="cls-41" d="M48.51,43.91c-.57,0-1.16.13-1.12-.71s.6-.56,1-.62a.87.87,0,0,1,1.1,1C49.48,44.21,48.8,43.75,48.51,43.91Z"/><path class="cls-42" d="M29.35,42l-.21.35c-.3.13-.2.67-.66.64a4.47,4.47,0,0,1,1.29-2C29.85,41.41,29.36,41.59,29.35,42Z"/><path class="cls-1" d="M39.35,47.46l11.32,0v1.1a7.73,7.73,0,0,1-2.49.2c-2.66.08-5.33,0-8,0a1.08,1.08,0,0,1-.83-.2Z"/><path class="cls-2" d="M39.35,48.62l11.32,0c-.55.59-1.38-.08-1.94.44l-9.58,0Z"/><path class="cls-12" d="M49.9,45.29c.42-.13.61.05.59.46s.45.92,0,1.25a1.19,1.19,0,0,1-1.13,0c-.33-.17-.18-.48,0-.75s.62-.5.59-1Z"/><path class="cls-12" d="M49.9,50.8c.05-.35-.23-.52-.4-.74s-.57-.6-.25-.92.75-.18,1.12-.09.32.53.2.79.22,1.12-.67.95Z"/><path class="cls-40" d="M34.29,49.84c1.69,0,3.39,0,5.08,0,.73,0,.94.25.94,1,0,2.32,0,2.32-2.31,2.32-2.5,0-5,0-7.51,0a1.25,1.25,0,0,1-1.4-1c-.84-2.31-.87-2.29,1.49-2.29Z"/><path class="cls-27" d="M49.16,53.75l-.21.36a7.71,7.71,0,0,1-3.33.4c-4.61.12-9.21-.19-13.82-.12a5,5,0,0,1-2.31,0c-.23-.12-.46-.25-.35-.58Z"/><path class="cls-41" d="M48.65,52.15c.28.18.94-.3.89.45s-.47,1-1.19.91c-.49,0-1,.05-1-.71C47.44,51.85,48.16,52.29,48.65,52.15Z"/><path class="cls-42" d="M29.14,53.76l.21.35c.29.27.77.45.42,1a4.52,4.52,0,0,1-1.29-2C28.94,53.09,28.84,53.63,29.14,53.76Z"/><path class="cls-1" d="M29.77,55.1c.08-.43-.41-.6-.42-1H49l-.49.91a13,13,0,0,1-4,3.32.53.53,0,0,0-.33.42l-.26,0a11.49,11.49,0,0,1-5.3.92,12.41,12.41,0,0,1-4.25-.92l-.17-.18a7.74,7.74,0,0,1-2.07-1.19h0a16,16,0,0,1-2.36-2.36Z"/><path class="cls-36" d="M38.57,59.62a17.55,17.55,0,0,0,5.33-.82,8.73,8.73,0,0,1-5.35,1C38.43,59.75,38.43,59.68,38.57,59.62Z"/><path class="cls-36" d="M38.57,59.62l0,.2a7.73,7.73,0,0,1-4.2-1c.86,0,1.58.49,2.41.58Z"/><path class="cls-33" d="M29.76,55.08l2.36,2.36-.7-.19C31.06,56.37,30,56,29.76,55.08Z"/><path class="cls-38" d="M32.11,57.43a8.9,8.9,0,0,1,2.07,1.19A3,3,0,0,1,32.11,57.43Z"/><path class="cls-30" d="M31.32,40.69a.89.89,0,0,1,.49-.48c.74-.42,1.32-1.07,2.07-1.47a2.44,2.44,0,0,1,1.65-.49c.94,0,1.88,0,2.83,0,.51,0,.75.2.8.74.19,2.13.14,2.2-2,2.2-1.7,0-3.39,0-5.08,0C31.8,41.17,31.23,41.41,31.32,40.69Z"/><path class="cls-43" d="M31.32,40.69a1,1,0,0,0,.88.3c2,0,3.95,0,5.93,0,.64,0,.89-.23.83-.85,0-.36,0-.72,0-1.07s-.12-.63-.55-.63c-1.2,0-2.4,0-3.6,0-.44,0-.75.37-1.13.54a.17.17,0,0,1,0-.29,2.48,2.48,0,0,1,2-.64c.48,0,1,0,1.46,0,2.28,0,2.67.5,2.22,2.77-.09.44-.35.49-.7.49H31.51c-.2,0-.51.1-.54-.24S31.15,40.79,31.32,40.69Z"/><path class="cls-44" d="M47.74,41.74c-.57,0-.77-.2-.74-.69,0-.3,0-.66.46-.56a1.19,1.19,0,0,1,.86.95C48.4,41.87,47.92,41.69,47.74,41.74Z"/><path class="cls-45" d="M33.67,38.72V39c-.67.31-1.05,1.09-1.86,1.2A7.26,7.26,0,0,1,33.67,38.72Z"/><path class="cls-1" d="M28.75,48c0-.28,0-.58.4-.6s.47.31.46.64,0,.58-.4.6S28.74,48.35,28.75,48Z"/><path class="cls-1" d="M27.63,48c0-.18-.15-.55.33-.59s.45.27.43.57.13.63-.34.67S27.61,48.4,27.63,48Z"/><path class="cls-1" d="M30,48c0-.27-.07-.6.39-.61s.42.37.43.68,0,.58-.44.56S30,48.3,30,48Z"/><path class="cls-17" d="M38.16,48c0-.29,0-.6.41-.6s.45.36.45.68,0,.59-.42.6S38.19,48.31,38.16,48Z"/><path class="cls-1" d="M37,47.9c0-.12-.11-.5.42-.48s.38.35.38.63,0,.6-.39.61S37,48.38,37,47.9Z"/><path class="cls-1" d="M32.32,48c0-.42,0-.65.46-.61s.34.39.35.66,0,.6-.43.58S32.36,48.23,32.32,48Z"/><path class="cls-1" d="M35.83,48c0-.27-.08-.6.38-.62s.45.27.44.57.08.68-.44.67S35.85,48.31,35.83,48Z"/><path class="cls-1" d="M34.67,48c0-.42,0-.65.46-.61s.33.39.35.66,0,.6-.43.58S34.71,48.23,34.67,48Z"/><path class="cls-1" d="M34.3,48c0,.43-.08.66-.48.62s-.29-.48-.33-.76.06-.5.42-.48C34.43,47.45,34.26,47.84,34.3,48Z"/><path class="cls-1" d="M31.14,48c0-.28-.07-.61.39-.61s.41.38.43.68,0,.58-.45.56S31.17,48.29,31.14,48Z"/><path class="cls-30" d="M34.37,45.88c-1.53,0-3.07,0-4.59,0-.9,0-1-.3-.7-1,.12-.3.24-.61.33-.92a.8.8,0,0,1,.93-.64h8.79c.57,0,.86.17.81.78a5.24,5.24,0,0,0,0,1c.05.59-.2.81-.79.8C37.56,45.86,36,45.88,34.37,45.88Z"/><path class="cls-27" d="M48.41,43c.27,0,.66-.08.7.32s-.37.24-.57.25-.66.15-.7-.26S48.19,43,48.41,43Z"/><path class="cls-30" d="M34.35,50.2c1.56,0,3.12,0,4.69,0,.66,0,1,.18.9.88a6.4,6.4,0,0,0,0,1c0,.5-.19.69-.69.69-3,0-6,0-9,0-.92,0-.86-.75-1.06-1.27-.47-1.26-.44-1.27.85-1.27Z"/><path class="cls-27" d="M48.41,53.13c-.23-.05-.61.06-.57-.31s.45-.27.71-.26.6-.19.56.25S48.68,53.09,48.41,53.13Z"/><path class="cls-30" d="M31.81,55.88a.94.94,0,0,1-.49-.49c-.14-.47.2-.48.49-.48,2.21,0,4.42,0,6.63,0a.68.68,0,0,1,.2,0c.72.16.54.75.49,1.19s.43,1.52-.48,1.65a14.81,14.81,0,0,1-4,0,1.59,1.59,0,0,1-.77-.4C33.13,56.94,32.55,56.29,31.81,55.88Z"/><path class="cls-43" d="M33.67,57.07c1.55,1,3.28.41,4.92.52.28,0,.35-.25.36-.49V55.64c0-.43-.25-.55-.63-.55H31.9a.74.74,0,0,0-.58.3c-.17-.1-.37-.21-.36-.43s.27-.23.45-.23h7.31c.4,0,.6.18.59.59,0,.1,0,.2,0,.29C39.38,58,39.38,58,37,58c-1.14,0-2.36.33-3.33-.62A.17.17,0,0,1,33.67,57.07Z"/><path class="cls-44" d="M47.79,54.34c.16,0,.59-.1.54.24a1.2,1.2,0,0,1-.91,1c-.39.08-.4-.31-.42-.61C47,54.48,47.24,54.29,47.79,54.34Z"/><path class="cls-45" d="M33.67,57.07v.29a7.45,7.45,0,0,1-1.86-1.48C32.62,56,33,56.76,33.67,57.07Z"/></g></g></svg>